<?xml version="1.0" encoding="UTF-8" standalone="no"?>
<!-- Created with Inkscape (http://www.inkscape.org/) -->

<svg
   xmlns:dc="http://purl.org/dc/elements/1.1/"
   xmlns:cc="http://creativecommons.org/ns#"
   xmlns:rdf="http://www.w3.org/1999/02/22-rdf-syntax-ns#"
   xmlns:svg="http://www.w3.org/2000/svg"
   xmlns="http://www.w3.org/2000/svg"
   xmlns:sodipodi="http://sodipodi.sourceforge.net/DTD/sodipodi-0.dtd"
   xmlns:inkscape="http://www.inkscape.org/namespaces/inkscape"
   version="1.1"
   width="29.700199cm"
   height="21.0007cm"
   viewBox="0 0 116930 82680"
   id="svg5704"
   inkscape:version="0.48.4 r9939"
   sodipodi:docname="control.svg">
  <sodipodi:namedview
     pagecolor="#ffffff"
     bordercolor="#666666"
     borderopacity="1"
     objecttolerance="10"
     gridtolerance="10"
     guidetolerance="10"
     inkscape:pageopacity="0"
     inkscape:pageshadow="2"
     inkscape:window-width="1278"
     inkscape:window-height="779"
     id="namedview8698"
     showgrid="false"
     inkscape:zoom="0.89704545"
     inkscape:cx="337.13421"
     inkscape:cy="378.62705"
     inkscape:window-x="0"
     inkscape:window-y="19"
     inkscape:window-maximized="0"
     inkscape:current-layer="svg5704" />
  <title
     id="title5706">SVG Picture created as control-F_SilkS.svg date 2015/05/02 13:08:26 </title>
  <desc
     id="desc5708">Picture generated by PCBNEW </desc>
  <metadata
     id="metadata5960">
    <rdf:RDF>
      <cc:Work
         rdf:about="">
        <dc:format>image/svg+xml</dc:format>
        <dc:type
           rdf:resource="http://purl.org/dc/dcmitype/StillImage" />
        <dc:title>SVG Picture created as control-F_SilkS.svg date 2015/05/02 13:08:26 </dc:title>
      </cc:Work>
    </rdf:RDF>
  </metadata>
  <defs
     id="defs5958" />
  <g
     id="g5710"
     style="fill:#000000;fill-opacity:1;stroke:#000000;stroke-linecap:round;stroke-linejoin:round;stroke-opacity:1" />
  <g
     id="g5712"
     style="fill:#000000;fill-opacity:0;stroke:#000000;stroke-width:118.11000061;stroke-linecap:round;stroke-linejoin:round;stroke-opacity:1" />
  <g
     id="g5890"
     style="fill:#000000;fill-opacity:0;stroke:#000000;stroke-width:59.05509949;stroke-linecap:round;stroke-linejoin:round;stroke-opacity:1" />
  <g
     id="g9229"
     transform="translate(-1751.6949,23472.712)">
    <g
       transform="translate(-2601.1342,-16597.714)"
       style="fill:#000000;fill-opacity:0;stroke:#000000;stroke-width:39.37009811;stroke-linecap:round;stroke-linejoin:round;stroke-opacity:1"
       id="g5878">
      <path
         inkscape:connector-curvature="0"
         id="path5880"
         d="m 59055,55118 0,-15748" />
      <path
         inkscape:connector-curvature="0"
         id="path5882"
         d="m 19685,55118 39370,0" />
      <path
         inkscape:connector-curvature="0"
         id="path5884"
         d="m 19685,39370 0,15748" />
      <path
         inkscape:connector-curvature="0"
         id="path5886"
         d="m 41732,39370 17323,0" />
      <path
         inkscape:connector-curvature="0"
         id="path5888"
         d="m 19685,39370 22047,0" />
    </g>
    <path
       inkscape:connector-curvature="0"
       id="path5916"
       d="m 22496.866,25902.286 0,5157"
       style="fill:#000000;fill-opacity:0;stroke:#000000;stroke-width:59.05509949;stroke-linecap:round;stroke-linejoin:round;stroke-opacity:1" />
    <path
       inkscape:connector-curvature="0"
       id="path5918"
       d="m 22496.866,31059.286 21653,0"
       style="fill:#000000;fill-opacity:0;stroke:#000000;stroke-width:59.05509949;stroke-linecap:round;stroke-linejoin:round;stroke-opacity:1" />
    <path
       inkscape:connector-curvature="0"
       id="path5920"
       d="m 44149.866,31059.286 0,-5157"
       style="fill:#000000;fill-opacity:0;stroke:#000000;stroke-width:59.05509949;stroke-linecap:round;stroke-linejoin:round;stroke-opacity:1" />
    <path
       inkscape:connector-curvature="0"
       id="path5922"
       d="m 44149.866,25902.286 -21653,0"
       style="fill:#000000;fill-opacity:0;stroke:#000000;stroke-width:59.05509949;stroke-linecap:round;stroke-linejoin:round;stroke-opacity:1" />
    <path
       inkscape:connector-curvature="0"
       id="path5932"
       d="m 36531.866,34799.286 9292,0"
       style="fill:#000000;fill-opacity:0;stroke:#000000;stroke-width:59.05509949;stroke-linecap:round;stroke-linejoin:round;stroke-opacity:1" />
    <path
       inkscape:connector-curvature="0"
       id="path5934"
       d="m 30134.866,34799.286 -9311,0"
       style="fill:#000000;fill-opacity:0;stroke:#000000;stroke-width:59.05509949;stroke-linecap:round;stroke-linejoin:round;stroke-opacity:1" />
    <path
       inkscape:connector-curvature="0"
       id="path5936"
       d="m 30134.866,34799.286 0,591"
       style="fill:#000000;fill-opacity:0;stroke:#000000;stroke-width:59.05509949;stroke-linecap:round;stroke-linejoin:round;stroke-opacity:1" />
    <path
       inkscape:connector-curvature="0"
       id="path5938"
       d="m 30134.866,35390.286 6397,0"
       style="fill:#000000;fill-opacity:0;stroke:#000000;stroke-width:59.05509949;stroke-linecap:round;stroke-linejoin:round;stroke-opacity:1" />
    <path
       inkscape:connector-curvature="0"
       id="path5940"
       d="m 36531.866,35390.286 0,-591"
       style="fill:#000000;fill-opacity:0;stroke:#000000;stroke-width:59.05509949;stroke-linecap:round;stroke-linejoin:round;stroke-opacity:1" />
    <path
       inkscape:connector-curvature="0"
       id="path5942"
       d="m 20823.866,24524.286 0,10275"
       style="fill:#000000;fill-opacity:0;stroke:#000000;stroke-width:59.05509949;stroke-linecap:round;stroke-linejoin:round;stroke-opacity:1" />
    <path
       inkscape:connector-curvature="0"
       id="path5944"
       d="m 45823.866,34799.286 0,-10275"
       style="fill:#000000;fill-opacity:0;stroke:#000000;stroke-width:59.05509949;stroke-linecap:round;stroke-linejoin:round;stroke-opacity:1" />
    <path
       inkscape:connector-curvature="0"
       id="path5946"
       d="m 45823.866,24524.286 -25000,0"
       style="fill:#000000;fill-opacity:0;stroke:#000000;stroke-width:59.05509949;stroke-linecap:round;stroke-linejoin:round;stroke-opacity:1" />
    <path
       transform="matrix(215.28819,0,0,215.28819,-45300.999,-57383.525)"
       d="m 457.68459,399.69806 c 0,4.65275 -3.7718,8.42455 -8.42455,8.42455 -4.65275,0 -8.42455,-3.7718 -8.42455,-8.42455 0,-4.65275 3.7718,-8.42455 8.42455,-8.42455 4.65275,0 8.42455,3.7718 8.42455,8.42455 z"
       sodipodi:ry="8.4245491"
       sodipodi:rx="8.4245491"
       sodipodi:cy="399.69806"
       sodipodi:cx="449.26004"
       id="path8706"
       style="fill:none;stroke:#000000;stroke-width:0.51610458;stroke-linecap:round;stroke-linejoin:round;stroke-miterlimit:4;stroke-opacity:1;stroke-dasharray:none"
       sodipodi:type="arc" />
    <circle
       sodipodi:ry="649.60602"
       sodipodi:rx="649.60602"
       sodipodi:cy="40944.898"
       sodipodi:cx="21259.801"
       style="fill:#000000;fill-opacity:0;stroke:#000000;stroke-width:78.77785492;stroke-linecap:round;stroke-linejoin:round;stroke-miterlimit:4;stroke-opacity:1;stroke-dasharray:none"
       id="circle4908"
       transform="translate(-2601.0882,-16598.198)"
       r="649.60602"
       cy="40944.898"
       cx="21259.801"
       d="m 21909.407,40944.898 c 0,358.768 -290.839,649.606 -649.606,649.606 -358.768,0 -649.606,-290.838 -649.606,-649.606 0,-358.767 290.838,-649.606 649.606,-649.606 358.767,0 649.606,290.839 649.606,649.606 z" />
    <circle
       sodipodi:ry="649.60602"
       sodipodi:rx="649.60602"
       sodipodi:cy="53543.301"
       sodipodi:cx="21259.801"
       style="fill:#000000;fill-opacity:0;stroke:#000000;stroke-width:78.74019623;stroke-linecap:round;stroke-linejoin:round;stroke-opacity:1"
       id="circle4912"
       transform="translate(-2601.0882,-16598.198)"
       r="649.60602"
       cy="53543.301"
       cx="21259.801"
       d="m 21909.407,53543.301 c 0,358.767 -290.839,649.606 -649.606,649.606 -358.768,0 -649.606,-290.839 -649.606,-649.606 0,-358.768 290.838,-649.606 649.606,-649.606 358.767,0 649.606,290.838 649.606,649.606 z" />
    <circle
       sodipodi:ry="649.60602"
       sodipodi:rx="649.60602"
       sodipodi:cy="40944.898"
       sodipodi:cx="57480.301"
       style="fill:#000000;fill-opacity:0;stroke:#000000;stroke-width:78.74019623;stroke-linecap:round;stroke-linejoin:round;stroke-opacity:1"
       id="circle4916"
       transform="translate(-2601.0882,-16598.198)"
       r="649.60602"
       cy="40944.898"
       cx="57480.301"
       d="m 58129.907,40944.898 c 0,358.768 -290.839,649.606 -649.606,649.606 -358.768,0 -649.606,-290.838 -649.606,-649.606 0,-358.767 290.838,-649.606 649.606,-649.606 358.767,0 649.606,290.839 649.606,649.606 z" />
    <circle
       sodipodi:ry="649.60602"
       sodipodi:rx="649.60602"
       sodipodi:cy="53543.301"
       sodipodi:cx="57480.301"
       style="fill:#000000;fill-opacity:0;stroke:#000000;stroke-width:78.74019623;stroke-linecap:round;stroke-linejoin:round;stroke-opacity:1"
       id="circle4920"
       transform="translate(-2601.0882,-16598.198)"
       r="649.60602"
       cy="53543.301"
       cx="57480.301"
       d="m 58129.907,53543.301 c 0,358.767 -290.839,649.606 -649.606,649.606 -358.768,0 -649.606,-290.839 -649.606,-649.606 0,-358.768 290.838,-649.606 649.606,-649.606 358.767,0 649.606,290.838 649.606,649.606 z" />
  </g>
  <g
     id="g9301">
    <rect
       ry="2264.1733"
       y="42645.512"
       x="10120.825"
       height="20129.941"
       width="64960.695"
       id="rect9254"
       style="fill:none;stroke:#000000;stroke-width:55.55561066;stroke-miterlimit:4;stroke-opacity:1;stroke-dasharray:none" />
    <path
       transform="matrix(184.07508,0,0,184.07508,-8960.0385,-30034.795)"
       d="m 117.57348,403.13876 a 3.5881681,3.5881681 0 1 1 -7.17633,0 3.5881681,3.5881681 0 1 1 7.17633,0 z"
       sodipodi:ry="3.5881681"
       sodipodi:rx="3.5881681"
       sodipodi:cy="403.13876"
       sodipodi:cx="113.98531"
       id="path9260"
       style="fill:none;stroke:#000000;stroke-width:0.30949038;stroke-miterlimit:4;stroke-opacity:1;stroke-dasharray:none"
       sodipodi:type="arc" />
    <path
       transform="matrix(184.07508,0,0,184.07508,-8960.8663,-12972.378)"
       d="m 117.57348,403.13876 a 3.5881681,3.5881681 0 1 1 -7.17633,0 3.5881681,3.5881681 0 1 1 7.17633,0 z"
       sodipodi:ry="3.5881681"
       sodipodi:rx="3.5881681"
       sodipodi:cy="403.13876"
       sodipodi:cx="113.98531"
       id="path9260-1"
       style="fill:none;stroke:#000000;stroke-width:0.30949038;stroke-miterlimit:4;stroke-opacity:1;stroke-dasharray:none"
       sodipodi:type="arc" />
    <path
       transform="matrix(184.07508,0,0,184.07508,52190.122,-30040.361)"
       d="m 117.57348,403.13876 a 3.5881681,3.5881681 0 1 1 -7.17633,0 3.5881681,3.5881681 0 1 1 7.17633,0 z"
       sodipodi:ry="3.5881681"
       sodipodi:rx="3.5881681"
       sodipodi:cy="403.13876"
       sodipodi:cx="113.98531"
       id="path9260-4"
       style="fill:none;stroke:#000000;stroke-width:0.30949038;stroke-miterlimit:4;stroke-opacity:1;stroke-dasharray:none"
       sodipodi:type="arc" />
    <path
       transform="matrix(184.07508,0,0,184.07508,52194.768,-12961.524)"
       d="m 117.57348,403.13876 a 3.5881681,3.5881681 0 1 1 -7.17633,0 3.5881681,3.5881681 0 1 1 7.17633,0 z"
       sodipodi:ry="3.5881681"
       sodipodi:rx="3.5881681"
       sodipodi:cy="403.13876"
       sodipodi:cx="113.98531"
       id="path9260-1-7"
       style="fill:none;stroke:#000000;stroke-width:0.30949038;stroke-miterlimit:4;stroke-opacity:1;stroke-dasharray:none"
       sodipodi:type="arc" />
  </g>
  <g
     id="g9332"
     transform="translate(19074.984,15854.533)">
    <rect
       y="34869.551"
       x="42045.016"
       height="3063.4497"
       width="6468.9648"
       id="rect9308"
       style="fill:none;stroke:#000000;stroke-width:125.52983856;stroke-miterlimit:4;stroke-opacity:1;stroke-dasharray:none" />
    <path
       transform="matrix(95.230613,0,0,95.230613,6144.3574,5069.6072)"
       d="m 370.24322,328.86716 c 0,3.00139 -2.43311,5.4345 -5.4345,5.4345 -3.0014,0 -5.43451,-2.43311 -5.43451,-5.4345 0,-3.0014 2.43311,-5.43451 5.43451,-5.43451 3.00139,0 5.4345,2.43311 5.4345,5.43451 z"
       sodipodi:ry="5.4345074"
       sodipodi:rx="5.4345074"
       sodipodi:cy="328.86716"
       sodipodi:cx="364.80872"
       id="path9312"
       style="fill:none;stroke:#000000;stroke-width:0.5;stroke-miterlimit:4;stroke-opacity:1;stroke-dasharray:none"
       sodipodi:type="arc" />
    <path
       transform="matrix(95.230613,0,0,95.230613,14884.913,5076.4248)"
       d="m 370.24322,328.86716 c 0,3.00139 -2.43311,5.4345 -5.4345,5.4345 -3.0014,0 -5.43451,-2.43311 -5.43451,-5.4345 0,-3.0014 2.43311,-5.43451 5.43451,-5.43451 3.00139,0 5.4345,2.43311 5.4345,5.43451 z"
       sodipodi:ry="5.4345074"
       sodipodi:rx="5.4345074"
       sodipodi:cy="328.86716"
       sodipodi:cx="364.80872"
       id="path9312-5"
       style="fill:none;stroke:#000000;stroke-width:0.5;stroke-miterlimit:4;stroke-opacity:1;stroke-dasharray:none"
       sodipodi:type="arc" />
  </g>
</svg>
