G04 #@! TF.FileFunction,Soldermask,Top*
%FSLAX46Y46*%
G04 Gerber Fmt 4.6, Leading zero omitted, Abs format (unit mm)*
G04 Created by KiCad (PCBNEW 0.201507280910+6003~25~ubuntu14.04.1-product) date Wed 07 Oct 2015 02:08:59 BST*
%MOMM*%
G01*
G04 APERTURE LIST*
%ADD10C,0.100000*%
%ADD11C,4.000000*%
%ADD12C,2.499360*%
%ADD13O,3.500120X1.699260*%
%ADD14C,2.500000*%
%ADD15R,1.220000X0.910000*%
%ADD16C,1.200000*%
%ADD17R,1.574800X1.574800*%
%ADD18C,1.574800*%
%ADD19C,3.600000*%
%ADD20C,3.000000*%
%ADD21C,6.300000*%
%ADD22C,0.600000*%
%ADD23C,3.660000*%
%ADD24C,2.000000*%
%ADD25R,2.000000X2.000000*%
%ADD26R,1.300000X0.700000*%
%ADD27R,0.700000X1.300000*%
%ADD28C,4.000000*%
%ADD29R,0.650000X2.250000*%
%ADD30R,0.750000X2.250000*%
%ADD31R,1.000000X1.250000*%
%ADD32R,1.000000X1.600000*%
%ADD33R,1.000000X2.500000*%
%ADD34C,3.300000*%
%ADD35C,3.400000*%
%ADD36R,0.600000X1.300000*%
%ADD37R,0.900000X0.600000*%
%ADD38C,0.254000*%
G04 APERTURE END LIST*
D10*
D11*
X73914000Y-93599000D02*
X73914000Y-102870000D01*
X69723000Y-89408000D02*
X73914000Y-93599000D01*
X69723000Y-63627000D02*
X69723000Y-89408000D01*
X71755000Y-61595000D02*
X69723000Y-63627000D01*
X110984000Y-61595000D02*
X71755000Y-61595000D01*
X112000000Y-60579000D02*
X110984000Y-61595000D01*
X112000000Y-55500000D02*
X112000000Y-60579000D01*
X67564000Y-96266000D02*
X67564000Y-102806500D01*
X64262000Y-92964000D02*
X67564000Y-96266000D01*
X37719000Y-92964000D02*
X64262000Y-92964000D01*
X34290000Y-92964000D02*
X33528000Y-92202000D01*
X38481000Y-92964000D02*
X34290000Y-92964000D01*
X33528000Y-60452000D02*
X33528000Y-92202000D01*
X43434000Y-50546000D02*
X33528000Y-60452000D01*
X45554000Y-50546000D02*
X43434000Y-50546000D01*
X48000000Y-48100000D02*
X45554000Y-50546000D01*
D12*
X115237000Y-85725000D03*
X120237000Y-85725000D03*
D13*
X115062000Y-76708000D03*
X115062000Y-80518000D03*
X115062000Y-72898000D03*
D14*
X88230000Y-118333000D03*
X95730000Y-118333000D03*
X88230000Y-98173000D03*
X88230000Y-93133000D03*
X95730000Y-98173000D03*
X95730000Y-93133000D03*
D15*
X95758000Y-122207000D03*
X95758000Y-125477000D03*
D16*
X54102000Y-127381000D03*
X81407000Y-120967500D03*
X46799500Y-127381000D03*
D17*
X122555000Y-115570000D03*
D18*
X125095000Y-115570000D03*
X127635000Y-115570000D03*
X127635000Y-107950000D03*
X125095000Y-107950000D03*
X122555000Y-107950000D03*
D19*
X75000000Y-40800000D03*
X35000000Y-40800000D03*
D20*
X62000000Y-48100000D03*
X55000000Y-48100000D03*
X48000000Y-48100000D03*
D21*
X35000000Y-127000000D03*
D22*
X35000000Y-124500000D03*
X37500000Y-127000000D03*
X35000000Y-129500000D03*
X32500000Y-127000000D03*
X33200000Y-125200000D03*
X36800000Y-125200000D03*
X33200000Y-128800000D03*
X36800000Y-128800000D03*
D21*
X125000000Y-127000000D03*
D22*
X125000000Y-124500000D03*
X127500000Y-127000000D03*
X125000000Y-129500000D03*
X122500000Y-127000000D03*
X123200000Y-125200000D03*
X126800000Y-125200000D03*
X123200000Y-128800000D03*
X126800000Y-128800000D03*
D23*
X88517000Y-76708000D03*
X98427000Y-76708000D03*
D24*
X76190000Y-125230000D03*
X76190000Y-127770000D03*
X78730000Y-125230000D03*
X78730000Y-127770000D03*
X81270000Y-125230000D03*
X81270000Y-127770000D03*
D25*
X83810000Y-125230000D03*
D24*
X83810000Y-127770000D03*
D26*
X122428000Y-118684000D03*
X122428000Y-120584000D03*
D27*
X115128000Y-122428000D03*
X117028000Y-122428000D03*
X67752000Y-124460000D03*
X65852000Y-124460000D03*
X97983000Y-122301000D03*
X99883000Y-122301000D03*
D28*
X59690000Y-57658000D03*
X59690000Y-65278000D03*
X59690000Y-86233000D03*
X59690000Y-78613000D03*
D14*
X45339000Y-62660000D03*
X45339000Y-85160000D03*
D29*
X75183000Y-106546000D03*
D30*
X73913000Y-106546000D03*
D29*
X72643000Y-106546000D03*
X71373000Y-106546000D03*
X70103000Y-106546000D03*
X68833000Y-106546000D03*
X67563000Y-106546000D03*
X66293000Y-106546000D03*
X66293000Y-116046000D03*
X67563000Y-116046000D03*
X68833000Y-116046000D03*
X70103000Y-116046000D03*
X71373000Y-116046000D03*
X72643000Y-116046000D03*
X73913000Y-116046000D03*
X75183000Y-116046000D03*
D14*
X41990000Y-119347000D03*
X51990000Y-119347000D03*
X36990000Y-99347000D03*
X56990000Y-99347000D03*
D31*
X125238000Y-118872000D03*
X127238000Y-118872000D03*
D32*
X122785000Y-81026000D03*
X119785000Y-81026000D03*
D26*
X122500000Y-103050000D03*
X122500000Y-104950000D03*
X103759000Y-123129000D03*
X103759000Y-125029000D03*
D27*
X92771000Y-126238000D03*
X90871000Y-126238000D03*
D33*
X119785000Y-76708000D03*
X122785000Y-76708000D03*
D31*
X73041000Y-119380000D03*
X75041000Y-119380000D03*
X67802000Y-121920000D03*
X65802000Y-121920000D03*
X67802000Y-119380000D03*
X65802000Y-119380000D03*
D34*
X112000000Y-55500000D03*
X105000000Y-55500000D03*
X98000000Y-55500000D03*
D35*
X125000000Y-40400000D03*
X85000000Y-40400000D03*
D36*
X65902000Y-126746000D03*
X67702000Y-126746000D03*
X98160000Y-124460000D03*
X99960000Y-124460000D03*
X115178000Y-124714000D03*
X116978000Y-124714000D03*
X125338000Y-121412000D03*
X127138000Y-121412000D03*
X65902000Y-126746000D03*
X67702000Y-126746000D03*
D15*
X112268000Y-122715000D03*
X112268000Y-125985000D03*
D14*
X108556000Y-118460000D03*
X116056000Y-118460000D03*
X108556000Y-98300000D03*
X108556000Y-93260000D03*
X116056000Y-98300000D03*
X116056000Y-93260000D03*
D37*
X108109000Y-124267000D03*
X108109000Y-122367000D03*
X110059000Y-123317000D03*
X90837000Y-124267000D03*
X90837000Y-122367000D03*
X92787000Y-123317000D03*
D38*
G36*
X75565000Y-104377357D02*
X75340429Y-105219500D01*
X71680606Y-105219500D01*
X72289303Y-104610803D01*
X72317166Y-104568789D01*
X72326500Y-104521000D01*
X72326500Y-102679500D01*
X75565000Y-102679500D01*
X75565000Y-104377357D01*
X75565000Y-104377357D01*
G37*
X75565000Y-104377357D02*
X75340429Y-105219500D01*
X71680606Y-105219500D01*
X72289303Y-104610803D01*
X72317166Y-104568789D01*
X72326500Y-104521000D01*
X72326500Y-102679500D01*
X75565000Y-102679500D01*
X75565000Y-104377357D01*
G36*
X69088131Y-104578733D02*
X69095883Y-104628547D01*
X69125197Y-104674303D01*
X69543394Y-105092500D01*
X66032311Y-105092500D01*
X65921186Y-103314500D01*
X69145596Y-103314500D01*
X69088131Y-104578733D01*
X69088131Y-104578733D01*
G37*
X69088131Y-104578733D02*
X69095883Y-104628547D01*
X69125197Y-104674303D01*
X69543394Y-105092500D01*
X66032311Y-105092500D01*
X65921186Y-103314500D01*
X69145596Y-103314500D01*
X69088131Y-104578733D01*
M02*
