M48
;DRILL file {KiCad 0.201507280910+6003~25~ubuntu14.04.1-product} date Wed 07 Oct 2015 02:09:13 BST
;FORMAT={-:-/ absolute / inch / decimal}
FMAT,2
INCH,TZ
T1C0.024
T2C0.028
T3C0.030
T4C0.039
T5C0.040
T6C0.051
T7C0.059
T8C0.063
T9C0.071
T10C0.078
T11C0.130
T12C0.134
T13C0.142
T14C0.144
%
G90
G05
M72
T1
X1.2795Y-5.
X1.3071Y-4.9291
X1.3071Y-5.0709
X1.378Y-4.9016
X1.378Y-5.0984
X1.4488Y-4.9291
X1.4488Y-5.0709
X1.4764Y-5.
X2.52Y-4.92
X2.805Y-4.95
X3.0225Y-4.6875
X3.4Y-5.04
X3.46Y-5.05
X3.63Y-4.65
X3.895Y-4.665
X3.925Y-4.99
X3.925Y-5.055
X4.05Y-5.055
X4.07Y-4.99
X4.12Y-4.695
X4.18Y-4.88
X4.225Y-5.125
X4.4Y-4.68
X4.685Y-4.59
X4.735Y-5.1
X4.8228Y-5.
X4.8504Y-4.9291
X4.8504Y-5.0709
X4.9213Y-4.9016
X4.9213Y-5.0984
X4.9921Y-4.9291
X4.9921Y-5.0709
X5.Y-4.85
X5.0197Y-5.
T2
X4.825Y-4.25
X4.825Y-4.55
X4.925Y-4.25
X4.925Y-4.55
X5.025Y-4.25
X5.025Y-4.55
T3
X1.8425Y-5.015
X2.13Y-5.015
X3.205Y-4.7625
T4
X4.53Y-2.87
X4.53Y-3.02
X4.53Y-3.17
T5
X2.9996Y-4.9303
X2.9996Y-5.0303
X3.0996Y-4.9303
X3.0996Y-5.0303
X3.1996Y-4.9303
X3.1996Y-5.0303
X3.2996Y-4.9303
X3.2996Y-5.0303
T6
X1.785Y-2.4669
X1.785Y-3.3528
X3.4736Y-3.6667
X3.4736Y-3.8651
X3.4736Y-4.6588
X3.7689Y-3.6667
X3.7689Y-3.8651
X3.7689Y-4.6588
X4.2739Y-3.6717
X4.2739Y-3.8701
X4.2739Y-4.6638
X4.5691Y-3.6717
X4.5691Y-3.8701
X4.5691Y-4.6638
T7
X1.4563Y-3.9113
X1.6531Y-4.6987
X2.0469Y-4.6987
X2.2437Y-3.9113
X4.5369Y-3.375
X4.7337Y-3.375
T8
X1.8898Y-1.8937
X2.1654Y-1.8937
X2.4409Y-1.8937
T9
X3.8583Y-2.185
X4.1339Y-2.185
X4.4094Y-2.185
T10
X2.35Y-2.27
X2.35Y-2.57
X2.35Y-3.095
X2.35Y-3.395
T11
X1.378Y-5.
X4.9213Y-5.
T12
X3.3465Y-1.5906
X4.9213Y-1.5906
T13
X1.378Y-1.6063
X2.9528Y-1.6063
T14
X3.4849Y-3.02
X3.8751Y-3.02
T0
M30
