G04 #@! TF.FileFunction,Legend,Top*
%FSLAX46Y46*%
G04 Gerber Fmt 4.6, Leading zero omitted, Abs format (unit mm)*
G04 Created by KiCad (PCBNEW 0.201503020946+5465~21~ubuntu14.04.1-product) date Mon 30 Mar 2015 03:02:51 BST*
%MOMM*%
G01*
G04 APERTURE LIST*
%ADD10C,0.100000*%
%ADD11C,0.400000*%
%ADD12C,0.600000*%
%ADD13C,0.300000*%
%ADD14C,1.000000*%
%ADD15C,0.150000*%
G04 APERTURE END LIST*
D10*
D11*
X116209690Y-61156952D02*
X116209690Y-58656952D01*
X117162071Y-58656952D01*
X117400166Y-58776000D01*
X117519214Y-58895048D01*
X117638262Y-59133143D01*
X117638262Y-59490286D01*
X117519214Y-59728381D01*
X117400166Y-59847429D01*
X117162071Y-59966476D01*
X116209690Y-59966476D01*
X119185881Y-58656952D02*
X119662071Y-58656952D01*
X119900166Y-58776000D01*
X120138262Y-59014095D01*
X120257309Y-59490286D01*
X120257309Y-60323619D01*
X120138262Y-60799810D01*
X119900166Y-61037905D01*
X119662071Y-61156952D01*
X119185881Y-61156952D01*
X118947785Y-61037905D01*
X118709690Y-60799810D01*
X118590642Y-60323619D01*
X118590642Y-59490286D01*
X118709690Y-59014095D01*
X118947785Y-58776000D01*
X119185881Y-58656952D01*
X121090643Y-58656952D02*
X121685881Y-61156952D01*
X122162071Y-59371238D01*
X122638262Y-61156952D01*
X123233500Y-58656952D01*
X124185881Y-59847429D02*
X125019214Y-59847429D01*
X125376357Y-61156952D02*
X124185881Y-61156952D01*
X124185881Y-58656952D01*
X125376357Y-58656952D01*
X127876358Y-61156952D02*
X127043024Y-59966476D01*
X126447786Y-61156952D02*
X126447786Y-58656952D01*
X127400167Y-58656952D01*
X127638262Y-58776000D01*
X127757310Y-58895048D01*
X127876358Y-59133143D01*
X127876358Y-59490286D01*
X127757310Y-59728381D01*
X127638262Y-59847429D01*
X127400167Y-59966476D01*
X126447786Y-59966476D01*
X117281119Y-63747429D02*
X117638262Y-63866476D01*
X117757310Y-63985524D01*
X117876358Y-64223619D01*
X117876358Y-64580762D01*
X117757310Y-64818857D01*
X117638262Y-64937905D01*
X117400167Y-65056952D01*
X116447786Y-65056952D01*
X116447786Y-62556952D01*
X117281119Y-62556952D01*
X117519215Y-62676000D01*
X117638262Y-62795048D01*
X117757310Y-63033143D01*
X117757310Y-63271238D01*
X117638262Y-63509333D01*
X117519215Y-63628381D01*
X117281119Y-63747429D01*
X116447786Y-63747429D01*
X119423977Y-62556952D02*
X119900167Y-62556952D01*
X120138262Y-62676000D01*
X120376358Y-62914095D01*
X120495405Y-63390286D01*
X120495405Y-64223619D01*
X120376358Y-64699810D01*
X120138262Y-64937905D01*
X119900167Y-65056952D01*
X119423977Y-65056952D01*
X119185881Y-64937905D01*
X118947786Y-64699810D01*
X118828738Y-64223619D01*
X118828738Y-63390286D01*
X118947786Y-62914095D01*
X119185881Y-62676000D01*
X119423977Y-62556952D01*
X121447786Y-64342667D02*
X122638263Y-64342667D01*
X121209691Y-65056952D02*
X122043025Y-62556952D01*
X122876358Y-65056952D01*
X125138263Y-65056952D02*
X124304929Y-63866476D01*
X123709691Y-65056952D02*
X123709691Y-62556952D01*
X124662072Y-62556952D01*
X124900167Y-62676000D01*
X125019215Y-62795048D01*
X125138263Y-63033143D01*
X125138263Y-63390286D01*
X125019215Y-63628381D01*
X124900167Y-63747429D01*
X124662072Y-63866476D01*
X123709691Y-63866476D01*
X126209691Y-65056952D02*
X126209691Y-62556952D01*
X126804929Y-62556952D01*
X127162072Y-62676000D01*
X127400167Y-62914095D01*
X127519215Y-63152190D01*
X127638263Y-63628381D01*
X127638263Y-63985524D01*
X127519215Y-64461714D01*
X127400167Y-64699810D01*
X127162072Y-64937905D01*
X126804929Y-65056952D01*
X126209691Y-65056952D01*
D12*
X64811143Y-57094286D02*
X65239714Y-57237143D01*
X65954000Y-57237143D01*
X66239714Y-57094286D01*
X66382571Y-56951429D01*
X66525428Y-56665714D01*
X66525428Y-56380000D01*
X66382571Y-56094286D01*
X66239714Y-55951429D01*
X65954000Y-55808571D01*
X65382571Y-55665714D01*
X65096857Y-55522857D01*
X64954000Y-55380000D01*
X64811143Y-55094286D01*
X64811143Y-54808571D01*
X64954000Y-54522857D01*
X65096857Y-54380000D01*
X65382571Y-54237143D01*
X66096857Y-54237143D01*
X66525428Y-54380000D01*
X67811143Y-54237143D02*
X67811143Y-56665714D01*
X67954000Y-56951429D01*
X68096857Y-57094286D01*
X68382571Y-57237143D01*
X68954000Y-57237143D01*
X69239714Y-57094286D01*
X69382571Y-56951429D01*
X69525428Y-56665714D01*
X69525428Y-54237143D01*
X70954000Y-57237143D02*
X70954000Y-54237143D01*
X72096857Y-54237143D01*
X72382571Y-54380000D01*
X72525428Y-54522857D01*
X72668285Y-54808571D01*
X72668285Y-55237143D01*
X72525428Y-55522857D01*
X72382571Y-55665714D01*
X72096857Y-55808571D01*
X70954000Y-55808571D01*
X73954000Y-55665714D02*
X74954000Y-55665714D01*
X75382571Y-57237143D02*
X73954000Y-57237143D01*
X73954000Y-54237143D01*
X75382571Y-54237143D01*
X78382571Y-57237143D02*
X77382571Y-55808571D01*
X76668286Y-57237143D02*
X76668286Y-54237143D01*
X77811143Y-54237143D01*
X78096857Y-54380000D01*
X78239714Y-54522857D01*
X78382571Y-54808571D01*
X78382571Y-55237143D01*
X78239714Y-55522857D01*
X78096857Y-55665714D01*
X77811143Y-55808571D01*
X76668286Y-55808571D01*
X79239714Y-54237143D02*
X80239714Y-57237143D01*
X81239714Y-54237143D01*
X82239715Y-57237143D02*
X82239715Y-54237143D01*
X83668286Y-57237143D02*
X83668286Y-54237143D01*
X84382571Y-54237143D01*
X84811143Y-54380000D01*
X85096857Y-54665714D01*
X85239714Y-54951429D01*
X85382571Y-55522857D01*
X85382571Y-55951429D01*
X85239714Y-56522857D01*
X85096857Y-56808571D01*
X84811143Y-57094286D01*
X84382571Y-57237143D01*
X83668286Y-57237143D01*
X86668286Y-55665714D02*
X87668286Y-55665714D01*
X88096857Y-57237143D02*
X86668286Y-57237143D01*
X86668286Y-54237143D01*
X88096857Y-54237143D01*
D13*
X110752500Y-128129571D02*
X110752500Y-126629571D01*
X111323928Y-126629571D01*
X111466786Y-126701000D01*
X111538214Y-126772429D01*
X111609643Y-126915286D01*
X111609643Y-127129571D01*
X111538214Y-127272429D01*
X111466786Y-127343857D01*
X111323928Y-127415286D01*
X110752500Y-127415286D01*
X113109643Y-128129571D02*
X112609643Y-127415286D01*
X112252500Y-128129571D02*
X112252500Y-126629571D01*
X112823928Y-126629571D01*
X112966786Y-126701000D01*
X113038214Y-126772429D01*
X113109643Y-126915286D01*
X113109643Y-127129571D01*
X113038214Y-127272429D01*
X112966786Y-127343857D01*
X112823928Y-127415286D01*
X112252500Y-127415286D01*
X113752500Y-127343857D02*
X114252500Y-127343857D01*
X114466786Y-128129571D02*
X113752500Y-128129571D01*
X113752500Y-126629571D01*
X114466786Y-126629571D01*
X115109643Y-128129571D02*
X115109643Y-126629571D01*
X115109643Y-127343857D02*
X115966786Y-127343857D01*
X115966786Y-128129571D02*
X115966786Y-126629571D01*
X116681072Y-127343857D02*
X117181072Y-127343857D01*
X117395358Y-128129571D02*
X116681072Y-128129571D01*
X116681072Y-126629571D01*
X117395358Y-126629571D01*
X117966786Y-127701000D02*
X118681072Y-127701000D01*
X117823929Y-128129571D02*
X118323929Y-126629571D01*
X118823929Y-128129571D01*
X119109643Y-126629571D02*
X119966786Y-126629571D01*
X119538215Y-128129571D02*
X119538215Y-126629571D01*
X113145358Y-130529571D02*
X112645358Y-129815286D01*
X112288215Y-130529571D02*
X112288215Y-129029571D01*
X112859643Y-129029571D01*
X113002501Y-129101000D01*
X113073929Y-129172429D01*
X113145358Y-129315286D01*
X113145358Y-129529571D01*
X113073929Y-129672429D01*
X113002501Y-129743857D01*
X112859643Y-129815286D01*
X112288215Y-129815286D01*
X113788215Y-129743857D02*
X114288215Y-129743857D01*
X114502501Y-130529571D02*
X113788215Y-130529571D01*
X113788215Y-129029571D01*
X114502501Y-129029571D01*
X115859644Y-130529571D02*
X115145358Y-130529571D01*
X115145358Y-129029571D01*
X116288215Y-130101000D02*
X117002501Y-130101000D01*
X116145358Y-130529571D02*
X116645358Y-129029571D01*
X117145358Y-130529571D01*
X117931072Y-129815286D02*
X117931072Y-130529571D01*
X117431072Y-129029571D02*
X117931072Y-129815286D01*
X118431072Y-129029571D01*
X90249858Y-128764571D02*
X90249858Y-127264571D01*
X90749858Y-128336000D01*
X91249858Y-127264571D01*
X91249858Y-128764571D01*
X91892715Y-128336000D02*
X92607001Y-128336000D01*
X91749858Y-128764571D02*
X92249858Y-127264571D01*
X92749858Y-128764571D01*
X93178429Y-128693143D02*
X93392715Y-128764571D01*
X93749858Y-128764571D01*
X93892715Y-128693143D01*
X93964144Y-128621714D01*
X94035572Y-128478857D01*
X94035572Y-128336000D01*
X93964144Y-128193143D01*
X93892715Y-128121714D01*
X93749858Y-128050286D01*
X93464144Y-127978857D01*
X93321286Y-127907429D01*
X93249858Y-127836000D01*
X93178429Y-127693143D01*
X93178429Y-127550286D01*
X93249858Y-127407429D01*
X93321286Y-127336000D01*
X93464144Y-127264571D01*
X93821286Y-127264571D01*
X94035572Y-127336000D01*
X94464143Y-127264571D02*
X95321286Y-127264571D01*
X94892715Y-128764571D02*
X94892715Y-127264571D01*
X95821286Y-127978857D02*
X96321286Y-127978857D01*
X96535572Y-128764571D02*
X95821286Y-128764571D01*
X95821286Y-127264571D01*
X96535572Y-127264571D01*
X98035572Y-128764571D02*
X97535572Y-128050286D01*
X97178429Y-128764571D02*
X97178429Y-127264571D01*
X97749857Y-127264571D01*
X97892715Y-127336000D01*
X97964143Y-127407429D01*
X98035572Y-127550286D01*
X98035572Y-127764571D01*
X97964143Y-127907429D01*
X97892715Y-127978857D01*
X97749857Y-128050286D01*
X97178429Y-128050286D01*
X91999858Y-131164571D02*
X91499858Y-130450286D01*
X91142715Y-131164571D02*
X91142715Y-129664571D01*
X91714143Y-129664571D01*
X91857001Y-129736000D01*
X91928429Y-129807429D01*
X91999858Y-129950286D01*
X91999858Y-130164571D01*
X91928429Y-130307429D01*
X91857001Y-130378857D01*
X91714143Y-130450286D01*
X91142715Y-130450286D01*
X92642715Y-130378857D02*
X93142715Y-130378857D01*
X93357001Y-131164571D02*
X92642715Y-131164571D01*
X92642715Y-129664571D01*
X93357001Y-129664571D01*
X94714144Y-131164571D02*
X93999858Y-131164571D01*
X93999858Y-129664571D01*
X95142715Y-130736000D02*
X95857001Y-130736000D01*
X94999858Y-131164571D02*
X95499858Y-129664571D01*
X95999858Y-131164571D01*
X96785572Y-130450286D02*
X96785572Y-131164571D01*
X96285572Y-129664571D02*
X96785572Y-130450286D01*
X97285572Y-129664571D01*
X76978357Y-116937714D02*
X76906928Y-117009143D01*
X76692642Y-117080571D01*
X76549785Y-117080571D01*
X76335500Y-117009143D01*
X76192642Y-116866286D01*
X76121214Y-116723429D01*
X76049785Y-116437714D01*
X76049785Y-116223429D01*
X76121214Y-115937714D01*
X76192642Y-115794857D01*
X76335500Y-115652000D01*
X76549785Y-115580571D01*
X76692642Y-115580571D01*
X76906928Y-115652000D01*
X76978357Y-115723429D01*
X77621214Y-115580571D02*
X77621214Y-116794857D01*
X77692642Y-116937714D01*
X77764071Y-117009143D01*
X77906928Y-117080571D01*
X78192642Y-117080571D01*
X78335500Y-117009143D01*
X78406928Y-116937714D01*
X78478357Y-116794857D01*
X78478357Y-115580571D01*
X80049786Y-117080571D02*
X79549786Y-116366286D01*
X79192643Y-117080571D02*
X79192643Y-115580571D01*
X79764071Y-115580571D01*
X79906929Y-115652000D01*
X79978357Y-115723429D01*
X80049786Y-115866286D01*
X80049786Y-116080571D01*
X79978357Y-116223429D01*
X79906929Y-116294857D01*
X79764071Y-116366286D01*
X79192643Y-116366286D01*
X81549786Y-117080571D02*
X81049786Y-116366286D01*
X80692643Y-117080571D02*
X80692643Y-115580571D01*
X81264071Y-115580571D01*
X81406929Y-115652000D01*
X81478357Y-115723429D01*
X81549786Y-115866286D01*
X81549786Y-116080571D01*
X81478357Y-116223429D01*
X81406929Y-116294857D01*
X81264071Y-116366286D01*
X80692643Y-116366286D01*
X82192643Y-116294857D02*
X82692643Y-116294857D01*
X82906929Y-117080571D02*
X82192643Y-117080571D01*
X82192643Y-115580571D01*
X82906929Y-115580571D01*
X83549786Y-117080571D02*
X83549786Y-115580571D01*
X84406929Y-117080571D01*
X84406929Y-115580571D01*
X84906929Y-115580571D02*
X85764072Y-115580571D01*
X85335501Y-117080571D02*
X85335501Y-115580571D01*
X78692643Y-119409143D02*
X78906929Y-119480571D01*
X79264072Y-119480571D01*
X79406929Y-119409143D01*
X79478358Y-119337714D01*
X79549786Y-119194857D01*
X79549786Y-119052000D01*
X79478358Y-118909143D01*
X79406929Y-118837714D01*
X79264072Y-118766286D01*
X78978358Y-118694857D01*
X78835500Y-118623429D01*
X78764072Y-118552000D01*
X78692643Y-118409143D01*
X78692643Y-118266286D01*
X78764072Y-118123429D01*
X78835500Y-118052000D01*
X78978358Y-117980571D01*
X79335500Y-117980571D01*
X79549786Y-118052000D01*
X80192643Y-118694857D02*
X80692643Y-118694857D01*
X80906929Y-119480571D02*
X80192643Y-119480571D01*
X80192643Y-117980571D01*
X80906929Y-117980571D01*
X81549786Y-119480571D02*
X81549786Y-117980571D01*
X82406929Y-119480571D01*
X82406929Y-117980571D01*
X83049786Y-119409143D02*
X83264072Y-119480571D01*
X83621215Y-119480571D01*
X83764072Y-119409143D01*
X83835501Y-119337714D01*
X83906929Y-119194857D01*
X83906929Y-119052000D01*
X83835501Y-118909143D01*
X83764072Y-118837714D01*
X83621215Y-118766286D01*
X83335501Y-118694857D01*
X83192643Y-118623429D01*
X83121215Y-118552000D01*
X83049786Y-118409143D01*
X83049786Y-118266286D01*
X83121215Y-118123429D01*
X83192643Y-118052000D01*
X83335501Y-117980571D01*
X83692643Y-117980571D01*
X83906929Y-118052000D01*
X84549786Y-118694857D02*
X85049786Y-118694857D01*
X85264072Y-119480571D02*
X84549786Y-119480571D01*
X84549786Y-117980571D01*
X85264072Y-117980571D01*
X113629715Y-67209357D02*
X113844001Y-67280786D01*
X113915429Y-67352214D01*
X113986858Y-67495071D01*
X113986858Y-67709357D01*
X113915429Y-67852214D01*
X113844001Y-67923643D01*
X113701143Y-67995071D01*
X113129715Y-67995071D01*
X113129715Y-66495071D01*
X113629715Y-66495071D01*
X113772572Y-66566500D01*
X113844001Y-66637929D01*
X113915429Y-66780786D01*
X113915429Y-66923643D01*
X113844001Y-67066500D01*
X113772572Y-67137929D01*
X113629715Y-67209357D01*
X113129715Y-67209357D01*
X114415429Y-66495071D02*
X115272572Y-66495071D01*
X114844001Y-67995071D02*
X114844001Y-66495071D01*
X115701143Y-67566500D02*
X116415429Y-67566500D01*
X115558286Y-67995071D02*
X116058286Y-66495071D01*
X116558286Y-67995071D01*
X117844000Y-67995071D02*
X116986857Y-67995071D01*
X117415429Y-67995071D02*
X117415429Y-66495071D01*
X117272572Y-66709357D01*
X117129714Y-66852214D01*
X116986857Y-66923643D01*
X119129714Y-66495071D02*
X118844000Y-66495071D01*
X118701143Y-66566500D01*
X118629714Y-66637929D01*
X118486857Y-66852214D01*
X118415428Y-67137929D01*
X118415428Y-67709357D01*
X118486857Y-67852214D01*
X118558285Y-67923643D01*
X118701143Y-67995071D01*
X118986857Y-67995071D01*
X119129714Y-67923643D01*
X119201143Y-67852214D01*
X119272571Y-67709357D01*
X119272571Y-67352214D01*
X119201143Y-67209357D01*
X119129714Y-67137929D01*
X118986857Y-67066500D01*
X118701143Y-67066500D01*
X118558285Y-67137929D01*
X118486857Y-67209357D01*
X118415428Y-67352214D01*
X119915428Y-67423643D02*
X121058285Y-67423643D01*
X113272573Y-69537929D02*
X113129715Y-69466500D01*
X113058287Y-69395071D01*
X112986858Y-69252214D01*
X112986858Y-69180786D01*
X113058287Y-69037929D01*
X113129715Y-68966500D01*
X113272573Y-68895071D01*
X113558287Y-68895071D01*
X113701144Y-68966500D01*
X113772573Y-69037929D01*
X113844001Y-69180786D01*
X113844001Y-69252214D01*
X113772573Y-69395071D01*
X113701144Y-69466500D01*
X113558287Y-69537929D01*
X113272573Y-69537929D01*
X113129715Y-69609357D01*
X113058287Y-69680786D01*
X112986858Y-69823643D01*
X112986858Y-70109357D01*
X113058287Y-70252214D01*
X113129715Y-70323643D01*
X113272573Y-70395071D01*
X113558287Y-70395071D01*
X113701144Y-70323643D01*
X113772573Y-70252214D01*
X113844001Y-70109357D01*
X113844001Y-69823643D01*
X113772573Y-69680786D01*
X113701144Y-69609357D01*
X113558287Y-69537929D01*
X114772572Y-68895071D02*
X114915429Y-68895071D01*
X115058286Y-68966500D01*
X115129715Y-69037929D01*
X115201144Y-69180786D01*
X115272572Y-69466500D01*
X115272572Y-69823643D01*
X115201144Y-70109357D01*
X115129715Y-70252214D01*
X115058286Y-70323643D01*
X114915429Y-70395071D01*
X114772572Y-70395071D01*
X114629715Y-70323643D01*
X114558286Y-70252214D01*
X114486858Y-70109357D01*
X114415429Y-69823643D01*
X114415429Y-69466500D01*
X114486858Y-69180786D01*
X114558286Y-69037929D01*
X114629715Y-68966500D01*
X114772572Y-68895071D01*
X116201143Y-68895071D02*
X116344000Y-68895071D01*
X116486857Y-68966500D01*
X116558286Y-69037929D01*
X116629715Y-69180786D01*
X116701143Y-69466500D01*
X116701143Y-69823643D01*
X116629715Y-70109357D01*
X116558286Y-70252214D01*
X116486857Y-70323643D01*
X116344000Y-70395071D01*
X116201143Y-70395071D01*
X116058286Y-70323643D01*
X115986857Y-70252214D01*
X115915429Y-70109357D01*
X115844000Y-69823643D01*
X115844000Y-69466500D01*
X115915429Y-69180786D01*
X115986857Y-69037929D01*
X116058286Y-68966500D01*
X116201143Y-68895071D01*
X117844000Y-69609357D02*
X118058286Y-69680786D01*
X118129714Y-69752214D01*
X118201143Y-69895071D01*
X118201143Y-70109357D01*
X118129714Y-70252214D01*
X118058286Y-70323643D01*
X117915428Y-70395071D01*
X117344000Y-70395071D01*
X117344000Y-68895071D01*
X117844000Y-68895071D01*
X117986857Y-68966500D01*
X118058286Y-69037929D01*
X118129714Y-69180786D01*
X118129714Y-69323643D01*
X118058286Y-69466500D01*
X117986857Y-69537929D01*
X117844000Y-69609357D01*
X117344000Y-69609357D01*
X119701143Y-70395071D02*
X119201143Y-69680786D01*
X118844000Y-70395071D02*
X118844000Y-68895071D01*
X119415428Y-68895071D01*
X119558286Y-68966500D01*
X119629714Y-69037929D01*
X119701143Y-69180786D01*
X119701143Y-69395071D01*
X119629714Y-69537929D01*
X119558286Y-69609357D01*
X119415428Y-69680786D01*
X118844000Y-69680786D01*
X121129714Y-68966500D02*
X120986857Y-68895071D01*
X120772571Y-68895071D01*
X120558286Y-68966500D01*
X120415428Y-69109357D01*
X120344000Y-69252214D01*
X120272571Y-69537929D01*
X120272571Y-69752214D01*
X120344000Y-70037929D01*
X120415428Y-70180786D01*
X120558286Y-70323643D01*
X120772571Y-70395071D01*
X120915428Y-70395071D01*
X121129714Y-70323643D01*
X121201143Y-70252214D01*
X121201143Y-69752214D01*
X120915428Y-69752214D01*
X118186000Y-87704071D02*
X119043143Y-87704071D01*
X118614572Y-89204071D02*
X118614572Y-87704071D01*
X119543143Y-89204071D02*
X119543143Y-87704071D01*
X119543143Y-88418357D02*
X120400286Y-88418357D01*
X120400286Y-89204071D02*
X120400286Y-87704071D01*
X121114572Y-88418357D02*
X121614572Y-88418357D01*
X121828858Y-89204071D02*
X121114572Y-89204071D01*
X121114572Y-87704071D01*
X121828858Y-87704071D01*
X123328858Y-89204071D02*
X122828858Y-88489786D01*
X122471715Y-89204071D02*
X122471715Y-87704071D01*
X123043143Y-87704071D01*
X123186001Y-87775500D01*
X123257429Y-87846929D01*
X123328858Y-87989786D01*
X123328858Y-88204071D01*
X123257429Y-88346929D01*
X123186001Y-88418357D01*
X123043143Y-88489786D01*
X122471715Y-88489786D01*
X123971715Y-89204071D02*
X123971715Y-87704071D01*
X124471715Y-88775500D01*
X124971715Y-87704071D01*
X124971715Y-89204071D01*
X125614572Y-88775500D02*
X126328858Y-88775500D01*
X125471715Y-89204071D02*
X125971715Y-87704071D01*
X126471715Y-89204071D01*
X127686001Y-89204071D02*
X126971715Y-89204071D01*
X126971715Y-87704071D01*
X119186000Y-91532643D02*
X119400286Y-91604071D01*
X119757429Y-91604071D01*
X119900286Y-91532643D01*
X119971715Y-91461214D01*
X120043143Y-91318357D01*
X120043143Y-91175500D01*
X119971715Y-91032643D01*
X119900286Y-90961214D01*
X119757429Y-90889786D01*
X119471715Y-90818357D01*
X119328857Y-90746929D01*
X119257429Y-90675500D01*
X119186000Y-90532643D01*
X119186000Y-90389786D01*
X119257429Y-90246929D01*
X119328857Y-90175500D01*
X119471715Y-90104071D01*
X119828857Y-90104071D01*
X120043143Y-90175500D01*
X120543143Y-90104071D02*
X120900286Y-91604071D01*
X121186000Y-90532643D01*
X121471714Y-91604071D01*
X121828857Y-90104071D01*
X122400286Y-91604071D02*
X122400286Y-90104071D01*
X122900286Y-90104071D02*
X123757429Y-90104071D01*
X123328858Y-91604071D02*
X123328858Y-90104071D01*
X125114572Y-91461214D02*
X125043143Y-91532643D01*
X124828857Y-91604071D01*
X124686000Y-91604071D01*
X124471715Y-91532643D01*
X124328857Y-91389786D01*
X124257429Y-91246929D01*
X124186000Y-90961214D01*
X124186000Y-90746929D01*
X124257429Y-90461214D01*
X124328857Y-90318357D01*
X124471715Y-90175500D01*
X124686000Y-90104071D01*
X124828857Y-90104071D01*
X125043143Y-90175500D01*
X125114572Y-90246929D01*
X125757429Y-91604071D02*
X125757429Y-90104071D01*
X125757429Y-90818357D02*
X126614572Y-90818357D01*
X126614572Y-91604071D02*
X126614572Y-90104071D01*
D14*
X121602500Y-113474500D02*
G75*
G03X121602500Y-113474500I-127000J0D01*
G01*
D13*
X36561502Y-107192071D02*
X37061502Y-108692071D01*
X37561502Y-107192071D01*
X37847216Y-107192071D02*
X38704359Y-107192071D01*
X38275788Y-108692071D02*
X38275788Y-107192071D01*
X39061502Y-107192071D02*
X40061502Y-108692071D01*
X40061502Y-107192071D02*
X39061502Y-108692071D01*
X40632930Y-108120643D02*
X41775787Y-108120643D01*
X42418644Y-107334929D02*
X42490073Y-107263500D01*
X42632930Y-107192071D01*
X42990073Y-107192071D01*
X43132930Y-107263500D01*
X43204359Y-107334929D01*
X43275787Y-107477786D01*
X43275787Y-107620643D01*
X43204359Y-107834929D01*
X42347216Y-108692071D01*
X43275787Y-108692071D01*
X44704358Y-108692071D02*
X43847215Y-108692071D01*
X44275787Y-108692071D02*
X44275787Y-107192071D01*
X44132930Y-107406357D01*
X43990072Y-107549214D01*
X43847215Y-107620643D01*
X45990072Y-107692071D02*
X45990072Y-108692071D01*
X45632929Y-107120643D02*
X45275786Y-108192071D01*
X46204358Y-108192071D01*
X46775786Y-108120643D02*
X47918643Y-108120643D01*
X48918643Y-107192071D02*
X49061500Y-107192071D01*
X49204357Y-107263500D01*
X49275786Y-107334929D01*
X49347215Y-107477786D01*
X49418643Y-107763500D01*
X49418643Y-108120643D01*
X49347215Y-108406357D01*
X49275786Y-108549214D01*
X49204357Y-108620643D01*
X49061500Y-108692071D01*
X48918643Y-108692071D01*
X48775786Y-108620643D01*
X48704357Y-108549214D01*
X48632929Y-108406357D01*
X48561500Y-108120643D01*
X48561500Y-107763500D01*
X48632929Y-107477786D01*
X48704357Y-107334929D01*
X48775786Y-107263500D01*
X48918643Y-107192071D01*
X50347214Y-107192071D02*
X50490071Y-107192071D01*
X50632928Y-107263500D01*
X50704357Y-107334929D01*
X50775786Y-107477786D01*
X50847214Y-107763500D01*
X50847214Y-108120643D01*
X50775786Y-108406357D01*
X50704357Y-108549214D01*
X50632928Y-108620643D01*
X50490071Y-108692071D01*
X50347214Y-108692071D01*
X50204357Y-108620643D01*
X50132928Y-108549214D01*
X50061500Y-108406357D01*
X49990071Y-108120643D01*
X49990071Y-107763500D01*
X50061500Y-107477786D01*
X50132928Y-107334929D01*
X50204357Y-107263500D01*
X50347214Y-107192071D01*
X51347214Y-107192071D02*
X52275785Y-107192071D01*
X51775785Y-107763500D01*
X51990071Y-107763500D01*
X52132928Y-107834929D01*
X52204357Y-107906357D01*
X52275785Y-108049214D01*
X52275785Y-108406357D01*
X52204357Y-108549214D01*
X52132928Y-108620643D01*
X51990071Y-108692071D01*
X51561499Y-108692071D01*
X51418642Y-108620643D01*
X51347214Y-108549214D01*
X52918642Y-108120643D02*
X54061499Y-108120643D01*
X55561499Y-108692071D02*
X54704356Y-108692071D01*
X55132928Y-108692071D02*
X55132928Y-107192071D01*
X54990071Y-107406357D01*
X54847213Y-107549214D01*
X54704356Y-107620643D01*
X56490070Y-107192071D02*
X56632927Y-107192071D01*
X56775784Y-107263500D01*
X56847213Y-107334929D01*
X56918642Y-107477786D01*
X56990070Y-107763500D01*
X56990070Y-108120643D01*
X56918642Y-108406357D01*
X56847213Y-108549214D01*
X56775784Y-108620643D01*
X56632927Y-108692071D01*
X56490070Y-108692071D01*
X56347213Y-108620643D01*
X56275784Y-108549214D01*
X56204356Y-108406357D01*
X56132927Y-108120643D01*
X56132927Y-107763500D01*
X56204356Y-107477786D01*
X56275784Y-107334929D01*
X56347213Y-107263500D01*
X56490070Y-107192071D01*
X58347213Y-107192071D02*
X57632927Y-107192071D01*
X57561498Y-107906357D01*
X57632927Y-107834929D01*
X57775784Y-107763500D01*
X58132927Y-107763500D01*
X58275784Y-107834929D01*
X58347213Y-107906357D01*
X58418641Y-108049214D01*
X58418641Y-108406357D01*
X58347213Y-108549214D01*
X58275784Y-108620643D01*
X58132927Y-108692071D01*
X57775784Y-108692071D01*
X57632927Y-108620643D01*
X57561498Y-108549214D01*
D15*
X120650000Y-109220000D02*
X129540000Y-109220000D01*
X129540000Y-109220000D02*
X129540000Y-114300000D01*
X129540000Y-114300000D02*
X120650000Y-114300000D01*
X120650000Y-114300000D02*
X120650000Y-109220000D01*
X120650000Y-111125000D02*
X121920000Y-111125000D01*
X121920000Y-111125000D02*
X121920000Y-112395000D01*
X121920000Y-112395000D02*
X120650000Y-112395000D01*
X80000000Y-45800000D02*
X80000000Y-32100000D01*
X30000000Y-45800000D02*
X30000000Y-32100000D01*
X42000000Y-52900000D02*
X42000000Y-32100000D01*
X68000000Y-52900000D02*
X68000000Y-32100000D01*
X68000000Y-52900000D02*
X42000000Y-52900000D01*
X80000000Y-45800000D02*
X30000000Y-45800000D01*
X80000000Y-32100000D02*
X30000000Y-32100000D01*
X38300000Y-127000000D02*
G75*
G03X38300000Y-127000000I-3300000J0D01*
G01*
X128300000Y-127000000D02*
G75*
G03X128300000Y-127000000I-3300000J0D01*
G01*
X112014000Y-85598000D02*
X74930000Y-85598000D01*
X74930000Y-67818000D02*
X112014000Y-67818000D01*
X74930000Y-66802000D02*
X112014000Y-66802000D01*
X112014000Y-66802000D02*
X112014000Y-86614000D01*
X112014000Y-86614000D02*
X74930000Y-86614000D01*
X74930000Y-86614000D02*
X74930000Y-66802000D01*
X89353553Y-122000000D02*
G75*
G03X89353553Y-122000000I-353553J0D01*
G01*
X89250000Y-122000000D02*
G75*
G03X89250000Y-122000000I-250000J0D01*
G01*
X82000000Y-122000000D02*
X89000000Y-122000000D01*
X71000000Y-122000000D02*
X78000000Y-122000000D01*
X78000000Y-122000000D02*
X78000000Y-123000000D01*
X78000000Y-123000000D02*
X82000000Y-123000000D01*
X82000000Y-123000000D02*
X82000000Y-122000000D01*
X89000000Y-122000000D02*
X89000000Y-131000000D01*
X89000000Y-131000000D02*
X71000000Y-131000000D01*
X71000000Y-131000000D02*
X71000000Y-122000000D01*
X121553000Y-120234000D02*
X121553000Y-119034000D01*
X123303000Y-119034000D02*
X123303000Y-120234000D01*
X114646000Y-123938000D02*
X113446000Y-123938000D01*
X113446000Y-122188000D02*
X114646000Y-122188000D01*
X66202000Y-123585000D02*
X67402000Y-123585000D01*
X67402000Y-125335000D02*
X66202000Y-125335000D01*
X97628000Y-123176000D02*
X96428000Y-123176000D01*
X96428000Y-121426000D02*
X97628000Y-121426000D01*
X113157000Y-71374000D02*
X113157000Y-73279000D01*
X113157000Y-75819000D02*
X113157000Y-75057000D01*
X113157000Y-78232000D02*
X113157000Y-78359000D01*
X113157000Y-78232000D02*
X113157000Y-77597000D01*
X113157000Y-82042000D02*
X113157000Y-80264000D01*
X116840000Y-82042000D02*
X116840000Y-80391000D01*
X116967000Y-77724000D02*
X116967000Y-78359000D01*
X116967000Y-75184000D02*
X116967000Y-75819000D01*
X116840000Y-71374000D02*
X116840000Y-73025000D01*
X112014000Y-78232000D02*
X113157000Y-78232000D01*
X112014000Y-75184000D02*
X113157000Y-75184000D01*
X113157000Y-71374000D02*
X116840000Y-71374000D01*
X116840000Y-82042000D02*
X113157000Y-82042000D01*
X112014000Y-71374000D02*
X113157000Y-71374000D01*
X113157000Y-82042000D02*
X112014000Y-82042000D01*
X112014000Y-76708000D02*
X112014000Y-82042000D01*
X112014000Y-76708000D02*
X112014000Y-71374000D01*
X62890000Y-65258000D02*
X62890000Y-78658000D01*
X56490000Y-78658000D02*
X56490000Y-65258000D01*
X63590000Y-78658000D02*
X55790000Y-78658000D01*
X55790000Y-78658000D02*
X55790000Y-86258000D01*
X55790000Y-86258000D02*
X63590000Y-86258000D01*
X63590000Y-86258000D02*
X63590000Y-78658000D01*
X63590000Y-57658000D02*
X63590000Y-65258000D01*
X63590000Y-65258000D02*
X55790000Y-65258000D01*
X55790000Y-65258000D02*
X55790000Y-57658000D01*
X63590000Y-57658000D02*
X55790000Y-57658000D01*
X41539000Y-77660000D02*
X41539000Y-85160000D01*
X50139000Y-77660000D02*
X40539000Y-77660000D01*
X49139000Y-77660000D02*
X49139000Y-85160000D01*
X40639000Y-70160000D02*
X50139000Y-70160000D01*
X41539000Y-70160000D02*
X41539000Y-62660000D01*
X49139000Y-70160000D02*
X49139000Y-62660000D01*
X40539000Y-62660000D02*
X40539000Y-85160000D01*
X40539000Y-85160000D02*
X50139000Y-85160000D01*
X50139000Y-85160000D02*
X50139000Y-62660000D01*
X50139000Y-62660000D02*
X40539000Y-62660000D01*
X76138000Y-107896000D02*
X65338000Y-107896000D01*
X75669210Y-108810000D02*
G75*
G03X75669210Y-108810000I-359210J0D01*
G01*
X76199000Y-107359000D02*
X76199000Y-115360000D01*
X65277000Y-115360000D02*
X65277000Y-107359000D01*
X76199000Y-115360000D02*
X65277000Y-115360000D01*
X65277000Y-107359000D02*
X76199000Y-107359000D01*
X76199000Y-111804000D02*
X75437000Y-111804000D01*
X75437000Y-111804000D02*
X75437000Y-110788000D01*
X75437000Y-110788000D02*
X76199000Y-110788000D01*
X30990000Y-123347000D02*
X62990000Y-123347000D01*
X62990000Y-123347000D02*
X62990000Y-95347000D01*
X62990000Y-95347000D02*
X30990000Y-95347000D01*
X30990000Y-95347000D02*
X30990000Y-123347000D01*
X126738000Y-118022000D02*
X125738000Y-118022000D01*
X125738000Y-119722000D02*
X126738000Y-119722000D01*
X120285000Y-81416000D02*
X122285000Y-81416000D01*
X122285000Y-79366000D02*
X120285000Y-79366000D01*
X121625000Y-104600000D02*
X121625000Y-103400000D01*
X123375000Y-103400000D02*
X123375000Y-104600000D01*
X107985000Y-125617000D02*
X109185000Y-125617000D01*
X109185000Y-127367000D02*
X107985000Y-127367000D01*
X91729000Y-125109000D02*
X92929000Y-125109000D01*
X92929000Y-126859000D02*
X91729000Y-126859000D01*
X122285000Y-74471000D02*
X120285000Y-74471000D01*
X120285000Y-77421000D02*
X122285000Y-77421000D01*
X74541000Y-118530000D02*
X73541000Y-118530000D01*
X73541000Y-120230000D02*
X74541000Y-120230000D01*
X66302000Y-122770000D02*
X67302000Y-122770000D01*
X67302000Y-121070000D02*
X66302000Y-121070000D01*
X66302000Y-120230000D02*
X67302000Y-120230000D01*
X67302000Y-118530000D02*
X66302000Y-118530000D01*
X88600000Y-57800000D02*
X88600000Y-47100000D01*
X121400000Y-57800000D02*
X121400000Y-47100000D01*
X130000000Y-47100000D02*
X80000000Y-47100000D01*
X88600000Y-57800000D02*
X121400000Y-57800000D01*
X80000000Y-32100000D02*
X130000000Y-32100000D01*
X80000000Y-32100000D02*
X80000000Y-47100000D01*
X130000000Y-32100000D02*
X130000000Y-47100000D01*
X85670000Y-120853000D02*
X85670000Y-90613000D01*
X85670000Y-90613000D02*
X98270000Y-90613000D01*
X98270000Y-90613000D02*
X98270000Y-120853000D01*
X98270000Y-120853000D02*
X85670000Y-120853000D01*
X105996000Y-120980000D02*
X105996000Y-90740000D01*
X105996000Y-90740000D02*
X118596000Y-90740000D01*
X118596000Y-90740000D02*
X118596000Y-120980000D01*
X118596000Y-120980000D02*
X105996000Y-120980000D01*
X66402000Y-127346000D02*
X67202000Y-127346000D01*
X66402000Y-126146000D02*
X67202000Y-126146000D01*
X66602000Y-126746000D02*
X66802000Y-126746000D01*
X66602000Y-126546000D02*
X66602000Y-126946000D01*
X66602000Y-126946000D02*
X66902000Y-126746000D01*
X66902000Y-126746000D02*
X66602000Y-126546000D01*
X67102000Y-126746000D02*
X66502000Y-127146000D01*
X66502000Y-126346000D02*
X67102000Y-126746000D01*
X66502000Y-126346000D02*
X66502000Y-127146000D01*
X96628000Y-125187000D02*
X97428000Y-125187000D01*
X96628000Y-123987000D02*
X97428000Y-123987000D01*
X96828000Y-124587000D02*
X97028000Y-124587000D01*
X96828000Y-124387000D02*
X96828000Y-124787000D01*
X96828000Y-124787000D02*
X97128000Y-124587000D01*
X97128000Y-124587000D02*
X96828000Y-124387000D01*
X97328000Y-124587000D02*
X96728000Y-124987000D01*
X96728000Y-124187000D02*
X97328000Y-124587000D01*
X96728000Y-124187000D02*
X96728000Y-124987000D01*
X113646000Y-125949000D02*
X114446000Y-125949000D01*
X113646000Y-124749000D02*
X114446000Y-124749000D01*
X113846000Y-125349000D02*
X114046000Y-125349000D01*
X113846000Y-125149000D02*
X113846000Y-125549000D01*
X113846000Y-125549000D02*
X114146000Y-125349000D01*
X114146000Y-125349000D02*
X113846000Y-125149000D01*
X114346000Y-125349000D02*
X113746000Y-125749000D01*
X113746000Y-124949000D02*
X114346000Y-125349000D01*
X113746000Y-124949000D02*
X113746000Y-125749000D01*
X125838000Y-122012000D02*
X126638000Y-122012000D01*
X125838000Y-120812000D02*
X126638000Y-120812000D01*
X126038000Y-121412000D02*
X126238000Y-121412000D01*
X126038000Y-121212000D02*
X126038000Y-121612000D01*
X126038000Y-121612000D02*
X126338000Y-121412000D01*
X126338000Y-121412000D02*
X126038000Y-121212000D01*
X126538000Y-121412000D02*
X125938000Y-121812000D01*
X125938000Y-121012000D02*
X126538000Y-121412000D01*
X125938000Y-121012000D02*
X125938000Y-121812000D01*
X66402000Y-127346000D02*
X67202000Y-127346000D01*
X66402000Y-126146000D02*
X67202000Y-126146000D01*
X66602000Y-126746000D02*
X66802000Y-126746000D01*
X66602000Y-126546000D02*
X66602000Y-126946000D01*
X66602000Y-126946000D02*
X66902000Y-126746000D01*
X66902000Y-126746000D02*
X66602000Y-126546000D01*
X67102000Y-126746000D02*
X66502000Y-127146000D01*
X66502000Y-126346000D02*
X67102000Y-126746000D01*
X66502000Y-126346000D02*
X66502000Y-127146000D01*
X91929000Y-122147000D02*
X90729000Y-122147000D01*
X93729000Y-123947000D02*
X93929000Y-123947000D01*
X93929000Y-123947000D02*
X93929000Y-122147000D01*
X93929000Y-122147000D02*
X92729000Y-122147000D01*
X91829000Y-123947000D02*
X92829000Y-123947000D01*
X90729000Y-122147000D02*
X90729000Y-123947000D01*
X90729000Y-123947000D02*
X90929000Y-123947000D01*
X108185000Y-122274000D02*
X106985000Y-122274000D01*
X109985000Y-124074000D02*
X110185000Y-124074000D01*
X110185000Y-124074000D02*
X110185000Y-122274000D01*
X110185000Y-122274000D02*
X108985000Y-122274000D01*
X108085000Y-124074000D02*
X109085000Y-124074000D01*
X106985000Y-122274000D02*
X106985000Y-124074000D01*
X106985000Y-124074000D02*
X107185000Y-124074000D01*
X126365095Y-112863381D02*
X126365095Y-113672905D01*
X126412714Y-113768143D01*
X126460333Y-113815762D01*
X126555571Y-113863381D01*
X126746048Y-113863381D01*
X126841286Y-113815762D01*
X126888905Y-113768143D01*
X126936524Y-113672905D01*
X126936524Y-112863381D01*
X127841286Y-113196714D02*
X127841286Y-113863381D01*
X127603190Y-112815762D02*
X127365095Y-113530048D01*
X127984143Y-113530048D01*
X121325167Y-110624881D02*
X121325167Y-109624881D01*
X121658501Y-110339167D01*
X121991834Y-109624881D01*
X121991834Y-110624881D01*
X122658500Y-109624881D02*
X122848977Y-109624881D01*
X122944215Y-109672500D01*
X123039453Y-109767738D01*
X123087072Y-109958214D01*
X123087072Y-110291548D01*
X123039453Y-110482024D01*
X122944215Y-110577262D01*
X122848977Y-110624881D01*
X122658500Y-110624881D01*
X122563262Y-110577262D01*
X122468024Y-110482024D01*
X122420405Y-110291548D01*
X122420405Y-109958214D01*
X122468024Y-109767738D01*
X122563262Y-109672500D01*
X122658500Y-109624881D01*
X124087072Y-110529643D02*
X124039453Y-110577262D01*
X123896596Y-110624881D01*
X123801358Y-110624881D01*
X123658500Y-110577262D01*
X123563262Y-110482024D01*
X123515643Y-110386786D01*
X123468024Y-110196310D01*
X123468024Y-110053452D01*
X123515643Y-109862976D01*
X123563262Y-109767738D01*
X123658500Y-109672500D01*
X123801358Y-109624881D01*
X123896596Y-109624881D01*
X124039453Y-109672500D01*
X124087072Y-109720119D01*
X124420405Y-109624881D02*
X125039453Y-109624881D01*
X124706119Y-110005833D01*
X124848977Y-110005833D01*
X124944215Y-110053452D01*
X124991834Y-110101071D01*
X125039453Y-110196310D01*
X125039453Y-110434405D01*
X124991834Y-110529643D01*
X124944215Y-110577262D01*
X124848977Y-110624881D01*
X124563262Y-110624881D01*
X124468024Y-110577262D01*
X124420405Y-110529643D01*
X125991834Y-110624881D02*
X125420405Y-110624881D01*
X125706119Y-110624881D02*
X125706119Y-109624881D01*
X125610881Y-109767738D01*
X125515643Y-109862976D01*
X125420405Y-109910595D01*
X126848977Y-109624881D02*
X126658500Y-109624881D01*
X126563262Y-109672500D01*
X126515643Y-109720119D01*
X126420405Y-109862976D01*
X126372786Y-110053452D01*
X126372786Y-110434405D01*
X126420405Y-110529643D01*
X126468024Y-110577262D01*
X126563262Y-110624881D01*
X126753739Y-110624881D01*
X126848977Y-110577262D01*
X126896596Y-110529643D01*
X126944215Y-110434405D01*
X126944215Y-110196310D01*
X126896596Y-110101071D01*
X126848977Y-110053452D01*
X126753739Y-110005833D01*
X126563262Y-110005833D01*
X126468024Y-110053452D01*
X126420405Y-110101071D01*
X126372786Y-110196310D01*
X127277548Y-109624881D02*
X127896596Y-109624881D01*
X127563262Y-110005833D01*
X127706120Y-110005833D01*
X127801358Y-110053452D01*
X127848977Y-110101071D01*
X127896596Y-110196310D01*
X127896596Y-110434405D01*
X127848977Y-110529643D01*
X127801358Y-110577262D01*
X127706120Y-110624881D01*
X127420405Y-110624881D01*
X127325167Y-110577262D01*
X127277548Y-110529643D01*
X128325167Y-110624881D02*
X128325167Y-109624881D01*
X128658501Y-110339167D01*
X128991834Y-109624881D01*
X128991834Y-110624881D01*
X120911881Y-119673666D02*
X120435690Y-120007000D01*
X120911881Y-120245095D02*
X119911881Y-120245095D01*
X119911881Y-119864142D01*
X119959500Y-119768904D01*
X120007119Y-119721285D01*
X120102357Y-119673666D01*
X120245214Y-119673666D01*
X120340452Y-119721285D01*
X120388071Y-119768904D01*
X120435690Y-119864142D01*
X120435690Y-120245095D01*
X119911881Y-119340333D02*
X119911881Y-118673666D01*
X120911881Y-119102238D01*
X116609834Y-123515381D02*
X116276500Y-123039190D01*
X116038405Y-123515381D02*
X116038405Y-122515381D01*
X116419358Y-122515381D01*
X116514596Y-122563000D01*
X116562215Y-122610619D01*
X116609834Y-122705857D01*
X116609834Y-122848714D01*
X116562215Y-122943952D01*
X116514596Y-122991571D01*
X116419358Y-123039190D01*
X116038405Y-123039190D01*
X117514596Y-122515381D02*
X117038405Y-122515381D01*
X116990786Y-122991571D01*
X117038405Y-122943952D01*
X117133643Y-122896333D01*
X117371739Y-122896333D01*
X117466977Y-122943952D01*
X117514596Y-122991571D01*
X117562215Y-123086810D01*
X117562215Y-123324905D01*
X117514596Y-123420143D01*
X117466977Y-123467762D01*
X117371739Y-123515381D01*
X117133643Y-123515381D01*
X117038405Y-123467762D01*
X116990786Y-123420143D01*
X69365834Y-125039381D02*
X69032500Y-124563190D01*
X68794405Y-125039381D02*
X68794405Y-124039381D01*
X69175358Y-124039381D01*
X69270596Y-124087000D01*
X69318215Y-124134619D01*
X69365834Y-124229857D01*
X69365834Y-124372714D01*
X69318215Y-124467952D01*
X69270596Y-124515571D01*
X69175358Y-124563190D01*
X68794405Y-124563190D01*
X69699167Y-124039381D02*
X70318215Y-124039381D01*
X69984881Y-124420333D01*
X70127739Y-124420333D01*
X70222977Y-124467952D01*
X70270596Y-124515571D01*
X70318215Y-124610810D01*
X70318215Y-124848905D01*
X70270596Y-124944143D01*
X70222977Y-124991762D01*
X70127739Y-125039381D01*
X69842024Y-125039381D01*
X69746786Y-124991762D01*
X69699167Y-124944143D01*
X100020381Y-122213666D02*
X99544190Y-122547000D01*
X100020381Y-122785095D02*
X99020381Y-122785095D01*
X99020381Y-122404142D01*
X99068000Y-122308904D01*
X99115619Y-122261285D01*
X99210857Y-122213666D01*
X99353714Y-122213666D01*
X99448952Y-122261285D01*
X99496571Y-122308904D01*
X99544190Y-122404142D01*
X99544190Y-122785095D01*
X99115619Y-121832714D02*
X99068000Y-121785095D01*
X99020381Y-121689857D01*
X99020381Y-121451761D01*
X99068000Y-121356523D01*
X99115619Y-121308904D01*
X99210857Y-121261285D01*
X99306095Y-121261285D01*
X99448952Y-121308904D01*
X100020381Y-121880333D01*
X100020381Y-121261285D01*
X69476095Y-112748381D02*
X69476095Y-113557905D01*
X69523714Y-113653143D01*
X69571333Y-113700762D01*
X69666571Y-113748381D01*
X69857048Y-113748381D01*
X69952286Y-113700762D01*
X69999905Y-113653143D01*
X70047524Y-113557905D01*
X70047524Y-112748381D01*
X70476095Y-112843619D02*
X70523714Y-112796000D01*
X70618952Y-112748381D01*
X70857048Y-112748381D01*
X70952286Y-112796000D01*
X70999905Y-112843619D01*
X71047524Y-112938857D01*
X71047524Y-113034095D01*
X70999905Y-113176952D01*
X70428476Y-113748381D01*
X71047524Y-113748381D01*
X68223143Y-109831167D02*
X68699334Y-109831167D01*
X68127905Y-110116881D02*
X68461238Y-109116881D01*
X68794572Y-110116881D01*
X69699334Y-110021643D02*
X69651715Y-110069262D01*
X69508858Y-110116881D01*
X69413620Y-110116881D01*
X69270762Y-110069262D01*
X69175524Y-109974024D01*
X69127905Y-109878786D01*
X69080286Y-109688310D01*
X69080286Y-109545452D01*
X69127905Y-109354976D01*
X69175524Y-109259738D01*
X69270762Y-109164500D01*
X69413620Y-109116881D01*
X69508858Y-109116881D01*
X69651715Y-109164500D01*
X69699334Y-109212119D01*
X70080286Y-110069262D02*
X70223143Y-110116881D01*
X70461239Y-110116881D01*
X70556477Y-110069262D01*
X70604096Y-110021643D01*
X70651715Y-109926405D01*
X70651715Y-109831167D01*
X70604096Y-109735929D01*
X70556477Y-109688310D01*
X70461239Y-109640690D01*
X70270762Y-109593071D01*
X70175524Y-109545452D01*
X70127905Y-109497833D01*
X70080286Y-109402595D01*
X70080286Y-109307357D01*
X70127905Y-109212119D01*
X70175524Y-109164500D01*
X70270762Y-109116881D01*
X70508858Y-109116881D01*
X70651715Y-109164500D01*
X70985048Y-109116881D02*
X71651715Y-109116881D01*
X71223143Y-110116881D01*
X72556477Y-110116881D02*
X71985048Y-110116881D01*
X72270762Y-110116881D02*
X72270762Y-109116881D01*
X72175524Y-109259738D01*
X72080286Y-109354976D01*
X71985048Y-109402595D01*
X73175524Y-109116881D02*
X73270763Y-109116881D01*
X73366001Y-109164500D01*
X73413620Y-109212119D01*
X73461239Y-109307357D01*
X73508858Y-109497833D01*
X73508858Y-109735929D01*
X73461239Y-109926405D01*
X73413620Y-110021643D01*
X73366001Y-110069262D01*
X73270763Y-110116881D01*
X73175524Y-110116881D01*
X73080286Y-110069262D01*
X73032667Y-110021643D01*
X72985048Y-109926405D01*
X72937429Y-109735929D01*
X72937429Y-109497833D01*
X72985048Y-109307357D01*
X73032667Y-109212119D01*
X73080286Y-109164500D01*
X73175524Y-109116881D01*
X129230381Y-118848166D02*
X128754190Y-119181500D01*
X129230381Y-119419595D02*
X128230381Y-119419595D01*
X128230381Y-119038642D01*
X128278000Y-118943404D01*
X128325619Y-118895785D01*
X128420857Y-118848166D01*
X128563714Y-118848166D01*
X128658952Y-118895785D01*
X128706571Y-118943404D01*
X128754190Y-119038642D01*
X128754190Y-119419595D01*
X129230381Y-118371976D02*
X129230381Y-118181500D01*
X129182762Y-118086261D01*
X129135143Y-118038642D01*
X128992286Y-117943404D01*
X128801810Y-117895785D01*
X128420857Y-117895785D01*
X128325619Y-117943404D01*
X128278000Y-117991023D01*
X128230381Y-118086261D01*
X128230381Y-118276738D01*
X128278000Y-118371976D01*
X128325619Y-118419595D01*
X128420857Y-118467214D01*
X128658952Y-118467214D01*
X128754190Y-118419595D01*
X128801810Y-118371976D01*
X128849429Y-118276738D01*
X128849429Y-118086261D01*
X128801810Y-117991023D01*
X128754190Y-117943404D01*
X128658952Y-117895785D01*
X119721334Y-82875381D02*
X119388000Y-82399190D01*
X119149905Y-82875381D02*
X119149905Y-81875381D01*
X119530858Y-81875381D01*
X119626096Y-81923000D01*
X119673715Y-81970619D01*
X119721334Y-82065857D01*
X119721334Y-82208714D01*
X119673715Y-82303952D01*
X119626096Y-82351571D01*
X119530858Y-82399190D01*
X119149905Y-82399190D01*
X120292762Y-82303952D02*
X120197524Y-82256333D01*
X120149905Y-82208714D01*
X120102286Y-82113476D01*
X120102286Y-82065857D01*
X120149905Y-81970619D01*
X120197524Y-81923000D01*
X120292762Y-81875381D01*
X120483239Y-81875381D01*
X120578477Y-81923000D01*
X120626096Y-81970619D01*
X120673715Y-82065857D01*
X120673715Y-82113476D01*
X120626096Y-82208714D01*
X120578477Y-82256333D01*
X120483239Y-82303952D01*
X120292762Y-82303952D01*
X120197524Y-82351571D01*
X120149905Y-82399190D01*
X120102286Y-82494429D01*
X120102286Y-82684905D01*
X120149905Y-82780143D01*
X120197524Y-82827762D01*
X120292762Y-82875381D01*
X120483239Y-82875381D01*
X120578477Y-82827762D01*
X120626096Y-82780143D01*
X120673715Y-82684905D01*
X120673715Y-82494429D01*
X120626096Y-82399190D01*
X120578477Y-82351571D01*
X120483239Y-82303952D01*
X125052381Y-104166666D02*
X124576190Y-104500000D01*
X125052381Y-104738095D02*
X124052381Y-104738095D01*
X124052381Y-104357142D01*
X124100000Y-104261904D01*
X124147619Y-104214285D01*
X124242857Y-104166666D01*
X124385714Y-104166666D01*
X124480952Y-104214285D01*
X124528571Y-104261904D01*
X124576190Y-104357142D01*
X124576190Y-104738095D01*
X124052381Y-103309523D02*
X124052381Y-103500000D01*
X124100000Y-103595238D01*
X124147619Y-103642857D01*
X124290476Y-103738095D01*
X124480952Y-103785714D01*
X124861905Y-103785714D01*
X124957143Y-103738095D01*
X125004762Y-103690476D01*
X125052381Y-103595238D01*
X125052381Y-103404761D01*
X125004762Y-103309523D01*
X124957143Y-103261904D01*
X124861905Y-103214285D01*
X124623810Y-103214285D01*
X124528571Y-103261904D01*
X124480952Y-103309523D01*
X124433333Y-103404761D01*
X124433333Y-103595238D01*
X124480952Y-103690476D01*
X124528571Y-103738095D01*
X124623810Y-103785714D01*
X119852381Y-105785714D02*
X119852381Y-105166666D01*
X120233333Y-105500000D01*
X120233333Y-105357142D01*
X120280952Y-105261904D01*
X120328571Y-105214285D01*
X120423810Y-105166666D01*
X120661905Y-105166666D01*
X120757143Y-105214285D01*
X120804762Y-105261904D01*
X120852381Y-105357142D01*
X120852381Y-105642857D01*
X120804762Y-105738095D01*
X120757143Y-105785714D01*
X120852381Y-104690476D02*
X120852381Y-104500000D01*
X120804762Y-104404761D01*
X120757143Y-104357142D01*
X120614286Y-104261904D01*
X120423810Y-104214285D01*
X120042857Y-104214285D01*
X119947619Y-104261904D01*
X119900000Y-104309523D01*
X119852381Y-104404761D01*
X119852381Y-104595238D01*
X119900000Y-104690476D01*
X119947619Y-104738095D01*
X120042857Y-104785714D01*
X120280952Y-104785714D01*
X120376190Y-104738095D01*
X120423810Y-104690476D01*
X120471429Y-104595238D01*
X120471429Y-104404761D01*
X120423810Y-104309523D01*
X120376190Y-104261904D01*
X120280952Y-104214285D01*
X119852381Y-103595238D02*
X119852381Y-103499999D01*
X119900000Y-103404761D01*
X119947619Y-103357142D01*
X120042857Y-103309523D01*
X120233333Y-103261904D01*
X120471429Y-103261904D01*
X120661905Y-103309523D01*
X120757143Y-103357142D01*
X120804762Y-103404761D01*
X120852381Y-103499999D01*
X120852381Y-103595238D01*
X120804762Y-103690476D01*
X120757143Y-103738095D01*
X120661905Y-103785714D01*
X120471429Y-103833333D01*
X120233333Y-103833333D01*
X120042857Y-103785714D01*
X119947619Y-103738095D01*
X119900000Y-103690476D01*
X119852381Y-103595238D01*
X120852381Y-102261904D02*
X120376190Y-102595238D01*
X120852381Y-102833333D02*
X119852381Y-102833333D01*
X119852381Y-102452380D01*
X119900000Y-102357142D01*
X119947619Y-102309523D01*
X120042857Y-102261904D01*
X120185714Y-102261904D01*
X120280952Y-102309523D01*
X120328571Y-102357142D01*
X120376190Y-102452380D01*
X120376190Y-102833333D01*
X106497381Y-126658666D02*
X106021190Y-126992000D01*
X106497381Y-127230095D02*
X105497381Y-127230095D01*
X105497381Y-126849142D01*
X105545000Y-126753904D01*
X105592619Y-126706285D01*
X105687857Y-126658666D01*
X105830714Y-126658666D01*
X105925952Y-126706285D01*
X105973571Y-126753904D01*
X106021190Y-126849142D01*
X106021190Y-127230095D01*
X105830714Y-125801523D02*
X106497381Y-125801523D01*
X105449762Y-126039619D02*
X106164048Y-126277714D01*
X106164048Y-125658666D01*
X90368381Y-126150666D02*
X89892190Y-126484000D01*
X90368381Y-126722095D02*
X89368381Y-126722095D01*
X89368381Y-126341142D01*
X89416000Y-126245904D01*
X89463619Y-126198285D01*
X89558857Y-126150666D01*
X89701714Y-126150666D01*
X89796952Y-126198285D01*
X89844571Y-126245904D01*
X89892190Y-126341142D01*
X89892190Y-126722095D01*
X90368381Y-125198285D02*
X90368381Y-125769714D01*
X90368381Y-125484000D02*
X89368381Y-125484000D01*
X89511238Y-125579238D01*
X89606476Y-125674476D01*
X89654095Y-125769714D01*
X119594334Y-73763143D02*
X119546715Y-73810762D01*
X119403858Y-73858381D01*
X119308620Y-73858381D01*
X119165762Y-73810762D01*
X119070524Y-73715524D01*
X119022905Y-73620286D01*
X118975286Y-73429810D01*
X118975286Y-73286952D01*
X119022905Y-73096476D01*
X119070524Y-73001238D01*
X119165762Y-72906000D01*
X119308620Y-72858381D01*
X119403858Y-72858381D01*
X119546715Y-72906000D01*
X119594334Y-72953619D01*
X120451477Y-73191714D02*
X120451477Y-73858381D01*
X120213381Y-72810762D02*
X119975286Y-73525048D01*
X120594334Y-73525048D01*
X74001334Y-121578643D02*
X73953715Y-121626262D01*
X73810858Y-121673881D01*
X73715620Y-121673881D01*
X73572762Y-121626262D01*
X73477524Y-121531024D01*
X73429905Y-121435786D01*
X73382286Y-121245310D01*
X73382286Y-121102452D01*
X73429905Y-120911976D01*
X73477524Y-120816738D01*
X73572762Y-120721500D01*
X73715620Y-120673881D01*
X73810858Y-120673881D01*
X73953715Y-120721500D01*
X74001334Y-120769119D01*
X74334667Y-120673881D02*
X74953715Y-120673881D01*
X74620381Y-121054833D01*
X74763239Y-121054833D01*
X74858477Y-121102452D01*
X74906096Y-121150071D01*
X74953715Y-121245310D01*
X74953715Y-121483405D01*
X74906096Y-121578643D01*
X74858477Y-121626262D01*
X74763239Y-121673881D01*
X74477524Y-121673881D01*
X74382286Y-121626262D01*
X74334667Y-121578643D01*
X69556334Y-122277143D02*
X69508715Y-122324762D01*
X69365858Y-122372381D01*
X69270620Y-122372381D01*
X69127762Y-122324762D01*
X69032524Y-122229524D01*
X68984905Y-122134286D01*
X68937286Y-121943810D01*
X68937286Y-121800952D01*
X68984905Y-121610476D01*
X69032524Y-121515238D01*
X69127762Y-121420000D01*
X69270620Y-121372381D01*
X69365858Y-121372381D01*
X69508715Y-121420000D01*
X69556334Y-121467619D01*
X69937286Y-121467619D02*
X69984905Y-121420000D01*
X70080143Y-121372381D01*
X70318239Y-121372381D01*
X70413477Y-121420000D01*
X70461096Y-121467619D01*
X70508715Y-121562857D01*
X70508715Y-121658095D01*
X70461096Y-121800952D01*
X69889667Y-122372381D01*
X70508715Y-122372381D01*
X69746834Y-119800643D02*
X69699215Y-119848262D01*
X69556358Y-119895881D01*
X69461120Y-119895881D01*
X69318262Y-119848262D01*
X69223024Y-119753024D01*
X69175405Y-119657786D01*
X69127786Y-119467310D01*
X69127786Y-119324452D01*
X69175405Y-119133976D01*
X69223024Y-119038738D01*
X69318262Y-118943500D01*
X69461120Y-118895881D01*
X69556358Y-118895881D01*
X69699215Y-118943500D01*
X69746834Y-118991119D01*
X70699215Y-119895881D02*
X70127786Y-119895881D01*
X70413500Y-119895881D02*
X70413500Y-118895881D01*
X70318262Y-119038738D01*
X70223024Y-119133976D01*
X70127786Y-119181595D01*
D13*
X120527287Y-92396571D02*
X121527287Y-92396571D01*
X120884430Y-93896571D01*
X122384429Y-92396571D02*
X122527286Y-92396571D01*
X122670143Y-92468000D01*
X122741572Y-92539429D01*
X122813001Y-92682286D01*
X122884429Y-92968000D01*
X122884429Y-93325143D01*
X122813001Y-93610857D01*
X122741572Y-93753714D01*
X122670143Y-93825143D01*
X122527286Y-93896571D01*
X122384429Y-93896571D01*
X122241572Y-93825143D01*
X122170143Y-93753714D01*
X122098715Y-93610857D01*
X122027286Y-93325143D01*
X122027286Y-92968000D01*
X122098715Y-92682286D01*
X122170143Y-92539429D01*
X122241572Y-92468000D01*
X122384429Y-92396571D01*
X123741572Y-92396571D02*
X123598714Y-92468000D01*
X123527286Y-92610857D01*
X123598714Y-92753714D01*
X123741572Y-92825143D01*
X123884429Y-92753714D01*
X123955857Y-92610857D01*
X123884429Y-92468000D01*
X123741572Y-92396571D01*
X125527286Y-93753714D02*
X125455857Y-93825143D01*
X125241571Y-93896571D01*
X125098714Y-93896571D01*
X124884429Y-93825143D01*
X124741571Y-93682286D01*
X124670143Y-93539429D01*
X124598714Y-93253714D01*
X124598714Y-93039429D01*
X124670143Y-92753714D01*
X124741571Y-92610857D01*
X124884429Y-92468000D01*
X125098714Y-92396571D01*
X125241571Y-92396571D01*
X125455857Y-92468000D01*
X125527286Y-92539429D01*
D15*
X91285358Y-110914571D02*
X91285358Y-109414571D01*
X92142501Y-110914571D02*
X91499644Y-110057429D01*
X92142501Y-109414571D02*
X91285358Y-110271714D01*
X93571072Y-110914571D02*
X92713929Y-110914571D01*
X93142501Y-110914571D02*
X93142501Y-109414571D01*
X92999644Y-109628857D01*
X92856786Y-109771714D01*
X92713929Y-109843143D01*
X111795858Y-111549571D02*
X111795858Y-110049571D01*
X112653001Y-111549571D02*
X112010144Y-110692429D01*
X112653001Y-110049571D02*
X111795858Y-110906714D01*
X113224429Y-110192429D02*
X113295858Y-110121000D01*
X113438715Y-110049571D01*
X113795858Y-110049571D01*
X113938715Y-110121000D01*
X114010144Y-110192429D01*
X114081572Y-110335286D01*
X114081572Y-110478143D01*
X114010144Y-110692429D01*
X113153001Y-111549571D01*
X114081572Y-111549571D01*
D13*
X63210714Y-129520071D02*
X63210714Y-128020071D01*
X63782142Y-128020071D01*
X63925000Y-128091500D01*
X63996428Y-128162929D01*
X64067857Y-128305786D01*
X64067857Y-128520071D01*
X63996428Y-128662929D01*
X63925000Y-128734357D01*
X63782142Y-128805786D01*
X63210714Y-128805786D01*
X64996428Y-128020071D02*
X65282142Y-128020071D01*
X65425000Y-128091500D01*
X65567857Y-128234357D01*
X65639285Y-128520071D01*
X65639285Y-129020071D01*
X65567857Y-129305786D01*
X65425000Y-129448643D01*
X65282142Y-129520071D01*
X64996428Y-129520071D01*
X64853571Y-129448643D01*
X64710714Y-129305786D01*
X64639285Y-129020071D01*
X64639285Y-128520071D01*
X64710714Y-128234357D01*
X64853571Y-128091500D01*
X64996428Y-128020071D01*
X66139286Y-128020071D02*
X66496429Y-129520071D01*
X66782143Y-128448643D01*
X67067857Y-129520071D01*
X67425000Y-128020071D01*
X67996429Y-128734357D02*
X68496429Y-128734357D01*
X68710715Y-129520071D02*
X67996429Y-129520071D01*
X67996429Y-128020071D01*
X68710715Y-128020071D01*
X70210715Y-129520071D02*
X69710715Y-128805786D01*
X69353572Y-129520071D02*
X69353572Y-128020071D01*
X69925000Y-128020071D01*
X70067858Y-128091500D01*
X70139286Y-128162929D01*
X70210715Y-128305786D01*
X70210715Y-128520071D01*
X70139286Y-128662929D01*
X70067858Y-128734357D01*
X69925000Y-128805786D01*
X69353572Y-128805786D01*
X118546929Y-121860571D02*
X119404072Y-121860571D01*
X118975501Y-123360571D02*
X118975501Y-121860571D01*
X120761215Y-123360571D02*
X120261215Y-122646286D01*
X119904072Y-123360571D02*
X119904072Y-121860571D01*
X120475500Y-121860571D01*
X120618358Y-121932000D01*
X120689786Y-122003429D01*
X120761215Y-122146286D01*
X120761215Y-122360571D01*
X120689786Y-122503429D01*
X120618358Y-122574857D01*
X120475500Y-122646286D01*
X119904072Y-122646286D01*
X121404072Y-123360571D02*
X121404072Y-121860571D01*
X122046929Y-122932000D02*
X122761215Y-122932000D01*
X121904072Y-123360571D02*
X122404072Y-121860571D01*
X122904072Y-123360571D01*
X124261215Y-123217714D02*
X124189786Y-123289143D01*
X123975500Y-123360571D01*
X123832643Y-123360571D01*
X123618358Y-123289143D01*
X123475500Y-123146286D01*
X123404072Y-123003429D01*
X123332643Y-122717714D01*
X123332643Y-122503429D01*
X123404072Y-122217714D01*
X123475500Y-122074857D01*
X123618358Y-121932000D01*
X123832643Y-121860571D01*
X123975500Y-121860571D01*
X124189786Y-121932000D01*
X124261215Y-122003429D01*
D15*
X90463619Y-123221738D02*
X90416000Y-123316976D01*
X90320762Y-123412214D01*
X90177905Y-123555071D01*
X90130286Y-123650310D01*
X90130286Y-123745548D01*
X90368381Y-123697929D02*
X90320762Y-123793167D01*
X90225524Y-123888405D01*
X90035048Y-123936024D01*
X89701714Y-123936024D01*
X89511238Y-123888405D01*
X89416000Y-123793167D01*
X89368381Y-123697929D01*
X89368381Y-123507452D01*
X89416000Y-123412214D01*
X89511238Y-123316976D01*
X89701714Y-123269357D01*
X90035048Y-123269357D01*
X90225524Y-123316976D01*
X90320762Y-123412214D01*
X90368381Y-123507452D01*
X90368381Y-123697929D01*
X90368381Y-122316976D02*
X90368381Y-122888405D01*
X90368381Y-122602691D02*
X89368381Y-122602691D01*
X89511238Y-122697929D01*
X89606476Y-122793167D01*
X89654095Y-122888405D01*
X105695762Y-122531119D02*
X105600524Y-122483500D01*
X105505286Y-122388262D01*
X105362429Y-122245405D01*
X105267190Y-122197786D01*
X105171952Y-122197786D01*
X105219571Y-122435881D02*
X105124333Y-122388262D01*
X105029095Y-122293024D01*
X104981476Y-122102548D01*
X104981476Y-121769214D01*
X105029095Y-121578738D01*
X105124333Y-121483500D01*
X105219571Y-121435881D01*
X105410048Y-121435881D01*
X105505286Y-121483500D01*
X105600524Y-121578738D01*
X105648143Y-121769214D01*
X105648143Y-122102548D01*
X105600524Y-122293024D01*
X105505286Y-122388262D01*
X105410048Y-122435881D01*
X105219571Y-122435881D01*
X106029095Y-121531119D02*
X106076714Y-121483500D01*
X106171952Y-121435881D01*
X106410048Y-121435881D01*
X106505286Y-121483500D01*
X106552905Y-121531119D01*
X106600524Y-121626357D01*
X106600524Y-121721595D01*
X106552905Y-121864452D01*
X105981476Y-122435881D01*
X106600524Y-122435881D01*
M02*
