G04 #@! TF.FileFunction,Legend,Top*
%FSLAX46Y46*%
G04 Gerber Fmt 4.6, Leading zero omitted, Abs format (unit mm)*
G04 Created by KiCad (PCBNEW 0.201507280910+6003~25~ubuntu14.04.1-product) date Wed 07 Oct 2015 02:08:59 BST*
%MOMM*%
G01*
G04 APERTURE LIST*
%ADD10C,0.100000*%
%ADD11C,0.300000*%
%ADD12C,0.400000*%
%ADD13C,0.600000*%
%ADD14C,1.000000*%
%ADD15C,0.150000*%
%ADD16C,0.010000*%
G04 APERTURE END LIST*
D10*
D11*
X77859571Y-47959571D02*
X78216714Y-49459571D01*
X78502428Y-48388143D01*
X78788142Y-49459571D01*
X79145285Y-47959571D01*
X79645285Y-49031000D02*
X80359571Y-49031000D01*
X79502428Y-49459571D02*
X80002428Y-47959571D01*
X80502428Y-49459571D01*
X81859571Y-49459571D02*
X81359571Y-48745286D01*
X81002428Y-49459571D02*
X81002428Y-47959571D01*
X81573856Y-47959571D01*
X81716714Y-48031000D01*
X81788142Y-48102429D01*
X81859571Y-48245286D01*
X81859571Y-48459571D01*
X81788142Y-48602429D01*
X81716714Y-48673857D01*
X81573856Y-48745286D01*
X81002428Y-48745286D01*
X82502428Y-49459571D02*
X82502428Y-47959571D01*
X83359571Y-49459571D01*
X83359571Y-47959571D01*
X84073857Y-49459571D02*
X84073857Y-47959571D01*
X84788143Y-49459571D02*
X84788143Y-47959571D01*
X85645286Y-49459571D01*
X85645286Y-47959571D01*
X87145286Y-48031000D02*
X87002429Y-47959571D01*
X86788143Y-47959571D01*
X86573858Y-48031000D01*
X86431000Y-48173857D01*
X86359572Y-48316714D01*
X86288143Y-48602429D01*
X86288143Y-48816714D01*
X86359572Y-49102429D01*
X86431000Y-49245286D01*
X86573858Y-49388143D01*
X86788143Y-49459571D01*
X86931000Y-49459571D01*
X87145286Y-49388143D01*
X87216715Y-49316714D01*
X87216715Y-48816714D01*
X86931000Y-48816714D01*
X87859572Y-49316714D02*
X87931000Y-49388143D01*
X87859572Y-49459571D01*
X87788143Y-49388143D01*
X87859572Y-49316714D01*
X87859572Y-49459571D01*
X87859572Y-48531000D02*
X87931000Y-48602429D01*
X87859572Y-48673857D01*
X87788143Y-48602429D01*
X87859572Y-48531000D01*
X87859572Y-48673857D01*
X79931000Y-51859571D02*
X79931000Y-50359571D01*
X80431000Y-51431000D01*
X80931000Y-50359571D01*
X80931000Y-51859571D01*
X81573857Y-51431000D02*
X82288143Y-51431000D01*
X81431000Y-51859571D02*
X81931000Y-50359571D01*
X82431000Y-51859571D01*
X82931000Y-51859571D02*
X82931000Y-50359571D01*
X83645286Y-51859571D02*
X83645286Y-50359571D01*
X84502429Y-51859571D01*
X84502429Y-50359571D01*
X85145286Y-51788143D02*
X85359572Y-51859571D01*
X85716715Y-51859571D01*
X85859572Y-51788143D01*
X85931001Y-51716714D01*
X86002429Y-51573857D01*
X86002429Y-51431000D01*
X85931001Y-51288143D01*
X85859572Y-51216714D01*
X85716715Y-51145286D01*
X85431001Y-51073857D01*
X85288143Y-51002429D01*
X85216715Y-50931000D01*
X85145286Y-50788143D01*
X85145286Y-50645286D01*
X85216715Y-50502429D01*
X85288143Y-50431000D01*
X85431001Y-50359571D01*
X85788143Y-50359571D01*
X86002429Y-50431000D01*
X78395286Y-52759571D02*
X78895286Y-54259571D01*
X79395286Y-52759571D01*
X80181000Y-52759571D02*
X80466714Y-52759571D01*
X80609572Y-52831000D01*
X80752429Y-52973857D01*
X80823857Y-53259571D01*
X80823857Y-53759571D01*
X80752429Y-54045286D01*
X80609572Y-54188143D01*
X80466714Y-54259571D01*
X80181000Y-54259571D01*
X80038143Y-54188143D01*
X79895286Y-54045286D01*
X79823857Y-53759571D01*
X79823857Y-53259571D01*
X79895286Y-52973857D01*
X80038143Y-52831000D01*
X80181000Y-52759571D01*
X82181001Y-54259571D02*
X81466715Y-54259571D01*
X81466715Y-52759571D01*
X82466715Y-52759571D02*
X83323858Y-52759571D01*
X82895287Y-54259571D02*
X82895287Y-52759571D01*
X83752429Y-53831000D02*
X84466715Y-53831000D01*
X83609572Y-54259571D02*
X84109572Y-52759571D01*
X84609572Y-54259571D01*
X85895286Y-52831000D02*
X85752429Y-52759571D01*
X85538143Y-52759571D01*
X85323858Y-52831000D01*
X85181000Y-52973857D01*
X85109572Y-53116714D01*
X85038143Y-53402429D01*
X85038143Y-53616714D01*
X85109572Y-53902429D01*
X85181000Y-54045286D01*
X85323858Y-54188143D01*
X85538143Y-54259571D01*
X85681000Y-54259571D01*
X85895286Y-54188143D01*
X85966715Y-54116714D01*
X85966715Y-53616714D01*
X85681000Y-53616714D01*
X86609572Y-53473857D02*
X87109572Y-53473857D01*
X87323858Y-54259571D02*
X86609572Y-54259571D01*
X86609572Y-52759571D01*
X87323858Y-52759571D01*
D12*
X116209690Y-61156952D02*
X116209690Y-58656952D01*
X117162071Y-58656952D01*
X117400166Y-58776000D01*
X117519214Y-58895048D01*
X117638262Y-59133143D01*
X117638262Y-59490286D01*
X117519214Y-59728381D01*
X117400166Y-59847429D01*
X117162071Y-59966476D01*
X116209690Y-59966476D01*
X119185881Y-58656952D02*
X119662071Y-58656952D01*
X119900166Y-58776000D01*
X120138262Y-59014095D01*
X120257309Y-59490286D01*
X120257309Y-60323619D01*
X120138262Y-60799810D01*
X119900166Y-61037905D01*
X119662071Y-61156952D01*
X119185881Y-61156952D01*
X118947785Y-61037905D01*
X118709690Y-60799810D01*
X118590642Y-60323619D01*
X118590642Y-59490286D01*
X118709690Y-59014095D01*
X118947785Y-58776000D01*
X119185881Y-58656952D01*
X121090643Y-58656952D02*
X121685881Y-61156952D01*
X122162071Y-59371238D01*
X122638262Y-61156952D01*
X123233500Y-58656952D01*
X124185881Y-59847429D02*
X125019214Y-59847429D01*
X125376357Y-61156952D02*
X124185881Y-61156952D01*
X124185881Y-58656952D01*
X125376357Y-58656952D01*
X127876358Y-61156952D02*
X127043024Y-59966476D01*
X126447786Y-61156952D02*
X126447786Y-58656952D01*
X127400167Y-58656952D01*
X127638262Y-58776000D01*
X127757310Y-58895048D01*
X127876358Y-59133143D01*
X127876358Y-59490286D01*
X127757310Y-59728381D01*
X127638262Y-59847429D01*
X127400167Y-59966476D01*
X126447786Y-59966476D01*
X117281119Y-63747429D02*
X117638262Y-63866476D01*
X117757310Y-63985524D01*
X117876358Y-64223619D01*
X117876358Y-64580762D01*
X117757310Y-64818857D01*
X117638262Y-64937905D01*
X117400167Y-65056952D01*
X116447786Y-65056952D01*
X116447786Y-62556952D01*
X117281119Y-62556952D01*
X117519215Y-62676000D01*
X117638262Y-62795048D01*
X117757310Y-63033143D01*
X117757310Y-63271238D01*
X117638262Y-63509333D01*
X117519215Y-63628381D01*
X117281119Y-63747429D01*
X116447786Y-63747429D01*
X119423977Y-62556952D02*
X119900167Y-62556952D01*
X120138262Y-62676000D01*
X120376358Y-62914095D01*
X120495405Y-63390286D01*
X120495405Y-64223619D01*
X120376358Y-64699810D01*
X120138262Y-64937905D01*
X119900167Y-65056952D01*
X119423977Y-65056952D01*
X119185881Y-64937905D01*
X118947786Y-64699810D01*
X118828738Y-64223619D01*
X118828738Y-63390286D01*
X118947786Y-62914095D01*
X119185881Y-62676000D01*
X119423977Y-62556952D01*
X121447786Y-64342667D02*
X122638263Y-64342667D01*
X121209691Y-65056952D02*
X122043025Y-62556952D01*
X122876358Y-65056952D01*
X125138263Y-65056952D02*
X124304929Y-63866476D01*
X123709691Y-65056952D02*
X123709691Y-62556952D01*
X124662072Y-62556952D01*
X124900167Y-62676000D01*
X125019215Y-62795048D01*
X125138263Y-63033143D01*
X125138263Y-63390286D01*
X125019215Y-63628381D01*
X124900167Y-63747429D01*
X124662072Y-63866476D01*
X123709691Y-63866476D01*
X126209691Y-65056952D02*
X126209691Y-62556952D01*
X126804929Y-62556952D01*
X127162072Y-62676000D01*
X127400167Y-62914095D01*
X127519215Y-63152190D01*
X127638263Y-63628381D01*
X127638263Y-63985524D01*
X127519215Y-64461714D01*
X127400167Y-64699810D01*
X127162072Y-64937905D01*
X126804929Y-65056952D01*
X126209691Y-65056952D01*
D13*
X83534048Y-112226857D02*
X83724524Y-111798286D01*
X83724524Y-111084000D01*
X83534048Y-110798286D01*
X83343571Y-110655429D01*
X82962619Y-110512572D01*
X82581667Y-110512572D01*
X82200714Y-110655429D01*
X82010238Y-110798286D01*
X81819762Y-111084000D01*
X81629286Y-111655429D01*
X81438810Y-111941143D01*
X81248333Y-112084000D01*
X80867381Y-112226857D01*
X80486429Y-112226857D01*
X80105476Y-112084000D01*
X79915000Y-111941143D01*
X79724524Y-111655429D01*
X79724524Y-110941143D01*
X79915000Y-110512572D01*
X79724524Y-109226857D02*
X82962619Y-109226857D01*
X83343571Y-109084000D01*
X83534048Y-108941143D01*
X83724524Y-108655429D01*
X83724524Y-108084000D01*
X83534048Y-107798286D01*
X83343571Y-107655429D01*
X82962619Y-107512572D01*
X79724524Y-107512572D01*
X83724524Y-106084000D02*
X79724524Y-106084000D01*
X79724524Y-104941143D01*
X79915000Y-104655429D01*
X80105476Y-104512572D01*
X80486429Y-104369715D01*
X81057857Y-104369715D01*
X81438810Y-104512572D01*
X81629286Y-104655429D01*
X81819762Y-104941143D01*
X81819762Y-106084000D01*
X81629286Y-103084000D02*
X81629286Y-102084000D01*
X83724524Y-101655429D02*
X83724524Y-103084000D01*
X79724524Y-103084000D01*
X79724524Y-101655429D01*
X83724524Y-98655429D02*
X81819762Y-99655429D01*
X83724524Y-100369714D02*
X79724524Y-100369714D01*
X79724524Y-99226857D01*
X79915000Y-98941143D01*
X80105476Y-98798286D01*
X80486429Y-98655429D01*
X81057857Y-98655429D01*
X81438810Y-98798286D01*
X81629286Y-98941143D01*
X81819762Y-99226857D01*
X81819762Y-100369714D01*
X79724524Y-97798286D02*
X83724524Y-96798286D01*
X79724524Y-95798286D01*
X83724524Y-94798285D02*
X79724524Y-94798285D01*
X83724524Y-93369714D02*
X79724524Y-93369714D01*
X79724524Y-92655429D01*
X79915000Y-92226857D01*
X80295952Y-91941143D01*
X80676905Y-91798286D01*
X81438810Y-91655429D01*
X82010238Y-91655429D01*
X82772143Y-91798286D01*
X83153095Y-91941143D01*
X83534048Y-92226857D01*
X83724524Y-92655429D01*
X83724524Y-93369714D01*
X81629286Y-90369714D02*
X81629286Y-89369714D01*
X83724524Y-88941143D02*
X83724524Y-90369714D01*
X79724524Y-90369714D01*
X79724524Y-88941143D01*
D11*
X110562000Y-128764571D02*
X110562000Y-127264571D01*
X111133428Y-127264571D01*
X111276286Y-127336000D01*
X111347714Y-127407429D01*
X111419143Y-127550286D01*
X111419143Y-127764571D01*
X111347714Y-127907429D01*
X111276286Y-127978857D01*
X111133428Y-128050286D01*
X110562000Y-128050286D01*
X112919143Y-128764571D02*
X112419143Y-128050286D01*
X112062000Y-128764571D02*
X112062000Y-127264571D01*
X112633428Y-127264571D01*
X112776286Y-127336000D01*
X112847714Y-127407429D01*
X112919143Y-127550286D01*
X112919143Y-127764571D01*
X112847714Y-127907429D01*
X112776286Y-127978857D01*
X112633428Y-128050286D01*
X112062000Y-128050286D01*
X113562000Y-127978857D02*
X114062000Y-127978857D01*
X114276286Y-128764571D02*
X113562000Y-128764571D01*
X113562000Y-127264571D01*
X114276286Y-127264571D01*
X114919143Y-128764571D02*
X114919143Y-127264571D01*
X114919143Y-127978857D02*
X115776286Y-127978857D01*
X115776286Y-128764571D02*
X115776286Y-127264571D01*
X116490572Y-127978857D02*
X116990572Y-127978857D01*
X117204858Y-128764571D02*
X116490572Y-128764571D01*
X116490572Y-127264571D01*
X117204858Y-127264571D01*
X117776286Y-128336000D02*
X118490572Y-128336000D01*
X117633429Y-128764571D02*
X118133429Y-127264571D01*
X118633429Y-128764571D01*
X118919143Y-127264571D02*
X119776286Y-127264571D01*
X119347715Y-128764571D02*
X119347715Y-127264571D01*
X112954858Y-131164571D02*
X112454858Y-130450286D01*
X112097715Y-131164571D02*
X112097715Y-129664571D01*
X112669143Y-129664571D01*
X112812001Y-129736000D01*
X112883429Y-129807429D01*
X112954858Y-129950286D01*
X112954858Y-130164571D01*
X112883429Y-130307429D01*
X112812001Y-130378857D01*
X112669143Y-130450286D01*
X112097715Y-130450286D01*
X113597715Y-130378857D02*
X114097715Y-130378857D01*
X114312001Y-131164571D02*
X113597715Y-131164571D01*
X113597715Y-129664571D01*
X114312001Y-129664571D01*
X115669144Y-131164571D02*
X114954858Y-131164571D01*
X114954858Y-129664571D01*
X116097715Y-130736000D02*
X116812001Y-130736000D01*
X115954858Y-131164571D02*
X116454858Y-129664571D01*
X116954858Y-131164571D01*
X117740572Y-130450286D02*
X117740572Y-131164571D01*
X117240572Y-129664571D02*
X117740572Y-130450286D01*
X118240572Y-129664571D01*
X90249858Y-128764571D02*
X90249858Y-127264571D01*
X90749858Y-128336000D01*
X91249858Y-127264571D01*
X91249858Y-128764571D01*
X91892715Y-128336000D02*
X92607001Y-128336000D01*
X91749858Y-128764571D02*
X92249858Y-127264571D01*
X92749858Y-128764571D01*
X93178429Y-128693143D02*
X93392715Y-128764571D01*
X93749858Y-128764571D01*
X93892715Y-128693143D01*
X93964144Y-128621714D01*
X94035572Y-128478857D01*
X94035572Y-128336000D01*
X93964144Y-128193143D01*
X93892715Y-128121714D01*
X93749858Y-128050286D01*
X93464144Y-127978857D01*
X93321286Y-127907429D01*
X93249858Y-127836000D01*
X93178429Y-127693143D01*
X93178429Y-127550286D01*
X93249858Y-127407429D01*
X93321286Y-127336000D01*
X93464144Y-127264571D01*
X93821286Y-127264571D01*
X94035572Y-127336000D01*
X94464143Y-127264571D02*
X95321286Y-127264571D01*
X94892715Y-128764571D02*
X94892715Y-127264571D01*
X95821286Y-127978857D02*
X96321286Y-127978857D01*
X96535572Y-128764571D02*
X95821286Y-128764571D01*
X95821286Y-127264571D01*
X96535572Y-127264571D01*
X98035572Y-128764571D02*
X97535572Y-128050286D01*
X97178429Y-128764571D02*
X97178429Y-127264571D01*
X97749857Y-127264571D01*
X97892715Y-127336000D01*
X97964143Y-127407429D01*
X98035572Y-127550286D01*
X98035572Y-127764571D01*
X97964143Y-127907429D01*
X97892715Y-127978857D01*
X97749857Y-128050286D01*
X97178429Y-128050286D01*
X91999858Y-131164571D02*
X91499858Y-130450286D01*
X91142715Y-131164571D02*
X91142715Y-129664571D01*
X91714143Y-129664571D01*
X91857001Y-129736000D01*
X91928429Y-129807429D01*
X91999858Y-129950286D01*
X91999858Y-130164571D01*
X91928429Y-130307429D01*
X91857001Y-130378857D01*
X91714143Y-130450286D01*
X91142715Y-130450286D01*
X92642715Y-130378857D02*
X93142715Y-130378857D01*
X93357001Y-131164571D02*
X92642715Y-131164571D01*
X92642715Y-129664571D01*
X93357001Y-129664571D01*
X94714144Y-131164571D02*
X93999858Y-131164571D01*
X93999858Y-129664571D01*
X95142715Y-130736000D02*
X95857001Y-130736000D01*
X94999858Y-131164571D02*
X95499858Y-129664571D01*
X95999858Y-131164571D01*
X96785572Y-130450286D02*
X96785572Y-131164571D01*
X96285572Y-129664571D02*
X96785572Y-130450286D01*
X97285572Y-129664571D01*
X76978357Y-116937714D02*
X76906928Y-117009143D01*
X76692642Y-117080571D01*
X76549785Y-117080571D01*
X76335500Y-117009143D01*
X76192642Y-116866286D01*
X76121214Y-116723429D01*
X76049785Y-116437714D01*
X76049785Y-116223429D01*
X76121214Y-115937714D01*
X76192642Y-115794857D01*
X76335500Y-115652000D01*
X76549785Y-115580571D01*
X76692642Y-115580571D01*
X76906928Y-115652000D01*
X76978357Y-115723429D01*
X77621214Y-115580571D02*
X77621214Y-116794857D01*
X77692642Y-116937714D01*
X77764071Y-117009143D01*
X77906928Y-117080571D01*
X78192642Y-117080571D01*
X78335500Y-117009143D01*
X78406928Y-116937714D01*
X78478357Y-116794857D01*
X78478357Y-115580571D01*
X80049786Y-117080571D02*
X79549786Y-116366286D01*
X79192643Y-117080571D02*
X79192643Y-115580571D01*
X79764071Y-115580571D01*
X79906929Y-115652000D01*
X79978357Y-115723429D01*
X80049786Y-115866286D01*
X80049786Y-116080571D01*
X79978357Y-116223429D01*
X79906929Y-116294857D01*
X79764071Y-116366286D01*
X79192643Y-116366286D01*
X81549786Y-117080571D02*
X81049786Y-116366286D01*
X80692643Y-117080571D02*
X80692643Y-115580571D01*
X81264071Y-115580571D01*
X81406929Y-115652000D01*
X81478357Y-115723429D01*
X81549786Y-115866286D01*
X81549786Y-116080571D01*
X81478357Y-116223429D01*
X81406929Y-116294857D01*
X81264071Y-116366286D01*
X80692643Y-116366286D01*
X82192643Y-116294857D02*
X82692643Y-116294857D01*
X82906929Y-117080571D02*
X82192643Y-117080571D01*
X82192643Y-115580571D01*
X82906929Y-115580571D01*
X83549786Y-117080571D02*
X83549786Y-115580571D01*
X84406929Y-117080571D01*
X84406929Y-115580571D01*
X84906929Y-115580571D02*
X85764072Y-115580571D01*
X85335501Y-117080571D02*
X85335501Y-115580571D01*
X78692643Y-119409143D02*
X78906929Y-119480571D01*
X79264072Y-119480571D01*
X79406929Y-119409143D01*
X79478358Y-119337714D01*
X79549786Y-119194857D01*
X79549786Y-119052000D01*
X79478358Y-118909143D01*
X79406929Y-118837714D01*
X79264072Y-118766286D01*
X78978358Y-118694857D01*
X78835500Y-118623429D01*
X78764072Y-118552000D01*
X78692643Y-118409143D01*
X78692643Y-118266286D01*
X78764072Y-118123429D01*
X78835500Y-118052000D01*
X78978358Y-117980571D01*
X79335500Y-117980571D01*
X79549786Y-118052000D01*
X80192643Y-118694857D02*
X80692643Y-118694857D01*
X80906929Y-119480571D02*
X80192643Y-119480571D01*
X80192643Y-117980571D01*
X80906929Y-117980571D01*
X81549786Y-119480571D02*
X81549786Y-117980571D01*
X82406929Y-119480571D01*
X82406929Y-117980571D01*
X83049786Y-119409143D02*
X83264072Y-119480571D01*
X83621215Y-119480571D01*
X83764072Y-119409143D01*
X83835501Y-119337714D01*
X83906929Y-119194857D01*
X83906929Y-119052000D01*
X83835501Y-118909143D01*
X83764072Y-118837714D01*
X83621215Y-118766286D01*
X83335501Y-118694857D01*
X83192643Y-118623429D01*
X83121215Y-118552000D01*
X83049786Y-118409143D01*
X83049786Y-118266286D01*
X83121215Y-118123429D01*
X83192643Y-118052000D01*
X83335501Y-117980571D01*
X83692643Y-117980571D01*
X83906929Y-118052000D01*
X84549786Y-118694857D02*
X85049786Y-118694857D01*
X85264072Y-119480571D02*
X84549786Y-119480571D01*
X84549786Y-117980571D01*
X85264072Y-117980571D01*
X113629715Y-67209357D02*
X113844001Y-67280786D01*
X113915429Y-67352214D01*
X113986858Y-67495071D01*
X113986858Y-67709357D01*
X113915429Y-67852214D01*
X113844001Y-67923643D01*
X113701143Y-67995071D01*
X113129715Y-67995071D01*
X113129715Y-66495071D01*
X113629715Y-66495071D01*
X113772572Y-66566500D01*
X113844001Y-66637929D01*
X113915429Y-66780786D01*
X113915429Y-66923643D01*
X113844001Y-67066500D01*
X113772572Y-67137929D01*
X113629715Y-67209357D01*
X113129715Y-67209357D01*
X114415429Y-66495071D02*
X115272572Y-66495071D01*
X114844001Y-67995071D02*
X114844001Y-66495071D01*
X115701143Y-67566500D02*
X116415429Y-67566500D01*
X115558286Y-67995071D02*
X116058286Y-66495071D01*
X116558286Y-67995071D01*
X117844000Y-67995071D02*
X116986857Y-67995071D01*
X117415429Y-67995071D02*
X117415429Y-66495071D01*
X117272572Y-66709357D01*
X117129714Y-66852214D01*
X116986857Y-66923643D01*
X119129714Y-66495071D02*
X118844000Y-66495071D01*
X118701143Y-66566500D01*
X118629714Y-66637929D01*
X118486857Y-66852214D01*
X118415428Y-67137929D01*
X118415428Y-67709357D01*
X118486857Y-67852214D01*
X118558285Y-67923643D01*
X118701143Y-67995071D01*
X118986857Y-67995071D01*
X119129714Y-67923643D01*
X119201143Y-67852214D01*
X119272571Y-67709357D01*
X119272571Y-67352214D01*
X119201143Y-67209357D01*
X119129714Y-67137929D01*
X118986857Y-67066500D01*
X118701143Y-67066500D01*
X118558285Y-67137929D01*
X118486857Y-67209357D01*
X118415428Y-67352214D01*
X119915428Y-67423643D02*
X121058285Y-67423643D01*
X113272573Y-69537929D02*
X113129715Y-69466500D01*
X113058287Y-69395071D01*
X112986858Y-69252214D01*
X112986858Y-69180786D01*
X113058287Y-69037929D01*
X113129715Y-68966500D01*
X113272573Y-68895071D01*
X113558287Y-68895071D01*
X113701144Y-68966500D01*
X113772573Y-69037929D01*
X113844001Y-69180786D01*
X113844001Y-69252214D01*
X113772573Y-69395071D01*
X113701144Y-69466500D01*
X113558287Y-69537929D01*
X113272573Y-69537929D01*
X113129715Y-69609357D01*
X113058287Y-69680786D01*
X112986858Y-69823643D01*
X112986858Y-70109357D01*
X113058287Y-70252214D01*
X113129715Y-70323643D01*
X113272573Y-70395071D01*
X113558287Y-70395071D01*
X113701144Y-70323643D01*
X113772573Y-70252214D01*
X113844001Y-70109357D01*
X113844001Y-69823643D01*
X113772573Y-69680786D01*
X113701144Y-69609357D01*
X113558287Y-69537929D01*
X114772572Y-68895071D02*
X114915429Y-68895071D01*
X115058286Y-68966500D01*
X115129715Y-69037929D01*
X115201144Y-69180786D01*
X115272572Y-69466500D01*
X115272572Y-69823643D01*
X115201144Y-70109357D01*
X115129715Y-70252214D01*
X115058286Y-70323643D01*
X114915429Y-70395071D01*
X114772572Y-70395071D01*
X114629715Y-70323643D01*
X114558286Y-70252214D01*
X114486858Y-70109357D01*
X114415429Y-69823643D01*
X114415429Y-69466500D01*
X114486858Y-69180786D01*
X114558286Y-69037929D01*
X114629715Y-68966500D01*
X114772572Y-68895071D01*
X116201143Y-68895071D02*
X116344000Y-68895071D01*
X116486857Y-68966500D01*
X116558286Y-69037929D01*
X116629715Y-69180786D01*
X116701143Y-69466500D01*
X116701143Y-69823643D01*
X116629715Y-70109357D01*
X116558286Y-70252214D01*
X116486857Y-70323643D01*
X116344000Y-70395071D01*
X116201143Y-70395071D01*
X116058286Y-70323643D01*
X115986857Y-70252214D01*
X115915429Y-70109357D01*
X115844000Y-69823643D01*
X115844000Y-69466500D01*
X115915429Y-69180786D01*
X115986857Y-69037929D01*
X116058286Y-68966500D01*
X116201143Y-68895071D01*
X117844000Y-69609357D02*
X118058286Y-69680786D01*
X118129714Y-69752214D01*
X118201143Y-69895071D01*
X118201143Y-70109357D01*
X118129714Y-70252214D01*
X118058286Y-70323643D01*
X117915428Y-70395071D01*
X117344000Y-70395071D01*
X117344000Y-68895071D01*
X117844000Y-68895071D01*
X117986857Y-68966500D01*
X118058286Y-69037929D01*
X118129714Y-69180786D01*
X118129714Y-69323643D01*
X118058286Y-69466500D01*
X117986857Y-69537929D01*
X117844000Y-69609357D01*
X117344000Y-69609357D01*
X119701143Y-70395071D02*
X119201143Y-69680786D01*
X118844000Y-70395071D02*
X118844000Y-68895071D01*
X119415428Y-68895071D01*
X119558286Y-68966500D01*
X119629714Y-69037929D01*
X119701143Y-69180786D01*
X119701143Y-69395071D01*
X119629714Y-69537929D01*
X119558286Y-69609357D01*
X119415428Y-69680786D01*
X118844000Y-69680786D01*
X121129714Y-68966500D02*
X120986857Y-68895071D01*
X120772571Y-68895071D01*
X120558286Y-68966500D01*
X120415428Y-69109357D01*
X120344000Y-69252214D01*
X120272571Y-69537929D01*
X120272571Y-69752214D01*
X120344000Y-70037929D01*
X120415428Y-70180786D01*
X120558286Y-70323643D01*
X120772571Y-70395071D01*
X120915428Y-70395071D01*
X121129714Y-70323643D01*
X121201143Y-70252214D01*
X121201143Y-69752214D01*
X120915428Y-69752214D01*
X118186000Y-87704071D02*
X119043143Y-87704071D01*
X118614572Y-89204071D02*
X118614572Y-87704071D01*
X119543143Y-89204071D02*
X119543143Y-87704071D01*
X119543143Y-88418357D02*
X120400286Y-88418357D01*
X120400286Y-89204071D02*
X120400286Y-87704071D01*
X121114572Y-88418357D02*
X121614572Y-88418357D01*
X121828858Y-89204071D02*
X121114572Y-89204071D01*
X121114572Y-87704071D01*
X121828858Y-87704071D01*
X123328858Y-89204071D02*
X122828858Y-88489786D01*
X122471715Y-89204071D02*
X122471715Y-87704071D01*
X123043143Y-87704071D01*
X123186001Y-87775500D01*
X123257429Y-87846929D01*
X123328858Y-87989786D01*
X123328858Y-88204071D01*
X123257429Y-88346929D01*
X123186001Y-88418357D01*
X123043143Y-88489786D01*
X122471715Y-88489786D01*
X123971715Y-89204071D02*
X123971715Y-87704071D01*
X124471715Y-88775500D01*
X124971715Y-87704071D01*
X124971715Y-89204071D01*
X125614572Y-88775500D02*
X126328858Y-88775500D01*
X125471715Y-89204071D02*
X125971715Y-87704071D01*
X126471715Y-89204071D01*
X127686001Y-89204071D02*
X126971715Y-89204071D01*
X126971715Y-87704071D01*
X119186000Y-91532643D02*
X119400286Y-91604071D01*
X119757429Y-91604071D01*
X119900286Y-91532643D01*
X119971715Y-91461214D01*
X120043143Y-91318357D01*
X120043143Y-91175500D01*
X119971715Y-91032643D01*
X119900286Y-90961214D01*
X119757429Y-90889786D01*
X119471715Y-90818357D01*
X119328857Y-90746929D01*
X119257429Y-90675500D01*
X119186000Y-90532643D01*
X119186000Y-90389786D01*
X119257429Y-90246929D01*
X119328857Y-90175500D01*
X119471715Y-90104071D01*
X119828857Y-90104071D01*
X120043143Y-90175500D01*
X120543143Y-90104071D02*
X120900286Y-91604071D01*
X121186000Y-90532643D01*
X121471714Y-91604071D01*
X121828857Y-90104071D01*
X122400286Y-91604071D02*
X122400286Y-90104071D01*
X122900286Y-90104071D02*
X123757429Y-90104071D01*
X123328858Y-91604071D02*
X123328858Y-90104071D01*
X125114572Y-91461214D02*
X125043143Y-91532643D01*
X124828857Y-91604071D01*
X124686000Y-91604071D01*
X124471715Y-91532643D01*
X124328857Y-91389786D01*
X124257429Y-91246929D01*
X124186000Y-90961214D01*
X124186000Y-90746929D01*
X124257429Y-90461214D01*
X124328857Y-90318357D01*
X124471715Y-90175500D01*
X124686000Y-90104071D01*
X124828857Y-90104071D01*
X125043143Y-90175500D01*
X125114572Y-90246929D01*
X125757429Y-91604071D02*
X125757429Y-90104071D01*
X125757429Y-90818357D02*
X126614572Y-90818357D01*
X126614572Y-91604071D02*
X126614572Y-90104071D01*
D14*
X121602500Y-113474500D02*
G75*
G03X121602500Y-113474500I-127000J0D01*
G01*
D11*
X36561502Y-107192071D02*
X37061502Y-108692071D01*
X37561502Y-107192071D01*
X37847216Y-107192071D02*
X38704359Y-107192071D01*
X38275788Y-108692071D02*
X38275788Y-107192071D01*
X39061502Y-107192071D02*
X40061502Y-108692071D01*
X40061502Y-107192071D02*
X39061502Y-108692071D01*
X40632930Y-108120643D02*
X41775787Y-108120643D01*
X42418644Y-107334929D02*
X42490073Y-107263500D01*
X42632930Y-107192071D01*
X42990073Y-107192071D01*
X43132930Y-107263500D01*
X43204359Y-107334929D01*
X43275787Y-107477786D01*
X43275787Y-107620643D01*
X43204359Y-107834929D01*
X42347216Y-108692071D01*
X43275787Y-108692071D01*
X44704358Y-108692071D02*
X43847215Y-108692071D01*
X44275787Y-108692071D02*
X44275787Y-107192071D01*
X44132930Y-107406357D01*
X43990072Y-107549214D01*
X43847215Y-107620643D01*
X45990072Y-107692071D02*
X45990072Y-108692071D01*
X45632929Y-107120643D02*
X45275786Y-108192071D01*
X46204358Y-108192071D01*
X46775786Y-108120643D02*
X47918643Y-108120643D01*
X48918643Y-107192071D02*
X49061500Y-107192071D01*
X49204357Y-107263500D01*
X49275786Y-107334929D01*
X49347215Y-107477786D01*
X49418643Y-107763500D01*
X49418643Y-108120643D01*
X49347215Y-108406357D01*
X49275786Y-108549214D01*
X49204357Y-108620643D01*
X49061500Y-108692071D01*
X48918643Y-108692071D01*
X48775786Y-108620643D01*
X48704357Y-108549214D01*
X48632929Y-108406357D01*
X48561500Y-108120643D01*
X48561500Y-107763500D01*
X48632929Y-107477786D01*
X48704357Y-107334929D01*
X48775786Y-107263500D01*
X48918643Y-107192071D01*
X50347214Y-107192071D02*
X50490071Y-107192071D01*
X50632928Y-107263500D01*
X50704357Y-107334929D01*
X50775786Y-107477786D01*
X50847214Y-107763500D01*
X50847214Y-108120643D01*
X50775786Y-108406357D01*
X50704357Y-108549214D01*
X50632928Y-108620643D01*
X50490071Y-108692071D01*
X50347214Y-108692071D01*
X50204357Y-108620643D01*
X50132928Y-108549214D01*
X50061500Y-108406357D01*
X49990071Y-108120643D01*
X49990071Y-107763500D01*
X50061500Y-107477786D01*
X50132928Y-107334929D01*
X50204357Y-107263500D01*
X50347214Y-107192071D01*
X51347214Y-107192071D02*
X52275785Y-107192071D01*
X51775785Y-107763500D01*
X51990071Y-107763500D01*
X52132928Y-107834929D01*
X52204357Y-107906357D01*
X52275785Y-108049214D01*
X52275785Y-108406357D01*
X52204357Y-108549214D01*
X52132928Y-108620643D01*
X51990071Y-108692071D01*
X51561499Y-108692071D01*
X51418642Y-108620643D01*
X51347214Y-108549214D01*
X52918642Y-108120643D02*
X54061499Y-108120643D01*
X55561499Y-108692071D02*
X54704356Y-108692071D01*
X55132928Y-108692071D02*
X55132928Y-107192071D01*
X54990071Y-107406357D01*
X54847213Y-107549214D01*
X54704356Y-107620643D01*
X56490070Y-107192071D02*
X56632927Y-107192071D01*
X56775784Y-107263500D01*
X56847213Y-107334929D01*
X56918642Y-107477786D01*
X56990070Y-107763500D01*
X56990070Y-108120643D01*
X56918642Y-108406357D01*
X56847213Y-108549214D01*
X56775784Y-108620643D01*
X56632927Y-108692071D01*
X56490070Y-108692071D01*
X56347213Y-108620643D01*
X56275784Y-108549214D01*
X56204356Y-108406357D01*
X56132927Y-108120643D01*
X56132927Y-107763500D01*
X56204356Y-107477786D01*
X56275784Y-107334929D01*
X56347213Y-107263500D01*
X56490070Y-107192071D01*
X58347213Y-107192071D02*
X57632927Y-107192071D01*
X57561498Y-107906357D01*
X57632927Y-107834929D01*
X57775784Y-107763500D01*
X58132927Y-107763500D01*
X58275784Y-107834929D01*
X58347213Y-107906357D01*
X58418641Y-108049214D01*
X58418641Y-108406357D01*
X58347213Y-108549214D01*
X58275784Y-108620643D01*
X58132927Y-108692071D01*
X57775784Y-108692071D01*
X57632927Y-108620643D01*
X57561498Y-108549214D01*
D15*
X113157000Y-71374000D02*
X113157000Y-73279000D01*
X113157000Y-75819000D02*
X113157000Y-75057000D01*
X113157000Y-78232000D02*
X113157000Y-78359000D01*
X113157000Y-78232000D02*
X113157000Y-77597000D01*
X113157000Y-82042000D02*
X113157000Y-80264000D01*
X116840000Y-82042000D02*
X116840000Y-80391000D01*
X116967000Y-77724000D02*
X116967000Y-78359000D01*
X116967000Y-75184000D02*
X116967000Y-75819000D01*
X116840000Y-71374000D02*
X116840000Y-73025000D01*
X112014000Y-78232000D02*
X113157000Y-78232000D01*
X112014000Y-75184000D02*
X113157000Y-75184000D01*
X113157000Y-71374000D02*
X116840000Y-71374000D01*
X116840000Y-82042000D02*
X113157000Y-82042000D01*
X112014000Y-71374000D02*
X113157000Y-71374000D01*
X113157000Y-82042000D02*
X112014000Y-82042000D01*
X112014000Y-76708000D02*
X112014000Y-82042000D01*
X112014000Y-76708000D02*
X112014000Y-71374000D01*
X85670000Y-120853000D02*
X85670000Y-90613000D01*
X85670000Y-90613000D02*
X98270000Y-90613000D01*
X98270000Y-90613000D02*
X98270000Y-120853000D01*
X98270000Y-120853000D02*
X85670000Y-120853000D01*
D12*
X96658000Y-123252000D02*
X94858000Y-123252000D01*
D15*
X96858000Y-123052000D02*
X94658000Y-123052000D01*
X94658000Y-123052000D02*
X94658000Y-123452000D01*
X94658000Y-123452000D02*
X96858000Y-123452000D01*
X96858000Y-123452000D02*
X96858000Y-123052000D01*
X95058000Y-125552000D02*
X94658000Y-125552000D01*
X94658000Y-125552000D02*
X94658000Y-122152000D01*
X94658000Y-122152000D02*
X95058000Y-122152000D01*
X96458000Y-122152000D02*
X96858000Y-122152000D01*
X96858000Y-122152000D02*
X96858000Y-125552000D01*
X96858000Y-125552000D02*
X96458000Y-125552000D01*
X120650000Y-109220000D02*
X129540000Y-109220000D01*
X129540000Y-109220000D02*
X129540000Y-114300000D01*
X129540000Y-114300000D02*
X120650000Y-114300000D01*
X120650000Y-114300000D02*
X120650000Y-109220000D01*
X120650000Y-111125000D02*
X121920000Y-111125000D01*
X121920000Y-111125000D02*
X121920000Y-112395000D01*
X121920000Y-112395000D02*
X120650000Y-112395000D01*
X80000000Y-45800000D02*
X80000000Y-32100000D01*
X30000000Y-45800000D02*
X30000000Y-32100000D01*
X42000000Y-52900000D02*
X42000000Y-32100000D01*
X68000000Y-52900000D02*
X68000000Y-32100000D01*
X68000000Y-52900000D02*
X42000000Y-52900000D01*
X80000000Y-45800000D02*
X30000000Y-45800000D01*
X80000000Y-32100000D02*
X30000000Y-32100000D01*
X38300000Y-127000000D02*
G75*
G03X38300000Y-127000000I-3300000J0D01*
G01*
X128300000Y-127000000D02*
G75*
G03X128300000Y-127000000I-3300000J0D01*
G01*
X112014000Y-85598000D02*
X74930000Y-85598000D01*
X74930000Y-67818000D02*
X112014000Y-67818000D01*
X74930000Y-66802000D02*
X112014000Y-66802000D01*
X112014000Y-66802000D02*
X112014000Y-86614000D01*
X112014000Y-86614000D02*
X74930000Y-86614000D01*
X74930000Y-86614000D02*
X74930000Y-66802000D01*
X89353553Y-122000000D02*
G75*
G03X89353553Y-122000000I-353553J0D01*
G01*
X89250000Y-122000000D02*
G75*
G03X89250000Y-122000000I-250000J0D01*
G01*
X82000000Y-122000000D02*
X89000000Y-122000000D01*
X71000000Y-122000000D02*
X78000000Y-122000000D01*
X78000000Y-122000000D02*
X78000000Y-123000000D01*
X78000000Y-123000000D02*
X82000000Y-123000000D01*
X82000000Y-123000000D02*
X82000000Y-122000000D01*
X89000000Y-122000000D02*
X89000000Y-131000000D01*
X89000000Y-131000000D02*
X71000000Y-131000000D01*
X71000000Y-131000000D02*
X71000000Y-122000000D01*
X121553000Y-120234000D02*
X121553000Y-119034000D01*
X123303000Y-119034000D02*
X123303000Y-120234000D01*
X116678000Y-123303000D02*
X115478000Y-123303000D01*
X115478000Y-121553000D02*
X116678000Y-121553000D01*
X66202000Y-123585000D02*
X67402000Y-123585000D01*
X67402000Y-125335000D02*
X66202000Y-125335000D01*
X99533000Y-123176000D02*
X98333000Y-123176000D01*
X98333000Y-121426000D02*
X99533000Y-121426000D01*
X62890000Y-65258000D02*
X62890000Y-78658000D01*
X56490000Y-78658000D02*
X56490000Y-65258000D01*
X63590000Y-78658000D02*
X55790000Y-78658000D01*
X55790000Y-78658000D02*
X55790000Y-86258000D01*
X55790000Y-86258000D02*
X63590000Y-86258000D01*
X63590000Y-86258000D02*
X63590000Y-78658000D01*
X63590000Y-57658000D02*
X63590000Y-65258000D01*
X63590000Y-65258000D02*
X55790000Y-65258000D01*
X55790000Y-65258000D02*
X55790000Y-57658000D01*
X63590000Y-57658000D02*
X55790000Y-57658000D01*
X41539000Y-77660000D02*
X41539000Y-85160000D01*
X50139000Y-77660000D02*
X40539000Y-77660000D01*
X49139000Y-77660000D02*
X49139000Y-85160000D01*
X40639000Y-70160000D02*
X50139000Y-70160000D01*
X41539000Y-70160000D02*
X41539000Y-62660000D01*
X49139000Y-70160000D02*
X49139000Y-62660000D01*
X40539000Y-62660000D02*
X40539000Y-85160000D01*
X40539000Y-85160000D02*
X50139000Y-85160000D01*
X50139000Y-85160000D02*
X50139000Y-62660000D01*
X50139000Y-62660000D02*
X40539000Y-62660000D01*
X76138000Y-107896000D02*
X65338000Y-107896000D01*
X75669210Y-108810000D02*
G75*
G03X75669210Y-108810000I-359210J0D01*
G01*
X76199000Y-107359000D02*
X76199000Y-115360000D01*
X65277000Y-115360000D02*
X65277000Y-107359000D01*
X76199000Y-115360000D02*
X65277000Y-115360000D01*
X65277000Y-107359000D02*
X76199000Y-107359000D01*
X76199000Y-111804000D02*
X75437000Y-111804000D01*
X75437000Y-111804000D02*
X75437000Y-110788000D01*
X75437000Y-110788000D02*
X76199000Y-110788000D01*
X30990000Y-123347000D02*
X62990000Y-123347000D01*
X62990000Y-123347000D02*
X62990000Y-95347000D01*
X62990000Y-95347000D02*
X30990000Y-95347000D01*
X30990000Y-95347000D02*
X30990000Y-123347000D01*
X126738000Y-118022000D02*
X125738000Y-118022000D01*
X125738000Y-119722000D02*
X126738000Y-119722000D01*
X120285000Y-82051000D02*
X122285000Y-82051000D01*
X122285000Y-80001000D02*
X120285000Y-80001000D01*
X121625000Y-104600000D02*
X121625000Y-103400000D01*
X123375000Y-103400000D02*
X123375000Y-104600000D01*
X102884000Y-124679000D02*
X102884000Y-123479000D01*
X104634000Y-123479000D02*
X104634000Y-124679000D01*
X91221000Y-125363000D02*
X92421000Y-125363000D01*
X92421000Y-127113000D02*
X91221000Y-127113000D01*
X122285000Y-75233000D02*
X120285000Y-75233000D01*
X120285000Y-78183000D02*
X122285000Y-78183000D01*
X74541000Y-118530000D02*
X73541000Y-118530000D01*
X73541000Y-120230000D02*
X74541000Y-120230000D01*
X66302000Y-122770000D02*
X67302000Y-122770000D01*
X67302000Y-121070000D02*
X66302000Y-121070000D01*
X66302000Y-120230000D02*
X67302000Y-120230000D01*
X67302000Y-118530000D02*
X66302000Y-118530000D01*
X88600000Y-57800000D02*
X88600000Y-47100000D01*
X121400000Y-57800000D02*
X121400000Y-47100000D01*
X130000000Y-47100000D02*
X80000000Y-47100000D01*
X88600000Y-57800000D02*
X121400000Y-57800000D01*
X80000000Y-32100000D02*
X130000000Y-32100000D01*
X80000000Y-32100000D02*
X80000000Y-47100000D01*
X130000000Y-32100000D02*
X130000000Y-47100000D01*
X66402000Y-127346000D02*
X67202000Y-127346000D01*
X66402000Y-126146000D02*
X67202000Y-126146000D01*
X66602000Y-126746000D02*
X66802000Y-126746000D01*
X66602000Y-126546000D02*
X66602000Y-126946000D01*
X66602000Y-126946000D02*
X66902000Y-126746000D01*
X66902000Y-126746000D02*
X66602000Y-126546000D01*
X67102000Y-126746000D02*
X66502000Y-127146000D01*
X66502000Y-126346000D02*
X67102000Y-126746000D01*
X66502000Y-126346000D02*
X66502000Y-127146000D01*
X98660000Y-125060000D02*
X99460000Y-125060000D01*
X98660000Y-123860000D02*
X99460000Y-123860000D01*
X98860000Y-124460000D02*
X99060000Y-124460000D01*
X98860000Y-124260000D02*
X98860000Y-124660000D01*
X98860000Y-124660000D02*
X99160000Y-124460000D01*
X99160000Y-124460000D02*
X98860000Y-124260000D01*
X99360000Y-124460000D02*
X98760000Y-124860000D01*
X98760000Y-124060000D02*
X99360000Y-124460000D01*
X98760000Y-124060000D02*
X98760000Y-124860000D01*
X115678000Y-125314000D02*
X116478000Y-125314000D01*
X115678000Y-124114000D02*
X116478000Y-124114000D01*
X115878000Y-124714000D02*
X116078000Y-124714000D01*
X115878000Y-124514000D02*
X115878000Y-124914000D01*
X115878000Y-124914000D02*
X116178000Y-124714000D01*
X116178000Y-124714000D02*
X115878000Y-124514000D01*
X116378000Y-124714000D02*
X115778000Y-125114000D01*
X115778000Y-124314000D02*
X116378000Y-124714000D01*
X115778000Y-124314000D02*
X115778000Y-125114000D01*
X125838000Y-122012000D02*
X126638000Y-122012000D01*
X125838000Y-120812000D02*
X126638000Y-120812000D01*
X126038000Y-121412000D02*
X126238000Y-121412000D01*
X126038000Y-121212000D02*
X126038000Y-121612000D01*
X126038000Y-121612000D02*
X126338000Y-121412000D01*
X126338000Y-121412000D02*
X126038000Y-121212000D01*
X126538000Y-121412000D02*
X125938000Y-121812000D01*
X125938000Y-121012000D02*
X126538000Y-121412000D01*
X125938000Y-121012000D02*
X125938000Y-121812000D01*
X66402000Y-127346000D02*
X67202000Y-127346000D01*
X66402000Y-126146000D02*
X67202000Y-126146000D01*
X66602000Y-126746000D02*
X66802000Y-126746000D01*
X66602000Y-126546000D02*
X66602000Y-126946000D01*
X66602000Y-126946000D02*
X66902000Y-126746000D01*
X66902000Y-126746000D02*
X66602000Y-126546000D01*
X67102000Y-126746000D02*
X66502000Y-127146000D01*
X66502000Y-126346000D02*
X67102000Y-126746000D01*
X66502000Y-126346000D02*
X66502000Y-127146000D01*
D12*
X113168000Y-123760000D02*
X111368000Y-123760000D01*
D15*
X113368000Y-123560000D02*
X111168000Y-123560000D01*
X111168000Y-123560000D02*
X111168000Y-123960000D01*
X111168000Y-123960000D02*
X113368000Y-123960000D01*
X113368000Y-123960000D02*
X113368000Y-123560000D01*
X111568000Y-126060000D02*
X111168000Y-126060000D01*
X111168000Y-126060000D02*
X111168000Y-122660000D01*
X111168000Y-122660000D02*
X111568000Y-122660000D01*
X112968000Y-122660000D02*
X113368000Y-122660000D01*
X113368000Y-122660000D02*
X113368000Y-126060000D01*
X113368000Y-126060000D02*
X112968000Y-126060000D01*
X105996000Y-120980000D02*
X105996000Y-90740000D01*
X105996000Y-90740000D02*
X118596000Y-90740000D01*
X118596000Y-90740000D02*
X118596000Y-120980000D01*
X118596000Y-120980000D02*
X105996000Y-120980000D01*
X110009000Y-122917000D02*
X110009000Y-121717000D01*
X108209000Y-124717000D02*
X108209000Y-124917000D01*
X108209000Y-124917000D02*
X110009000Y-124917000D01*
X110009000Y-124917000D02*
X110009000Y-123717000D01*
X108209000Y-122817000D02*
X108209000Y-123817000D01*
X110009000Y-121717000D02*
X108209000Y-121717000D01*
X108209000Y-121717000D02*
X108209000Y-121917000D01*
X92737000Y-122917000D02*
X92737000Y-121717000D01*
X90937000Y-124717000D02*
X90937000Y-124917000D01*
X90937000Y-124917000D02*
X92737000Y-124917000D01*
X92737000Y-124917000D02*
X92737000Y-123717000D01*
X90937000Y-122817000D02*
X90937000Y-123817000D01*
X92737000Y-121717000D02*
X90937000Y-121717000D01*
X90937000Y-121717000D02*
X90937000Y-121917000D01*
D16*
G36*
X73281447Y-46463809D02*
X73308147Y-46470398D01*
X73319218Y-46481638D01*
X73321334Y-46497170D01*
X73341494Y-46536699D01*
X73398037Y-46574237D01*
X73443760Y-46599042D01*
X73465501Y-46616918D01*
X73465458Y-46620098D01*
X73474827Y-46638394D01*
X73507777Y-46679370D01*
X73558141Y-46735583D01*
X73583116Y-46762066D01*
X73598597Y-46780002D01*
X73619495Y-46807381D01*
X73646511Y-46845350D01*
X73680352Y-46895055D01*
X73721721Y-46957644D01*
X73771321Y-47034263D01*
X73829859Y-47126059D01*
X73898036Y-47234178D01*
X73976558Y-47359769D01*
X74066129Y-47503976D01*
X74167453Y-47667948D01*
X74281233Y-47852831D01*
X74408175Y-48059772D01*
X74548982Y-48289917D01*
X74704359Y-48544414D01*
X74875009Y-48824409D01*
X75061636Y-49131049D01*
X75264946Y-49465481D01*
X75485642Y-49828851D01*
X75724427Y-50222307D01*
X75982007Y-50646995D01*
X76259085Y-51104062D01*
X76556366Y-51594655D01*
X76874553Y-52119920D01*
X76998155Y-52324000D01*
X77265251Y-52764922D01*
X77526706Y-53196331D01*
X77781669Y-53616830D01*
X78029290Y-54025022D01*
X78268717Y-54419509D01*
X78499099Y-54798896D01*
X78719587Y-55161785D01*
X78929329Y-55506780D01*
X79127474Y-55832484D01*
X79313171Y-56137499D01*
X79485570Y-56420430D01*
X79643820Y-56679879D01*
X79787070Y-56914449D01*
X79914470Y-57122744D01*
X80025168Y-57303367D01*
X80118313Y-57454920D01*
X80193055Y-57576008D01*
X80248544Y-57665232D01*
X80283927Y-57721197D01*
X80298355Y-57742506D01*
X80298640Y-57742667D01*
X80313253Y-57754982D01*
X80341037Y-57797094D01*
X80376679Y-57860713D01*
X80386831Y-57880250D01*
X80422552Y-57953528D01*
X80445451Y-58013954D01*
X80458860Y-58075977D01*
X80466110Y-58154047D01*
X80469793Y-58240084D01*
X80472413Y-58338075D01*
X80470805Y-58406459D01*
X80462637Y-58457917D01*
X80445577Y-58505133D01*
X80417293Y-58560789D01*
X80407516Y-58578750D01*
X80371109Y-58640480D01*
X80341289Y-58682246D01*
X80324276Y-58695386D01*
X80323914Y-58695167D01*
X80300872Y-58700590D01*
X80265490Y-58726931D01*
X80231200Y-58761521D01*
X80211431Y-58791692D01*
X80211315Y-58801375D01*
X80198520Y-58817106D01*
X80155883Y-58843879D01*
X80092466Y-58876044D01*
X80088955Y-58877673D01*
X79957084Y-58938584D01*
X73002175Y-58944001D01*
X66047266Y-58949419D01*
X65915383Y-58883516D01*
X65851980Y-58849555D01*
X65808894Y-58822026D01*
X65794775Y-58806511D01*
X65795149Y-58805962D01*
X65794986Y-58783099D01*
X65773742Y-58757708D01*
X65747689Y-58747186D01*
X65741981Y-58749125D01*
X65724351Y-58737373D01*
X65694801Y-58695983D01*
X65659436Y-58633624D01*
X65656128Y-58627184D01*
X65597967Y-58467982D01*
X65575233Y-58293869D01*
X65580053Y-58223577D01*
X65792342Y-58223577D01*
X65795283Y-58367240D01*
X65832258Y-58494124D01*
X65901963Y-58600021D01*
X66003096Y-58680724D01*
X66016871Y-58688299D01*
X66110159Y-58737500D01*
X72960988Y-58737500D01*
X73605207Y-58737485D01*
X74208443Y-58737436D01*
X74772042Y-58737347D01*
X75297355Y-58737210D01*
X75785731Y-58737021D01*
X76238517Y-58736772D01*
X76657063Y-58736458D01*
X77042718Y-58736071D01*
X77396831Y-58735606D01*
X77720750Y-58735057D01*
X78015824Y-58734416D01*
X78283403Y-58733678D01*
X78524835Y-58732836D01*
X78741469Y-58731884D01*
X78934654Y-58730815D01*
X79105739Y-58729624D01*
X79256072Y-58728304D01*
X79387003Y-58726849D01*
X79499880Y-58725252D01*
X79596053Y-58723507D01*
X79676870Y-58721607D01*
X79743680Y-58719547D01*
X79797831Y-58717320D01*
X79840674Y-58714919D01*
X79873556Y-58712339D01*
X79897826Y-58709573D01*
X79914834Y-58706615D01*
X79921790Y-58704842D01*
X80049895Y-58646038D01*
X80156557Y-58555216D01*
X80225461Y-58454896D01*
X80256424Y-58353834D01*
X80261113Y-58233442D01*
X80240396Y-58106876D01*
X80195141Y-57987293D01*
X80194519Y-57986084D01*
X80172958Y-57947492D01*
X80130748Y-57875087D01*
X80068930Y-57770583D01*
X79988544Y-57635692D01*
X79890633Y-57472126D01*
X79776237Y-57281599D01*
X79646398Y-57065823D01*
X79502156Y-56826510D01*
X79344554Y-56565375D01*
X79174632Y-56284128D01*
X78993432Y-55984483D01*
X78801995Y-55668154D01*
X78601362Y-55336851D01*
X78392574Y-54992289D01*
X78176673Y-54636179D01*
X77954701Y-54270235D01*
X77727697Y-53896169D01*
X77496704Y-53515694D01*
X77262763Y-53130523D01*
X77026915Y-52742368D01*
X76790201Y-52352942D01*
X76553663Y-51963958D01*
X76318341Y-51577129D01*
X76085278Y-51194166D01*
X75855514Y-50816784D01*
X75630091Y-50446695D01*
X75410049Y-50085611D01*
X75196431Y-49735244D01*
X74990277Y-49397309D01*
X74792628Y-49073518D01*
X74604527Y-48765582D01*
X74427014Y-48475216D01*
X74261130Y-48204131D01*
X74107917Y-47954040D01*
X73968416Y-47726657D01*
X73843668Y-47523693D01*
X73734714Y-47346862D01*
X73642597Y-47197877D01*
X73568356Y-47078449D01*
X73513034Y-46990292D01*
X73477671Y-46935118D01*
X73463850Y-46915166D01*
X73392736Y-46846487D01*
X73309882Y-46781167D01*
X73254704Y-46745836D01*
X73186205Y-46711536D01*
X73124991Y-46692444D01*
X73052982Y-46684392D01*
X72982667Y-46683087D01*
X72818142Y-46701290D01*
X72672422Y-46756870D01*
X72542293Y-46851268D01*
X72490482Y-46903985D01*
X72469444Y-46933472D01*
X72427734Y-46997788D01*
X72366303Y-47095363D01*
X72286100Y-47224630D01*
X72188076Y-47384023D01*
X72073181Y-47571973D01*
X71942366Y-47786913D01*
X71796581Y-48027275D01*
X71636775Y-48291492D01*
X71463900Y-48577996D01*
X71278905Y-48885220D01*
X71082741Y-49211597D01*
X70876358Y-49555558D01*
X70660706Y-49915536D01*
X70436735Y-50289964D01*
X70357907Y-50421877D01*
X70126437Y-50809315D01*
X69887574Y-51209123D01*
X69643421Y-51617778D01*
X69396084Y-52031758D01*
X69147667Y-52447540D01*
X68900276Y-52861601D01*
X68656015Y-53270418D01*
X68416989Y-53670468D01*
X68185303Y-54058229D01*
X67963062Y-54430177D01*
X67752370Y-54782790D01*
X67555333Y-55112545D01*
X67374055Y-55415919D01*
X67210642Y-55689389D01*
X67090413Y-55890584D01*
X66868917Y-56261782D01*
X66668280Y-56599163D01*
X66488639Y-56902489D01*
X66330133Y-57171523D01*
X66192900Y-57406028D01*
X66077078Y-57605766D01*
X65982805Y-57770500D01*
X65910219Y-57899992D01*
X65859458Y-57994005D01*
X65830660Y-58052301D01*
X65824736Y-58067344D01*
X65792342Y-58223577D01*
X65580053Y-58223577D01*
X65587658Y-58112696D01*
X65634975Y-57932312D01*
X65683588Y-57820628D01*
X65711143Y-57773600D01*
X65732020Y-57750310D01*
X65737093Y-57750204D01*
X65749223Y-57733916D01*
X65781660Y-57683488D01*
X65833050Y-57601153D01*
X65902040Y-57489143D01*
X65987276Y-57349691D01*
X66087405Y-57185030D01*
X66201073Y-56997393D01*
X66326927Y-56789011D01*
X66463613Y-56562118D01*
X66609778Y-56318946D01*
X66764069Y-56061728D01*
X66925132Y-55792697D01*
X67022211Y-55630297D01*
X67177383Y-55370562D01*
X67352031Y-55078214D01*
X67543925Y-54756986D01*
X67750835Y-54410612D01*
X67970531Y-54042824D01*
X68200784Y-53657356D01*
X68439363Y-53257939D01*
X68684040Y-52848308D01*
X68932584Y-52432194D01*
X69182765Y-52013332D01*
X69432354Y-51595454D01*
X69679122Y-51182292D01*
X69920838Y-50777581D01*
X70155273Y-50385052D01*
X70274053Y-50186167D01*
X70526370Y-49763820D01*
X70757977Y-49376443D01*
X70969754Y-49022590D01*
X71162582Y-48700819D01*
X71337344Y-48409684D01*
X71494920Y-48147743D01*
X71636191Y-47913550D01*
X71762040Y-47705663D01*
X71873346Y-47522638D01*
X71970991Y-47363029D01*
X72055857Y-47225394D01*
X72128825Y-47108288D01*
X72190775Y-47010268D01*
X72242590Y-46929889D01*
X72285150Y-46865707D01*
X72319337Y-46816280D01*
X72346032Y-46780161D01*
X72366116Y-46755909D01*
X72370230Y-46751507D01*
X72423772Y-46693722D01*
X72461951Y-46648035D01*
X72478396Y-46622231D01*
X72478194Y-46619583D01*
X72491013Y-46606653D01*
X72533852Y-46581265D01*
X72598153Y-46548383D01*
X72614381Y-46540612D01*
X72676846Y-46512164D01*
X72729876Y-46492510D01*
X72784130Y-46479735D01*
X72850267Y-46471927D01*
X72938948Y-46467174D01*
X73040875Y-46464084D01*
X73154480Y-46461439D01*
X73232447Y-46461085D01*
X73281447Y-46463809D01*
X73281447Y-46463809D01*
G37*
X73281447Y-46463809D02*
X73308147Y-46470398D01*
X73319218Y-46481638D01*
X73321334Y-46497170D01*
X73341494Y-46536699D01*
X73398037Y-46574237D01*
X73443760Y-46599042D01*
X73465501Y-46616918D01*
X73465458Y-46620098D01*
X73474827Y-46638394D01*
X73507777Y-46679370D01*
X73558141Y-46735583D01*
X73583116Y-46762066D01*
X73598597Y-46780002D01*
X73619495Y-46807381D01*
X73646511Y-46845350D01*
X73680352Y-46895055D01*
X73721721Y-46957644D01*
X73771321Y-47034263D01*
X73829859Y-47126059D01*
X73898036Y-47234178D01*
X73976558Y-47359769D01*
X74066129Y-47503976D01*
X74167453Y-47667948D01*
X74281233Y-47852831D01*
X74408175Y-48059772D01*
X74548982Y-48289917D01*
X74704359Y-48544414D01*
X74875009Y-48824409D01*
X75061636Y-49131049D01*
X75264946Y-49465481D01*
X75485642Y-49828851D01*
X75724427Y-50222307D01*
X75982007Y-50646995D01*
X76259085Y-51104062D01*
X76556366Y-51594655D01*
X76874553Y-52119920D01*
X76998155Y-52324000D01*
X77265251Y-52764922D01*
X77526706Y-53196331D01*
X77781669Y-53616830D01*
X78029290Y-54025022D01*
X78268717Y-54419509D01*
X78499099Y-54798896D01*
X78719587Y-55161785D01*
X78929329Y-55506780D01*
X79127474Y-55832484D01*
X79313171Y-56137499D01*
X79485570Y-56420430D01*
X79643820Y-56679879D01*
X79787070Y-56914449D01*
X79914470Y-57122744D01*
X80025168Y-57303367D01*
X80118313Y-57454920D01*
X80193055Y-57576008D01*
X80248544Y-57665232D01*
X80283927Y-57721197D01*
X80298355Y-57742506D01*
X80298640Y-57742667D01*
X80313253Y-57754982D01*
X80341037Y-57797094D01*
X80376679Y-57860713D01*
X80386831Y-57880250D01*
X80422552Y-57953528D01*
X80445451Y-58013954D01*
X80458860Y-58075977D01*
X80466110Y-58154047D01*
X80469793Y-58240084D01*
X80472413Y-58338075D01*
X80470805Y-58406459D01*
X80462637Y-58457917D01*
X80445577Y-58505133D01*
X80417293Y-58560789D01*
X80407516Y-58578750D01*
X80371109Y-58640480D01*
X80341289Y-58682246D01*
X80324276Y-58695386D01*
X80323914Y-58695167D01*
X80300872Y-58700590D01*
X80265490Y-58726931D01*
X80231200Y-58761521D01*
X80211431Y-58791692D01*
X80211315Y-58801375D01*
X80198520Y-58817106D01*
X80155883Y-58843879D01*
X80092466Y-58876044D01*
X80088955Y-58877673D01*
X79957084Y-58938584D01*
X73002175Y-58944001D01*
X66047266Y-58949419D01*
X65915383Y-58883516D01*
X65851980Y-58849555D01*
X65808894Y-58822026D01*
X65794775Y-58806511D01*
X65795149Y-58805962D01*
X65794986Y-58783099D01*
X65773742Y-58757708D01*
X65747689Y-58747186D01*
X65741981Y-58749125D01*
X65724351Y-58737373D01*
X65694801Y-58695983D01*
X65659436Y-58633624D01*
X65656128Y-58627184D01*
X65597967Y-58467982D01*
X65575233Y-58293869D01*
X65580053Y-58223577D01*
X65792342Y-58223577D01*
X65795283Y-58367240D01*
X65832258Y-58494124D01*
X65901963Y-58600021D01*
X66003096Y-58680724D01*
X66016871Y-58688299D01*
X66110159Y-58737500D01*
X72960988Y-58737500D01*
X73605207Y-58737485D01*
X74208443Y-58737436D01*
X74772042Y-58737347D01*
X75297355Y-58737210D01*
X75785731Y-58737021D01*
X76238517Y-58736772D01*
X76657063Y-58736458D01*
X77042718Y-58736071D01*
X77396831Y-58735606D01*
X77720750Y-58735057D01*
X78015824Y-58734416D01*
X78283403Y-58733678D01*
X78524835Y-58732836D01*
X78741469Y-58731884D01*
X78934654Y-58730815D01*
X79105739Y-58729624D01*
X79256072Y-58728304D01*
X79387003Y-58726849D01*
X79499880Y-58725252D01*
X79596053Y-58723507D01*
X79676870Y-58721607D01*
X79743680Y-58719547D01*
X79797831Y-58717320D01*
X79840674Y-58714919D01*
X79873556Y-58712339D01*
X79897826Y-58709573D01*
X79914834Y-58706615D01*
X79921790Y-58704842D01*
X80049895Y-58646038D01*
X80156557Y-58555216D01*
X80225461Y-58454896D01*
X80256424Y-58353834D01*
X80261113Y-58233442D01*
X80240396Y-58106876D01*
X80195141Y-57987293D01*
X80194519Y-57986084D01*
X80172958Y-57947492D01*
X80130748Y-57875087D01*
X80068930Y-57770583D01*
X79988544Y-57635692D01*
X79890633Y-57472126D01*
X79776237Y-57281599D01*
X79646398Y-57065823D01*
X79502156Y-56826510D01*
X79344554Y-56565375D01*
X79174632Y-56284128D01*
X78993432Y-55984483D01*
X78801995Y-55668154D01*
X78601362Y-55336851D01*
X78392574Y-54992289D01*
X78176673Y-54636179D01*
X77954701Y-54270235D01*
X77727697Y-53896169D01*
X77496704Y-53515694D01*
X77262763Y-53130523D01*
X77026915Y-52742368D01*
X76790201Y-52352942D01*
X76553663Y-51963958D01*
X76318341Y-51577129D01*
X76085278Y-51194166D01*
X75855514Y-50816784D01*
X75630091Y-50446695D01*
X75410049Y-50085611D01*
X75196431Y-49735244D01*
X74990277Y-49397309D01*
X74792628Y-49073518D01*
X74604527Y-48765582D01*
X74427014Y-48475216D01*
X74261130Y-48204131D01*
X74107917Y-47954040D01*
X73968416Y-47726657D01*
X73843668Y-47523693D01*
X73734714Y-47346862D01*
X73642597Y-47197877D01*
X73568356Y-47078449D01*
X73513034Y-46990292D01*
X73477671Y-46935118D01*
X73463850Y-46915166D01*
X73392736Y-46846487D01*
X73309882Y-46781167D01*
X73254704Y-46745836D01*
X73186205Y-46711536D01*
X73124991Y-46692444D01*
X73052982Y-46684392D01*
X72982667Y-46683087D01*
X72818142Y-46701290D01*
X72672422Y-46756870D01*
X72542293Y-46851268D01*
X72490482Y-46903985D01*
X72469444Y-46933472D01*
X72427734Y-46997788D01*
X72366303Y-47095363D01*
X72286100Y-47224630D01*
X72188076Y-47384023D01*
X72073181Y-47571973D01*
X71942366Y-47786913D01*
X71796581Y-48027275D01*
X71636775Y-48291492D01*
X71463900Y-48577996D01*
X71278905Y-48885220D01*
X71082741Y-49211597D01*
X70876358Y-49555558D01*
X70660706Y-49915536D01*
X70436735Y-50289964D01*
X70357907Y-50421877D01*
X70126437Y-50809315D01*
X69887574Y-51209123D01*
X69643421Y-51617778D01*
X69396084Y-52031758D01*
X69147667Y-52447540D01*
X68900276Y-52861601D01*
X68656015Y-53270418D01*
X68416989Y-53670468D01*
X68185303Y-54058229D01*
X67963062Y-54430177D01*
X67752370Y-54782790D01*
X67555333Y-55112545D01*
X67374055Y-55415919D01*
X67210642Y-55689389D01*
X67090413Y-55890584D01*
X66868917Y-56261782D01*
X66668280Y-56599163D01*
X66488639Y-56902489D01*
X66330133Y-57171523D01*
X66192900Y-57406028D01*
X66077078Y-57605766D01*
X65982805Y-57770500D01*
X65910219Y-57899992D01*
X65859458Y-57994005D01*
X65830660Y-58052301D01*
X65824736Y-58067344D01*
X65792342Y-58223577D01*
X65580053Y-58223577D01*
X65587658Y-58112696D01*
X65634975Y-57932312D01*
X65683588Y-57820628D01*
X65711143Y-57773600D01*
X65732020Y-57750310D01*
X65737093Y-57750204D01*
X65749223Y-57733916D01*
X65781660Y-57683488D01*
X65833050Y-57601153D01*
X65902040Y-57489143D01*
X65987276Y-57349691D01*
X66087405Y-57185030D01*
X66201073Y-56997393D01*
X66326927Y-56789011D01*
X66463613Y-56562118D01*
X66609778Y-56318946D01*
X66764069Y-56061728D01*
X66925132Y-55792697D01*
X67022211Y-55630297D01*
X67177383Y-55370562D01*
X67352031Y-55078214D01*
X67543925Y-54756986D01*
X67750835Y-54410612D01*
X67970531Y-54042824D01*
X68200784Y-53657356D01*
X68439363Y-53257939D01*
X68684040Y-52848308D01*
X68932584Y-52432194D01*
X69182765Y-52013332D01*
X69432354Y-51595454D01*
X69679122Y-51182292D01*
X69920838Y-50777581D01*
X70155273Y-50385052D01*
X70274053Y-50186167D01*
X70526370Y-49763820D01*
X70757977Y-49376443D01*
X70969754Y-49022590D01*
X71162582Y-48700819D01*
X71337344Y-48409684D01*
X71494920Y-48147743D01*
X71636191Y-47913550D01*
X71762040Y-47705663D01*
X71873346Y-47522638D01*
X71970991Y-47363029D01*
X72055857Y-47225394D01*
X72128825Y-47108288D01*
X72190775Y-47010268D01*
X72242590Y-46929889D01*
X72285150Y-46865707D01*
X72319337Y-46816280D01*
X72346032Y-46780161D01*
X72366116Y-46755909D01*
X72370230Y-46751507D01*
X72423772Y-46693722D01*
X72461951Y-46648035D01*
X72478396Y-46622231D01*
X72478194Y-46619583D01*
X72491013Y-46606653D01*
X72533852Y-46581265D01*
X72598153Y-46548383D01*
X72614381Y-46540612D01*
X72676846Y-46512164D01*
X72729876Y-46492510D01*
X72784130Y-46479735D01*
X72850267Y-46471927D01*
X72938948Y-46467174D01*
X73040875Y-46464084D01*
X73154480Y-46461439D01*
X73232447Y-46461085D01*
X73281447Y-46463809D01*
G36*
X72991664Y-48631877D02*
X73025225Y-48681681D01*
X73078019Y-48763760D01*
X73148816Y-48876075D01*
X73236383Y-49016589D01*
X73339491Y-49183263D01*
X73456908Y-49374059D01*
X73587403Y-49586939D01*
X73729745Y-49819864D01*
X73882704Y-50070796D01*
X74045048Y-50337697D01*
X74215545Y-50618529D01*
X74392966Y-50911253D01*
X74576079Y-51213831D01*
X74763653Y-51524225D01*
X74954458Y-51840397D01*
X75147261Y-52160308D01*
X75340832Y-52481920D01*
X75533941Y-52803194D01*
X75725355Y-53122094D01*
X75913845Y-53436580D01*
X76098178Y-53744613D01*
X76277125Y-54044157D01*
X76449454Y-54333172D01*
X76613933Y-54609621D01*
X76769333Y-54871464D01*
X76914421Y-55116665D01*
X77047968Y-55343183D01*
X77168741Y-55548983D01*
X77260783Y-55706694D01*
X77400507Y-55947031D01*
X77533874Y-56176767D01*
X77659379Y-56393288D01*
X77775515Y-56593984D01*
X77880778Y-56776242D01*
X77973664Y-56937450D01*
X78052666Y-57074996D01*
X78116279Y-57186268D01*
X78162999Y-57268654D01*
X78191320Y-57319542D01*
X78199819Y-57336325D01*
X78178504Y-57337217D01*
X78117573Y-57338429D01*
X78019739Y-57339936D01*
X77887719Y-57341713D01*
X77724227Y-57343736D01*
X77531979Y-57345978D01*
X77313689Y-57348414D01*
X77072073Y-57351020D01*
X76809846Y-57353770D01*
X76529722Y-57356639D01*
X76234417Y-57359602D01*
X75926645Y-57362633D01*
X75609123Y-57365708D01*
X75284565Y-57368801D01*
X74955686Y-57371886D01*
X74625201Y-57374940D01*
X74295825Y-57377936D01*
X73970274Y-57380850D01*
X73651262Y-57383656D01*
X73341504Y-57386329D01*
X73043716Y-57388844D01*
X72760612Y-57391175D01*
X72494909Y-57393298D01*
X72249320Y-57395187D01*
X72026560Y-57396818D01*
X71829346Y-57398164D01*
X71660391Y-57399201D01*
X71522412Y-57399904D01*
X71418123Y-57400247D01*
X71350239Y-57400205D01*
X71331667Y-57400045D01*
X71277895Y-57399341D01*
X71185611Y-57398228D01*
X71058631Y-57396749D01*
X70900774Y-57394945D01*
X70715856Y-57392861D01*
X70507697Y-57390539D01*
X70280114Y-57388022D01*
X70036924Y-57385352D01*
X69781946Y-57382572D01*
X69524072Y-57379780D01*
X69267161Y-57376886D01*
X69022693Y-57373892D01*
X68793948Y-57370855D01*
X68584202Y-57367828D01*
X68396737Y-57364866D01*
X68234829Y-57362025D01*
X68101757Y-57359359D01*
X68000802Y-57356923D01*
X67935240Y-57354772D01*
X67908351Y-57352960D01*
X67907886Y-57352774D01*
X67916293Y-57332794D01*
X67944774Y-57278313D01*
X67992122Y-57191424D01*
X68057131Y-57074224D01*
X68138595Y-56928807D01*
X68235308Y-56757267D01*
X68346064Y-56561700D01*
X68469657Y-56344201D01*
X68604880Y-56106865D01*
X68750528Y-55851786D01*
X68905395Y-55581059D01*
X69068274Y-55296779D01*
X69237960Y-55001041D01*
X69296196Y-54899675D01*
X70619452Y-54899675D01*
X70640563Y-54894877D01*
X70696793Y-54877663D01*
X70783312Y-54849633D01*
X70895293Y-54812383D01*
X71027908Y-54767512D01*
X71176328Y-54716618D01*
X71259862Y-54687708D01*
X71602074Y-54569105D01*
X71904606Y-54464674D01*
X72167645Y-54374353D01*
X72391379Y-54298078D01*
X72575995Y-54235787D01*
X72721682Y-54187416D01*
X72828627Y-54152902D01*
X72897017Y-54132181D01*
X72927040Y-54125191D01*
X72928497Y-54125471D01*
X72924612Y-54146322D01*
X72911262Y-54202430D01*
X72889925Y-54288155D01*
X72862075Y-54397859D01*
X72829190Y-54525903D01*
X72792745Y-54666648D01*
X72754217Y-54814454D01*
X72715082Y-54963684D01*
X72676816Y-55108698D01*
X72640895Y-55243858D01*
X72608796Y-55363524D01*
X72581994Y-55462058D01*
X72561967Y-55533821D01*
X72550190Y-55573174D01*
X72548057Y-55578684D01*
X72529444Y-55572542D01*
X72485519Y-55550721D01*
X72450292Y-55531573D01*
X72382824Y-55496608D01*
X72302600Y-55459080D01*
X72218955Y-55422817D01*
X72141223Y-55391649D01*
X72078737Y-55369406D01*
X72040832Y-55359919D01*
X72034250Y-55360862D01*
X72031890Y-55366558D01*
X72031269Y-55380091D01*
X72032894Y-55405306D01*
X72037273Y-55446048D01*
X72044913Y-55506161D01*
X72056324Y-55589492D01*
X72072011Y-55699884D01*
X72092484Y-55841182D01*
X72118250Y-56017232D01*
X72144756Y-56197500D01*
X72168436Y-56352095D01*
X72195252Y-56516699D01*
X72223721Y-56683079D01*
X72252356Y-56843001D01*
X72279675Y-56988233D01*
X72304192Y-57110542D01*
X72324423Y-57201696D01*
X72329463Y-57221848D01*
X72350944Y-57304279D01*
X72488784Y-57168931D01*
X72538048Y-57118081D01*
X72609962Y-57040463D01*
X72699669Y-56941490D01*
X72802311Y-56826573D01*
X72913031Y-56701123D01*
X73026971Y-56570552D01*
X73056754Y-56536167D01*
X73172473Y-56402507D01*
X73287510Y-56269933D01*
X73396686Y-56144391D01*
X73494820Y-56031829D01*
X73576735Y-55938193D01*
X73637250Y-55869431D01*
X73646643Y-55858834D01*
X73806403Y-55678917D01*
X73498325Y-55673048D01*
X73372184Y-55669738D01*
X73283966Y-55665080D01*
X73229271Y-55658603D01*
X73203698Y-55649838D01*
X73201057Y-55641298D01*
X73211738Y-55617963D01*
X73238775Y-55559675D01*
X73280587Y-55469828D01*
X73335590Y-55351814D01*
X73402202Y-55209024D01*
X73478841Y-55044852D01*
X73563923Y-54862688D01*
X73655867Y-54665927D01*
X73753090Y-54457959D01*
X73756227Y-54451250D01*
X73895200Y-54153884D01*
X74017125Y-53892616D01*
X74122998Y-53665250D01*
X74213816Y-53469589D01*
X74290575Y-53303438D01*
X74354272Y-53164599D01*
X74405904Y-53050876D01*
X74446467Y-52960072D01*
X74476958Y-52889992D01*
X74498373Y-52838439D01*
X74511710Y-52803215D01*
X74517964Y-52782126D01*
X74518132Y-52772974D01*
X74517873Y-52772650D01*
X74493532Y-52772743D01*
X74449137Y-52786734D01*
X74407203Y-52801741D01*
X74334340Y-52825788D01*
X74240172Y-52855770D01*
X74134324Y-52888583D01*
X74115084Y-52894457D01*
X74033035Y-52919592D01*
X73916806Y-52955413D01*
X73772626Y-52999991D01*
X73606725Y-53051394D01*
X73425331Y-53107691D01*
X73234675Y-53166954D01*
X73040986Y-53227250D01*
X72998542Y-53240476D01*
X72818601Y-53296411D01*
X72651828Y-53347972D01*
X72502411Y-53393884D01*
X72374541Y-53432872D01*
X72272408Y-53463662D01*
X72200201Y-53484980D01*
X72162109Y-53495550D01*
X72157167Y-53496408D01*
X72166838Y-53477158D01*
X72194810Y-53423487D01*
X72239515Y-53338358D01*
X72299390Y-53224734D01*
X72372868Y-53085576D01*
X72458384Y-52923848D01*
X72554374Y-52742512D01*
X72659272Y-52544530D01*
X72771511Y-52332865D01*
X72873982Y-52139764D01*
X73032470Y-51841077D01*
X73172133Y-51577568D01*
X73294087Y-51347073D01*
X73399453Y-51147429D01*
X73489348Y-50976474D01*
X73564892Y-50832044D01*
X73627202Y-50711977D01*
X73677397Y-50614108D01*
X73716597Y-50536276D01*
X73745918Y-50476317D01*
X73766481Y-50432067D01*
X73779402Y-50401365D01*
X73785802Y-50382046D01*
X73787000Y-50374133D01*
X73775961Y-50367097D01*
X73740779Y-50362082D01*
X73678354Y-50359045D01*
X73585589Y-50357944D01*
X73459383Y-50358737D01*
X73296638Y-50361380D01*
X73125542Y-50365092D01*
X72962646Y-50369130D01*
X72813842Y-50373241D01*
X72684273Y-50377250D01*
X72579086Y-50380980D01*
X72503425Y-50384256D01*
X72462434Y-50386903D01*
X72456567Y-50387912D01*
X72447762Y-50407991D01*
X72424162Y-50464302D01*
X72386981Y-50553886D01*
X72337431Y-50673784D01*
X72276726Y-50821038D01*
X72206078Y-50992689D01*
X72126700Y-51185779D01*
X72039806Y-51397348D01*
X71946607Y-51624439D01*
X71848318Y-51864093D01*
X71746150Y-52113351D01*
X71641317Y-52369254D01*
X71535032Y-52628844D01*
X71428507Y-52889162D01*
X71322956Y-53147250D01*
X71219591Y-53400149D01*
X71119626Y-53644901D01*
X71024273Y-53878546D01*
X70934745Y-54098126D01*
X70852255Y-54300683D01*
X70821905Y-54375285D01*
X70766126Y-54513402D01*
X70716491Y-54638173D01*
X70675007Y-54744393D01*
X70643683Y-54826861D01*
X70624529Y-54880374D01*
X70619452Y-54899675D01*
X69296196Y-54899675D01*
X69413246Y-54695940D01*
X69592926Y-54383571D01*
X69775795Y-54066029D01*
X69960646Y-53745408D01*
X70146273Y-53423803D01*
X70331470Y-53103310D01*
X70515032Y-52786023D01*
X70695751Y-52474037D01*
X70872422Y-52169447D01*
X71043839Y-51874347D01*
X71208796Y-51590834D01*
X71366086Y-51321000D01*
X71514504Y-51066943D01*
X71652844Y-50830755D01*
X71779899Y-50614533D01*
X71894463Y-50420370D01*
X71995331Y-50250363D01*
X72039946Y-50175584D01*
X72179873Y-49941696D01*
X72313698Y-49718242D01*
X72439814Y-49507893D01*
X72556612Y-49313319D01*
X72662487Y-49137192D01*
X72755828Y-48982181D01*
X72835029Y-48850958D01*
X72898482Y-48746194D01*
X72944579Y-48670559D01*
X72971713Y-48626725D01*
X72978568Y-48616386D01*
X72991664Y-48631877D01*
X72991664Y-48631877D01*
G37*
X72991664Y-48631877D02*
X73025225Y-48681681D01*
X73078019Y-48763760D01*
X73148816Y-48876075D01*
X73236383Y-49016589D01*
X73339491Y-49183263D01*
X73456908Y-49374059D01*
X73587403Y-49586939D01*
X73729745Y-49819864D01*
X73882704Y-50070796D01*
X74045048Y-50337697D01*
X74215545Y-50618529D01*
X74392966Y-50911253D01*
X74576079Y-51213831D01*
X74763653Y-51524225D01*
X74954458Y-51840397D01*
X75147261Y-52160308D01*
X75340832Y-52481920D01*
X75533941Y-52803194D01*
X75725355Y-53122094D01*
X75913845Y-53436580D01*
X76098178Y-53744613D01*
X76277125Y-54044157D01*
X76449454Y-54333172D01*
X76613933Y-54609621D01*
X76769333Y-54871464D01*
X76914421Y-55116665D01*
X77047968Y-55343183D01*
X77168741Y-55548983D01*
X77260783Y-55706694D01*
X77400507Y-55947031D01*
X77533874Y-56176767D01*
X77659379Y-56393288D01*
X77775515Y-56593984D01*
X77880778Y-56776242D01*
X77973664Y-56937450D01*
X78052666Y-57074996D01*
X78116279Y-57186268D01*
X78162999Y-57268654D01*
X78191320Y-57319542D01*
X78199819Y-57336325D01*
X78178504Y-57337217D01*
X78117573Y-57338429D01*
X78019739Y-57339936D01*
X77887719Y-57341713D01*
X77724227Y-57343736D01*
X77531979Y-57345978D01*
X77313689Y-57348414D01*
X77072073Y-57351020D01*
X76809846Y-57353770D01*
X76529722Y-57356639D01*
X76234417Y-57359602D01*
X75926645Y-57362633D01*
X75609123Y-57365708D01*
X75284565Y-57368801D01*
X74955686Y-57371886D01*
X74625201Y-57374940D01*
X74295825Y-57377936D01*
X73970274Y-57380850D01*
X73651262Y-57383656D01*
X73341504Y-57386329D01*
X73043716Y-57388844D01*
X72760612Y-57391175D01*
X72494909Y-57393298D01*
X72249320Y-57395187D01*
X72026560Y-57396818D01*
X71829346Y-57398164D01*
X71660391Y-57399201D01*
X71522412Y-57399904D01*
X71418123Y-57400247D01*
X71350239Y-57400205D01*
X71331667Y-57400045D01*
X71277895Y-57399341D01*
X71185611Y-57398228D01*
X71058631Y-57396749D01*
X70900774Y-57394945D01*
X70715856Y-57392861D01*
X70507697Y-57390539D01*
X70280114Y-57388022D01*
X70036924Y-57385352D01*
X69781946Y-57382572D01*
X69524072Y-57379780D01*
X69267161Y-57376886D01*
X69022693Y-57373892D01*
X68793948Y-57370855D01*
X68584202Y-57367828D01*
X68396737Y-57364866D01*
X68234829Y-57362025D01*
X68101757Y-57359359D01*
X68000802Y-57356923D01*
X67935240Y-57354772D01*
X67908351Y-57352960D01*
X67907886Y-57352774D01*
X67916293Y-57332794D01*
X67944774Y-57278313D01*
X67992122Y-57191424D01*
X68057131Y-57074224D01*
X68138595Y-56928807D01*
X68235308Y-56757267D01*
X68346064Y-56561700D01*
X68469657Y-56344201D01*
X68604880Y-56106865D01*
X68750528Y-55851786D01*
X68905395Y-55581059D01*
X69068274Y-55296779D01*
X69237960Y-55001041D01*
X69296196Y-54899675D01*
X70619452Y-54899675D01*
X70640563Y-54894877D01*
X70696793Y-54877663D01*
X70783312Y-54849633D01*
X70895293Y-54812383D01*
X71027908Y-54767512D01*
X71176328Y-54716618D01*
X71259862Y-54687708D01*
X71602074Y-54569105D01*
X71904606Y-54464674D01*
X72167645Y-54374353D01*
X72391379Y-54298078D01*
X72575995Y-54235787D01*
X72721682Y-54187416D01*
X72828627Y-54152902D01*
X72897017Y-54132181D01*
X72927040Y-54125191D01*
X72928497Y-54125471D01*
X72924612Y-54146322D01*
X72911262Y-54202430D01*
X72889925Y-54288155D01*
X72862075Y-54397859D01*
X72829190Y-54525903D01*
X72792745Y-54666648D01*
X72754217Y-54814454D01*
X72715082Y-54963684D01*
X72676816Y-55108698D01*
X72640895Y-55243858D01*
X72608796Y-55363524D01*
X72581994Y-55462058D01*
X72561967Y-55533821D01*
X72550190Y-55573174D01*
X72548057Y-55578684D01*
X72529444Y-55572542D01*
X72485519Y-55550721D01*
X72450292Y-55531573D01*
X72382824Y-55496608D01*
X72302600Y-55459080D01*
X72218955Y-55422817D01*
X72141223Y-55391649D01*
X72078737Y-55369406D01*
X72040832Y-55359919D01*
X72034250Y-55360862D01*
X72031890Y-55366558D01*
X72031269Y-55380091D01*
X72032894Y-55405306D01*
X72037273Y-55446048D01*
X72044913Y-55506161D01*
X72056324Y-55589492D01*
X72072011Y-55699884D01*
X72092484Y-55841182D01*
X72118250Y-56017232D01*
X72144756Y-56197500D01*
X72168436Y-56352095D01*
X72195252Y-56516699D01*
X72223721Y-56683079D01*
X72252356Y-56843001D01*
X72279675Y-56988233D01*
X72304192Y-57110542D01*
X72324423Y-57201696D01*
X72329463Y-57221848D01*
X72350944Y-57304279D01*
X72488784Y-57168931D01*
X72538048Y-57118081D01*
X72609962Y-57040463D01*
X72699669Y-56941490D01*
X72802311Y-56826573D01*
X72913031Y-56701123D01*
X73026971Y-56570552D01*
X73056754Y-56536167D01*
X73172473Y-56402507D01*
X73287510Y-56269933D01*
X73396686Y-56144391D01*
X73494820Y-56031829D01*
X73576735Y-55938193D01*
X73637250Y-55869431D01*
X73646643Y-55858834D01*
X73806403Y-55678917D01*
X73498325Y-55673048D01*
X73372184Y-55669738D01*
X73283966Y-55665080D01*
X73229271Y-55658603D01*
X73203698Y-55649838D01*
X73201057Y-55641298D01*
X73211738Y-55617963D01*
X73238775Y-55559675D01*
X73280587Y-55469828D01*
X73335590Y-55351814D01*
X73402202Y-55209024D01*
X73478841Y-55044852D01*
X73563923Y-54862688D01*
X73655867Y-54665927D01*
X73753090Y-54457959D01*
X73756227Y-54451250D01*
X73895200Y-54153884D01*
X74017125Y-53892616D01*
X74122998Y-53665250D01*
X74213816Y-53469589D01*
X74290575Y-53303438D01*
X74354272Y-53164599D01*
X74405904Y-53050876D01*
X74446467Y-52960072D01*
X74476958Y-52889992D01*
X74498373Y-52838439D01*
X74511710Y-52803215D01*
X74517964Y-52782126D01*
X74518132Y-52772974D01*
X74517873Y-52772650D01*
X74493532Y-52772743D01*
X74449137Y-52786734D01*
X74407203Y-52801741D01*
X74334340Y-52825788D01*
X74240172Y-52855770D01*
X74134324Y-52888583D01*
X74115084Y-52894457D01*
X74033035Y-52919592D01*
X73916806Y-52955413D01*
X73772626Y-52999991D01*
X73606725Y-53051394D01*
X73425331Y-53107691D01*
X73234675Y-53166954D01*
X73040986Y-53227250D01*
X72998542Y-53240476D01*
X72818601Y-53296411D01*
X72651828Y-53347972D01*
X72502411Y-53393884D01*
X72374541Y-53432872D01*
X72272408Y-53463662D01*
X72200201Y-53484980D01*
X72162109Y-53495550D01*
X72157167Y-53496408D01*
X72166838Y-53477158D01*
X72194810Y-53423487D01*
X72239515Y-53338358D01*
X72299390Y-53224734D01*
X72372868Y-53085576D01*
X72458384Y-52923848D01*
X72554374Y-52742512D01*
X72659272Y-52544530D01*
X72771511Y-52332865D01*
X72873982Y-52139764D01*
X73032470Y-51841077D01*
X73172133Y-51577568D01*
X73294087Y-51347073D01*
X73399453Y-51147429D01*
X73489348Y-50976474D01*
X73564892Y-50832044D01*
X73627202Y-50711977D01*
X73677397Y-50614108D01*
X73716597Y-50536276D01*
X73745918Y-50476317D01*
X73766481Y-50432067D01*
X73779402Y-50401365D01*
X73785802Y-50382046D01*
X73787000Y-50374133D01*
X73775961Y-50367097D01*
X73740779Y-50362082D01*
X73678354Y-50359045D01*
X73585589Y-50357944D01*
X73459383Y-50358737D01*
X73296638Y-50361380D01*
X73125542Y-50365092D01*
X72962646Y-50369130D01*
X72813842Y-50373241D01*
X72684273Y-50377250D01*
X72579086Y-50380980D01*
X72503425Y-50384256D01*
X72462434Y-50386903D01*
X72456567Y-50387912D01*
X72447762Y-50407991D01*
X72424162Y-50464302D01*
X72386981Y-50553886D01*
X72337431Y-50673784D01*
X72276726Y-50821038D01*
X72206078Y-50992689D01*
X72126700Y-51185779D01*
X72039806Y-51397348D01*
X71946607Y-51624439D01*
X71848318Y-51864093D01*
X71746150Y-52113351D01*
X71641317Y-52369254D01*
X71535032Y-52628844D01*
X71428507Y-52889162D01*
X71322956Y-53147250D01*
X71219591Y-53400149D01*
X71119626Y-53644901D01*
X71024273Y-53878546D01*
X70934745Y-54098126D01*
X70852255Y-54300683D01*
X70821905Y-54375285D01*
X70766126Y-54513402D01*
X70716491Y-54638173D01*
X70675007Y-54744393D01*
X70643683Y-54826861D01*
X70624529Y-54880374D01*
X70619452Y-54899675D01*
X69296196Y-54899675D01*
X69413246Y-54695940D01*
X69592926Y-54383571D01*
X69775795Y-54066029D01*
X69960646Y-53745408D01*
X70146273Y-53423803D01*
X70331470Y-53103310D01*
X70515032Y-52786023D01*
X70695751Y-52474037D01*
X70872422Y-52169447D01*
X71043839Y-51874347D01*
X71208796Y-51590834D01*
X71366086Y-51321000D01*
X71514504Y-51066943D01*
X71652844Y-50830755D01*
X71779899Y-50614533D01*
X71894463Y-50420370D01*
X71995331Y-50250363D01*
X72039946Y-50175584D01*
X72179873Y-49941696D01*
X72313698Y-49718242D01*
X72439814Y-49507893D01*
X72556612Y-49313319D01*
X72662487Y-49137192D01*
X72755828Y-48982181D01*
X72835029Y-48850958D01*
X72898482Y-48746194D01*
X72944579Y-48670559D01*
X72971713Y-48626725D01*
X72978568Y-48616386D01*
X72991664Y-48631877D01*
D11*
X120527287Y-92396571D02*
X121527287Y-92396571D01*
X120884430Y-93896571D01*
X122384429Y-92396571D02*
X122527286Y-92396571D01*
X122670143Y-92468000D01*
X122741572Y-92539429D01*
X122813001Y-92682286D01*
X122884429Y-92968000D01*
X122884429Y-93325143D01*
X122813001Y-93610857D01*
X122741572Y-93753714D01*
X122670143Y-93825143D01*
X122527286Y-93896571D01*
X122384429Y-93896571D01*
X122241572Y-93825143D01*
X122170143Y-93753714D01*
X122098715Y-93610857D01*
X122027286Y-93325143D01*
X122027286Y-92968000D01*
X122098715Y-92682286D01*
X122170143Y-92539429D01*
X122241572Y-92468000D01*
X122384429Y-92396571D01*
X123741572Y-92396571D02*
X123598714Y-92468000D01*
X123527286Y-92610857D01*
X123598714Y-92753714D01*
X123741572Y-92825143D01*
X123884429Y-92753714D01*
X123955857Y-92610857D01*
X123884429Y-92468000D01*
X123741572Y-92396571D01*
X125527286Y-93753714D02*
X125455857Y-93825143D01*
X125241571Y-93896571D01*
X125098714Y-93896571D01*
X124884429Y-93825143D01*
X124741571Y-93682286D01*
X124670143Y-93539429D01*
X124598714Y-93253714D01*
X124598714Y-93039429D01*
X124670143Y-92753714D01*
X124741571Y-92610857D01*
X124884429Y-92468000D01*
X125098714Y-92396571D01*
X125241571Y-92396571D01*
X125455857Y-92468000D01*
X125527286Y-92539429D01*
D15*
X53340096Y-124849000D02*
X53244858Y-124801381D01*
X53102001Y-124801381D01*
X52959143Y-124849000D01*
X52863905Y-124944238D01*
X52816286Y-125039476D01*
X52768667Y-125229952D01*
X52768667Y-125372810D01*
X52816286Y-125563286D01*
X52863905Y-125658524D01*
X52959143Y-125753762D01*
X53102001Y-125801381D01*
X53197239Y-125801381D01*
X53340096Y-125753762D01*
X53387715Y-125706143D01*
X53387715Y-125372810D01*
X53197239Y-125372810D01*
X53816286Y-125801381D02*
X53816286Y-124801381D01*
X54387715Y-125801381D01*
X54387715Y-124801381D01*
X54863905Y-125801381D02*
X54863905Y-124801381D01*
X55102000Y-124801381D01*
X55244858Y-124849000D01*
X55340096Y-124944238D01*
X55387715Y-125039476D01*
X55435334Y-125229952D01*
X55435334Y-125372810D01*
X55387715Y-125563286D01*
X55340096Y-125658524D01*
X55244858Y-125753762D01*
X55102000Y-125801381D01*
X54863905Y-125801381D01*
X45450286Y-125356929D02*
X46212191Y-125356929D01*
X45831239Y-125737881D02*
X45831239Y-124975976D01*
X47164572Y-124737881D02*
X46688381Y-124737881D01*
X46640762Y-125214071D01*
X46688381Y-125166452D01*
X46783619Y-125118833D01*
X47021715Y-125118833D01*
X47116953Y-125166452D01*
X47164572Y-125214071D01*
X47212191Y-125309310D01*
X47212191Y-125547405D01*
X47164572Y-125642643D01*
X47116953Y-125690262D01*
X47021715Y-125737881D01*
X46783619Y-125737881D01*
X46688381Y-125690262D01*
X46640762Y-125642643D01*
X47497905Y-124737881D02*
X47831238Y-125737881D01*
X48164572Y-124737881D01*
X126365095Y-112863381D02*
X126365095Y-113672905D01*
X126412714Y-113768143D01*
X126460333Y-113815762D01*
X126555571Y-113863381D01*
X126746048Y-113863381D01*
X126841286Y-113815762D01*
X126888905Y-113768143D01*
X126936524Y-113672905D01*
X126936524Y-112863381D01*
X127841286Y-113196714D02*
X127841286Y-113863381D01*
X127603190Y-112815762D02*
X127365095Y-113530048D01*
X127984143Y-113530048D01*
X121596595Y-110624881D02*
X121596595Y-109624881D01*
X121863262Y-110339167D01*
X122129929Y-109624881D01*
X122129929Y-110624881D01*
X122663262Y-109624881D02*
X122815643Y-109624881D01*
X122891834Y-109672500D01*
X122968024Y-109767738D01*
X123006119Y-109958214D01*
X123006119Y-110291548D01*
X122968024Y-110482024D01*
X122891834Y-110577262D01*
X122815643Y-110624881D01*
X122663262Y-110624881D01*
X122587072Y-110577262D01*
X122510881Y-110482024D01*
X122472786Y-110291548D01*
X122472786Y-109958214D01*
X122510881Y-109767738D01*
X122587072Y-109672500D01*
X122663262Y-109624881D01*
X123806119Y-110529643D02*
X123768024Y-110577262D01*
X123653738Y-110624881D01*
X123577548Y-110624881D01*
X123463262Y-110577262D01*
X123387071Y-110482024D01*
X123348976Y-110386786D01*
X123310881Y-110196310D01*
X123310881Y-110053452D01*
X123348976Y-109862976D01*
X123387071Y-109767738D01*
X123463262Y-109672500D01*
X123577548Y-109624881D01*
X123653738Y-109624881D01*
X123768024Y-109672500D01*
X123806119Y-109720119D01*
X124072786Y-109624881D02*
X124568024Y-109624881D01*
X124301357Y-110005833D01*
X124415643Y-110005833D01*
X124491833Y-110053452D01*
X124529929Y-110101071D01*
X124568024Y-110196310D01*
X124568024Y-110434405D01*
X124529929Y-110529643D01*
X124491833Y-110577262D01*
X124415643Y-110624881D01*
X124187071Y-110624881D01*
X124110881Y-110577262D01*
X124072786Y-110529643D01*
X125329929Y-110624881D02*
X124872786Y-110624881D01*
X125101357Y-110624881D02*
X125101357Y-109624881D01*
X125025167Y-109767738D01*
X124948976Y-109862976D01*
X124872786Y-109910595D01*
X126015643Y-109624881D02*
X125863262Y-109624881D01*
X125787072Y-109672500D01*
X125748977Y-109720119D01*
X125672786Y-109862976D01*
X125634691Y-110053452D01*
X125634691Y-110434405D01*
X125672786Y-110529643D01*
X125710881Y-110577262D01*
X125787072Y-110624881D01*
X125939453Y-110624881D01*
X126015643Y-110577262D01*
X126053739Y-110529643D01*
X126091834Y-110434405D01*
X126091834Y-110196310D01*
X126053739Y-110101071D01*
X126015643Y-110053452D01*
X125939453Y-110005833D01*
X125787072Y-110005833D01*
X125710881Y-110053452D01*
X125672786Y-110101071D01*
X125634691Y-110196310D01*
X126358501Y-109624881D02*
X126853739Y-109624881D01*
X126587072Y-110005833D01*
X126701358Y-110005833D01*
X126777548Y-110053452D01*
X126815644Y-110101071D01*
X126853739Y-110196310D01*
X126853739Y-110434405D01*
X126815644Y-110529643D01*
X126777548Y-110577262D01*
X126701358Y-110624881D01*
X126472786Y-110624881D01*
X126396596Y-110577262D01*
X126358501Y-110529643D01*
X127196596Y-110243929D02*
X127806120Y-110243929D01*
X128187072Y-110624881D02*
X128187072Y-109624881D01*
X128453739Y-110339167D01*
X128720406Y-109624881D01*
X128720406Y-110624881D01*
X120911881Y-119673666D02*
X120435690Y-120007000D01*
X120911881Y-120245095D02*
X119911881Y-120245095D01*
X119911881Y-119864142D01*
X119959500Y-119768904D01*
X120007119Y-119721285D01*
X120102357Y-119673666D01*
X120245214Y-119673666D01*
X120340452Y-119721285D01*
X120388071Y-119768904D01*
X120435690Y-119864142D01*
X120435690Y-120245095D01*
X119911881Y-119340333D02*
X119911881Y-118673666D01*
X120911881Y-119102238D01*
X118943381Y-122975666D02*
X118467190Y-123309000D01*
X118943381Y-123547095D02*
X117943381Y-123547095D01*
X117943381Y-123166142D01*
X117991000Y-123070904D01*
X118038619Y-123023285D01*
X118133857Y-122975666D01*
X118276714Y-122975666D01*
X118371952Y-123023285D01*
X118419571Y-123070904D01*
X118467190Y-123166142D01*
X118467190Y-123547095D01*
X117943381Y-122070904D02*
X117943381Y-122547095D01*
X118419571Y-122594714D01*
X118371952Y-122547095D01*
X118324333Y-122451857D01*
X118324333Y-122213761D01*
X118371952Y-122118523D01*
X118419571Y-122070904D01*
X118514810Y-122023285D01*
X118752905Y-122023285D01*
X118848143Y-122070904D01*
X118895762Y-122118523D01*
X118943381Y-122213761D01*
X118943381Y-122451857D01*
X118895762Y-122547095D01*
X118848143Y-122594714D01*
X69365834Y-125039381D02*
X69032500Y-124563190D01*
X68794405Y-125039381D02*
X68794405Y-124039381D01*
X69175358Y-124039381D01*
X69270596Y-124087000D01*
X69318215Y-124134619D01*
X69365834Y-124229857D01*
X69365834Y-124372714D01*
X69318215Y-124467952D01*
X69270596Y-124515571D01*
X69175358Y-124563190D01*
X68794405Y-124563190D01*
X69699167Y-124039381D02*
X70318215Y-124039381D01*
X69984881Y-124420333D01*
X70127739Y-124420333D01*
X70222977Y-124467952D01*
X70270596Y-124515571D01*
X70318215Y-124610810D01*
X70318215Y-124848905D01*
X70270596Y-124944143D01*
X70222977Y-124991762D01*
X70127739Y-125039381D01*
X69842024Y-125039381D01*
X69746786Y-124991762D01*
X69699167Y-124944143D01*
X99782334Y-120848381D02*
X99449000Y-120372190D01*
X99210905Y-120848381D02*
X99210905Y-119848381D01*
X99591858Y-119848381D01*
X99687096Y-119896000D01*
X99734715Y-119943619D01*
X99782334Y-120038857D01*
X99782334Y-120181714D01*
X99734715Y-120276952D01*
X99687096Y-120324571D01*
X99591858Y-120372190D01*
X99210905Y-120372190D01*
X100163286Y-119943619D02*
X100210905Y-119896000D01*
X100306143Y-119848381D01*
X100544239Y-119848381D01*
X100639477Y-119896000D01*
X100687096Y-119943619D01*
X100734715Y-120038857D01*
X100734715Y-120134095D01*
X100687096Y-120276952D01*
X100115667Y-120848381D01*
X100734715Y-120848381D01*
D11*
X55161571Y-74842571D02*
X55161571Y-75699714D01*
X55161571Y-75271142D02*
X53661571Y-75271142D01*
X53875857Y-75413999D01*
X54018714Y-75556857D01*
X54090143Y-75699714D01*
X53661571Y-74342571D02*
X53661571Y-73414000D01*
X54233000Y-73914000D01*
X54233000Y-73699714D01*
X54304429Y-73556857D01*
X54375857Y-73485428D01*
X54518714Y-73414000D01*
X54875857Y-73414000D01*
X55018714Y-73485428D01*
X55090143Y-73556857D01*
X55161571Y-73699714D01*
X55161571Y-74128286D01*
X55090143Y-74271143D01*
X55018714Y-74342571D01*
X54733000Y-72842572D02*
X54733000Y-72128286D01*
X55161571Y-72985429D02*
X53661571Y-72485429D01*
X55161571Y-71985429D01*
X39159571Y-76366356D02*
X39159571Y-77223499D01*
X39159571Y-76794927D02*
X37659571Y-76794927D01*
X37873857Y-76937784D01*
X38016714Y-77080642D01*
X38088143Y-77223499D01*
X37659571Y-75437785D02*
X37659571Y-75294928D01*
X37731000Y-75152071D01*
X37802429Y-75080642D01*
X37945286Y-75009213D01*
X38231000Y-74937785D01*
X38588143Y-74937785D01*
X38873857Y-75009213D01*
X39016714Y-75080642D01*
X39088143Y-75152071D01*
X39159571Y-75294928D01*
X39159571Y-75437785D01*
X39088143Y-75580642D01*
X39016714Y-75652071D01*
X38873857Y-75723499D01*
X38588143Y-75794928D01*
X38231000Y-75794928D01*
X37945286Y-75723499D01*
X37802429Y-75652071D01*
X37731000Y-75580642D01*
X37659571Y-75437785D01*
X37659571Y-74009214D02*
X37659571Y-73866357D01*
X37731000Y-73723500D01*
X37802429Y-73652071D01*
X37945286Y-73580642D01*
X38231000Y-73509214D01*
X38588143Y-73509214D01*
X38873857Y-73580642D01*
X39016714Y-73652071D01*
X39088143Y-73723500D01*
X39159571Y-73866357D01*
X39159571Y-74009214D01*
X39088143Y-74152071D01*
X39016714Y-74223500D01*
X38873857Y-74294928D01*
X38588143Y-74366357D01*
X38231000Y-74366357D01*
X37945286Y-74294928D01*
X37802429Y-74223500D01*
X37731000Y-74152071D01*
X37659571Y-74009214D01*
X39159571Y-72866357D02*
X38159571Y-72866357D01*
X38302429Y-72866357D02*
X38231000Y-72794929D01*
X38159571Y-72652071D01*
X38159571Y-72437786D01*
X38231000Y-72294929D01*
X38373857Y-72223500D01*
X39159571Y-72223500D01*
X38373857Y-72223500D02*
X38231000Y-72152071D01*
X38159571Y-72009214D01*
X38159571Y-71794929D01*
X38231000Y-71652071D01*
X38373857Y-71580643D01*
X39159571Y-71580643D01*
X38731000Y-70937786D02*
X38731000Y-70223500D01*
X39159571Y-71080643D02*
X37659571Y-70580643D01*
X39159571Y-70080643D01*
D15*
X69476095Y-112748381D02*
X69476095Y-113557905D01*
X69523714Y-113653143D01*
X69571333Y-113700762D01*
X69666571Y-113748381D01*
X69857048Y-113748381D01*
X69952286Y-113700762D01*
X69999905Y-113653143D01*
X70047524Y-113557905D01*
X70047524Y-112748381D01*
X70476095Y-112843619D02*
X70523714Y-112796000D01*
X70618952Y-112748381D01*
X70857048Y-112748381D01*
X70952286Y-112796000D01*
X70999905Y-112843619D01*
X71047524Y-112938857D01*
X71047524Y-113034095D01*
X70999905Y-113176952D01*
X70428476Y-113748381D01*
X71047524Y-113748381D01*
X68223143Y-109831167D02*
X68699334Y-109831167D01*
X68127905Y-110116881D02*
X68461238Y-109116881D01*
X68794572Y-110116881D01*
X69699334Y-110021643D02*
X69651715Y-110069262D01*
X69508858Y-110116881D01*
X69413620Y-110116881D01*
X69270762Y-110069262D01*
X69175524Y-109974024D01*
X69127905Y-109878786D01*
X69080286Y-109688310D01*
X69080286Y-109545452D01*
X69127905Y-109354976D01*
X69175524Y-109259738D01*
X69270762Y-109164500D01*
X69413620Y-109116881D01*
X69508858Y-109116881D01*
X69651715Y-109164500D01*
X69699334Y-109212119D01*
X70080286Y-110069262D02*
X70223143Y-110116881D01*
X70461239Y-110116881D01*
X70556477Y-110069262D01*
X70604096Y-110021643D01*
X70651715Y-109926405D01*
X70651715Y-109831167D01*
X70604096Y-109735929D01*
X70556477Y-109688310D01*
X70461239Y-109640690D01*
X70270762Y-109593071D01*
X70175524Y-109545452D01*
X70127905Y-109497833D01*
X70080286Y-109402595D01*
X70080286Y-109307357D01*
X70127905Y-109212119D01*
X70175524Y-109164500D01*
X70270762Y-109116881D01*
X70508858Y-109116881D01*
X70651715Y-109164500D01*
X70985048Y-109116881D02*
X71651715Y-109116881D01*
X71223143Y-110116881D01*
X72556477Y-110116881D02*
X71985048Y-110116881D01*
X72270762Y-110116881D02*
X72270762Y-109116881D01*
X72175524Y-109259738D01*
X72080286Y-109354976D01*
X71985048Y-109402595D01*
X73175524Y-109116881D02*
X73270763Y-109116881D01*
X73366001Y-109164500D01*
X73413620Y-109212119D01*
X73461239Y-109307357D01*
X73508858Y-109497833D01*
X73508858Y-109735929D01*
X73461239Y-109926405D01*
X73413620Y-110021643D01*
X73366001Y-110069262D01*
X73270763Y-110116881D01*
X73175524Y-110116881D01*
X73080286Y-110069262D01*
X73032667Y-110021643D01*
X72985048Y-109926405D01*
X72937429Y-109735929D01*
X72937429Y-109497833D01*
X72985048Y-109307357D01*
X73032667Y-109212119D01*
X73080286Y-109164500D01*
X73175524Y-109116881D01*
X129230381Y-118848166D02*
X128754190Y-119181500D01*
X129230381Y-119419595D02*
X128230381Y-119419595D01*
X128230381Y-119038642D01*
X128278000Y-118943404D01*
X128325619Y-118895785D01*
X128420857Y-118848166D01*
X128563714Y-118848166D01*
X128658952Y-118895785D01*
X128706571Y-118943404D01*
X128754190Y-119038642D01*
X128754190Y-119419595D01*
X129230381Y-118371976D02*
X129230381Y-118181500D01*
X129182762Y-118086261D01*
X129135143Y-118038642D01*
X128992286Y-117943404D01*
X128801810Y-117895785D01*
X128420857Y-117895785D01*
X128325619Y-117943404D01*
X128278000Y-117991023D01*
X128230381Y-118086261D01*
X128230381Y-118276738D01*
X128278000Y-118371976D01*
X128325619Y-118419595D01*
X128420857Y-118467214D01*
X128658952Y-118467214D01*
X128754190Y-118419595D01*
X128801810Y-118371976D01*
X128849429Y-118276738D01*
X128849429Y-118086261D01*
X128801810Y-117991023D01*
X128754190Y-117943404D01*
X128658952Y-117895785D01*
X119721334Y-83510381D02*
X119388000Y-83034190D01*
X119149905Y-83510381D02*
X119149905Y-82510381D01*
X119530858Y-82510381D01*
X119626096Y-82558000D01*
X119673715Y-82605619D01*
X119721334Y-82700857D01*
X119721334Y-82843714D01*
X119673715Y-82938952D01*
X119626096Y-82986571D01*
X119530858Y-83034190D01*
X119149905Y-83034190D01*
X120292762Y-82938952D02*
X120197524Y-82891333D01*
X120149905Y-82843714D01*
X120102286Y-82748476D01*
X120102286Y-82700857D01*
X120149905Y-82605619D01*
X120197524Y-82558000D01*
X120292762Y-82510381D01*
X120483239Y-82510381D01*
X120578477Y-82558000D01*
X120626096Y-82605619D01*
X120673715Y-82700857D01*
X120673715Y-82748476D01*
X120626096Y-82843714D01*
X120578477Y-82891333D01*
X120483239Y-82938952D01*
X120292762Y-82938952D01*
X120197524Y-82986571D01*
X120149905Y-83034190D01*
X120102286Y-83129429D01*
X120102286Y-83319905D01*
X120149905Y-83415143D01*
X120197524Y-83462762D01*
X120292762Y-83510381D01*
X120483239Y-83510381D01*
X120578477Y-83462762D01*
X120626096Y-83415143D01*
X120673715Y-83319905D01*
X120673715Y-83129429D01*
X120626096Y-83034190D01*
X120578477Y-82986571D01*
X120483239Y-82938952D01*
X125052381Y-104166666D02*
X124576190Y-104500000D01*
X125052381Y-104738095D02*
X124052381Y-104738095D01*
X124052381Y-104357142D01*
X124100000Y-104261904D01*
X124147619Y-104214285D01*
X124242857Y-104166666D01*
X124385714Y-104166666D01*
X124480952Y-104214285D01*
X124528571Y-104261904D01*
X124576190Y-104357142D01*
X124576190Y-104738095D01*
X124052381Y-103309523D02*
X124052381Y-103500000D01*
X124100000Y-103595238D01*
X124147619Y-103642857D01*
X124290476Y-103738095D01*
X124480952Y-103785714D01*
X124861905Y-103785714D01*
X124957143Y-103738095D01*
X125004762Y-103690476D01*
X125052381Y-103595238D01*
X125052381Y-103404761D01*
X125004762Y-103309523D01*
X124957143Y-103261904D01*
X124861905Y-103214285D01*
X124623810Y-103214285D01*
X124528571Y-103261904D01*
X124480952Y-103309523D01*
X124433333Y-103404761D01*
X124433333Y-103595238D01*
X124480952Y-103690476D01*
X124528571Y-103738095D01*
X124623810Y-103785714D01*
X119852381Y-105785714D02*
X119852381Y-105166666D01*
X120233333Y-105500000D01*
X120233333Y-105357142D01*
X120280952Y-105261904D01*
X120328571Y-105214285D01*
X120423810Y-105166666D01*
X120661905Y-105166666D01*
X120757143Y-105214285D01*
X120804762Y-105261904D01*
X120852381Y-105357142D01*
X120852381Y-105642857D01*
X120804762Y-105738095D01*
X120757143Y-105785714D01*
X120852381Y-104690476D02*
X120852381Y-104500000D01*
X120804762Y-104404761D01*
X120757143Y-104357142D01*
X120614286Y-104261904D01*
X120423810Y-104214285D01*
X120042857Y-104214285D01*
X119947619Y-104261904D01*
X119900000Y-104309523D01*
X119852381Y-104404761D01*
X119852381Y-104595238D01*
X119900000Y-104690476D01*
X119947619Y-104738095D01*
X120042857Y-104785714D01*
X120280952Y-104785714D01*
X120376190Y-104738095D01*
X120423810Y-104690476D01*
X120471429Y-104595238D01*
X120471429Y-104404761D01*
X120423810Y-104309523D01*
X120376190Y-104261904D01*
X120280952Y-104214285D01*
X119852381Y-103595238D02*
X119852381Y-103499999D01*
X119900000Y-103404761D01*
X119947619Y-103357142D01*
X120042857Y-103309523D01*
X120233333Y-103261904D01*
X120471429Y-103261904D01*
X120661905Y-103309523D01*
X120757143Y-103357142D01*
X120804762Y-103404761D01*
X120852381Y-103499999D01*
X120852381Y-103595238D01*
X120804762Y-103690476D01*
X120757143Y-103738095D01*
X120661905Y-103785714D01*
X120471429Y-103833333D01*
X120233333Y-103833333D01*
X120042857Y-103785714D01*
X119947619Y-103738095D01*
X119900000Y-103690476D01*
X119852381Y-103595238D01*
X120852381Y-102261904D02*
X120376190Y-102595238D01*
X120852381Y-102833333D02*
X119852381Y-102833333D01*
X119852381Y-102452380D01*
X119900000Y-102357142D01*
X119947619Y-102309523D01*
X120042857Y-102261904D01*
X120185714Y-102261904D01*
X120280952Y-102309523D01*
X120328571Y-102357142D01*
X120376190Y-102452380D01*
X120376190Y-102833333D01*
X104862334Y-126944381D02*
X104529000Y-126468190D01*
X104290905Y-126944381D02*
X104290905Y-125944381D01*
X104671858Y-125944381D01*
X104767096Y-125992000D01*
X104814715Y-126039619D01*
X104862334Y-126134857D01*
X104862334Y-126277714D01*
X104814715Y-126372952D01*
X104767096Y-126420571D01*
X104671858Y-126468190D01*
X104290905Y-126468190D01*
X105719477Y-126277714D02*
X105719477Y-126944381D01*
X105481381Y-125896762D02*
X105243286Y-126611048D01*
X105862334Y-126611048D01*
X94432381Y-126277666D02*
X93956190Y-126611000D01*
X94432381Y-126849095D02*
X93432381Y-126849095D01*
X93432381Y-126468142D01*
X93480000Y-126372904D01*
X93527619Y-126325285D01*
X93622857Y-126277666D01*
X93765714Y-126277666D01*
X93860952Y-126325285D01*
X93908571Y-126372904D01*
X93956190Y-126468142D01*
X93956190Y-126849095D01*
X94432381Y-125325285D02*
X94432381Y-125896714D01*
X94432381Y-125611000D02*
X93432381Y-125611000D01*
X93575238Y-125706238D01*
X93670476Y-125801476D01*
X93718095Y-125896714D01*
X119594334Y-74398143D02*
X119546715Y-74445762D01*
X119403858Y-74493381D01*
X119308620Y-74493381D01*
X119165762Y-74445762D01*
X119070524Y-74350524D01*
X119022905Y-74255286D01*
X118975286Y-74064810D01*
X118975286Y-73921952D01*
X119022905Y-73731476D01*
X119070524Y-73636238D01*
X119165762Y-73541000D01*
X119308620Y-73493381D01*
X119403858Y-73493381D01*
X119546715Y-73541000D01*
X119594334Y-73588619D01*
X120451477Y-73826714D02*
X120451477Y-74493381D01*
X120213381Y-73445762D02*
X119975286Y-74160048D01*
X120594334Y-74160048D01*
X74001334Y-121578643D02*
X73953715Y-121626262D01*
X73810858Y-121673881D01*
X73715620Y-121673881D01*
X73572762Y-121626262D01*
X73477524Y-121531024D01*
X73429905Y-121435786D01*
X73382286Y-121245310D01*
X73382286Y-121102452D01*
X73429905Y-120911976D01*
X73477524Y-120816738D01*
X73572762Y-120721500D01*
X73715620Y-120673881D01*
X73810858Y-120673881D01*
X73953715Y-120721500D01*
X74001334Y-120769119D01*
X74334667Y-120673881D02*
X74953715Y-120673881D01*
X74620381Y-121054833D01*
X74763239Y-121054833D01*
X74858477Y-121102452D01*
X74906096Y-121150071D01*
X74953715Y-121245310D01*
X74953715Y-121483405D01*
X74906096Y-121578643D01*
X74858477Y-121626262D01*
X74763239Y-121673881D01*
X74477524Y-121673881D01*
X74382286Y-121626262D01*
X74334667Y-121578643D01*
X69556334Y-122277143D02*
X69508715Y-122324762D01*
X69365858Y-122372381D01*
X69270620Y-122372381D01*
X69127762Y-122324762D01*
X69032524Y-122229524D01*
X68984905Y-122134286D01*
X68937286Y-121943810D01*
X68937286Y-121800952D01*
X68984905Y-121610476D01*
X69032524Y-121515238D01*
X69127762Y-121420000D01*
X69270620Y-121372381D01*
X69365858Y-121372381D01*
X69508715Y-121420000D01*
X69556334Y-121467619D01*
X69937286Y-121467619D02*
X69984905Y-121420000D01*
X70080143Y-121372381D01*
X70318239Y-121372381D01*
X70413477Y-121420000D01*
X70461096Y-121467619D01*
X70508715Y-121562857D01*
X70508715Y-121658095D01*
X70461096Y-121800952D01*
X69889667Y-122372381D01*
X70508715Y-122372381D01*
X69746834Y-119800643D02*
X69699215Y-119848262D01*
X69556358Y-119895881D01*
X69461120Y-119895881D01*
X69318262Y-119848262D01*
X69223024Y-119753024D01*
X69175405Y-119657786D01*
X69127786Y-119467310D01*
X69127786Y-119324452D01*
X69175405Y-119133976D01*
X69223024Y-119038738D01*
X69318262Y-118943500D01*
X69461120Y-118895881D01*
X69556358Y-118895881D01*
X69699215Y-118943500D01*
X69746834Y-118991119D01*
X70699215Y-119895881D02*
X70127786Y-119895881D01*
X70413500Y-119895881D02*
X70413500Y-118895881D01*
X70318262Y-119038738D01*
X70223024Y-119133976D01*
X70127786Y-119181595D01*
D11*
X63210714Y-129520071D02*
X63210714Y-128020071D01*
X63782142Y-128020071D01*
X63925000Y-128091500D01*
X63996428Y-128162929D01*
X64067857Y-128305786D01*
X64067857Y-128520071D01*
X63996428Y-128662929D01*
X63925000Y-128734357D01*
X63782142Y-128805786D01*
X63210714Y-128805786D01*
X64996428Y-128020071D02*
X65282142Y-128020071D01*
X65425000Y-128091500D01*
X65567857Y-128234357D01*
X65639285Y-128520071D01*
X65639285Y-129020071D01*
X65567857Y-129305786D01*
X65425000Y-129448643D01*
X65282142Y-129520071D01*
X64996428Y-129520071D01*
X64853571Y-129448643D01*
X64710714Y-129305786D01*
X64639285Y-129020071D01*
X64639285Y-128520071D01*
X64710714Y-128234357D01*
X64853571Y-128091500D01*
X64996428Y-128020071D01*
X66139286Y-128020071D02*
X66496429Y-129520071D01*
X66782143Y-128448643D01*
X67067857Y-129520071D01*
X67425000Y-128020071D01*
X67996429Y-128734357D02*
X68496429Y-128734357D01*
X68710715Y-129520071D02*
X67996429Y-129520071D01*
X67996429Y-128020071D01*
X68710715Y-128020071D01*
X70210715Y-129520071D02*
X69710715Y-128805786D01*
X69353572Y-129520071D02*
X69353572Y-128020071D01*
X69925000Y-128020071D01*
X70067858Y-128091500D01*
X70139286Y-128162929D01*
X70210715Y-128305786D01*
X70210715Y-128520071D01*
X70139286Y-128662929D01*
X70067858Y-128734357D01*
X69925000Y-128805786D01*
X69353572Y-128805786D01*
X118864429Y-121733571D02*
X119721572Y-121733571D01*
X119293001Y-123233571D02*
X119293001Y-121733571D01*
X121078715Y-123233571D02*
X120578715Y-122519286D01*
X120221572Y-123233571D02*
X120221572Y-121733571D01*
X120793000Y-121733571D01*
X120935858Y-121805000D01*
X121007286Y-121876429D01*
X121078715Y-122019286D01*
X121078715Y-122233571D01*
X121007286Y-122376429D01*
X120935858Y-122447857D01*
X120793000Y-122519286D01*
X120221572Y-122519286D01*
X121721572Y-123233571D02*
X121721572Y-121733571D01*
X122364429Y-122805000D02*
X123078715Y-122805000D01*
X122221572Y-123233571D02*
X122721572Y-121733571D01*
X123221572Y-123233571D01*
X124578715Y-123090714D02*
X124507286Y-123162143D01*
X124293000Y-123233571D01*
X124150143Y-123233571D01*
X123935858Y-123162143D01*
X123793000Y-123019286D01*
X123721572Y-122876429D01*
X123650143Y-122590714D01*
X123650143Y-122376429D01*
X123721572Y-122090714D01*
X123793000Y-121947857D01*
X123935858Y-121805000D01*
X124150143Y-121733571D01*
X124293000Y-121733571D01*
X124507286Y-121805000D01*
X124578715Y-121876429D01*
D15*
X108997762Y-126404619D02*
X108902524Y-126357000D01*
X108807286Y-126261762D01*
X108664429Y-126118905D01*
X108569190Y-126071286D01*
X108473952Y-126071286D01*
X108521571Y-126309381D02*
X108426333Y-126261762D01*
X108331095Y-126166524D01*
X108283476Y-125976048D01*
X108283476Y-125642714D01*
X108331095Y-125452238D01*
X108426333Y-125357000D01*
X108521571Y-125309381D01*
X108712048Y-125309381D01*
X108807286Y-125357000D01*
X108902524Y-125452238D01*
X108950143Y-125642714D01*
X108950143Y-125976048D01*
X108902524Y-126166524D01*
X108807286Y-126261762D01*
X108712048Y-126309381D01*
X108521571Y-126309381D01*
X109331095Y-125404619D02*
X109378714Y-125357000D01*
X109473952Y-125309381D01*
X109712048Y-125309381D01*
X109807286Y-125357000D01*
X109854905Y-125404619D01*
X109902524Y-125499857D01*
X109902524Y-125595095D01*
X109854905Y-125737952D01*
X109283476Y-126309381D01*
X109902524Y-126309381D01*
X94019619Y-122015238D02*
X93972000Y-122110476D01*
X93876762Y-122205714D01*
X93733905Y-122348571D01*
X93686286Y-122443810D01*
X93686286Y-122539048D01*
X93924381Y-122491429D02*
X93876762Y-122586667D01*
X93781524Y-122681905D01*
X93591048Y-122729524D01*
X93257714Y-122729524D01*
X93067238Y-122681905D01*
X92972000Y-122586667D01*
X92924381Y-122491429D01*
X92924381Y-122300952D01*
X92972000Y-122205714D01*
X93067238Y-122110476D01*
X93257714Y-122062857D01*
X93591048Y-122062857D01*
X93781524Y-122110476D01*
X93876762Y-122205714D01*
X93924381Y-122300952D01*
X93924381Y-122491429D01*
X93924381Y-121110476D02*
X93924381Y-121681905D01*
X93924381Y-121396191D02*
X92924381Y-121396191D01*
X93067238Y-121491429D01*
X93162476Y-121586667D01*
X93210095Y-121681905D01*
M02*
