G04 #@! TF.FileFunction,Soldermask,Bot*
%FSLAX46Y46*%
G04 Gerber Fmt 4.6, Leading zero omitted, Abs format (unit mm)*
G04 Created by KiCad (PCBNEW 0.201503020946+5465~21~ubuntu14.04.1-product) date Mon 30 Mar 2015 03:02:51 BST*
%MOMM*%
G01*
G04 APERTURE LIST*
%ADD10C,0.100000*%
%ADD11C,1.000000*%
%ADD12C,2.500000*%
%ADD13C,4.000000*%
%ADD14C,2.000000*%
%ADD15C,1.200000*%
%ADD16R,1.574800X1.574800*%
%ADD17C,1.574800*%
%ADD18C,3.600000*%
%ADD19C,3.000000*%
%ADD20C,6.300000*%
%ADD21C,0.600000*%
%ADD22C,3.660000*%
%ADD23C,2.000000*%
%ADD24R,2.000000X2.000000*%
%ADD25O,3.500120X1.699260*%
%ADD26C,4.000000*%
%ADD27C,2.500000*%
%ADD28C,2.499360*%
%ADD29C,3.300000*%
%ADD30C,3.400000*%
G04 APERTURE END LIST*
D10*
D11*
X113982500Y-79502000D02*
X111823500Y-79883000D01*
X113855500Y-79057500D02*
X113982500Y-79502000D01*
X111823500Y-78359000D02*
X113855500Y-79057500D01*
D12*
X106870500Y-79121000D02*
X111823500Y-79121000D01*
X106235500Y-79057500D02*
X106870500Y-79121000D01*
X109220000Y-89789000D02*
X109029500Y-92583000D01*
X107759500Y-89852500D02*
X109220000Y-89789000D01*
X108648500Y-93345000D02*
X107759500Y-89852500D01*
X108556000Y-93260000D02*
X116056000Y-93260000D01*
D13*
X108458000Y-87439500D02*
X108458000Y-89852500D01*
X105092500Y-84074000D02*
X108458000Y-87439500D01*
X105029000Y-84010500D02*
X105092500Y-84074000D01*
X105029000Y-73386500D02*
X105029000Y-84010500D01*
X104965500Y-73323000D02*
X105029000Y-73386500D01*
X98000000Y-66357500D02*
X104965500Y-73323000D01*
X98000000Y-55500000D02*
X98000000Y-66357500D01*
X123571000Y-79121000D02*
X123571000Y-96901000D01*
X121221500Y-76771500D02*
X123571000Y-79121000D01*
X118745000Y-76771500D02*
X121221500Y-76771500D01*
D11*
X118046500Y-76327000D02*
X118046500Y-77152500D01*
X116713000Y-76581000D02*
X118046500Y-76327000D01*
X117729000Y-77660500D02*
X115951000Y-76898500D01*
X118618000Y-78168500D02*
X117729000Y-77660500D01*
X118618000Y-75311000D02*
X118618000Y-78168500D01*
X115633500Y-76517500D02*
X118618000Y-75311000D01*
D14*
X117602000Y-98298000D02*
X122174000Y-96774000D01*
X122428000Y-99377500D02*
X124333000Y-97472500D01*
X121920000Y-99504500D02*
X122428000Y-99377500D01*
X116395500Y-98361500D02*
X121920000Y-99504500D01*
D12*
X120967500Y-98298000D02*
X120967500Y-98234500D01*
X116056000Y-98298000D02*
X120967500Y-98298000D01*
X108556000Y-98298000D02*
X116056000Y-98298000D01*
X103145500Y-98298000D02*
X108556000Y-98298000D01*
X102193000Y-97345500D02*
X103145500Y-98298000D01*
X102193000Y-93980000D02*
X102193000Y-97345500D01*
X101346000Y-93133000D02*
X102193000Y-93980000D01*
X95730000Y-93133000D02*
X101346000Y-93133000D01*
X88230000Y-93133000D02*
X95730000Y-93133000D01*
X84963000Y-98173000D02*
X84963000Y-98552000D01*
X88230000Y-98173000D02*
X84963000Y-98173000D01*
X95730000Y-98173000D02*
X88230000Y-98173000D01*
D13*
X77216000Y-98679000D02*
X85217000Y-98679000D01*
X64770000Y-86233000D02*
X77216000Y-98679000D01*
X59690000Y-86233000D02*
X64770000Y-86233000D01*
X59690000Y-78613000D02*
X59690000Y-86233000D01*
X59690000Y-57658000D02*
X59690000Y-65278000D01*
X59714000Y-57658000D02*
X59690000Y-57658000D01*
X62000000Y-55372000D02*
X59714000Y-57658000D01*
X62000000Y-48100000D02*
X62000000Y-55372000D01*
D15*
X54102000Y-127381000D03*
X81407000Y-120967500D03*
X46799500Y-127381000D03*
D16*
X122555000Y-115570000D03*
D17*
X125095000Y-115570000D03*
X127635000Y-115570000D03*
X127635000Y-107950000D03*
X125095000Y-107950000D03*
X122555000Y-107950000D03*
D18*
X75000000Y-40800000D03*
X35000000Y-40800000D03*
D19*
X62000000Y-48100000D03*
X55000000Y-48100000D03*
X48000000Y-48100000D03*
D20*
X35000000Y-127000000D03*
D21*
X35000000Y-124500000D03*
X37500000Y-127000000D03*
X35000000Y-129500000D03*
X32500000Y-127000000D03*
X33200000Y-125200000D03*
X36800000Y-125200000D03*
X33200000Y-128800000D03*
X36800000Y-128800000D03*
D20*
X125000000Y-127000000D03*
D21*
X125000000Y-124500000D03*
X127500000Y-127000000D03*
X125000000Y-129500000D03*
X122500000Y-127000000D03*
X123200000Y-125200000D03*
X126800000Y-125200000D03*
X123200000Y-128800000D03*
X126800000Y-128800000D03*
D22*
X88517000Y-76708000D03*
X98427000Y-76708000D03*
D23*
X76190000Y-125230000D03*
X76190000Y-127770000D03*
X78730000Y-125230000D03*
X78730000Y-127770000D03*
X81270000Y-125230000D03*
X81270000Y-127770000D03*
D24*
X83810000Y-125230000D03*
D23*
X83810000Y-127770000D03*
D25*
X115062000Y-76708000D03*
X115062000Y-79248000D03*
X115062000Y-74168000D03*
D26*
X59690000Y-57658000D03*
X59690000Y-65278000D03*
X59690000Y-86233000D03*
X59690000Y-78613000D03*
D27*
X45339000Y-62660000D03*
X45339000Y-85160000D03*
X41990000Y-119347000D03*
X51990000Y-119347000D03*
X36990000Y-99347000D03*
X56990000Y-99347000D03*
D28*
X115237000Y-85725000D03*
X120237000Y-85725000D03*
D29*
X112000000Y-55500000D03*
X105000000Y-55500000D03*
X98000000Y-55500000D03*
D30*
X125000000Y-40400000D03*
X85000000Y-40400000D03*
D27*
X88230000Y-118333000D03*
X95730000Y-118333000D03*
X88230000Y-98173000D03*
X88230000Y-93133000D03*
X95730000Y-98173000D03*
X95730000Y-93133000D03*
X88230000Y-103213000D03*
X95730000Y-103213000D03*
X108556000Y-118460000D03*
X116056000Y-118460000D03*
X108556000Y-98300000D03*
X108556000Y-93260000D03*
X116056000Y-98300000D03*
X116056000Y-93260000D03*
X108556000Y-103340000D03*
X116056000Y-103340000D03*
M02*
