G04 #@! TF.FileFunction,Copper,L2,Bot,Signal*
%FSLAX46Y46*%
G04 Gerber Fmt 4.6, Leading zero omitted, Abs format (unit mm)*
G04 Created by KiCad (PCBNEW 0.201507280910+6003~25~ubuntu14.04.1-product) date Wed 07 Oct 2015 02:08:59 BST*
%MOMM*%
G01*
G04 APERTURE LIST*
%ADD10C,0.100000*%
%ADD11C,2.499360*%
%ADD12O,3.500120X1.699260*%
%ADD13C,2.500000*%
%ADD14C,1.200000*%
%ADD15R,1.574800X1.574800*%
%ADD16C,1.574800*%
%ADD17C,3.000000*%
%ADD18C,2.000000*%
%ADD19R,2.000000X2.000000*%
%ADD20C,4.000000*%
%ADD21C,3.300000*%
%ADD22C,0.254000*%
%ADD23C,0.508000*%
%ADD24C,4.000000*%
%ADD25C,1.000000*%
%ADD26C,2.500000*%
%ADD27C,1.500000*%
%ADD28C,2.000000*%
G04 APERTURE END LIST*
D10*
D11*
X115237000Y-85725000D03*
X120237000Y-85725000D03*
D12*
X115062000Y-76708000D03*
X115062000Y-80518000D03*
X115062000Y-72898000D03*
D13*
X88230000Y-118333000D03*
X95730000Y-118333000D03*
X88230000Y-98173000D03*
X88230000Y-93133000D03*
X95730000Y-98173000D03*
X95730000Y-93133000D03*
D14*
X54102000Y-127381000D03*
X81407000Y-120967500D03*
X46799500Y-127381000D03*
D15*
X122555000Y-115570000D03*
D16*
X125095000Y-115570000D03*
X127635000Y-115570000D03*
X127635000Y-107950000D03*
X125095000Y-107950000D03*
X122555000Y-107950000D03*
D17*
X62000000Y-48100000D03*
X55000000Y-48100000D03*
X48000000Y-48100000D03*
D18*
X76190000Y-125230000D03*
X76190000Y-127770000D03*
X78730000Y-125230000D03*
X78730000Y-127770000D03*
X81270000Y-125230000D03*
X81270000Y-127770000D03*
D19*
X83810000Y-125230000D03*
D18*
X83810000Y-127770000D03*
D20*
X59690000Y-57658000D03*
X59690000Y-65278000D03*
X59690000Y-86233000D03*
X59690000Y-78613000D03*
D13*
X45339000Y-62660000D03*
X45339000Y-85160000D03*
X41990000Y-119347000D03*
X51990000Y-119347000D03*
X36990000Y-99347000D03*
X56990000Y-99347000D03*
D21*
X112000000Y-55500000D03*
X105000000Y-55500000D03*
X98000000Y-55500000D03*
D13*
X108556000Y-118460000D03*
X116056000Y-118460000D03*
X108556000Y-98300000D03*
X108556000Y-93260000D03*
X116056000Y-98300000D03*
X116056000Y-93260000D03*
D14*
X98933000Y-118491000D03*
X104648000Y-119253000D03*
X92202000Y-118110000D03*
X120269000Y-129540000D03*
X107315000Y-130175000D03*
X106172000Y-123952000D03*
X111760000Y-118872000D03*
X118999000Y-116586000D03*
X76771500Y-119062500D03*
X127000000Y-123190000D03*
X71247000Y-125730000D03*
X64008000Y-124968000D03*
X99695000Y-126746000D03*
X86360000Y-128016000D03*
X103378000Y-126746000D03*
X87884000Y-128270000D03*
X102870000Y-128397000D03*
X99695000Y-128397000D03*
D22*
X98933000Y-118491000D02*
X98933000Y-116713000D01*
X99695000Y-119253000D02*
X98933000Y-118491000D01*
X106172000Y-123952000D02*
X106172000Y-120777000D01*
X106172000Y-120777000D02*
X104648000Y-119253000D01*
X104648000Y-119253000D02*
X99695000Y-119253000D01*
X92202000Y-116713000D02*
X92202000Y-118110000D01*
X93345000Y-115570000D02*
X92202000Y-116713000D01*
X97790000Y-115570000D02*
X93345000Y-115570000D01*
X98933000Y-116713000D02*
X97790000Y-115570000D01*
X120269000Y-129540000D02*
X107950000Y-129540000D01*
X107950000Y-129540000D02*
X107315000Y-130175000D01*
D23*
X106172000Y-123952000D02*
X106172000Y-123952000D01*
X106172000Y-123952000D02*
X106172000Y-123190000D01*
X106172000Y-123190000D02*
X104902000Y-121920000D01*
X104902000Y-121920000D02*
X104902000Y-117856000D01*
X104902000Y-117856000D02*
X107188000Y-115570000D01*
X107188000Y-115570000D02*
X110490000Y-115570000D01*
X110490000Y-115570000D02*
X111760000Y-116840000D01*
X111760000Y-116840000D02*
X111760000Y-118872000D01*
X111760000Y-118872000D02*
X111760000Y-117856000D01*
X111760000Y-117856000D02*
X114300000Y-115316000D01*
X114300000Y-115316000D02*
X117602000Y-115316000D01*
X117602000Y-115316000D02*
X118872000Y-116586000D01*
X118872000Y-116459000D02*
X118872000Y-116586000D01*
X83810000Y-120005000D02*
X83810000Y-125230000D01*
X81661000Y-117856000D02*
X83810000Y-120005000D01*
X77978000Y-117856000D02*
X81661000Y-117856000D01*
X76771500Y-119062500D02*
X77978000Y-117856000D01*
D22*
X122301000Y-123190000D02*
X122174000Y-123317000D01*
X127000000Y-123190000D02*
X122301000Y-123190000D01*
X68453000Y-124968000D02*
X70104000Y-123317000D01*
X64516000Y-124968000D02*
X68453000Y-124968000D01*
X70104000Y-126873000D02*
X71247000Y-125730000D01*
X71247000Y-125730000D02*
X72517000Y-125730000D01*
D23*
X70485000Y-124968000D02*
X71247000Y-125730000D01*
X64516000Y-124968000D02*
X70485000Y-124968000D01*
D22*
X122428000Y-123190000D02*
X120269000Y-125349000D01*
X120269000Y-125349000D02*
X120269000Y-129540000D01*
X120269000Y-129540000D02*
X120269000Y-129540000D01*
X127000000Y-123190000D02*
X122428000Y-123190000D01*
X125603000Y-123190000D02*
X118872000Y-116459000D01*
X118872000Y-116459000D02*
X118999000Y-116586000D01*
X127000000Y-123190000D02*
X125603000Y-123190000D01*
D23*
X64008000Y-124968000D02*
X64643000Y-124968000D01*
X64643000Y-124968000D02*
X64516000Y-124968000D01*
X94742000Y-122555000D02*
X92075000Y-119888000D01*
X94742000Y-125984000D02*
X94742000Y-122555000D01*
X93988000Y-125230000D02*
X94742000Y-125984000D01*
X83810000Y-125230000D02*
X93988000Y-125230000D01*
X92075000Y-119888000D02*
X92075000Y-118237000D01*
D24*
X121983500Y-98488500D02*
X123571000Y-96901000D01*
D25*
X116056000Y-98300000D02*
X121983500Y-96329500D01*
D24*
X123571000Y-96901000D02*
X123571000Y-85979000D01*
D25*
X121983500Y-96329500D02*
X121983500Y-98488500D01*
X120777000Y-98300000D02*
X120586500Y-99758500D01*
X120586500Y-99758500D02*
X116649500Y-98996500D01*
X116649500Y-98996500D02*
X116056000Y-98300000D01*
X115062000Y-76708000D02*
X118999000Y-75247500D01*
X118999000Y-75247500D02*
X118999000Y-76708000D01*
X119507000Y-76708000D02*
X119634000Y-78168500D01*
X119634000Y-78168500D02*
X116332000Y-77089000D01*
X116332000Y-77089000D02*
X115062000Y-76708000D01*
D24*
X121158000Y-76708000D02*
X118999000Y-76708000D01*
X123571000Y-79121000D02*
X123571000Y-85979000D01*
X123571000Y-79121000D02*
X121158000Y-76708000D01*
X118999000Y-76708000D02*
X119062500Y-76708000D01*
X119062500Y-76708000D02*
X119507000Y-76708000D01*
X119507000Y-76708000D02*
X120269000Y-76708000D01*
X121029000Y-98300000D02*
X120777000Y-98300000D01*
D26*
X116056000Y-98300000D02*
X121029000Y-98300000D01*
X121029000Y-98300000D02*
X121031000Y-98298000D01*
X88230000Y-93133000D02*
X95730000Y-93133000D01*
X95730000Y-93133000D02*
X95772000Y-93091000D01*
X95772000Y-93091000D02*
X101346000Y-93091000D01*
X101346000Y-93091000D02*
X102235000Y-93980000D01*
X102235000Y-93980000D02*
X102235000Y-97409000D01*
X102235000Y-97409000D02*
X103126000Y-98300000D01*
X103126000Y-98300000D02*
X108556000Y-98300000D01*
X108556000Y-98300000D02*
X116056000Y-98300000D01*
D27*
X115062000Y-76708000D02*
X120269000Y-76708000D01*
D25*
X123317000Y-85725000D02*
X123571000Y-85979000D01*
X120237000Y-85725000D02*
X123317000Y-85725000D01*
D26*
X88230000Y-98173000D02*
X95730000Y-98173000D01*
D24*
X59690000Y-78613000D02*
X59690000Y-86233000D01*
X45275500Y-62723500D02*
X45339000Y-62660000D01*
X52832000Y-78613000D02*
X45275500Y-71056500D01*
X45275500Y-71056500D02*
X45275500Y-62723500D01*
X59690000Y-78613000D02*
X52832000Y-78613000D01*
X77216000Y-98679000D02*
X64770000Y-86233000D01*
X64770000Y-86233000D02*
X59690000Y-86233000D01*
D26*
X85723000Y-98173000D02*
X85217000Y-98679000D01*
X88230000Y-98173000D02*
X85723000Y-98173000D01*
D24*
X85217000Y-98679000D02*
X77216000Y-98679000D01*
D26*
X45339000Y-87696000D02*
X56990000Y-99347000D01*
X45339000Y-85160000D02*
X45339000Y-87696000D01*
D24*
X62000000Y-55348000D02*
X59690000Y-57658000D01*
X62000000Y-48100000D02*
X62000000Y-55348000D01*
X59690000Y-57658000D02*
X59690000Y-65278000D01*
D27*
X115062000Y-80518000D02*
X111252000Y-81788000D01*
D24*
X111252000Y-80518000D02*
X111379000Y-80518000D01*
D27*
X111252000Y-81788000D02*
X111252000Y-80518000D01*
X111379000Y-80518000D02*
X111379000Y-79248000D01*
X111379000Y-79248000D02*
X114935000Y-80391000D01*
X114935000Y-80391000D02*
X115062000Y-80518000D01*
D24*
X111379000Y-80518000D02*
X105029000Y-80518000D01*
D25*
X108556000Y-93260000D02*
X109791500Y-92773500D01*
X109918500Y-89852500D02*
X108458000Y-89852500D01*
X109791500Y-92773500D02*
X109918500Y-89852500D01*
X108556000Y-93260000D02*
X107759500Y-92646500D01*
X107759500Y-92646500D02*
X107061000Y-89916000D01*
X107061000Y-89916000D02*
X108458000Y-89916000D01*
D26*
X108556000Y-93260000D02*
X108556000Y-89633000D01*
D24*
X105029000Y-84074000D02*
X108458000Y-87503000D01*
X108458000Y-87503000D02*
X108458000Y-89852500D01*
X105029000Y-84074000D02*
X105029000Y-80518000D01*
X105029000Y-80518000D02*
X105029000Y-79121000D01*
X98000000Y-66377000D02*
X98000000Y-55500000D01*
X98000000Y-66377000D02*
X105029000Y-73406000D01*
X105029000Y-73406000D02*
X105029000Y-76962000D01*
X105029000Y-79121000D02*
X105029000Y-76962000D01*
X108458000Y-89852500D02*
X108458000Y-89916000D01*
X108458000Y-89916000D02*
X108458000Y-89535000D01*
D26*
X108556000Y-89633000D02*
X108458000Y-89535000D01*
X116056000Y-93260000D02*
X112268000Y-93260000D01*
X112268000Y-93260000D02*
X108556000Y-93260000D01*
X108500000Y-93204000D02*
X108556000Y-93260000D01*
D28*
X108458000Y-93162000D02*
X108556000Y-93260000D01*
D23*
X102870000Y-126746000D02*
X103378000Y-126746000D01*
X99695000Y-126746000D02*
X102870000Y-126746000D01*
X81270000Y-128387000D02*
X82296000Y-129413000D01*
X82296000Y-129413000D02*
X84963000Y-129413000D01*
X84963000Y-129413000D02*
X86360000Y-128016000D01*
X81270000Y-127770000D02*
X81270000Y-128387000D01*
X81270000Y-127770000D02*
X81270000Y-128514000D01*
X81270000Y-127770000D02*
X81270000Y-127879000D01*
X78730000Y-127770000D02*
X78730000Y-128768000D01*
X85852000Y-130302000D02*
X87884000Y-128270000D01*
X80264000Y-130302000D02*
X85852000Y-130302000D01*
X80264000Y-130302000D02*
X78730000Y-128768000D01*
X101981000Y-128397000D02*
X102870000Y-128397000D01*
X99695000Y-128397000D02*
X101981000Y-128397000D01*
D24*
X72009000Y-47498000D02*
X64516000Y-40005000D01*
X64516000Y-40005000D02*
X57785000Y-40005000D01*
X57785000Y-40005000D02*
X55000000Y-42790000D01*
X55000000Y-42790000D02*
X55000000Y-48100000D01*
X105000000Y-55500000D02*
X105000000Y-49628000D01*
X102870000Y-47498000D02*
X105000000Y-49628000D01*
X72136000Y-47498000D02*
X102870000Y-47498000D01*
X72136000Y-47498000D02*
X72009000Y-47498000D01*
D22*
G36*
X121171169Y-114530710D02*
X121120160Y-114782600D01*
X121120160Y-116357400D01*
X121164438Y-116592717D01*
X121303510Y-116808841D01*
X121515710Y-116953831D01*
X121767600Y-117004840D01*
X123342400Y-117004840D01*
X123577717Y-116960562D01*
X123793841Y-116821490D01*
X123938831Y-116609290D01*
X123969832Y-116456201D01*
X124288223Y-116775149D01*
X124810826Y-116992152D01*
X125376691Y-116992646D01*
X125899672Y-116776555D01*
X126300149Y-116376777D01*
X126364891Y-116220860D01*
X126428445Y-116374672D01*
X126828223Y-116775149D01*
X127350826Y-116992152D01*
X127916691Y-116992646D01*
X128439672Y-116776555D01*
X128840149Y-116376777D01*
X129057152Y-115854174D01*
X129057646Y-115288309D01*
X128841555Y-114765328D01*
X128503818Y-114427000D01*
X129315000Y-114427000D01*
X129315000Y-131315000D01*
X30685000Y-131315000D01*
X30685000Y-127185167D01*
X31564838Y-127185167D01*
X31572820Y-127204485D01*
X31572406Y-127678682D01*
X32093037Y-128938704D01*
X32353413Y-129199534D01*
X32406883Y-129328943D01*
X32669673Y-129592192D01*
X32798989Y-129645889D01*
X33056226Y-129903575D01*
X34315337Y-130426404D01*
X34793896Y-130426822D01*
X34813201Y-130434838D01*
X35185167Y-130435162D01*
X35204485Y-130427180D01*
X35678682Y-130427594D01*
X36938704Y-129906963D01*
X37199534Y-129646587D01*
X37328943Y-129593117D01*
X37592192Y-129330327D01*
X37645889Y-129201011D01*
X37903575Y-128943774D01*
X38426404Y-127684663D01*
X38426455Y-127625579D01*
X45564286Y-127625579D01*
X45751908Y-128079657D01*
X46099015Y-128427371D01*
X46552766Y-128615785D01*
X47044079Y-128616214D01*
X47498157Y-128428592D01*
X47683337Y-128243735D01*
X53418870Y-128243735D01*
X53468383Y-128469164D01*
X53933036Y-128628807D01*
X54423413Y-128598482D01*
X54735617Y-128469164D01*
X54785130Y-128243735D01*
X54102000Y-127560605D01*
X53418870Y-128243735D01*
X47683337Y-128243735D01*
X47845871Y-128081485D01*
X48034285Y-127627734D01*
X48034647Y-127212036D01*
X52854193Y-127212036D01*
X52884518Y-127702413D01*
X53013836Y-128014617D01*
X53239265Y-128064130D01*
X53922395Y-127381000D01*
X54281605Y-127381000D01*
X54964735Y-128064130D01*
X55190164Y-128014617D01*
X55349807Y-127549964D01*
X55319482Y-127059587D01*
X55190164Y-126747383D01*
X54964735Y-126697870D01*
X54281605Y-127381000D01*
X53922395Y-127381000D01*
X53239265Y-126697870D01*
X53013836Y-126747383D01*
X52854193Y-127212036D01*
X48034647Y-127212036D01*
X48034714Y-127136421D01*
X47847092Y-126682343D01*
X47683301Y-126518265D01*
X53418870Y-126518265D01*
X54102000Y-127201395D01*
X54785130Y-126518265D01*
X54735617Y-126292836D01*
X54270964Y-126133193D01*
X53780587Y-126163518D01*
X53468383Y-126292836D01*
X53418870Y-126518265D01*
X47683301Y-126518265D01*
X47499985Y-126334629D01*
X47046234Y-126146215D01*
X46554921Y-126145786D01*
X46100843Y-126333408D01*
X45753129Y-126680515D01*
X45564715Y-127134266D01*
X45564286Y-127625579D01*
X38426455Y-127625579D01*
X38426822Y-127206104D01*
X38434838Y-127186799D01*
X38435162Y-126814833D01*
X38427180Y-126795515D01*
X38427594Y-126321318D01*
X38110460Y-125553795D01*
X74554716Y-125553795D01*
X74803106Y-126154943D01*
X75147759Y-126500199D01*
X74804722Y-126842637D01*
X74555284Y-127443352D01*
X74554716Y-128093795D01*
X74803106Y-128694943D01*
X75262637Y-129155278D01*
X75863352Y-129404716D01*
X76513795Y-129405284D01*
X77114943Y-129156894D01*
X77460199Y-128812241D01*
X77802637Y-129155278D01*
X77992917Y-129234289D01*
X78056163Y-129328943D01*
X78101382Y-129396618D01*
X79635382Y-130930618D01*
X79923795Y-131123330D01*
X80264000Y-131191000D01*
X85852000Y-131191000D01*
X86192206Y-131123329D01*
X86480618Y-130930618D01*
X87906216Y-129505020D01*
X88128579Y-129505214D01*
X88582657Y-129317592D01*
X88930371Y-128970485D01*
X89118785Y-128516734D01*
X89119214Y-128025421D01*
X88931592Y-127571343D01*
X88584485Y-127223629D01*
X88130734Y-127035215D01*
X87639421Y-127034786D01*
X87275596Y-127185116D01*
X87081399Y-126990579D01*
X98459786Y-126990579D01*
X98647408Y-127444657D01*
X98773946Y-127571417D01*
X98648629Y-127696515D01*
X98460215Y-128150266D01*
X98459786Y-128641579D01*
X98647408Y-129095657D01*
X98994515Y-129443371D01*
X99448266Y-129631785D01*
X99939579Y-129632214D01*
X100393657Y-129444592D01*
X100552526Y-129286000D01*
X102012419Y-129286000D01*
X102169515Y-129443371D01*
X102623266Y-129631785D01*
X103114579Y-129632214D01*
X103568657Y-129444592D01*
X103916371Y-129097485D01*
X104104785Y-128643734D01*
X104105214Y-128152421D01*
X103974406Y-127835842D01*
X104076657Y-127793592D01*
X104424371Y-127446485D01*
X104532879Y-127185167D01*
X121564838Y-127185167D01*
X121572820Y-127204485D01*
X121572406Y-127678682D01*
X122093037Y-128938704D01*
X122353413Y-129199534D01*
X122406883Y-129328943D01*
X122669673Y-129592192D01*
X122798989Y-129645889D01*
X123056226Y-129903575D01*
X124315337Y-130426404D01*
X124793896Y-130426822D01*
X124813201Y-130434838D01*
X125185167Y-130435162D01*
X125204485Y-130427180D01*
X125678682Y-130427594D01*
X126938704Y-129906963D01*
X127199534Y-129646587D01*
X127328943Y-129593117D01*
X127592192Y-129330327D01*
X127645889Y-129201011D01*
X127903575Y-128943774D01*
X128426404Y-127684663D01*
X128426822Y-127206104D01*
X128434838Y-127186799D01*
X128435162Y-126814833D01*
X128427180Y-126795515D01*
X128427594Y-126321318D01*
X127906963Y-125061296D01*
X127646587Y-124800466D01*
X127593117Y-124671057D01*
X127330327Y-124407808D01*
X127201011Y-124354111D01*
X126943774Y-124096425D01*
X125684663Y-123573596D01*
X125206104Y-123573178D01*
X125186799Y-123565162D01*
X124814833Y-123564838D01*
X124795515Y-123572820D01*
X124321318Y-123572406D01*
X123061296Y-124093037D01*
X122800466Y-124353413D01*
X122671057Y-124406883D01*
X122407808Y-124669673D01*
X122354111Y-124798989D01*
X122096425Y-125056226D01*
X121573596Y-126315337D01*
X121573178Y-126793896D01*
X121565162Y-126813201D01*
X121564838Y-127185167D01*
X104532879Y-127185167D01*
X104612785Y-126992734D01*
X104613214Y-126501421D01*
X104425592Y-126047343D01*
X104078485Y-125699629D01*
X103624734Y-125511215D01*
X103133421Y-125510786D01*
X102679343Y-125698408D01*
X102520474Y-125857000D01*
X100552581Y-125857000D01*
X100395485Y-125699629D01*
X99941734Y-125511215D01*
X99450421Y-125510786D01*
X98996343Y-125698408D01*
X98648629Y-126045515D01*
X98460215Y-126499266D01*
X98459786Y-126990579D01*
X87081399Y-126990579D01*
X87060485Y-126969629D01*
X86606734Y-126781215D01*
X86115421Y-126780786D01*
X85661343Y-126968408D01*
X85368607Y-127260633D01*
X85196894Y-126845057D01*
X85134749Y-126782803D01*
X85169698Y-126768327D01*
X85348327Y-126589699D01*
X85445000Y-126356310D01*
X85445000Y-125515750D01*
X85286250Y-125357000D01*
X83937000Y-125357000D01*
X83937000Y-125377000D01*
X83683000Y-125377000D01*
X83683000Y-125357000D01*
X83663000Y-125357000D01*
X83663000Y-125103000D01*
X83683000Y-125103000D01*
X83683000Y-123753750D01*
X83937000Y-123753750D01*
X83937000Y-125103000D01*
X85286250Y-125103000D01*
X85445000Y-124944250D01*
X85445000Y-124103690D01*
X85348327Y-123870301D01*
X85169698Y-123691673D01*
X84936309Y-123595000D01*
X84095750Y-123595000D01*
X83937000Y-123753750D01*
X83683000Y-123753750D01*
X83524250Y-123595000D01*
X82683691Y-123595000D01*
X82450302Y-123691673D01*
X82271673Y-123870301D01*
X82257369Y-123904833D01*
X82197363Y-123844722D01*
X81596648Y-123595284D01*
X80946205Y-123594716D01*
X80345057Y-123843106D01*
X79999801Y-124187759D01*
X79657363Y-123844722D01*
X79056648Y-123595284D01*
X78406205Y-123594716D01*
X77805057Y-123843106D01*
X77459801Y-124187759D01*
X77117363Y-123844722D01*
X76516648Y-123595284D01*
X75866205Y-123594716D01*
X75265057Y-123843106D01*
X74804722Y-124302637D01*
X74555284Y-124903352D01*
X74554716Y-125553795D01*
X38110460Y-125553795D01*
X37906963Y-125061296D01*
X37646587Y-124800466D01*
X37593117Y-124671057D01*
X37330327Y-124407808D01*
X37201011Y-124354111D01*
X36943774Y-124096425D01*
X35684663Y-123573596D01*
X35206104Y-123573178D01*
X35186799Y-123565162D01*
X34814833Y-123564838D01*
X34795515Y-123572820D01*
X34321318Y-123572406D01*
X33061296Y-124093037D01*
X32800466Y-124353413D01*
X32671057Y-124406883D01*
X32407808Y-124669673D01*
X32354111Y-124798989D01*
X32096425Y-125056226D01*
X31573596Y-126315337D01*
X31573178Y-126793896D01*
X31565162Y-126813201D01*
X31564838Y-127185167D01*
X30685000Y-127185167D01*
X30685000Y-119720305D01*
X40104674Y-119720305D01*
X40391043Y-120413372D01*
X40920839Y-120944093D01*
X41613405Y-121231672D01*
X42363305Y-121232326D01*
X43056372Y-120945957D01*
X43322472Y-120680320D01*
X50836285Y-120680320D01*
X50965533Y-120973123D01*
X51665806Y-121241388D01*
X52415435Y-121221250D01*
X52437575Y-121212079D01*
X80171786Y-121212079D01*
X80359408Y-121666157D01*
X80706515Y-122013871D01*
X81160266Y-122202285D01*
X81651579Y-122202714D01*
X82105657Y-122015092D01*
X82453371Y-121667985D01*
X82641785Y-121214234D01*
X82642214Y-120722921D01*
X82454592Y-120268843D01*
X82107485Y-119921129D01*
X81653734Y-119732715D01*
X81162421Y-119732286D01*
X80708343Y-119919908D01*
X80360629Y-120267015D01*
X80172215Y-120720766D01*
X80171786Y-121212079D01*
X52437575Y-121212079D01*
X53014467Y-120973123D01*
X53143715Y-120680320D01*
X51990000Y-119526605D01*
X50836285Y-120680320D01*
X43322472Y-120680320D01*
X43587093Y-120416161D01*
X43874672Y-119723595D01*
X43875283Y-119022806D01*
X50095612Y-119022806D01*
X50115750Y-119772435D01*
X50363877Y-120371467D01*
X50656680Y-120500715D01*
X51810395Y-119347000D01*
X52169605Y-119347000D01*
X53323320Y-120500715D01*
X53616123Y-120371467D01*
X53884388Y-119671194D01*
X53864250Y-118921565D01*
X53775087Y-118706305D01*
X86344674Y-118706305D01*
X86631043Y-119399372D01*
X87160839Y-119930093D01*
X87853405Y-120217672D01*
X88603305Y-120218326D01*
X89296372Y-119931957D01*
X89827093Y-119402161D01*
X90114672Y-118709595D01*
X90114674Y-118706305D01*
X93844674Y-118706305D01*
X94131043Y-119399372D01*
X94660839Y-119930093D01*
X95353405Y-120217672D01*
X96103305Y-120218326D01*
X96796372Y-119931957D01*
X97327093Y-119402161D01*
X97563303Y-118833305D01*
X106670674Y-118833305D01*
X106957043Y-119526372D01*
X107486839Y-120057093D01*
X108179405Y-120344672D01*
X108929305Y-120345326D01*
X109622372Y-120058957D01*
X110153093Y-119529161D01*
X110440672Y-118836595D01*
X110440674Y-118833305D01*
X114170674Y-118833305D01*
X114457043Y-119526372D01*
X114986839Y-120057093D01*
X115679405Y-120344672D01*
X116429305Y-120345326D01*
X117122372Y-120058957D01*
X117653093Y-119529161D01*
X117940672Y-118836595D01*
X117941326Y-118086695D01*
X117654957Y-117393628D01*
X117125161Y-116862907D01*
X116432595Y-116575328D01*
X115682695Y-116574674D01*
X114989628Y-116861043D01*
X114458907Y-117390839D01*
X114171328Y-118083405D01*
X114170674Y-118833305D01*
X110440674Y-118833305D01*
X110441326Y-118086695D01*
X110154957Y-117393628D01*
X109625161Y-116862907D01*
X108932595Y-116575328D01*
X108182695Y-116574674D01*
X107489628Y-116861043D01*
X106958907Y-117390839D01*
X106671328Y-118083405D01*
X106670674Y-118833305D01*
X97563303Y-118833305D01*
X97614672Y-118709595D01*
X97615326Y-117959695D01*
X97328957Y-117266628D01*
X96799161Y-116735907D01*
X96106595Y-116448328D01*
X95356695Y-116447674D01*
X94663628Y-116734043D01*
X94132907Y-117263839D01*
X93845328Y-117956405D01*
X93844674Y-118706305D01*
X90114674Y-118706305D01*
X90115326Y-117959695D01*
X89828957Y-117266628D01*
X89299161Y-116735907D01*
X88606595Y-116448328D01*
X87856695Y-116447674D01*
X87163628Y-116734043D01*
X86632907Y-117263839D01*
X86345328Y-117956405D01*
X86344674Y-118706305D01*
X53775087Y-118706305D01*
X53616123Y-118322533D01*
X53323320Y-118193285D01*
X52169605Y-119347000D01*
X51810395Y-119347000D01*
X50656680Y-118193285D01*
X50363877Y-118322533D01*
X50095612Y-119022806D01*
X43875283Y-119022806D01*
X43875326Y-118973695D01*
X43588957Y-118280628D01*
X43322475Y-118013680D01*
X50836285Y-118013680D01*
X51990000Y-119167395D01*
X53143715Y-118013680D01*
X53014467Y-117720877D01*
X52314194Y-117452612D01*
X51564565Y-117472750D01*
X50965533Y-117720877D01*
X50836285Y-118013680D01*
X43322475Y-118013680D01*
X43059161Y-117749907D01*
X42366595Y-117462328D01*
X41616695Y-117461674D01*
X40923628Y-117748043D01*
X40392907Y-118277839D01*
X40105328Y-118970405D01*
X40104674Y-119720305D01*
X30685000Y-119720305D01*
X30685000Y-114427000D01*
X121242031Y-114427000D01*
X121171169Y-114530710D01*
X121171169Y-114530710D01*
G37*
X121171169Y-114530710D02*
X121120160Y-114782600D01*
X121120160Y-116357400D01*
X121164438Y-116592717D01*
X121303510Y-116808841D01*
X121515710Y-116953831D01*
X121767600Y-117004840D01*
X123342400Y-117004840D01*
X123577717Y-116960562D01*
X123793841Y-116821490D01*
X123938831Y-116609290D01*
X123969832Y-116456201D01*
X124288223Y-116775149D01*
X124810826Y-116992152D01*
X125376691Y-116992646D01*
X125899672Y-116776555D01*
X126300149Y-116376777D01*
X126364891Y-116220860D01*
X126428445Y-116374672D01*
X126828223Y-116775149D01*
X127350826Y-116992152D01*
X127916691Y-116992646D01*
X128439672Y-116776555D01*
X128840149Y-116376777D01*
X129057152Y-115854174D01*
X129057646Y-115288309D01*
X128841555Y-114765328D01*
X128503818Y-114427000D01*
X129315000Y-114427000D01*
X129315000Y-131315000D01*
X30685000Y-131315000D01*
X30685000Y-127185167D01*
X31564838Y-127185167D01*
X31572820Y-127204485D01*
X31572406Y-127678682D01*
X32093037Y-128938704D01*
X32353413Y-129199534D01*
X32406883Y-129328943D01*
X32669673Y-129592192D01*
X32798989Y-129645889D01*
X33056226Y-129903575D01*
X34315337Y-130426404D01*
X34793896Y-130426822D01*
X34813201Y-130434838D01*
X35185167Y-130435162D01*
X35204485Y-130427180D01*
X35678682Y-130427594D01*
X36938704Y-129906963D01*
X37199534Y-129646587D01*
X37328943Y-129593117D01*
X37592192Y-129330327D01*
X37645889Y-129201011D01*
X37903575Y-128943774D01*
X38426404Y-127684663D01*
X38426455Y-127625579D01*
X45564286Y-127625579D01*
X45751908Y-128079657D01*
X46099015Y-128427371D01*
X46552766Y-128615785D01*
X47044079Y-128616214D01*
X47498157Y-128428592D01*
X47683337Y-128243735D01*
X53418870Y-128243735D01*
X53468383Y-128469164D01*
X53933036Y-128628807D01*
X54423413Y-128598482D01*
X54735617Y-128469164D01*
X54785130Y-128243735D01*
X54102000Y-127560605D01*
X53418870Y-128243735D01*
X47683337Y-128243735D01*
X47845871Y-128081485D01*
X48034285Y-127627734D01*
X48034647Y-127212036D01*
X52854193Y-127212036D01*
X52884518Y-127702413D01*
X53013836Y-128014617D01*
X53239265Y-128064130D01*
X53922395Y-127381000D01*
X54281605Y-127381000D01*
X54964735Y-128064130D01*
X55190164Y-128014617D01*
X55349807Y-127549964D01*
X55319482Y-127059587D01*
X55190164Y-126747383D01*
X54964735Y-126697870D01*
X54281605Y-127381000D01*
X53922395Y-127381000D01*
X53239265Y-126697870D01*
X53013836Y-126747383D01*
X52854193Y-127212036D01*
X48034647Y-127212036D01*
X48034714Y-127136421D01*
X47847092Y-126682343D01*
X47683301Y-126518265D01*
X53418870Y-126518265D01*
X54102000Y-127201395D01*
X54785130Y-126518265D01*
X54735617Y-126292836D01*
X54270964Y-126133193D01*
X53780587Y-126163518D01*
X53468383Y-126292836D01*
X53418870Y-126518265D01*
X47683301Y-126518265D01*
X47499985Y-126334629D01*
X47046234Y-126146215D01*
X46554921Y-126145786D01*
X46100843Y-126333408D01*
X45753129Y-126680515D01*
X45564715Y-127134266D01*
X45564286Y-127625579D01*
X38426455Y-127625579D01*
X38426822Y-127206104D01*
X38434838Y-127186799D01*
X38435162Y-126814833D01*
X38427180Y-126795515D01*
X38427594Y-126321318D01*
X38110460Y-125553795D01*
X74554716Y-125553795D01*
X74803106Y-126154943D01*
X75147759Y-126500199D01*
X74804722Y-126842637D01*
X74555284Y-127443352D01*
X74554716Y-128093795D01*
X74803106Y-128694943D01*
X75262637Y-129155278D01*
X75863352Y-129404716D01*
X76513795Y-129405284D01*
X77114943Y-129156894D01*
X77460199Y-128812241D01*
X77802637Y-129155278D01*
X77992917Y-129234289D01*
X78056163Y-129328943D01*
X78101382Y-129396618D01*
X79635382Y-130930618D01*
X79923795Y-131123330D01*
X80264000Y-131191000D01*
X85852000Y-131191000D01*
X86192206Y-131123329D01*
X86480618Y-130930618D01*
X87906216Y-129505020D01*
X88128579Y-129505214D01*
X88582657Y-129317592D01*
X88930371Y-128970485D01*
X89118785Y-128516734D01*
X89119214Y-128025421D01*
X88931592Y-127571343D01*
X88584485Y-127223629D01*
X88130734Y-127035215D01*
X87639421Y-127034786D01*
X87275596Y-127185116D01*
X87081399Y-126990579D01*
X98459786Y-126990579D01*
X98647408Y-127444657D01*
X98773946Y-127571417D01*
X98648629Y-127696515D01*
X98460215Y-128150266D01*
X98459786Y-128641579D01*
X98647408Y-129095657D01*
X98994515Y-129443371D01*
X99448266Y-129631785D01*
X99939579Y-129632214D01*
X100393657Y-129444592D01*
X100552526Y-129286000D01*
X102012419Y-129286000D01*
X102169515Y-129443371D01*
X102623266Y-129631785D01*
X103114579Y-129632214D01*
X103568657Y-129444592D01*
X103916371Y-129097485D01*
X104104785Y-128643734D01*
X104105214Y-128152421D01*
X103974406Y-127835842D01*
X104076657Y-127793592D01*
X104424371Y-127446485D01*
X104532879Y-127185167D01*
X121564838Y-127185167D01*
X121572820Y-127204485D01*
X121572406Y-127678682D01*
X122093037Y-128938704D01*
X122353413Y-129199534D01*
X122406883Y-129328943D01*
X122669673Y-129592192D01*
X122798989Y-129645889D01*
X123056226Y-129903575D01*
X124315337Y-130426404D01*
X124793896Y-130426822D01*
X124813201Y-130434838D01*
X125185167Y-130435162D01*
X125204485Y-130427180D01*
X125678682Y-130427594D01*
X126938704Y-129906963D01*
X127199534Y-129646587D01*
X127328943Y-129593117D01*
X127592192Y-129330327D01*
X127645889Y-129201011D01*
X127903575Y-128943774D01*
X128426404Y-127684663D01*
X128426822Y-127206104D01*
X128434838Y-127186799D01*
X128435162Y-126814833D01*
X128427180Y-126795515D01*
X128427594Y-126321318D01*
X127906963Y-125061296D01*
X127646587Y-124800466D01*
X127593117Y-124671057D01*
X127330327Y-124407808D01*
X127201011Y-124354111D01*
X126943774Y-124096425D01*
X125684663Y-123573596D01*
X125206104Y-123573178D01*
X125186799Y-123565162D01*
X124814833Y-123564838D01*
X124795515Y-123572820D01*
X124321318Y-123572406D01*
X123061296Y-124093037D01*
X122800466Y-124353413D01*
X122671057Y-124406883D01*
X122407808Y-124669673D01*
X122354111Y-124798989D01*
X122096425Y-125056226D01*
X121573596Y-126315337D01*
X121573178Y-126793896D01*
X121565162Y-126813201D01*
X121564838Y-127185167D01*
X104532879Y-127185167D01*
X104612785Y-126992734D01*
X104613214Y-126501421D01*
X104425592Y-126047343D01*
X104078485Y-125699629D01*
X103624734Y-125511215D01*
X103133421Y-125510786D01*
X102679343Y-125698408D01*
X102520474Y-125857000D01*
X100552581Y-125857000D01*
X100395485Y-125699629D01*
X99941734Y-125511215D01*
X99450421Y-125510786D01*
X98996343Y-125698408D01*
X98648629Y-126045515D01*
X98460215Y-126499266D01*
X98459786Y-126990579D01*
X87081399Y-126990579D01*
X87060485Y-126969629D01*
X86606734Y-126781215D01*
X86115421Y-126780786D01*
X85661343Y-126968408D01*
X85368607Y-127260633D01*
X85196894Y-126845057D01*
X85134749Y-126782803D01*
X85169698Y-126768327D01*
X85348327Y-126589699D01*
X85445000Y-126356310D01*
X85445000Y-125515750D01*
X85286250Y-125357000D01*
X83937000Y-125357000D01*
X83937000Y-125377000D01*
X83683000Y-125377000D01*
X83683000Y-125357000D01*
X83663000Y-125357000D01*
X83663000Y-125103000D01*
X83683000Y-125103000D01*
X83683000Y-123753750D01*
X83937000Y-123753750D01*
X83937000Y-125103000D01*
X85286250Y-125103000D01*
X85445000Y-124944250D01*
X85445000Y-124103690D01*
X85348327Y-123870301D01*
X85169698Y-123691673D01*
X84936309Y-123595000D01*
X84095750Y-123595000D01*
X83937000Y-123753750D01*
X83683000Y-123753750D01*
X83524250Y-123595000D01*
X82683691Y-123595000D01*
X82450302Y-123691673D01*
X82271673Y-123870301D01*
X82257369Y-123904833D01*
X82197363Y-123844722D01*
X81596648Y-123595284D01*
X80946205Y-123594716D01*
X80345057Y-123843106D01*
X79999801Y-124187759D01*
X79657363Y-123844722D01*
X79056648Y-123595284D01*
X78406205Y-123594716D01*
X77805057Y-123843106D01*
X77459801Y-124187759D01*
X77117363Y-123844722D01*
X76516648Y-123595284D01*
X75866205Y-123594716D01*
X75265057Y-123843106D01*
X74804722Y-124302637D01*
X74555284Y-124903352D01*
X74554716Y-125553795D01*
X38110460Y-125553795D01*
X37906963Y-125061296D01*
X37646587Y-124800466D01*
X37593117Y-124671057D01*
X37330327Y-124407808D01*
X37201011Y-124354111D01*
X36943774Y-124096425D01*
X35684663Y-123573596D01*
X35206104Y-123573178D01*
X35186799Y-123565162D01*
X34814833Y-123564838D01*
X34795515Y-123572820D01*
X34321318Y-123572406D01*
X33061296Y-124093037D01*
X32800466Y-124353413D01*
X32671057Y-124406883D01*
X32407808Y-124669673D01*
X32354111Y-124798989D01*
X32096425Y-125056226D01*
X31573596Y-126315337D01*
X31573178Y-126793896D01*
X31565162Y-126813201D01*
X31564838Y-127185167D01*
X30685000Y-127185167D01*
X30685000Y-119720305D01*
X40104674Y-119720305D01*
X40391043Y-120413372D01*
X40920839Y-120944093D01*
X41613405Y-121231672D01*
X42363305Y-121232326D01*
X43056372Y-120945957D01*
X43322472Y-120680320D01*
X50836285Y-120680320D01*
X50965533Y-120973123D01*
X51665806Y-121241388D01*
X52415435Y-121221250D01*
X52437575Y-121212079D01*
X80171786Y-121212079D01*
X80359408Y-121666157D01*
X80706515Y-122013871D01*
X81160266Y-122202285D01*
X81651579Y-122202714D01*
X82105657Y-122015092D01*
X82453371Y-121667985D01*
X82641785Y-121214234D01*
X82642214Y-120722921D01*
X82454592Y-120268843D01*
X82107485Y-119921129D01*
X81653734Y-119732715D01*
X81162421Y-119732286D01*
X80708343Y-119919908D01*
X80360629Y-120267015D01*
X80172215Y-120720766D01*
X80171786Y-121212079D01*
X52437575Y-121212079D01*
X53014467Y-120973123D01*
X53143715Y-120680320D01*
X51990000Y-119526605D01*
X50836285Y-120680320D01*
X43322472Y-120680320D01*
X43587093Y-120416161D01*
X43874672Y-119723595D01*
X43875283Y-119022806D01*
X50095612Y-119022806D01*
X50115750Y-119772435D01*
X50363877Y-120371467D01*
X50656680Y-120500715D01*
X51810395Y-119347000D01*
X52169605Y-119347000D01*
X53323320Y-120500715D01*
X53616123Y-120371467D01*
X53884388Y-119671194D01*
X53864250Y-118921565D01*
X53775087Y-118706305D01*
X86344674Y-118706305D01*
X86631043Y-119399372D01*
X87160839Y-119930093D01*
X87853405Y-120217672D01*
X88603305Y-120218326D01*
X89296372Y-119931957D01*
X89827093Y-119402161D01*
X90114672Y-118709595D01*
X90114674Y-118706305D01*
X93844674Y-118706305D01*
X94131043Y-119399372D01*
X94660839Y-119930093D01*
X95353405Y-120217672D01*
X96103305Y-120218326D01*
X96796372Y-119931957D01*
X97327093Y-119402161D01*
X97563303Y-118833305D01*
X106670674Y-118833305D01*
X106957043Y-119526372D01*
X107486839Y-120057093D01*
X108179405Y-120344672D01*
X108929305Y-120345326D01*
X109622372Y-120058957D01*
X110153093Y-119529161D01*
X110440672Y-118836595D01*
X110440674Y-118833305D01*
X114170674Y-118833305D01*
X114457043Y-119526372D01*
X114986839Y-120057093D01*
X115679405Y-120344672D01*
X116429305Y-120345326D01*
X117122372Y-120058957D01*
X117653093Y-119529161D01*
X117940672Y-118836595D01*
X117941326Y-118086695D01*
X117654957Y-117393628D01*
X117125161Y-116862907D01*
X116432595Y-116575328D01*
X115682695Y-116574674D01*
X114989628Y-116861043D01*
X114458907Y-117390839D01*
X114171328Y-118083405D01*
X114170674Y-118833305D01*
X110440674Y-118833305D01*
X110441326Y-118086695D01*
X110154957Y-117393628D01*
X109625161Y-116862907D01*
X108932595Y-116575328D01*
X108182695Y-116574674D01*
X107489628Y-116861043D01*
X106958907Y-117390839D01*
X106671328Y-118083405D01*
X106670674Y-118833305D01*
X97563303Y-118833305D01*
X97614672Y-118709595D01*
X97615326Y-117959695D01*
X97328957Y-117266628D01*
X96799161Y-116735907D01*
X96106595Y-116448328D01*
X95356695Y-116447674D01*
X94663628Y-116734043D01*
X94132907Y-117263839D01*
X93845328Y-117956405D01*
X93844674Y-118706305D01*
X90114674Y-118706305D01*
X90115326Y-117959695D01*
X89828957Y-117266628D01*
X89299161Y-116735907D01*
X88606595Y-116448328D01*
X87856695Y-116447674D01*
X87163628Y-116734043D01*
X86632907Y-117263839D01*
X86345328Y-117956405D01*
X86344674Y-118706305D01*
X53775087Y-118706305D01*
X53616123Y-118322533D01*
X53323320Y-118193285D01*
X52169605Y-119347000D01*
X51810395Y-119347000D01*
X50656680Y-118193285D01*
X50363877Y-118322533D01*
X50095612Y-119022806D01*
X43875283Y-119022806D01*
X43875326Y-118973695D01*
X43588957Y-118280628D01*
X43322475Y-118013680D01*
X50836285Y-118013680D01*
X51990000Y-119167395D01*
X53143715Y-118013680D01*
X53014467Y-117720877D01*
X52314194Y-117452612D01*
X51564565Y-117472750D01*
X50965533Y-117720877D01*
X50836285Y-118013680D01*
X43322475Y-118013680D01*
X43059161Y-117749907D01*
X42366595Y-117462328D01*
X41616695Y-117461674D01*
X40923628Y-117748043D01*
X40392907Y-118277839D01*
X40105328Y-118970405D01*
X40104674Y-119720305D01*
X30685000Y-119720305D01*
X30685000Y-114427000D01*
X121242031Y-114427000D01*
X121171169Y-114530710D01*
M02*
