G04 #@! TF.FileFunction,Legend,Bot*
%FSLAX46Y46*%
G04 Gerber Fmt 4.6, Leading zero omitted, Abs format (unit mm)*
G04 Created by KiCad (PCBNEW 0.201507280910+6003~25~ubuntu14.04.1-product) date Wed 07 Oct 2015 02:08:59 BST*
%MOMM*%
G01*
G04 APERTURE LIST*
%ADD10C,0.100000*%
%ADD11C,0.500000*%
%ADD12C,0.300000*%
%ADD13C,0.600000*%
%ADD14C,0.010000*%
G04 APERTURE END LIST*
D10*
D11*
X62545571Y-109942143D02*
X62545571Y-106942143D01*
X61402714Y-106942143D01*
X61117000Y-107085000D01*
X60974143Y-107227857D01*
X60831286Y-107513571D01*
X60831286Y-107942143D01*
X60974143Y-108227857D01*
X61117000Y-108370714D01*
X61402714Y-108513571D01*
X62545571Y-108513571D01*
X58974143Y-106942143D02*
X58402714Y-106942143D01*
X58117000Y-107085000D01*
X57831286Y-107370714D01*
X57688428Y-107942143D01*
X57688428Y-108942143D01*
X57831286Y-109513571D01*
X58117000Y-109799286D01*
X58402714Y-109942143D01*
X58974143Y-109942143D01*
X59259857Y-109799286D01*
X59545571Y-109513571D01*
X59688428Y-108942143D01*
X59688428Y-107942143D01*
X59545571Y-107370714D01*
X59259857Y-107085000D01*
X58974143Y-106942143D01*
X56688429Y-106942143D02*
X55974143Y-109942143D01*
X55402714Y-107799286D01*
X54831286Y-109942143D01*
X54117000Y-106942143D01*
X52974143Y-108370714D02*
X51974143Y-108370714D01*
X51545572Y-109942143D02*
X52974143Y-109942143D01*
X52974143Y-106942143D01*
X51545572Y-106942143D01*
X48545572Y-109942143D02*
X49545572Y-108513571D01*
X50259857Y-109942143D02*
X50259857Y-106942143D01*
X49117000Y-106942143D01*
X48831286Y-107085000D01*
X48688429Y-107227857D01*
X48545572Y-107513571D01*
X48545572Y-107942143D01*
X48688429Y-108227857D01*
X48831286Y-108370714D01*
X49117000Y-108513571D01*
X50259857Y-108513571D01*
X43974143Y-108370714D02*
X43545572Y-108513571D01*
X43402715Y-108656429D01*
X43259858Y-108942143D01*
X43259858Y-109370714D01*
X43402715Y-109656429D01*
X43545572Y-109799286D01*
X43831286Y-109942143D01*
X44974143Y-109942143D01*
X44974143Y-106942143D01*
X43974143Y-106942143D01*
X43688429Y-107085000D01*
X43545572Y-107227857D01*
X43402715Y-107513571D01*
X43402715Y-107799286D01*
X43545572Y-108085000D01*
X43688429Y-108227857D01*
X43974143Y-108370714D01*
X44974143Y-108370714D01*
X41402715Y-106942143D02*
X40831286Y-106942143D01*
X40545572Y-107085000D01*
X40259858Y-107370714D01*
X40117000Y-107942143D01*
X40117000Y-108942143D01*
X40259858Y-109513571D01*
X40545572Y-109799286D01*
X40831286Y-109942143D01*
X41402715Y-109942143D01*
X41688429Y-109799286D01*
X41974143Y-109513571D01*
X42117000Y-108942143D01*
X42117000Y-107942143D01*
X41974143Y-107370714D01*
X41688429Y-107085000D01*
X41402715Y-106942143D01*
X38974143Y-109085000D02*
X37545572Y-109085000D01*
X39259858Y-109942143D02*
X38259858Y-106942143D01*
X37259858Y-109942143D01*
X34545572Y-109942143D02*
X35545572Y-108513571D01*
X36259857Y-109942143D02*
X36259857Y-106942143D01*
X35117000Y-106942143D01*
X34831286Y-107085000D01*
X34688429Y-107227857D01*
X34545572Y-107513571D01*
X34545572Y-107942143D01*
X34688429Y-108227857D01*
X34831286Y-108370714D01*
X35117000Y-108513571D01*
X36259857Y-108513571D01*
X33259857Y-109942143D02*
X33259857Y-106942143D01*
X32545572Y-106942143D01*
X32117000Y-107085000D01*
X31831286Y-107370714D01*
X31688429Y-107656429D01*
X31545572Y-108227857D01*
X31545572Y-108656429D01*
X31688429Y-109227857D01*
X31831286Y-109513571D01*
X32117000Y-109799286D01*
X32545572Y-109942143D01*
X33259857Y-109942143D01*
D12*
X84065429Y-65796571D02*
X83708286Y-67296571D01*
X83422572Y-66225143D01*
X83136858Y-67296571D01*
X82779715Y-65796571D01*
X82279715Y-66868000D02*
X81565429Y-66868000D01*
X82422572Y-67296571D02*
X81922572Y-65796571D01*
X81422572Y-67296571D01*
X80065429Y-67296571D02*
X80565429Y-66582286D01*
X80922572Y-67296571D02*
X80922572Y-65796571D01*
X80351144Y-65796571D01*
X80208286Y-65868000D01*
X80136858Y-65939429D01*
X80065429Y-66082286D01*
X80065429Y-66296571D01*
X80136858Y-66439429D01*
X80208286Y-66510857D01*
X80351144Y-66582286D01*
X80922572Y-66582286D01*
X79422572Y-67296571D02*
X79422572Y-65796571D01*
X78565429Y-67296571D01*
X78565429Y-65796571D01*
X77851143Y-67296571D02*
X77851143Y-65796571D01*
X77136857Y-67296571D02*
X77136857Y-65796571D01*
X76279714Y-67296571D01*
X76279714Y-65796571D01*
X74779714Y-65868000D02*
X74922571Y-65796571D01*
X75136857Y-65796571D01*
X75351142Y-65868000D01*
X75494000Y-66010857D01*
X75565428Y-66153714D01*
X75636857Y-66439429D01*
X75636857Y-66653714D01*
X75565428Y-66939429D01*
X75494000Y-67082286D01*
X75351142Y-67225143D01*
X75136857Y-67296571D01*
X74994000Y-67296571D01*
X74779714Y-67225143D01*
X74708285Y-67153714D01*
X74708285Y-66653714D01*
X74994000Y-66653714D01*
X74065428Y-67153714D02*
X73994000Y-67225143D01*
X74065428Y-67296571D01*
X74136857Y-67225143D01*
X74065428Y-67153714D01*
X74065428Y-67296571D01*
X74065428Y-66368000D02*
X73994000Y-66439429D01*
X74065428Y-66510857D01*
X74136857Y-66439429D01*
X74065428Y-66368000D01*
X74065428Y-66510857D01*
X87244000Y-69696571D02*
X87244000Y-68196571D01*
X86744000Y-69268000D01*
X86244000Y-68196571D01*
X86244000Y-69696571D01*
X85601143Y-69268000D02*
X84886857Y-69268000D01*
X85744000Y-69696571D02*
X85244000Y-68196571D01*
X84744000Y-69696571D01*
X84244000Y-69696571D02*
X84244000Y-68196571D01*
X83529714Y-69696571D02*
X83529714Y-68196571D01*
X82672571Y-69696571D01*
X82672571Y-68196571D01*
X82029714Y-69625143D02*
X81815428Y-69696571D01*
X81458285Y-69696571D01*
X81315428Y-69625143D01*
X81243999Y-69553714D01*
X81172571Y-69410857D01*
X81172571Y-69268000D01*
X81243999Y-69125143D01*
X81315428Y-69053714D01*
X81458285Y-68982286D01*
X81743999Y-68910857D01*
X81886857Y-68839429D01*
X81958285Y-68768000D01*
X82029714Y-68625143D01*
X82029714Y-68482286D01*
X81958285Y-68339429D01*
X81886857Y-68268000D01*
X81743999Y-68196571D01*
X81386857Y-68196571D01*
X81172571Y-68268000D01*
X79601143Y-68196571D02*
X79101143Y-69696571D01*
X78601143Y-68196571D01*
X77815429Y-68196571D02*
X77529715Y-68196571D01*
X77386857Y-68268000D01*
X77244000Y-68410857D01*
X77172572Y-68696571D01*
X77172572Y-69196571D01*
X77244000Y-69482286D01*
X77386857Y-69625143D01*
X77529715Y-69696571D01*
X77815429Y-69696571D01*
X77958286Y-69625143D01*
X78101143Y-69482286D01*
X78172572Y-69196571D01*
X78172572Y-68696571D01*
X78101143Y-68410857D01*
X77958286Y-68268000D01*
X77815429Y-68196571D01*
X75815428Y-69696571D02*
X76529714Y-69696571D01*
X76529714Y-68196571D01*
X75529714Y-68196571D02*
X74672571Y-68196571D01*
X75101142Y-69696571D02*
X75101142Y-68196571D01*
X74244000Y-69268000D02*
X73529714Y-69268000D01*
X74386857Y-69696571D02*
X73886857Y-68196571D01*
X73386857Y-69696571D01*
X72101143Y-68268000D02*
X72244000Y-68196571D01*
X72458286Y-68196571D01*
X72672571Y-68268000D01*
X72815429Y-68410857D01*
X72886857Y-68553714D01*
X72958286Y-68839429D01*
X72958286Y-69053714D01*
X72886857Y-69339429D01*
X72815429Y-69482286D01*
X72672571Y-69625143D01*
X72458286Y-69696571D01*
X72315429Y-69696571D01*
X72101143Y-69625143D01*
X72029714Y-69553714D01*
X72029714Y-69053714D01*
X72315429Y-69053714D01*
X71386857Y-68910857D02*
X70886857Y-68910857D01*
X70672571Y-69696571D02*
X71386857Y-69696571D01*
X71386857Y-68196571D01*
X70672571Y-68196571D01*
X86152713Y-81306429D02*
X86081284Y-81235000D01*
X85938427Y-81163571D01*
X85581284Y-81163571D01*
X85438427Y-81235000D01*
X85366998Y-81306429D01*
X85295570Y-81449286D01*
X85295570Y-81592143D01*
X85366998Y-81806429D01*
X86224141Y-82663571D01*
X85295570Y-82663571D01*
X84366999Y-81163571D02*
X84224142Y-81163571D01*
X84081285Y-81235000D01*
X84009856Y-81306429D01*
X83938427Y-81449286D01*
X83866999Y-81735000D01*
X83866999Y-82092143D01*
X83938427Y-82377857D01*
X84009856Y-82520714D01*
X84081285Y-82592143D01*
X84224142Y-82663571D01*
X84366999Y-82663571D01*
X84509856Y-82592143D01*
X84581285Y-82520714D01*
X84652713Y-82377857D01*
X84724142Y-82092143D01*
X84724142Y-81735000D01*
X84652713Y-81449286D01*
X84581285Y-81306429D01*
X84509856Y-81235000D01*
X84366999Y-81163571D01*
X82438428Y-82663571D02*
X83295571Y-82663571D01*
X82866999Y-82663571D02*
X82866999Y-81163571D01*
X83009856Y-81377857D01*
X83152714Y-81520714D01*
X83295571Y-81592143D01*
X81081285Y-81163571D02*
X81795571Y-81163571D01*
X81867000Y-81877857D01*
X81795571Y-81806429D01*
X81652714Y-81735000D01*
X81295571Y-81735000D01*
X81152714Y-81806429D01*
X81081285Y-81877857D01*
X81009857Y-82020714D01*
X81009857Y-82377857D01*
X81081285Y-82520714D01*
X81152714Y-82592143D01*
X81295571Y-82663571D01*
X81652714Y-82663571D01*
X81795571Y-82592143D01*
X81867000Y-82520714D01*
X80367000Y-82092143D02*
X79224143Y-82092143D01*
X77724143Y-82663571D02*
X78581286Y-82663571D01*
X78152714Y-82663571D02*
X78152714Y-81163571D01*
X78295571Y-81377857D01*
X78438429Y-81520714D01*
X78581286Y-81592143D01*
X76795572Y-81163571D02*
X76652715Y-81163571D01*
X76509858Y-81235000D01*
X76438429Y-81306429D01*
X76367000Y-81449286D01*
X76295572Y-81735000D01*
X76295572Y-82092143D01*
X76367000Y-82377857D01*
X76438429Y-82520714D01*
X76509858Y-82592143D01*
X76652715Y-82663571D01*
X76795572Y-82663571D01*
X76938429Y-82592143D01*
X77009858Y-82520714D01*
X77081286Y-82377857D01*
X77152715Y-82092143D01*
X77152715Y-81735000D01*
X77081286Y-81449286D01*
X77009858Y-81306429D01*
X76938429Y-81235000D01*
X76795572Y-81163571D01*
X75652715Y-82092143D02*
X74509858Y-82092143D01*
X73509858Y-81163571D02*
X73367001Y-81163571D01*
X73224144Y-81235000D01*
X73152715Y-81306429D01*
X73081286Y-81449286D01*
X73009858Y-81735000D01*
X73009858Y-82092143D01*
X73081286Y-82377857D01*
X73152715Y-82520714D01*
X73224144Y-82592143D01*
X73367001Y-82663571D01*
X73509858Y-82663571D01*
X73652715Y-82592143D01*
X73724144Y-82520714D01*
X73795572Y-82377857D01*
X73867001Y-82092143D01*
X73867001Y-81735000D01*
X73795572Y-81449286D01*
X73724144Y-81306429D01*
X73652715Y-81235000D01*
X73509858Y-81163571D01*
X71724144Y-81663571D02*
X71724144Y-82663571D01*
X72081287Y-81092143D02*
X72438430Y-82163571D01*
X71509858Y-82163571D01*
X84009857Y-85063571D02*
X84509857Y-84349286D01*
X84867000Y-85063571D02*
X84867000Y-83563571D01*
X84295572Y-83563571D01*
X84152714Y-83635000D01*
X84081286Y-83706429D01*
X84009857Y-83849286D01*
X84009857Y-84063571D01*
X84081286Y-84206429D01*
X84152714Y-84277857D01*
X84295572Y-84349286D01*
X84867000Y-84349286D01*
X83367000Y-84277857D02*
X82867000Y-84277857D01*
X82652714Y-85063571D02*
X83367000Y-85063571D01*
X83367000Y-83563571D01*
X82652714Y-83563571D01*
X82224143Y-83563571D02*
X81724143Y-85063571D01*
X81224143Y-83563571D01*
X80724143Y-85063571D02*
X80724143Y-83563571D01*
X80081286Y-84992143D02*
X79867000Y-85063571D01*
X79509857Y-85063571D01*
X79367000Y-84992143D01*
X79295571Y-84920714D01*
X79224143Y-84777857D01*
X79224143Y-84635000D01*
X79295571Y-84492143D01*
X79367000Y-84420714D01*
X79509857Y-84349286D01*
X79795571Y-84277857D01*
X79938429Y-84206429D01*
X80009857Y-84135000D01*
X80081286Y-83992143D01*
X80081286Y-83849286D01*
X80009857Y-83706429D01*
X79938429Y-83635000D01*
X79795571Y-83563571D01*
X79438429Y-83563571D01*
X79224143Y-83635000D01*
X78581286Y-85063571D02*
X78581286Y-83563571D01*
X77581286Y-83563571D02*
X77295572Y-83563571D01*
X77152714Y-83635000D01*
X77009857Y-83777857D01*
X76938429Y-84063571D01*
X76938429Y-84563571D01*
X77009857Y-84849286D01*
X77152714Y-84992143D01*
X77295572Y-85063571D01*
X77581286Y-85063571D01*
X77724143Y-84992143D01*
X77867000Y-84849286D01*
X77938429Y-84563571D01*
X77938429Y-84063571D01*
X77867000Y-83777857D01*
X77724143Y-83635000D01*
X77581286Y-83563571D01*
X76295571Y-85063571D02*
X76295571Y-83563571D01*
X75438428Y-85063571D01*
X75438428Y-83563571D01*
X73652714Y-83706429D02*
X73581285Y-83635000D01*
X73438428Y-83563571D01*
X73081285Y-83563571D01*
X72938428Y-83635000D01*
X72866999Y-83706429D01*
X72795571Y-83849286D01*
X72795571Y-83992143D01*
X72866999Y-84206429D01*
X73724142Y-85063571D01*
X72795571Y-85063571D01*
D13*
X62767809Y-105632048D02*
X62196381Y-105822524D01*
X61244000Y-105822524D01*
X60863047Y-105632048D01*
X60672571Y-105441571D01*
X60482095Y-105060619D01*
X60482095Y-104679667D01*
X60672571Y-104298714D01*
X60863047Y-104108238D01*
X61244000Y-103917762D01*
X62005904Y-103727286D01*
X62386857Y-103536810D01*
X62577333Y-103346333D01*
X62767809Y-102965381D01*
X62767809Y-102584429D01*
X62577333Y-102203476D01*
X62386857Y-102013000D01*
X62005904Y-101822524D01*
X61053524Y-101822524D01*
X60482095Y-102013000D01*
X58767809Y-101822524D02*
X58767809Y-105060619D01*
X58577333Y-105441571D01*
X58386857Y-105632048D01*
X58005904Y-105822524D01*
X57244000Y-105822524D01*
X56863047Y-105632048D01*
X56672571Y-105441571D01*
X56482095Y-105060619D01*
X56482095Y-101822524D01*
X54577333Y-105822524D02*
X54577333Y-101822524D01*
X53053524Y-101822524D01*
X52672571Y-102013000D01*
X52482095Y-102203476D01*
X52291619Y-102584429D01*
X52291619Y-103155857D01*
X52482095Y-103536810D01*
X52672571Y-103727286D01*
X53053524Y-103917762D01*
X54577333Y-103917762D01*
X50577333Y-103727286D02*
X49244000Y-103727286D01*
X48672571Y-105822524D02*
X50577333Y-105822524D01*
X50577333Y-101822524D01*
X48672571Y-101822524D01*
X44672571Y-105822524D02*
X46005904Y-103917762D01*
X46958285Y-105822524D02*
X46958285Y-101822524D01*
X45434476Y-101822524D01*
X45053523Y-102013000D01*
X44863047Y-102203476D01*
X44672571Y-102584429D01*
X44672571Y-103155857D01*
X44863047Y-103536810D01*
X45053523Y-103727286D01*
X45434476Y-103917762D01*
X46958285Y-103917762D01*
X43529714Y-101822524D02*
X42196380Y-105822524D01*
X40863047Y-101822524D01*
X39529714Y-105822524D02*
X39529714Y-101822524D01*
X37624952Y-105822524D02*
X37624952Y-101822524D01*
X36672571Y-101822524D01*
X36101143Y-102013000D01*
X35720190Y-102393952D01*
X35529714Y-102774905D01*
X35339238Y-103536810D01*
X35339238Y-104108238D01*
X35529714Y-104870143D01*
X35720190Y-105251095D01*
X36101143Y-105632048D01*
X36672571Y-105822524D01*
X37624952Y-105822524D01*
X33624952Y-103727286D02*
X32291619Y-103727286D01*
X31720190Y-105822524D02*
X33624952Y-105822524D01*
X33624952Y-101822524D01*
X31720190Y-101822524D01*
D12*
X54668571Y-112197571D02*
X54668571Y-110697571D01*
X54311428Y-110697571D01*
X54097143Y-110769000D01*
X53954285Y-110911857D01*
X53882857Y-111054714D01*
X53811428Y-111340429D01*
X53811428Y-111554714D01*
X53882857Y-111840429D01*
X53954285Y-111983286D01*
X54097143Y-112126143D01*
X54311428Y-112197571D01*
X54668571Y-112197571D01*
X53240000Y-111769000D02*
X52525714Y-111769000D01*
X53382857Y-112197571D02*
X52882857Y-110697571D01*
X52382857Y-112197571D01*
X52097143Y-110697571D02*
X51597143Y-112197571D01*
X51097143Y-110697571D01*
X50597143Y-112197571D02*
X50597143Y-110697571D01*
X49882857Y-112197571D02*
X49882857Y-110697571D01*
X49525714Y-110697571D01*
X49311429Y-110769000D01*
X49168571Y-110911857D01*
X49097143Y-111054714D01*
X49025714Y-111340429D01*
X49025714Y-111554714D01*
X49097143Y-111840429D01*
X49168571Y-111983286D01*
X49311429Y-112126143D01*
X49525714Y-112197571D01*
X49882857Y-112197571D01*
X47454286Y-110697571D02*
X46597143Y-110697571D01*
X47025714Y-112197571D02*
X47025714Y-110697571D01*
X46097143Y-110697571D02*
X46097143Y-111911857D01*
X46025715Y-112054714D01*
X45954286Y-112126143D01*
X45811429Y-112197571D01*
X45525715Y-112197571D01*
X45382857Y-112126143D01*
X45311429Y-112054714D01*
X45240000Y-111911857D01*
X45240000Y-110697571D01*
X43668571Y-112197571D02*
X44168571Y-111483286D01*
X44525714Y-112197571D02*
X44525714Y-110697571D01*
X43954286Y-110697571D01*
X43811428Y-110769000D01*
X43740000Y-110840429D01*
X43668571Y-110983286D01*
X43668571Y-111197571D01*
X43740000Y-111340429D01*
X43811428Y-111411857D01*
X43954286Y-111483286D01*
X44525714Y-111483286D01*
X43025714Y-112197571D02*
X43025714Y-110697571D01*
X42168571Y-112197571D01*
X42168571Y-110697571D01*
X41454285Y-111411857D02*
X40954285Y-111411857D01*
X40739999Y-112197571D02*
X41454285Y-112197571D01*
X41454285Y-110697571D01*
X40739999Y-110697571D01*
X39239999Y-112197571D02*
X39739999Y-111483286D01*
X40097142Y-112197571D02*
X40097142Y-110697571D01*
X39525714Y-110697571D01*
X39382856Y-110769000D01*
X39311428Y-110840429D01*
X39239999Y-110983286D01*
X39239999Y-111197571D01*
X39311428Y-111340429D01*
X39382856Y-111411857D01*
X39525714Y-111483286D01*
X40097142Y-111483286D01*
X53454286Y-114169000D02*
X52740000Y-114169000D01*
X53597143Y-114597571D02*
X53097143Y-113097571D01*
X52597143Y-114597571D01*
X52097143Y-114597571D02*
X52097143Y-113097571D01*
X51740000Y-113097571D01*
X51525715Y-113169000D01*
X51382857Y-113311857D01*
X51311429Y-113454714D01*
X51240000Y-113740429D01*
X51240000Y-113954714D01*
X51311429Y-114240429D01*
X51382857Y-114383286D01*
X51525715Y-114526143D01*
X51740000Y-114597571D01*
X52097143Y-114597571D01*
X50668572Y-114169000D02*
X49954286Y-114169000D01*
X50811429Y-114597571D02*
X50311429Y-113097571D01*
X49811429Y-114597571D01*
X49311429Y-114597571D02*
X49311429Y-113097571D01*
X48811429Y-114169000D01*
X48311429Y-113097571D01*
X48311429Y-114597571D01*
X45668572Y-113169000D02*
X45811429Y-113097571D01*
X46025715Y-113097571D01*
X46240000Y-113169000D01*
X46382858Y-113311857D01*
X46454286Y-113454714D01*
X46525715Y-113740429D01*
X46525715Y-113954714D01*
X46454286Y-114240429D01*
X46382858Y-114383286D01*
X46240000Y-114526143D01*
X46025715Y-114597571D01*
X45882858Y-114597571D01*
X45668572Y-114526143D01*
X45597143Y-114454714D01*
X45597143Y-113954714D01*
X45882858Y-113954714D01*
X44097143Y-114597571D02*
X44597143Y-113883286D01*
X44954286Y-114597571D02*
X44954286Y-113097571D01*
X44382858Y-113097571D01*
X44240000Y-113169000D01*
X44168572Y-113240429D01*
X44097143Y-113383286D01*
X44097143Y-113597571D01*
X44168572Y-113740429D01*
X44240000Y-113811857D01*
X44382858Y-113883286D01*
X44954286Y-113883286D01*
X43454286Y-113811857D02*
X42954286Y-113811857D01*
X42740000Y-114597571D02*
X43454286Y-114597571D01*
X43454286Y-113097571D01*
X42740000Y-113097571D01*
X42097143Y-114597571D02*
X42097143Y-113097571D01*
X40597143Y-113169000D02*
X40740000Y-113097571D01*
X40954286Y-113097571D01*
X41168571Y-113169000D01*
X41311429Y-113311857D01*
X41382857Y-113454714D01*
X41454286Y-113740429D01*
X41454286Y-113954714D01*
X41382857Y-114240429D01*
X41311429Y-114383286D01*
X41168571Y-114526143D01*
X40954286Y-114597571D01*
X40811429Y-114597571D01*
X40597143Y-114526143D01*
X40525714Y-114454714D01*
X40525714Y-113954714D01*
X40811429Y-113954714D01*
X53561429Y-115497571D02*
X53561429Y-116569000D01*
X53632857Y-116783286D01*
X53775714Y-116926143D01*
X53990000Y-116997571D01*
X54132857Y-116997571D01*
X52561429Y-115497571D02*
X52275715Y-115497571D01*
X52132857Y-115569000D01*
X51990000Y-115711857D01*
X51918572Y-115997571D01*
X51918572Y-116497571D01*
X51990000Y-116783286D01*
X52132857Y-116926143D01*
X52275715Y-116997571D01*
X52561429Y-116997571D01*
X52704286Y-116926143D01*
X52847143Y-116783286D01*
X52918572Y-116497571D01*
X52918572Y-115997571D01*
X52847143Y-115711857D01*
X52704286Y-115569000D01*
X52561429Y-115497571D01*
X51275714Y-116997571D02*
X51275714Y-115497571D01*
X50418571Y-116997571D01*
X50418571Y-115497571D01*
X48632857Y-116926143D02*
X48418571Y-116997571D01*
X48061428Y-116997571D01*
X47918571Y-116926143D01*
X47847142Y-116854714D01*
X47775714Y-116711857D01*
X47775714Y-116569000D01*
X47847142Y-116426143D01*
X47918571Y-116354714D01*
X48061428Y-116283286D01*
X48347142Y-116211857D01*
X48490000Y-116140429D01*
X48561428Y-116069000D01*
X48632857Y-115926143D01*
X48632857Y-115783286D01*
X48561428Y-115640429D01*
X48490000Y-115569000D01*
X48347142Y-115497571D01*
X47990000Y-115497571D01*
X47775714Y-115569000D01*
X46847143Y-115497571D02*
X46561429Y-115497571D01*
X46418571Y-115569000D01*
X46275714Y-115711857D01*
X46204286Y-115997571D01*
X46204286Y-116497571D01*
X46275714Y-116783286D01*
X46418571Y-116926143D01*
X46561429Y-116997571D01*
X46847143Y-116997571D01*
X46990000Y-116926143D01*
X47132857Y-116783286D01*
X47204286Y-116497571D01*
X47204286Y-115997571D01*
X47132857Y-115711857D01*
X46990000Y-115569000D01*
X46847143Y-115497571D01*
X45704285Y-115497571D02*
X45347142Y-116997571D01*
X45061428Y-115926143D01*
X44775714Y-116997571D01*
X44418571Y-115497571D01*
X43847142Y-116997571D02*
X43847142Y-115497571D01*
X43347142Y-116569000D01*
X42847142Y-115497571D01*
X42847142Y-116997571D01*
X42204285Y-116569000D02*
X41489999Y-116569000D01*
X42347142Y-116997571D02*
X41847142Y-115497571D01*
X41347142Y-116997571D01*
X40847142Y-116997571D02*
X40847142Y-115497571D01*
X39989999Y-116997571D01*
X39989999Y-115497571D01*
D14*
G36*
X79118553Y-52559809D02*
X79091853Y-52566398D01*
X79080782Y-52577638D01*
X79078666Y-52593170D01*
X79058506Y-52632699D01*
X79001963Y-52670237D01*
X78956240Y-52695042D01*
X78934499Y-52712918D01*
X78934542Y-52716098D01*
X78925173Y-52734394D01*
X78892223Y-52775370D01*
X78841859Y-52831583D01*
X78816884Y-52858066D01*
X78801403Y-52876002D01*
X78780505Y-52903381D01*
X78753489Y-52941350D01*
X78719648Y-52991055D01*
X78678279Y-53053644D01*
X78628679Y-53130263D01*
X78570141Y-53222059D01*
X78501964Y-53330178D01*
X78423442Y-53455769D01*
X78333871Y-53599976D01*
X78232547Y-53763948D01*
X78118767Y-53948831D01*
X77991825Y-54155772D01*
X77851018Y-54385917D01*
X77695641Y-54640414D01*
X77524991Y-54920409D01*
X77338364Y-55227049D01*
X77135054Y-55561481D01*
X76914358Y-55924851D01*
X76675573Y-56318307D01*
X76417993Y-56742995D01*
X76140915Y-57200062D01*
X75843634Y-57690655D01*
X75525447Y-58215920D01*
X75401845Y-58420000D01*
X75134749Y-58860922D01*
X74873294Y-59292331D01*
X74618331Y-59712830D01*
X74370710Y-60121022D01*
X74131283Y-60515509D01*
X73900901Y-60894896D01*
X73680413Y-61257785D01*
X73470671Y-61602780D01*
X73272526Y-61928484D01*
X73086829Y-62233499D01*
X72914430Y-62516430D01*
X72756180Y-62775879D01*
X72612930Y-63010449D01*
X72485530Y-63218744D01*
X72374832Y-63399367D01*
X72281687Y-63550920D01*
X72206945Y-63672008D01*
X72151456Y-63761232D01*
X72116073Y-63817197D01*
X72101645Y-63838506D01*
X72101360Y-63838667D01*
X72086747Y-63850982D01*
X72058963Y-63893094D01*
X72023321Y-63956713D01*
X72013169Y-63976250D01*
X71977448Y-64049528D01*
X71954549Y-64109954D01*
X71941140Y-64171977D01*
X71933890Y-64250047D01*
X71930207Y-64336084D01*
X71927587Y-64434075D01*
X71929195Y-64502459D01*
X71937363Y-64553917D01*
X71954423Y-64601133D01*
X71982707Y-64656789D01*
X71992484Y-64674750D01*
X72028891Y-64736480D01*
X72058711Y-64778246D01*
X72075724Y-64791386D01*
X72076086Y-64791167D01*
X72099128Y-64796590D01*
X72134510Y-64822931D01*
X72168800Y-64857521D01*
X72188569Y-64887692D01*
X72188685Y-64897375D01*
X72201480Y-64913106D01*
X72244117Y-64939879D01*
X72307534Y-64972044D01*
X72311045Y-64973673D01*
X72442916Y-65034584D01*
X79397825Y-65040001D01*
X86352734Y-65045419D01*
X86484617Y-64979516D01*
X86548020Y-64945555D01*
X86591106Y-64918026D01*
X86605225Y-64902511D01*
X86604851Y-64901962D01*
X86605014Y-64879099D01*
X86626258Y-64853708D01*
X86652311Y-64843186D01*
X86658019Y-64845125D01*
X86675649Y-64833373D01*
X86705199Y-64791983D01*
X86740564Y-64729624D01*
X86743872Y-64723184D01*
X86802033Y-64563982D01*
X86824767Y-64389869D01*
X86819947Y-64319577D01*
X86607658Y-64319577D01*
X86604717Y-64463240D01*
X86567742Y-64590124D01*
X86498037Y-64696021D01*
X86396904Y-64776724D01*
X86383129Y-64784299D01*
X86289841Y-64833500D01*
X79439012Y-64833500D01*
X78794793Y-64833485D01*
X78191557Y-64833436D01*
X77627958Y-64833347D01*
X77102645Y-64833210D01*
X76614269Y-64833021D01*
X76161483Y-64832772D01*
X75742937Y-64832458D01*
X75357282Y-64832071D01*
X75003169Y-64831606D01*
X74679250Y-64831057D01*
X74384176Y-64830416D01*
X74116597Y-64829678D01*
X73875165Y-64828836D01*
X73658531Y-64827884D01*
X73465346Y-64826815D01*
X73294261Y-64825624D01*
X73143928Y-64824304D01*
X73012997Y-64822849D01*
X72900120Y-64821252D01*
X72803947Y-64819507D01*
X72723130Y-64817607D01*
X72656320Y-64815547D01*
X72602169Y-64813320D01*
X72559326Y-64810919D01*
X72526444Y-64808339D01*
X72502174Y-64805573D01*
X72485166Y-64802615D01*
X72478210Y-64800842D01*
X72350105Y-64742038D01*
X72243443Y-64651216D01*
X72174539Y-64550896D01*
X72143576Y-64449834D01*
X72138887Y-64329442D01*
X72159604Y-64202876D01*
X72204859Y-64083293D01*
X72205481Y-64082084D01*
X72227042Y-64043492D01*
X72269252Y-63971087D01*
X72331070Y-63866583D01*
X72411456Y-63731692D01*
X72509367Y-63568126D01*
X72623763Y-63377599D01*
X72753602Y-63161823D01*
X72897844Y-62922510D01*
X73055446Y-62661375D01*
X73225368Y-62380128D01*
X73406568Y-62080483D01*
X73598005Y-61764154D01*
X73798638Y-61432851D01*
X74007426Y-61088289D01*
X74223327Y-60732179D01*
X74445299Y-60366235D01*
X74672303Y-59992169D01*
X74903296Y-59611694D01*
X75137237Y-59226523D01*
X75373085Y-58838368D01*
X75609799Y-58448942D01*
X75846337Y-58059958D01*
X76081659Y-57673129D01*
X76314722Y-57290166D01*
X76544486Y-56912784D01*
X76769909Y-56542695D01*
X76989951Y-56181611D01*
X77203569Y-55831244D01*
X77409723Y-55493309D01*
X77607372Y-55169518D01*
X77795473Y-54861582D01*
X77972986Y-54571216D01*
X78138870Y-54300131D01*
X78292083Y-54050040D01*
X78431584Y-53822657D01*
X78556332Y-53619693D01*
X78665286Y-53442862D01*
X78757403Y-53293877D01*
X78831644Y-53174449D01*
X78886966Y-53086292D01*
X78922329Y-53031118D01*
X78936150Y-53011166D01*
X79007264Y-52942487D01*
X79090118Y-52877167D01*
X79145296Y-52841836D01*
X79213795Y-52807536D01*
X79275009Y-52788444D01*
X79347018Y-52780392D01*
X79417333Y-52779087D01*
X79581858Y-52797290D01*
X79727578Y-52852870D01*
X79857707Y-52947268D01*
X79909518Y-52999985D01*
X79930556Y-53029472D01*
X79972266Y-53093788D01*
X80033697Y-53191363D01*
X80113900Y-53320630D01*
X80211924Y-53480023D01*
X80326819Y-53667973D01*
X80457634Y-53882913D01*
X80603419Y-54123275D01*
X80763225Y-54387492D01*
X80936100Y-54673996D01*
X81121095Y-54981220D01*
X81317259Y-55307597D01*
X81523642Y-55651558D01*
X81739294Y-56011536D01*
X81963265Y-56385964D01*
X82042093Y-56517877D01*
X82273563Y-56905315D01*
X82512426Y-57305123D01*
X82756579Y-57713778D01*
X83003916Y-58127758D01*
X83252333Y-58543540D01*
X83499724Y-58957601D01*
X83743985Y-59366418D01*
X83983011Y-59766468D01*
X84214697Y-60154229D01*
X84436938Y-60526177D01*
X84647630Y-60878790D01*
X84844667Y-61208545D01*
X85025945Y-61511919D01*
X85189358Y-61785389D01*
X85309587Y-61986584D01*
X85531083Y-62357782D01*
X85731720Y-62695163D01*
X85911361Y-62998489D01*
X86069867Y-63267523D01*
X86207100Y-63502028D01*
X86322922Y-63701766D01*
X86417195Y-63866500D01*
X86489781Y-63995992D01*
X86540542Y-64090005D01*
X86569340Y-64148301D01*
X86575264Y-64163344D01*
X86607658Y-64319577D01*
X86819947Y-64319577D01*
X86812342Y-64208696D01*
X86765025Y-64028312D01*
X86716412Y-63916628D01*
X86688857Y-63869600D01*
X86667980Y-63846310D01*
X86662907Y-63846204D01*
X86650777Y-63829916D01*
X86618340Y-63779488D01*
X86566950Y-63697153D01*
X86497960Y-63585143D01*
X86412724Y-63445691D01*
X86312595Y-63281030D01*
X86198927Y-63093393D01*
X86073073Y-62885011D01*
X85936387Y-62658118D01*
X85790222Y-62414946D01*
X85635931Y-62157728D01*
X85474868Y-61888697D01*
X85377789Y-61726297D01*
X85222617Y-61466562D01*
X85047969Y-61174214D01*
X84856075Y-60852986D01*
X84649165Y-60506612D01*
X84429469Y-60138824D01*
X84199216Y-59753356D01*
X83960637Y-59353939D01*
X83715960Y-58944308D01*
X83467416Y-58528194D01*
X83217235Y-58109332D01*
X82967646Y-57691454D01*
X82720878Y-57278292D01*
X82479162Y-56873581D01*
X82244727Y-56481052D01*
X82125947Y-56282167D01*
X81873630Y-55859820D01*
X81642023Y-55472443D01*
X81430246Y-55118590D01*
X81237418Y-54796819D01*
X81062656Y-54505684D01*
X80905080Y-54243743D01*
X80763809Y-54009550D01*
X80637960Y-53801663D01*
X80526654Y-53618638D01*
X80429009Y-53459029D01*
X80344143Y-53321394D01*
X80271175Y-53204288D01*
X80209225Y-53106268D01*
X80157410Y-53025889D01*
X80114850Y-52961707D01*
X80080663Y-52912280D01*
X80053968Y-52876161D01*
X80033884Y-52851909D01*
X80029770Y-52847507D01*
X79976228Y-52789722D01*
X79938049Y-52744035D01*
X79921604Y-52718231D01*
X79921806Y-52715583D01*
X79908987Y-52702653D01*
X79866148Y-52677265D01*
X79801847Y-52644383D01*
X79785619Y-52636612D01*
X79723154Y-52608164D01*
X79670124Y-52588510D01*
X79615870Y-52575735D01*
X79549733Y-52567927D01*
X79461052Y-52563174D01*
X79359125Y-52560084D01*
X79245520Y-52557439D01*
X79167553Y-52557085D01*
X79118553Y-52559809D01*
X79118553Y-52559809D01*
G37*
X79118553Y-52559809D02*
X79091853Y-52566398D01*
X79080782Y-52577638D01*
X79078666Y-52593170D01*
X79058506Y-52632699D01*
X79001963Y-52670237D01*
X78956240Y-52695042D01*
X78934499Y-52712918D01*
X78934542Y-52716098D01*
X78925173Y-52734394D01*
X78892223Y-52775370D01*
X78841859Y-52831583D01*
X78816884Y-52858066D01*
X78801403Y-52876002D01*
X78780505Y-52903381D01*
X78753489Y-52941350D01*
X78719648Y-52991055D01*
X78678279Y-53053644D01*
X78628679Y-53130263D01*
X78570141Y-53222059D01*
X78501964Y-53330178D01*
X78423442Y-53455769D01*
X78333871Y-53599976D01*
X78232547Y-53763948D01*
X78118767Y-53948831D01*
X77991825Y-54155772D01*
X77851018Y-54385917D01*
X77695641Y-54640414D01*
X77524991Y-54920409D01*
X77338364Y-55227049D01*
X77135054Y-55561481D01*
X76914358Y-55924851D01*
X76675573Y-56318307D01*
X76417993Y-56742995D01*
X76140915Y-57200062D01*
X75843634Y-57690655D01*
X75525447Y-58215920D01*
X75401845Y-58420000D01*
X75134749Y-58860922D01*
X74873294Y-59292331D01*
X74618331Y-59712830D01*
X74370710Y-60121022D01*
X74131283Y-60515509D01*
X73900901Y-60894896D01*
X73680413Y-61257785D01*
X73470671Y-61602780D01*
X73272526Y-61928484D01*
X73086829Y-62233499D01*
X72914430Y-62516430D01*
X72756180Y-62775879D01*
X72612930Y-63010449D01*
X72485530Y-63218744D01*
X72374832Y-63399367D01*
X72281687Y-63550920D01*
X72206945Y-63672008D01*
X72151456Y-63761232D01*
X72116073Y-63817197D01*
X72101645Y-63838506D01*
X72101360Y-63838667D01*
X72086747Y-63850982D01*
X72058963Y-63893094D01*
X72023321Y-63956713D01*
X72013169Y-63976250D01*
X71977448Y-64049528D01*
X71954549Y-64109954D01*
X71941140Y-64171977D01*
X71933890Y-64250047D01*
X71930207Y-64336084D01*
X71927587Y-64434075D01*
X71929195Y-64502459D01*
X71937363Y-64553917D01*
X71954423Y-64601133D01*
X71982707Y-64656789D01*
X71992484Y-64674750D01*
X72028891Y-64736480D01*
X72058711Y-64778246D01*
X72075724Y-64791386D01*
X72076086Y-64791167D01*
X72099128Y-64796590D01*
X72134510Y-64822931D01*
X72168800Y-64857521D01*
X72188569Y-64887692D01*
X72188685Y-64897375D01*
X72201480Y-64913106D01*
X72244117Y-64939879D01*
X72307534Y-64972044D01*
X72311045Y-64973673D01*
X72442916Y-65034584D01*
X79397825Y-65040001D01*
X86352734Y-65045419D01*
X86484617Y-64979516D01*
X86548020Y-64945555D01*
X86591106Y-64918026D01*
X86605225Y-64902511D01*
X86604851Y-64901962D01*
X86605014Y-64879099D01*
X86626258Y-64853708D01*
X86652311Y-64843186D01*
X86658019Y-64845125D01*
X86675649Y-64833373D01*
X86705199Y-64791983D01*
X86740564Y-64729624D01*
X86743872Y-64723184D01*
X86802033Y-64563982D01*
X86824767Y-64389869D01*
X86819947Y-64319577D01*
X86607658Y-64319577D01*
X86604717Y-64463240D01*
X86567742Y-64590124D01*
X86498037Y-64696021D01*
X86396904Y-64776724D01*
X86383129Y-64784299D01*
X86289841Y-64833500D01*
X79439012Y-64833500D01*
X78794793Y-64833485D01*
X78191557Y-64833436D01*
X77627958Y-64833347D01*
X77102645Y-64833210D01*
X76614269Y-64833021D01*
X76161483Y-64832772D01*
X75742937Y-64832458D01*
X75357282Y-64832071D01*
X75003169Y-64831606D01*
X74679250Y-64831057D01*
X74384176Y-64830416D01*
X74116597Y-64829678D01*
X73875165Y-64828836D01*
X73658531Y-64827884D01*
X73465346Y-64826815D01*
X73294261Y-64825624D01*
X73143928Y-64824304D01*
X73012997Y-64822849D01*
X72900120Y-64821252D01*
X72803947Y-64819507D01*
X72723130Y-64817607D01*
X72656320Y-64815547D01*
X72602169Y-64813320D01*
X72559326Y-64810919D01*
X72526444Y-64808339D01*
X72502174Y-64805573D01*
X72485166Y-64802615D01*
X72478210Y-64800842D01*
X72350105Y-64742038D01*
X72243443Y-64651216D01*
X72174539Y-64550896D01*
X72143576Y-64449834D01*
X72138887Y-64329442D01*
X72159604Y-64202876D01*
X72204859Y-64083293D01*
X72205481Y-64082084D01*
X72227042Y-64043492D01*
X72269252Y-63971087D01*
X72331070Y-63866583D01*
X72411456Y-63731692D01*
X72509367Y-63568126D01*
X72623763Y-63377599D01*
X72753602Y-63161823D01*
X72897844Y-62922510D01*
X73055446Y-62661375D01*
X73225368Y-62380128D01*
X73406568Y-62080483D01*
X73598005Y-61764154D01*
X73798638Y-61432851D01*
X74007426Y-61088289D01*
X74223327Y-60732179D01*
X74445299Y-60366235D01*
X74672303Y-59992169D01*
X74903296Y-59611694D01*
X75137237Y-59226523D01*
X75373085Y-58838368D01*
X75609799Y-58448942D01*
X75846337Y-58059958D01*
X76081659Y-57673129D01*
X76314722Y-57290166D01*
X76544486Y-56912784D01*
X76769909Y-56542695D01*
X76989951Y-56181611D01*
X77203569Y-55831244D01*
X77409723Y-55493309D01*
X77607372Y-55169518D01*
X77795473Y-54861582D01*
X77972986Y-54571216D01*
X78138870Y-54300131D01*
X78292083Y-54050040D01*
X78431584Y-53822657D01*
X78556332Y-53619693D01*
X78665286Y-53442862D01*
X78757403Y-53293877D01*
X78831644Y-53174449D01*
X78886966Y-53086292D01*
X78922329Y-53031118D01*
X78936150Y-53011166D01*
X79007264Y-52942487D01*
X79090118Y-52877167D01*
X79145296Y-52841836D01*
X79213795Y-52807536D01*
X79275009Y-52788444D01*
X79347018Y-52780392D01*
X79417333Y-52779087D01*
X79581858Y-52797290D01*
X79727578Y-52852870D01*
X79857707Y-52947268D01*
X79909518Y-52999985D01*
X79930556Y-53029472D01*
X79972266Y-53093788D01*
X80033697Y-53191363D01*
X80113900Y-53320630D01*
X80211924Y-53480023D01*
X80326819Y-53667973D01*
X80457634Y-53882913D01*
X80603419Y-54123275D01*
X80763225Y-54387492D01*
X80936100Y-54673996D01*
X81121095Y-54981220D01*
X81317259Y-55307597D01*
X81523642Y-55651558D01*
X81739294Y-56011536D01*
X81963265Y-56385964D01*
X82042093Y-56517877D01*
X82273563Y-56905315D01*
X82512426Y-57305123D01*
X82756579Y-57713778D01*
X83003916Y-58127758D01*
X83252333Y-58543540D01*
X83499724Y-58957601D01*
X83743985Y-59366418D01*
X83983011Y-59766468D01*
X84214697Y-60154229D01*
X84436938Y-60526177D01*
X84647630Y-60878790D01*
X84844667Y-61208545D01*
X85025945Y-61511919D01*
X85189358Y-61785389D01*
X85309587Y-61986584D01*
X85531083Y-62357782D01*
X85731720Y-62695163D01*
X85911361Y-62998489D01*
X86069867Y-63267523D01*
X86207100Y-63502028D01*
X86322922Y-63701766D01*
X86417195Y-63866500D01*
X86489781Y-63995992D01*
X86540542Y-64090005D01*
X86569340Y-64148301D01*
X86575264Y-64163344D01*
X86607658Y-64319577D01*
X86819947Y-64319577D01*
X86812342Y-64208696D01*
X86765025Y-64028312D01*
X86716412Y-63916628D01*
X86688857Y-63869600D01*
X86667980Y-63846310D01*
X86662907Y-63846204D01*
X86650777Y-63829916D01*
X86618340Y-63779488D01*
X86566950Y-63697153D01*
X86497960Y-63585143D01*
X86412724Y-63445691D01*
X86312595Y-63281030D01*
X86198927Y-63093393D01*
X86073073Y-62885011D01*
X85936387Y-62658118D01*
X85790222Y-62414946D01*
X85635931Y-62157728D01*
X85474868Y-61888697D01*
X85377789Y-61726297D01*
X85222617Y-61466562D01*
X85047969Y-61174214D01*
X84856075Y-60852986D01*
X84649165Y-60506612D01*
X84429469Y-60138824D01*
X84199216Y-59753356D01*
X83960637Y-59353939D01*
X83715960Y-58944308D01*
X83467416Y-58528194D01*
X83217235Y-58109332D01*
X82967646Y-57691454D01*
X82720878Y-57278292D01*
X82479162Y-56873581D01*
X82244727Y-56481052D01*
X82125947Y-56282167D01*
X81873630Y-55859820D01*
X81642023Y-55472443D01*
X81430246Y-55118590D01*
X81237418Y-54796819D01*
X81062656Y-54505684D01*
X80905080Y-54243743D01*
X80763809Y-54009550D01*
X80637960Y-53801663D01*
X80526654Y-53618638D01*
X80429009Y-53459029D01*
X80344143Y-53321394D01*
X80271175Y-53204288D01*
X80209225Y-53106268D01*
X80157410Y-53025889D01*
X80114850Y-52961707D01*
X80080663Y-52912280D01*
X80053968Y-52876161D01*
X80033884Y-52851909D01*
X80029770Y-52847507D01*
X79976228Y-52789722D01*
X79938049Y-52744035D01*
X79921604Y-52718231D01*
X79921806Y-52715583D01*
X79908987Y-52702653D01*
X79866148Y-52677265D01*
X79801847Y-52644383D01*
X79785619Y-52636612D01*
X79723154Y-52608164D01*
X79670124Y-52588510D01*
X79615870Y-52575735D01*
X79549733Y-52567927D01*
X79461052Y-52563174D01*
X79359125Y-52560084D01*
X79245520Y-52557439D01*
X79167553Y-52557085D01*
X79118553Y-52559809D01*
G36*
X79408336Y-54727877D02*
X79374775Y-54777681D01*
X79321981Y-54859760D01*
X79251184Y-54972075D01*
X79163617Y-55112589D01*
X79060509Y-55279263D01*
X78943092Y-55470059D01*
X78812597Y-55682939D01*
X78670255Y-55915864D01*
X78517296Y-56166796D01*
X78354952Y-56433697D01*
X78184455Y-56714529D01*
X78007034Y-57007253D01*
X77823921Y-57309831D01*
X77636347Y-57620225D01*
X77445542Y-57936397D01*
X77252739Y-58256308D01*
X77059168Y-58577920D01*
X76866059Y-58899194D01*
X76674645Y-59218094D01*
X76486155Y-59532580D01*
X76301822Y-59840613D01*
X76122875Y-60140157D01*
X75950546Y-60429172D01*
X75786067Y-60705621D01*
X75630667Y-60967464D01*
X75485579Y-61212665D01*
X75352032Y-61439183D01*
X75231259Y-61644983D01*
X75139217Y-61802694D01*
X74999493Y-62043031D01*
X74866126Y-62272767D01*
X74740621Y-62489288D01*
X74624485Y-62689984D01*
X74519222Y-62872242D01*
X74426336Y-63033450D01*
X74347334Y-63170996D01*
X74283721Y-63282268D01*
X74237001Y-63364654D01*
X74208680Y-63415542D01*
X74200181Y-63432325D01*
X74221496Y-63433217D01*
X74282427Y-63434429D01*
X74380261Y-63435936D01*
X74512281Y-63437713D01*
X74675773Y-63439736D01*
X74868021Y-63441978D01*
X75086311Y-63444414D01*
X75327927Y-63447020D01*
X75590154Y-63449770D01*
X75870278Y-63452639D01*
X76165583Y-63455602D01*
X76473355Y-63458633D01*
X76790877Y-63461708D01*
X77115435Y-63464801D01*
X77444314Y-63467886D01*
X77774799Y-63470940D01*
X78104175Y-63473936D01*
X78429726Y-63476850D01*
X78748738Y-63479656D01*
X79058496Y-63482329D01*
X79356284Y-63484844D01*
X79639388Y-63487175D01*
X79905091Y-63489298D01*
X80150680Y-63491187D01*
X80373440Y-63492818D01*
X80570654Y-63494164D01*
X80739609Y-63495201D01*
X80877588Y-63495904D01*
X80981877Y-63496247D01*
X81049761Y-63496205D01*
X81068333Y-63496045D01*
X81122105Y-63495341D01*
X81214389Y-63494228D01*
X81341369Y-63492749D01*
X81499226Y-63490945D01*
X81684144Y-63488861D01*
X81892303Y-63486539D01*
X82119886Y-63484022D01*
X82363076Y-63481352D01*
X82618054Y-63478572D01*
X82875928Y-63475780D01*
X83132839Y-63472886D01*
X83377307Y-63469892D01*
X83606052Y-63466855D01*
X83815798Y-63463828D01*
X84003263Y-63460866D01*
X84165171Y-63458025D01*
X84298243Y-63455359D01*
X84399198Y-63452923D01*
X84464760Y-63450772D01*
X84491649Y-63448960D01*
X84492114Y-63448774D01*
X84483707Y-63428794D01*
X84455226Y-63374313D01*
X84407878Y-63287424D01*
X84342869Y-63170224D01*
X84261405Y-63024807D01*
X84164692Y-62853267D01*
X84053936Y-62657700D01*
X83930343Y-62440201D01*
X83795120Y-62202865D01*
X83649472Y-61947786D01*
X83494605Y-61677059D01*
X83331726Y-61392779D01*
X83162040Y-61097041D01*
X83103804Y-60995675D01*
X81780548Y-60995675D01*
X81759437Y-60990877D01*
X81703207Y-60973663D01*
X81616688Y-60945633D01*
X81504707Y-60908383D01*
X81372092Y-60863512D01*
X81223672Y-60812618D01*
X81140138Y-60783708D01*
X80797926Y-60665105D01*
X80495394Y-60560674D01*
X80232355Y-60470353D01*
X80008621Y-60394078D01*
X79824005Y-60331787D01*
X79678318Y-60283416D01*
X79571373Y-60248902D01*
X79502983Y-60228181D01*
X79472960Y-60221191D01*
X79471503Y-60221471D01*
X79475388Y-60242322D01*
X79488738Y-60298430D01*
X79510075Y-60384155D01*
X79537925Y-60493859D01*
X79570810Y-60621903D01*
X79607255Y-60762648D01*
X79645783Y-60910454D01*
X79684918Y-61059684D01*
X79723184Y-61204698D01*
X79759105Y-61339858D01*
X79791204Y-61459524D01*
X79818006Y-61558058D01*
X79838033Y-61629821D01*
X79849810Y-61669174D01*
X79851943Y-61674684D01*
X79870556Y-61668542D01*
X79914481Y-61646721D01*
X79949708Y-61627573D01*
X80017176Y-61592608D01*
X80097400Y-61555080D01*
X80181045Y-61518817D01*
X80258777Y-61487649D01*
X80321263Y-61465406D01*
X80359168Y-61455919D01*
X80365750Y-61456862D01*
X80368110Y-61462558D01*
X80368731Y-61476091D01*
X80367106Y-61501306D01*
X80362727Y-61542048D01*
X80355087Y-61602161D01*
X80343676Y-61685492D01*
X80327989Y-61795884D01*
X80307516Y-61937182D01*
X80281750Y-62113232D01*
X80255244Y-62293500D01*
X80231564Y-62448095D01*
X80204748Y-62612699D01*
X80176279Y-62779079D01*
X80147644Y-62939001D01*
X80120325Y-63084233D01*
X80095808Y-63206542D01*
X80075577Y-63297696D01*
X80070537Y-63317848D01*
X80049056Y-63400279D01*
X79911216Y-63264931D01*
X79861952Y-63214081D01*
X79790038Y-63136463D01*
X79700331Y-63037490D01*
X79597689Y-62922573D01*
X79486969Y-62797123D01*
X79373029Y-62666552D01*
X79343246Y-62632167D01*
X79227527Y-62498507D01*
X79112490Y-62365933D01*
X79003314Y-62240391D01*
X78905180Y-62127829D01*
X78823265Y-62034193D01*
X78762750Y-61965431D01*
X78753357Y-61954834D01*
X78593597Y-61774917D01*
X78901675Y-61769048D01*
X79027816Y-61765738D01*
X79116034Y-61761080D01*
X79170729Y-61754603D01*
X79196302Y-61745838D01*
X79198943Y-61737298D01*
X79188262Y-61713963D01*
X79161225Y-61655675D01*
X79119413Y-61565828D01*
X79064410Y-61447814D01*
X78997798Y-61305024D01*
X78921159Y-61140852D01*
X78836077Y-60958688D01*
X78744133Y-60761927D01*
X78646910Y-60553959D01*
X78643773Y-60547250D01*
X78504800Y-60249884D01*
X78382875Y-59988616D01*
X78277002Y-59761250D01*
X78186184Y-59565589D01*
X78109425Y-59399438D01*
X78045728Y-59260599D01*
X77994096Y-59146876D01*
X77953533Y-59056072D01*
X77923042Y-58985992D01*
X77901627Y-58934439D01*
X77888290Y-58899215D01*
X77882036Y-58878126D01*
X77881868Y-58868974D01*
X77882127Y-58868650D01*
X77906468Y-58868743D01*
X77950863Y-58882734D01*
X77992797Y-58897741D01*
X78065660Y-58921788D01*
X78159828Y-58951770D01*
X78265676Y-58984583D01*
X78284916Y-58990457D01*
X78366965Y-59015592D01*
X78483194Y-59051413D01*
X78627374Y-59095991D01*
X78793275Y-59147394D01*
X78974669Y-59203691D01*
X79165325Y-59262954D01*
X79359014Y-59323250D01*
X79401458Y-59336476D01*
X79581399Y-59392411D01*
X79748172Y-59443972D01*
X79897589Y-59489884D01*
X80025459Y-59528872D01*
X80127592Y-59559662D01*
X80199799Y-59580980D01*
X80237891Y-59591550D01*
X80242833Y-59592408D01*
X80233162Y-59573158D01*
X80205190Y-59519487D01*
X80160485Y-59434358D01*
X80100610Y-59320734D01*
X80027132Y-59181576D01*
X79941616Y-59019848D01*
X79845626Y-58838512D01*
X79740728Y-58640530D01*
X79628489Y-58428865D01*
X79526018Y-58235764D01*
X79367530Y-57937077D01*
X79227867Y-57673568D01*
X79105913Y-57443073D01*
X79000547Y-57243429D01*
X78910652Y-57072474D01*
X78835108Y-56928044D01*
X78772798Y-56807977D01*
X78722603Y-56710108D01*
X78683403Y-56632276D01*
X78654082Y-56572317D01*
X78633519Y-56528067D01*
X78620598Y-56497365D01*
X78614198Y-56478046D01*
X78613000Y-56470133D01*
X78624039Y-56463097D01*
X78659221Y-56458082D01*
X78721646Y-56455045D01*
X78814411Y-56453944D01*
X78940617Y-56454737D01*
X79103362Y-56457380D01*
X79274458Y-56461092D01*
X79437354Y-56465130D01*
X79586158Y-56469241D01*
X79715727Y-56473250D01*
X79820914Y-56476980D01*
X79896575Y-56480256D01*
X79937566Y-56482903D01*
X79943433Y-56483912D01*
X79952238Y-56503991D01*
X79975838Y-56560302D01*
X80013019Y-56649886D01*
X80062569Y-56769784D01*
X80123274Y-56917038D01*
X80193922Y-57088689D01*
X80273300Y-57281779D01*
X80360194Y-57493348D01*
X80453393Y-57720439D01*
X80551682Y-57960093D01*
X80653850Y-58209351D01*
X80758683Y-58465254D01*
X80864968Y-58724844D01*
X80971493Y-58985162D01*
X81077044Y-59243250D01*
X81180409Y-59496149D01*
X81280374Y-59740901D01*
X81375727Y-59974546D01*
X81465255Y-60194126D01*
X81547745Y-60396683D01*
X81578095Y-60471285D01*
X81633874Y-60609402D01*
X81683509Y-60734173D01*
X81724993Y-60840393D01*
X81756317Y-60922861D01*
X81775471Y-60976374D01*
X81780548Y-60995675D01*
X83103804Y-60995675D01*
X82986754Y-60791940D01*
X82807074Y-60479571D01*
X82624205Y-60162029D01*
X82439354Y-59841408D01*
X82253727Y-59519803D01*
X82068530Y-59199310D01*
X81884968Y-58882023D01*
X81704249Y-58570037D01*
X81527578Y-58265447D01*
X81356161Y-57970347D01*
X81191204Y-57686834D01*
X81033914Y-57417000D01*
X80885496Y-57162943D01*
X80747156Y-56926755D01*
X80620101Y-56710533D01*
X80505537Y-56516370D01*
X80404669Y-56346363D01*
X80360054Y-56271584D01*
X80220127Y-56037696D01*
X80086302Y-55814242D01*
X79960186Y-55603893D01*
X79843388Y-55409319D01*
X79737513Y-55233192D01*
X79644172Y-55078181D01*
X79564971Y-54946958D01*
X79501518Y-54842194D01*
X79455421Y-54766559D01*
X79428287Y-54722725D01*
X79421432Y-54712386D01*
X79408336Y-54727877D01*
X79408336Y-54727877D01*
G37*
X79408336Y-54727877D02*
X79374775Y-54777681D01*
X79321981Y-54859760D01*
X79251184Y-54972075D01*
X79163617Y-55112589D01*
X79060509Y-55279263D01*
X78943092Y-55470059D01*
X78812597Y-55682939D01*
X78670255Y-55915864D01*
X78517296Y-56166796D01*
X78354952Y-56433697D01*
X78184455Y-56714529D01*
X78007034Y-57007253D01*
X77823921Y-57309831D01*
X77636347Y-57620225D01*
X77445542Y-57936397D01*
X77252739Y-58256308D01*
X77059168Y-58577920D01*
X76866059Y-58899194D01*
X76674645Y-59218094D01*
X76486155Y-59532580D01*
X76301822Y-59840613D01*
X76122875Y-60140157D01*
X75950546Y-60429172D01*
X75786067Y-60705621D01*
X75630667Y-60967464D01*
X75485579Y-61212665D01*
X75352032Y-61439183D01*
X75231259Y-61644983D01*
X75139217Y-61802694D01*
X74999493Y-62043031D01*
X74866126Y-62272767D01*
X74740621Y-62489288D01*
X74624485Y-62689984D01*
X74519222Y-62872242D01*
X74426336Y-63033450D01*
X74347334Y-63170996D01*
X74283721Y-63282268D01*
X74237001Y-63364654D01*
X74208680Y-63415542D01*
X74200181Y-63432325D01*
X74221496Y-63433217D01*
X74282427Y-63434429D01*
X74380261Y-63435936D01*
X74512281Y-63437713D01*
X74675773Y-63439736D01*
X74868021Y-63441978D01*
X75086311Y-63444414D01*
X75327927Y-63447020D01*
X75590154Y-63449770D01*
X75870278Y-63452639D01*
X76165583Y-63455602D01*
X76473355Y-63458633D01*
X76790877Y-63461708D01*
X77115435Y-63464801D01*
X77444314Y-63467886D01*
X77774799Y-63470940D01*
X78104175Y-63473936D01*
X78429726Y-63476850D01*
X78748738Y-63479656D01*
X79058496Y-63482329D01*
X79356284Y-63484844D01*
X79639388Y-63487175D01*
X79905091Y-63489298D01*
X80150680Y-63491187D01*
X80373440Y-63492818D01*
X80570654Y-63494164D01*
X80739609Y-63495201D01*
X80877588Y-63495904D01*
X80981877Y-63496247D01*
X81049761Y-63496205D01*
X81068333Y-63496045D01*
X81122105Y-63495341D01*
X81214389Y-63494228D01*
X81341369Y-63492749D01*
X81499226Y-63490945D01*
X81684144Y-63488861D01*
X81892303Y-63486539D01*
X82119886Y-63484022D01*
X82363076Y-63481352D01*
X82618054Y-63478572D01*
X82875928Y-63475780D01*
X83132839Y-63472886D01*
X83377307Y-63469892D01*
X83606052Y-63466855D01*
X83815798Y-63463828D01*
X84003263Y-63460866D01*
X84165171Y-63458025D01*
X84298243Y-63455359D01*
X84399198Y-63452923D01*
X84464760Y-63450772D01*
X84491649Y-63448960D01*
X84492114Y-63448774D01*
X84483707Y-63428794D01*
X84455226Y-63374313D01*
X84407878Y-63287424D01*
X84342869Y-63170224D01*
X84261405Y-63024807D01*
X84164692Y-62853267D01*
X84053936Y-62657700D01*
X83930343Y-62440201D01*
X83795120Y-62202865D01*
X83649472Y-61947786D01*
X83494605Y-61677059D01*
X83331726Y-61392779D01*
X83162040Y-61097041D01*
X83103804Y-60995675D01*
X81780548Y-60995675D01*
X81759437Y-60990877D01*
X81703207Y-60973663D01*
X81616688Y-60945633D01*
X81504707Y-60908383D01*
X81372092Y-60863512D01*
X81223672Y-60812618D01*
X81140138Y-60783708D01*
X80797926Y-60665105D01*
X80495394Y-60560674D01*
X80232355Y-60470353D01*
X80008621Y-60394078D01*
X79824005Y-60331787D01*
X79678318Y-60283416D01*
X79571373Y-60248902D01*
X79502983Y-60228181D01*
X79472960Y-60221191D01*
X79471503Y-60221471D01*
X79475388Y-60242322D01*
X79488738Y-60298430D01*
X79510075Y-60384155D01*
X79537925Y-60493859D01*
X79570810Y-60621903D01*
X79607255Y-60762648D01*
X79645783Y-60910454D01*
X79684918Y-61059684D01*
X79723184Y-61204698D01*
X79759105Y-61339858D01*
X79791204Y-61459524D01*
X79818006Y-61558058D01*
X79838033Y-61629821D01*
X79849810Y-61669174D01*
X79851943Y-61674684D01*
X79870556Y-61668542D01*
X79914481Y-61646721D01*
X79949708Y-61627573D01*
X80017176Y-61592608D01*
X80097400Y-61555080D01*
X80181045Y-61518817D01*
X80258777Y-61487649D01*
X80321263Y-61465406D01*
X80359168Y-61455919D01*
X80365750Y-61456862D01*
X80368110Y-61462558D01*
X80368731Y-61476091D01*
X80367106Y-61501306D01*
X80362727Y-61542048D01*
X80355087Y-61602161D01*
X80343676Y-61685492D01*
X80327989Y-61795884D01*
X80307516Y-61937182D01*
X80281750Y-62113232D01*
X80255244Y-62293500D01*
X80231564Y-62448095D01*
X80204748Y-62612699D01*
X80176279Y-62779079D01*
X80147644Y-62939001D01*
X80120325Y-63084233D01*
X80095808Y-63206542D01*
X80075577Y-63297696D01*
X80070537Y-63317848D01*
X80049056Y-63400279D01*
X79911216Y-63264931D01*
X79861952Y-63214081D01*
X79790038Y-63136463D01*
X79700331Y-63037490D01*
X79597689Y-62922573D01*
X79486969Y-62797123D01*
X79373029Y-62666552D01*
X79343246Y-62632167D01*
X79227527Y-62498507D01*
X79112490Y-62365933D01*
X79003314Y-62240391D01*
X78905180Y-62127829D01*
X78823265Y-62034193D01*
X78762750Y-61965431D01*
X78753357Y-61954834D01*
X78593597Y-61774917D01*
X78901675Y-61769048D01*
X79027816Y-61765738D01*
X79116034Y-61761080D01*
X79170729Y-61754603D01*
X79196302Y-61745838D01*
X79198943Y-61737298D01*
X79188262Y-61713963D01*
X79161225Y-61655675D01*
X79119413Y-61565828D01*
X79064410Y-61447814D01*
X78997798Y-61305024D01*
X78921159Y-61140852D01*
X78836077Y-60958688D01*
X78744133Y-60761927D01*
X78646910Y-60553959D01*
X78643773Y-60547250D01*
X78504800Y-60249884D01*
X78382875Y-59988616D01*
X78277002Y-59761250D01*
X78186184Y-59565589D01*
X78109425Y-59399438D01*
X78045728Y-59260599D01*
X77994096Y-59146876D01*
X77953533Y-59056072D01*
X77923042Y-58985992D01*
X77901627Y-58934439D01*
X77888290Y-58899215D01*
X77882036Y-58878126D01*
X77881868Y-58868974D01*
X77882127Y-58868650D01*
X77906468Y-58868743D01*
X77950863Y-58882734D01*
X77992797Y-58897741D01*
X78065660Y-58921788D01*
X78159828Y-58951770D01*
X78265676Y-58984583D01*
X78284916Y-58990457D01*
X78366965Y-59015592D01*
X78483194Y-59051413D01*
X78627374Y-59095991D01*
X78793275Y-59147394D01*
X78974669Y-59203691D01*
X79165325Y-59262954D01*
X79359014Y-59323250D01*
X79401458Y-59336476D01*
X79581399Y-59392411D01*
X79748172Y-59443972D01*
X79897589Y-59489884D01*
X80025459Y-59528872D01*
X80127592Y-59559662D01*
X80199799Y-59580980D01*
X80237891Y-59591550D01*
X80242833Y-59592408D01*
X80233162Y-59573158D01*
X80205190Y-59519487D01*
X80160485Y-59434358D01*
X80100610Y-59320734D01*
X80027132Y-59181576D01*
X79941616Y-59019848D01*
X79845626Y-58838512D01*
X79740728Y-58640530D01*
X79628489Y-58428865D01*
X79526018Y-58235764D01*
X79367530Y-57937077D01*
X79227867Y-57673568D01*
X79105913Y-57443073D01*
X79000547Y-57243429D01*
X78910652Y-57072474D01*
X78835108Y-56928044D01*
X78772798Y-56807977D01*
X78722603Y-56710108D01*
X78683403Y-56632276D01*
X78654082Y-56572317D01*
X78633519Y-56528067D01*
X78620598Y-56497365D01*
X78614198Y-56478046D01*
X78613000Y-56470133D01*
X78624039Y-56463097D01*
X78659221Y-56458082D01*
X78721646Y-56455045D01*
X78814411Y-56453944D01*
X78940617Y-56454737D01*
X79103362Y-56457380D01*
X79274458Y-56461092D01*
X79437354Y-56465130D01*
X79586158Y-56469241D01*
X79715727Y-56473250D01*
X79820914Y-56476980D01*
X79896575Y-56480256D01*
X79937566Y-56482903D01*
X79943433Y-56483912D01*
X79952238Y-56503991D01*
X79975838Y-56560302D01*
X80013019Y-56649886D01*
X80062569Y-56769784D01*
X80123274Y-56917038D01*
X80193922Y-57088689D01*
X80273300Y-57281779D01*
X80360194Y-57493348D01*
X80453393Y-57720439D01*
X80551682Y-57960093D01*
X80653850Y-58209351D01*
X80758683Y-58465254D01*
X80864968Y-58724844D01*
X80971493Y-58985162D01*
X81077044Y-59243250D01*
X81180409Y-59496149D01*
X81280374Y-59740901D01*
X81375727Y-59974546D01*
X81465255Y-60194126D01*
X81547745Y-60396683D01*
X81578095Y-60471285D01*
X81633874Y-60609402D01*
X81683509Y-60734173D01*
X81724993Y-60840393D01*
X81756317Y-60922861D01*
X81775471Y-60976374D01*
X81780548Y-60995675D01*
X83103804Y-60995675D01*
X82986754Y-60791940D01*
X82807074Y-60479571D01*
X82624205Y-60162029D01*
X82439354Y-59841408D01*
X82253727Y-59519803D01*
X82068530Y-59199310D01*
X81884968Y-58882023D01*
X81704249Y-58570037D01*
X81527578Y-58265447D01*
X81356161Y-57970347D01*
X81191204Y-57686834D01*
X81033914Y-57417000D01*
X80885496Y-57162943D01*
X80747156Y-56926755D01*
X80620101Y-56710533D01*
X80505537Y-56516370D01*
X80404669Y-56346363D01*
X80360054Y-56271584D01*
X80220127Y-56037696D01*
X80086302Y-55814242D01*
X79960186Y-55603893D01*
X79843388Y-55409319D01*
X79737513Y-55233192D01*
X79644172Y-55078181D01*
X79564971Y-54946958D01*
X79501518Y-54842194D01*
X79455421Y-54766559D01*
X79428287Y-54722725D01*
X79421432Y-54712386D01*
X79408336Y-54727877D01*
M02*
