M48
;DRILL file {kicad 0.201503020946+5465~21~ubuntu14.04.1-product} date Thu 05 Mar 2015 23:48:12 GMT
;FORMAT={-:-/ absolute / inch / decimal}
FMAT,2
INCH,TZ
T1C0.024
T2C0.026
T3C0.049
T4C0.130
%
G90
G05
M72
T1
X2.0276Y-4.0945
X2.0276Y-5.3543
X2.0551Y-4.0236
X2.0551Y-4.1654
X2.0551Y-5.2835
X2.0551Y-5.4252
X2.126Y-3.9961
X2.126Y-4.1929
X2.126Y-5.2559
X2.126Y-5.4528
X2.1969Y-4.0236
X2.1969Y-4.1654
X2.1969Y-5.2835
X2.1969Y-5.4252
X2.2244Y-4.0945
X2.2244Y-5.3543
X5.6496Y-4.0945
X5.6496Y-5.3543
X5.6772Y-4.0236
X5.6772Y-4.1654
X5.6772Y-5.2835
X5.6772Y-5.4252
X5.748Y-3.9961
X5.748Y-4.1929
X5.748Y-5.2559
X5.748Y-5.4528
X5.8189Y-4.0236
X5.8189Y-4.1654
X5.8189Y-5.2835
X5.8189Y-5.4252
X5.8465Y-4.0945
X5.8465Y-5.3543
T2
X2.1161Y-4.3504
X2.1161Y-4.5079
T3
X2.3583Y-4.0118
X2.3583Y-5.2402
X4.8268Y-4.0118
X4.8268Y-5.2402
T4
X2.126Y-4.0945
X2.126Y-5.3543
X5.748Y-4.0945
X5.748Y-5.3543
T0
M30
