G04 #@! TF.FileFunction,Paste,Bot*
%FSLAX46Y46*%
G04 Gerber Fmt 4.6, Leading zero omitted, Abs format (unit mm)*
G04 Created by KiCad (PCBNEW 0.201508100901+6080~28~ubuntu14.04.1-product) date Wed 07 Oct 2015 01:26:35 BST*
%MOMM*%
G01*
G04 APERTURE LIST*
%ADD10C,0.100000*%
%ADD11R,3.600000X2.600000*%
%ADD12R,0.800000X0.800000*%
%ADD13R,1.700000X1.200000*%
%ADD14R,1.400000X0.400000*%
%ADD15R,1.900000X2.300000*%
%ADD16R,0.500000X0.600000*%
%ADD17R,1.200000X0.300000*%
%ADD18R,0.300000X1.200000*%
%ADD19R,0.400000X1.400000*%
%ADD20R,2.500000X2.300000*%
%ADD21R,1.300000X2.400000*%
%ADD22R,3.800000X2.400000*%
%ADD23R,0.800000X1.300000*%
G04 APERTURE END LIST*
D10*
D11*
X112200000Y-136250000D03*
X112200000Y-106950000D03*
D12*
X135050000Y-120650000D03*
X136650000Y-120650000D03*
X81500000Y-111800000D03*
X79900000Y-111800000D03*
X92100000Y-111100000D03*
X90500000Y-111100000D03*
X94750000Y-121000000D03*
X94750000Y-119400000D03*
X92100000Y-112700000D03*
X90500000Y-112700000D03*
X81500000Y-113000000D03*
X79900000Y-113000000D03*
X93500000Y-121000000D03*
X93500000Y-119400000D03*
X137850000Y-120650000D03*
X139450000Y-120650000D03*
X74450000Y-107800000D03*
X74450000Y-109400000D03*
X97750000Y-113250000D03*
X99350000Y-113250000D03*
X97750000Y-122000000D03*
X99350000Y-122000000D03*
X93400000Y-111100000D03*
X93400000Y-112700000D03*
X94700000Y-111100000D03*
X94700000Y-112700000D03*
X135100000Y-126500000D03*
X133500000Y-126500000D03*
X135100000Y-125300000D03*
X133500000Y-125300000D03*
D13*
X140000000Y-130000000D03*
X140000000Y-126900000D03*
D12*
X142000000Y-126750000D03*
X142000000Y-128350000D03*
X93500000Y-122250000D03*
X93500000Y-123850000D03*
X69250000Y-105000000D03*
X67650000Y-105000000D03*
D13*
X137750000Y-131250000D03*
X137750000Y-128150000D03*
D12*
X52425000Y-130075000D03*
X54025000Y-130075000D03*
X57200000Y-130100000D03*
X55600000Y-130100000D03*
X52425000Y-122075000D03*
X54025000Y-122075000D03*
X52425000Y-120875000D03*
X54025000Y-120875000D03*
D14*
X54200000Y-113800000D03*
X54200000Y-113150000D03*
X54200000Y-112500000D03*
X54200000Y-111850000D03*
X54200000Y-111200000D03*
D15*
X51450000Y-116250000D03*
X51450000Y-108750000D03*
D16*
X144750000Y-126000000D03*
X144750000Y-124900000D03*
X144750000Y-130000000D03*
X144750000Y-128900000D03*
D17*
X90975000Y-115675000D03*
X90975000Y-116175000D03*
X90975000Y-116675000D03*
X90975000Y-117175000D03*
X90975000Y-117675000D03*
X90975000Y-118175000D03*
X90975000Y-118675000D03*
X90975000Y-119175000D03*
X90975000Y-119675000D03*
X90975000Y-120175000D03*
X90975000Y-120675000D03*
X90975000Y-121175000D03*
D18*
X89475000Y-122675000D03*
X88975000Y-122675000D03*
X88475000Y-122675000D03*
X87975000Y-122675000D03*
X87475000Y-122675000D03*
X86975000Y-122675000D03*
X86475000Y-122675000D03*
X85975000Y-122675000D03*
X85475000Y-122675000D03*
X84975000Y-122675000D03*
X84475000Y-122675000D03*
X83975000Y-122675000D03*
D17*
X82475000Y-121175000D03*
X82475000Y-120675000D03*
X82475000Y-120175000D03*
X82475000Y-119675000D03*
X82475000Y-119175000D03*
X82475000Y-118675000D03*
X82475000Y-118175000D03*
X82475000Y-117675000D03*
X82475000Y-117175000D03*
X82475000Y-116675000D03*
X82475000Y-116175000D03*
X82475000Y-115675000D03*
D18*
X83975000Y-114175000D03*
X84475000Y-114175000D03*
X84975000Y-114175000D03*
X85475000Y-114175000D03*
X85975000Y-114175000D03*
X86475000Y-114175000D03*
X86975000Y-114175000D03*
X87475000Y-114175000D03*
X87975000Y-114175000D03*
X88475000Y-114175000D03*
X88975000Y-114175000D03*
X89475000Y-114175000D03*
D19*
X135250000Y-132500000D03*
X134600000Y-132500000D03*
X133950000Y-132500000D03*
X133300000Y-132500000D03*
X133300000Y-128100000D03*
X133950000Y-128100000D03*
X134600000Y-128100000D03*
X135250000Y-128100000D03*
X52225000Y-123875000D03*
X52875000Y-123875000D03*
X53525000Y-123875000D03*
X54175000Y-123875000D03*
X54175000Y-128275000D03*
X53525000Y-128275000D03*
X52875000Y-128275000D03*
X52225000Y-128275000D03*
D12*
X136650000Y-119200000D03*
X135050000Y-119200000D03*
X137850000Y-119200000D03*
X139450000Y-119200000D03*
X95750000Y-117750000D03*
X94150000Y-117750000D03*
X143500000Y-126750000D03*
X143500000Y-125150000D03*
X94750000Y-122250000D03*
X94750000Y-123850000D03*
X142000000Y-130000000D03*
X143600000Y-130000000D03*
X142000000Y-133000000D03*
X142000000Y-131400000D03*
D20*
X98475000Y-119875000D03*
X98475000Y-115375000D03*
D12*
X82250000Y-124250000D03*
X83850000Y-124250000D03*
X96000000Y-132750000D03*
X96000000Y-134350000D03*
X97250000Y-132750000D03*
X97250000Y-134350000D03*
X105250000Y-138250000D03*
X105250000Y-136650000D03*
X106500000Y-138250000D03*
X106500000Y-136650000D03*
D14*
X99000000Y-136750000D03*
X99000000Y-136100000D03*
X99000000Y-135450000D03*
X99000000Y-134800000D03*
X103400000Y-134800000D03*
X103400000Y-135450000D03*
X103400000Y-136100000D03*
X103400000Y-136750000D03*
D12*
X103500000Y-138000000D03*
X101900000Y-138000000D03*
X131000000Y-109600000D03*
X131000000Y-111200000D03*
X68000000Y-125000000D03*
X68000000Y-126600000D03*
X70000000Y-125000000D03*
X70000000Y-126600000D03*
D21*
X70000000Y-122500000D03*
X72300000Y-122500000D03*
X67700000Y-122500000D03*
D22*
X70000000Y-116400000D03*
D23*
X93150000Y-114300000D03*
X94950000Y-114300000D03*
D12*
X87800000Y-110800000D03*
X87800000Y-112400000D03*
X89100000Y-110800000D03*
X89100000Y-112400000D03*
X89100000Y-107800000D03*
X89100000Y-109450000D03*
X87800000Y-107800000D03*
X87800000Y-109450000D03*
X129700000Y-109600000D03*
X129700000Y-111200000D03*
X128400000Y-109600000D03*
X128400000Y-111200000D03*
D16*
X95000000Y-136000000D03*
X95000000Y-137100000D03*
M02*
