M48
;DRILL file {KiCad 0.201508100901+6080~28~ubuntu14.04.1-product} date Wed 07 Oct 2015 01:26:17 BST
;FORMAT={-:-/ absolute / inch / decimal}
FMAT,2
INCH,TZ
T1C0.016
T2C0.024
T3C0.025
T4C0.026
T5C0.039
T6C0.040
T7C0.043
T8C0.047
T9C0.059
T10C0.087
T11C0.098
T12C0.118
T13C0.130
%
G90
G05
M72
T1
X2.0236Y-5.1732
X2.0591Y-4.689
X2.1161Y-4.7244
X2.126Y-5.1575
X2.1693Y-4.2638
X2.1949Y-4.3799
X2.5827Y-5.0433
X2.5827Y-5.1181
X2.7165Y-4.9843
X2.7677Y-4.2028
X2.7677Y-4.252
X2.8937Y-4.8228
X2.8976Y-4.3504
X2.9469Y-4.3996
X3.1142Y-4.4016
X3.1476Y-4.874
X3.1772Y-4.9016
X3.1969Y-4.7933
X3.252Y-4.3465
X3.252Y-4.5039
X3.2677Y-4.9291
X3.3228Y-4.5512
X3.3563Y-5.0295
X3.3563Y-5.1083
X3.3937Y-4.9606
X3.4055Y-5.0295
X3.4055Y-5.1083
X3.4409Y-4.5748
X3.4409Y-4.9606
X3.4646Y-4.6949
X3.4646Y-4.7539
X3.4843Y-4.2441
X3.4941Y-4.7244
X3.4941Y-4.7835
X3.5138Y-5.0689
X3.5197Y-4.6142
X3.5433Y-5.0394
X3.563Y-4.3346
X3.5925Y-4.872
X3.5925Y-4.9213
X3.6024Y-4.8327
X3.6614Y-4.8622
X3.6713Y-4.9311
X3.7008Y-4.685
X3.7047Y-4.374
X3.8976Y-5.2756
X3.9488Y-4.4606
X3.9488Y-4.8031
X3.9764Y-5.4331
X4.0354Y-4.8524
X4.2323Y-5.4429
X4.4685Y-4.9508
X4.5276Y-4.9508
X4.5276Y-5.0591
X4.5669Y-4.9508
X4.5669Y-5.0591
X4.6063Y-4.9508
X4.6063Y-5.0591
X4.6457Y-4.9508
X4.6457Y-5.0591
X4.7047Y-4.9508
X4.7047Y-5.0591
X4.9902Y-4.9508
X4.9902Y-5.0591
X5.0472Y-4.9528
X5.0472Y-5.063
X5.0866Y-4.9528
X5.0866Y-5.063
X5.2165Y-4.9311
X5.2854Y-5.2657
X5.4724Y-5.0787
X5.5512Y-5.2362
X5.6988Y-5.0197
X5.7677Y-4.3406
T2
X2.0276Y-4.0945
X2.0276Y-5.3543
X2.0551Y-4.0236
X2.0551Y-4.1654
X2.0551Y-5.2835
X2.0551Y-5.4252
X2.126Y-3.9961
X2.126Y-4.1929
X2.126Y-5.2559
X2.126Y-5.4528
X2.1969Y-4.0236
X2.1969Y-4.1654
X2.1969Y-5.2835
X2.1969Y-5.4252
X2.2244Y-4.0945
X2.2244Y-5.3543
X5.6496Y-4.0945
X5.6496Y-5.3543
X5.6772Y-4.0236
X5.6772Y-4.1654
X5.6772Y-5.2835
X5.6772Y-5.4252
X5.748Y-3.9961
X5.748Y-4.1929
X5.748Y-5.2559
X5.748Y-5.4528
X5.8189Y-4.0236
X5.8189Y-4.1654
X5.8189Y-5.2835
X5.8189Y-5.4252
X5.8465Y-4.0945
X5.8465Y-5.3543
T3
X2.989Y-4.252
X2.989Y-4.302
X3.039Y-4.252
X3.039Y-4.302
X3.089Y-4.252
X3.089Y-4.302
X3.139Y-4.252
X3.139Y-4.302
X3.189Y-4.252
X3.189Y-4.302
T4
X2.1142Y-4.3504
X2.1142Y-4.5079
T5
X2.6413Y-4.0394
X2.7413Y-4.0394
X2.796Y-4.1531
X2.836Y-4.3531
X2.8413Y-4.0394
X2.876Y-4.1531
X2.9413Y-4.0394
X2.9929Y-4.6132
X2.9929Y-4.7132
X2.9929Y-4.8132
X2.9929Y-4.9132
X3.0413Y-4.0394
X3.0929Y-4.6132
X3.0929Y-4.7132
X3.0929Y-4.8132
X3.0929Y-4.9132
X3.1413Y-4.0394
X3.2413Y-4.0394
X3.313Y-5.2165
X3.3413Y-4.0394
X3.4413Y-4.0394
X3.5413Y-4.0394
X3.6122Y-5.2165
X3.6413Y-4.0394
X3.7413Y-4.0394
X3.8413Y-4.0394
X3.9413Y-4.0394
X4.0413Y-4.0394
X4.1413Y-4.0394
X4.2413Y-4.0394
X4.3413Y-4.0394
X4.4413Y-4.0394
X4.5413Y-4.0394
T6
X2.665Y-5.2453
X2.665Y-5.3453
X2.765Y-5.2453
X2.765Y-5.3453
X2.865Y-5.2453
X2.865Y-5.3453
X2.965Y-5.2453
X2.965Y-5.3453
T7
X5.2461Y-4.252
X5.3248Y-4.252
X5.4035Y-4.252
X5.4823Y-4.252
X5.561Y-4.252
T8
X5.3051Y-4.8228
X5.4035Y-4.8228
X5.502Y-4.8228
T9
X5.7874Y-4.9181
X5.7874Y-5.1181
T10
X5.1831Y-4.5276
X5.624Y-4.5276
T11
X2.3583Y-4.0118
X2.3583Y-5.2402
X4.8268Y-4.0118
X4.8268Y-5.2402
T12
X5.7874Y-4.685
T13
X2.126Y-4.0945
X2.126Y-5.3543
X5.748Y-4.0945
X5.748Y-5.3543
T0
M30
