G04 #@! TF.FileFunction,Copper,L2,Bot,Signal*
%FSLAX46Y46*%
G04 Gerber Fmt 4.6, Leading zero omitted, Abs format (unit mm)*
G04 Created by KiCad (PCBNEW 0.201508100901+6080~28~ubuntu14.04.1-product) date Wed 07 Oct 2015 01:26:35 BST*
%MOMM*%
G01*
G04 APERTURE LIST*
%ADD10C,0.100000*%
%ADD11R,3.600000X2.600000*%
%ADD12R,0.800000X0.800000*%
%ADD13R,1.700000X1.200000*%
%ADD14R,1.400000X0.400000*%
%ADD15R,1.900000X2.300000*%
%ADD16R,0.500000X0.600000*%
%ADD17R,1.200000X0.300000*%
%ADD18R,0.300000X1.200000*%
%ADD19R,0.400000X1.400000*%
%ADD20C,1.016000*%
%ADD21C,2.000000*%
%ADD22C,1.600000*%
%ADD23C,3.200000*%
%ADD24R,2.500000X2.300000*%
%ADD25C,3.000000*%
%ADD26R,2.000000X2.000000*%
%ADD27R,1.300000X2.400000*%
%ADD28R,3.800000X2.400000*%
%ADD29R,0.800000X1.300000*%
%ADD30C,0.787000*%
%ADD31C,0.800000*%
%ADD32C,0.500000*%
%ADD33C,0.300000*%
%ADD34C,0.200000*%
%ADD35C,0.250000*%
G04 APERTURE END LIST*
D10*
D11*
X112200000Y-136250000D03*
X112200000Y-106950000D03*
D12*
X135050000Y-120650000D03*
X136650000Y-120650000D03*
X81500000Y-111800000D03*
X79900000Y-111800000D03*
X92100000Y-111100000D03*
X90500000Y-111100000D03*
X94750000Y-121000000D03*
X94750000Y-119400000D03*
X92100000Y-112700000D03*
X90500000Y-112700000D03*
X81500000Y-113000000D03*
X79900000Y-113000000D03*
X93500000Y-121000000D03*
X93500000Y-119400000D03*
X137850000Y-120650000D03*
X139450000Y-120650000D03*
X74450000Y-107800000D03*
X74450000Y-109400000D03*
X97750000Y-113250000D03*
X99350000Y-113250000D03*
X97750000Y-122000000D03*
X99350000Y-122000000D03*
X93400000Y-111100000D03*
X93400000Y-112700000D03*
X94700000Y-111100000D03*
X94700000Y-112700000D03*
X135100000Y-126500000D03*
X133500000Y-126500000D03*
X135100000Y-125300000D03*
X133500000Y-125300000D03*
D13*
X140000000Y-130000000D03*
X140000000Y-126900000D03*
D12*
X142000000Y-126750000D03*
X142000000Y-128350000D03*
X93500000Y-122250000D03*
X93500000Y-123850000D03*
X69250000Y-105000000D03*
X67650000Y-105000000D03*
D13*
X137750000Y-131250000D03*
X137750000Y-128150000D03*
D12*
X52425000Y-130075000D03*
X54025000Y-130075000D03*
X57200000Y-130100000D03*
X55600000Y-130100000D03*
X52425000Y-122075000D03*
X54025000Y-122075000D03*
X52425000Y-120875000D03*
X54025000Y-120875000D03*
D14*
X54200000Y-113800000D03*
X54200000Y-113150000D03*
X54200000Y-112500000D03*
X54200000Y-111850000D03*
X54200000Y-111200000D03*
D15*
X51450000Y-116250000D03*
X51450000Y-108750000D03*
D16*
X144750000Y-126000000D03*
X144750000Y-124900000D03*
X144750000Y-130000000D03*
X144750000Y-128900000D03*
D17*
X90975000Y-115675000D03*
X90975000Y-116175000D03*
X90975000Y-116675000D03*
X90975000Y-117175000D03*
X90975000Y-117675000D03*
X90975000Y-118175000D03*
X90975000Y-118675000D03*
X90975000Y-119175000D03*
X90975000Y-119675000D03*
X90975000Y-120175000D03*
X90975000Y-120675000D03*
X90975000Y-121175000D03*
D18*
X89475000Y-122675000D03*
X88975000Y-122675000D03*
X88475000Y-122675000D03*
X87975000Y-122675000D03*
X87475000Y-122675000D03*
X86975000Y-122675000D03*
X86475000Y-122675000D03*
X85975000Y-122675000D03*
X85475000Y-122675000D03*
X84975000Y-122675000D03*
X84475000Y-122675000D03*
X83975000Y-122675000D03*
D17*
X82475000Y-121175000D03*
X82475000Y-120675000D03*
X82475000Y-120175000D03*
X82475000Y-119675000D03*
X82475000Y-119175000D03*
X82475000Y-118675000D03*
X82475000Y-118175000D03*
X82475000Y-117675000D03*
X82475000Y-117175000D03*
X82475000Y-116675000D03*
X82475000Y-116175000D03*
X82475000Y-115675000D03*
D18*
X83975000Y-114175000D03*
X84475000Y-114175000D03*
X84975000Y-114175000D03*
X85475000Y-114175000D03*
X85975000Y-114175000D03*
X86475000Y-114175000D03*
X86975000Y-114175000D03*
X87475000Y-114175000D03*
X87975000Y-114175000D03*
X88475000Y-114175000D03*
X88975000Y-114175000D03*
X89475000Y-114175000D03*
D19*
X135250000Y-132500000D03*
X134600000Y-132500000D03*
X133950000Y-132500000D03*
X133300000Y-132500000D03*
X133300000Y-128100000D03*
X133950000Y-128100000D03*
X134600000Y-128100000D03*
X135250000Y-128100000D03*
X52225000Y-123875000D03*
X52875000Y-123875000D03*
X53525000Y-123875000D03*
X54175000Y-123875000D03*
X54175000Y-128275000D03*
X53525000Y-128275000D03*
X52875000Y-128275000D03*
X52225000Y-128275000D03*
D20*
X81000000Y-109270000D03*
X81000000Y-108000000D03*
X79730000Y-109270000D03*
X79730000Y-108000000D03*
X78460000Y-109270000D03*
X78460000Y-108000000D03*
X77190000Y-109270000D03*
X77190000Y-108000000D03*
X75920000Y-109270000D03*
X75920000Y-108000000D03*
D12*
X136650000Y-119200000D03*
X135050000Y-119200000D03*
X137850000Y-119200000D03*
X139450000Y-119200000D03*
X95750000Y-117750000D03*
X94150000Y-117750000D03*
X143500000Y-126750000D03*
X143500000Y-125150000D03*
X94750000Y-122250000D03*
X94750000Y-123850000D03*
X142000000Y-130000000D03*
X143600000Y-130000000D03*
X142000000Y-133000000D03*
X142000000Y-131400000D03*
D21*
X91750000Y-132500000D03*
X84150000Y-132500000D03*
D22*
X137250000Y-108000000D03*
X139250000Y-108000000D03*
X141250000Y-108000000D03*
X133250000Y-108000000D03*
X135250000Y-108000000D03*
D21*
X137250000Y-122500000D03*
X139750000Y-122500000D03*
X134750000Y-122500000D03*
D23*
X131650000Y-115000000D03*
X142850000Y-115000000D03*
D24*
X98475000Y-119875000D03*
X98475000Y-115375000D03*
D25*
X147000000Y-130000000D03*
X147000000Y-124920000D03*
D12*
X82250000Y-124250000D03*
X83850000Y-124250000D03*
D21*
X67690000Y-135770000D03*
X67690000Y-133230000D03*
X70230000Y-135770000D03*
X70230000Y-133230000D03*
X72770000Y-135770000D03*
X72770000Y-133230000D03*
D26*
X75310000Y-135770000D03*
D21*
X75310000Y-133230000D03*
D12*
X96000000Y-132750000D03*
X96000000Y-134350000D03*
X97250000Y-132750000D03*
X97250000Y-134350000D03*
X105250000Y-138250000D03*
X105250000Y-136650000D03*
X106500000Y-138250000D03*
X106500000Y-136650000D03*
D14*
X99000000Y-136750000D03*
X99000000Y-136100000D03*
X99000000Y-135450000D03*
X99000000Y-134800000D03*
X103400000Y-134800000D03*
X103400000Y-135450000D03*
X103400000Y-136100000D03*
X103400000Y-136750000D03*
D12*
X103500000Y-138000000D03*
X101900000Y-138000000D03*
D21*
X76020000Y-124795000D03*
X76020000Y-122255000D03*
X76020000Y-119715000D03*
X76020000Y-117175000D03*
X78560000Y-117175000D03*
X78560000Y-119715000D03*
X78560000Y-122255000D03*
X78560000Y-124795000D03*
X67090000Y-102600000D03*
X69630000Y-102600000D03*
X72170000Y-102600000D03*
X74710000Y-102600000D03*
X77250000Y-102600000D03*
X79790000Y-102600000D03*
X82330000Y-102600000D03*
X84870000Y-102600000D03*
X87410000Y-102600000D03*
X89950000Y-102600000D03*
X92490000Y-102600000D03*
X95030000Y-102600000D03*
X97570000Y-102600000D03*
X100110000Y-102600000D03*
X102650000Y-102600000D03*
X105190000Y-102600000D03*
X107730000Y-102600000D03*
X110270000Y-102600000D03*
X112810000Y-102600000D03*
X115350000Y-102600000D03*
D12*
X131000000Y-109600000D03*
X131000000Y-111200000D03*
X68000000Y-125000000D03*
X68000000Y-126600000D03*
X70000000Y-125000000D03*
X70000000Y-126600000D03*
D27*
X70000000Y-122500000D03*
X72300000Y-122500000D03*
X67700000Y-122500000D03*
D28*
X70000000Y-116400000D03*
D29*
X93150000Y-114300000D03*
X94950000Y-114300000D03*
D12*
X87800000Y-110800000D03*
X87800000Y-112400000D03*
X89100000Y-110800000D03*
X89100000Y-112400000D03*
X89100000Y-107800000D03*
X89100000Y-109450000D03*
X87800000Y-107800000D03*
X87800000Y-109450000D03*
X129700000Y-109600000D03*
X129700000Y-111200000D03*
X128400000Y-109600000D03*
X128400000Y-111200000D03*
D30*
X71400000Y-109300000D03*
X72670000Y-109300000D03*
X71400000Y-108030000D03*
X72670000Y-108030000D03*
X71400000Y-106760000D03*
X72670000Y-106760000D03*
D16*
X95000000Y-136000000D03*
X95000000Y-137100000D03*
D31*
X126750000Y-125750000D03*
X119500000Y-125750000D03*
X119500000Y-128500000D03*
X126750000Y-128500000D03*
X102500000Y-123250000D03*
X113500000Y-125750000D03*
X100300000Y-122000000D03*
X146500000Y-110250000D03*
X107500000Y-138250000D03*
X99000000Y-134000000D03*
X101000000Y-138000000D03*
X70300000Y-106750000D03*
X90500000Y-110100000D03*
X88500000Y-107800000D03*
X94100000Y-111100000D03*
X73500000Y-122500000D03*
X69000000Y-126600000D03*
X79100000Y-111800000D03*
X93000000Y-123500000D03*
X144750000Y-127500000D03*
X132500000Y-125250000D03*
X134250000Y-133750000D03*
X139000000Y-129000000D03*
X141000000Y-133000000D03*
X55750000Y-111250000D03*
X53750000Y-120000000D03*
X54000000Y-131000000D03*
X94000000Y-119000000D03*
X83000000Y-125200000D03*
X100300000Y-113300000D03*
X90000000Y-128000000D03*
X87400000Y-126000000D03*
X128200000Y-125800000D03*
X128200000Y-128600000D03*
X55100000Y-108300000D03*
X52300000Y-119100000D03*
X129200000Y-128600000D03*
X129200000Y-125800000D03*
X86200000Y-126000000D03*
X89250000Y-128750000D03*
X70300000Y-108000000D03*
X82600000Y-110400000D03*
X82600000Y-114400000D03*
X84400000Y-115600000D03*
X87400000Y-116200000D03*
X89400000Y-117200000D03*
X65600000Y-128100000D03*
X65600000Y-130000000D03*
X51400000Y-131400000D03*
X91250000Y-125000000D03*
X118000000Y-125750000D03*
X118000000Y-128500000D03*
X88750000Y-121500000D03*
X91250000Y-123750000D03*
X88000000Y-120750000D03*
X117000000Y-125750000D03*
X117000000Y-128500000D03*
X116000000Y-125750000D03*
X116000000Y-128500000D03*
X88750000Y-120000000D03*
X91500000Y-122750000D03*
X115000000Y-128500000D03*
X115000000Y-125750000D03*
X88000000Y-119250000D03*
X93250000Y-125250000D03*
X79950000Y-123800000D03*
X73600000Y-110500000D03*
X74850000Y-111750000D03*
X86500000Y-127750000D03*
X86500000Y-129750000D03*
X85250000Y-127750000D03*
X85250000Y-129750000D03*
X81200000Y-121750000D03*
X80700000Y-124500000D03*
D32*
X100500000Y-128750000D02*
X103250000Y-131500000D01*
X103250000Y-131500000D02*
X111250000Y-131500000D01*
X111250000Y-131500000D02*
X112200000Y-132450000D01*
X112200000Y-136250000D02*
X112200000Y-132450000D01*
X94000000Y-128750000D02*
X93000000Y-127750000D01*
X93000000Y-127750000D02*
X91000000Y-127750000D01*
X91000000Y-127750000D02*
X90250000Y-127000000D01*
X90250000Y-127000000D02*
X90250000Y-124500000D01*
X94500000Y-128750000D02*
X100500000Y-128750000D01*
X88400000Y-116800000D02*
X88400000Y-118150000D01*
X88400000Y-116800000D02*
X89200000Y-116000000D01*
X89750000Y-121500000D02*
X90250000Y-122000000D01*
X89750000Y-119500000D02*
X89750000Y-121500000D01*
X88400000Y-118150000D02*
X89750000Y-119500000D01*
X90250000Y-122000000D02*
X90250000Y-124500000D01*
X94500000Y-128750000D02*
X94000000Y-128750000D01*
D33*
X90975000Y-115675000D02*
X89525000Y-115675000D01*
X89525000Y-115675000D02*
X89200000Y-116000000D01*
D32*
X89200000Y-116000000D02*
X89400000Y-115800000D01*
X119500000Y-125750000D02*
X126750000Y-125750000D01*
X126750000Y-128500000D02*
X119500000Y-128500000D01*
X102500000Y-123250000D02*
X105000000Y-125750000D01*
X105000000Y-125750000D02*
X113500000Y-125750000D01*
D33*
X99350000Y-122000000D02*
X100300000Y-122000000D01*
X106500000Y-138250000D02*
X107500000Y-138250000D01*
X97250000Y-132750000D02*
X98500000Y-132750000D01*
X99000000Y-134000000D02*
X99000000Y-134800000D01*
X99000000Y-133250000D02*
X99000000Y-134000000D01*
X98500000Y-132750000D02*
X99000000Y-133250000D01*
X101900000Y-138000000D02*
X101000000Y-138000000D01*
X82475000Y-116175000D02*
X81719052Y-116175000D01*
X79900000Y-114355948D02*
X79900000Y-113000000D01*
X81719052Y-116175000D02*
X79900000Y-114355948D01*
X71400000Y-106760000D02*
X70310000Y-106760000D01*
X70310000Y-106760000D02*
X70300000Y-106750000D01*
X90500000Y-111100000D02*
X90500000Y-110100000D01*
X94700000Y-111100000D02*
X94100000Y-111100000D01*
X94100000Y-111100000D02*
X93400000Y-111100000D01*
X87800000Y-107800000D02*
X88500000Y-107800000D01*
X88500000Y-107800000D02*
X89100000Y-107800000D01*
X90500000Y-111100000D02*
X90500000Y-112700000D01*
X88975000Y-114175000D02*
X88975000Y-113425000D01*
X90000000Y-113200000D02*
X90500000Y-112700000D01*
X89200000Y-113200000D02*
X90000000Y-113200000D01*
X88975000Y-113425000D02*
X89200000Y-113200000D01*
D32*
X72300000Y-122500000D02*
X73500000Y-122500000D01*
X68000000Y-126600000D02*
X69000000Y-126600000D01*
X69000000Y-126600000D02*
X70000000Y-126600000D01*
X115350000Y-102600000D02*
X115350000Y-103800000D01*
X115350000Y-103800000D02*
X112200000Y-106950000D01*
D33*
X79900000Y-111800000D02*
X79100000Y-111800000D01*
D32*
X79900000Y-111800000D02*
X79900000Y-113000000D01*
X78460000Y-109840000D02*
X78460000Y-110060000D01*
X79300000Y-110200000D02*
X79730000Y-109770000D01*
X78600000Y-110200000D02*
X79300000Y-110200000D01*
X78460000Y-110060000D02*
X78600000Y-110200000D01*
X79730000Y-109770000D02*
X79730000Y-109270000D01*
X75920000Y-109270000D02*
X75920000Y-109520000D01*
X75920000Y-109520000D02*
X76600000Y-110200000D01*
X78460000Y-109840000D02*
X78460000Y-109270000D01*
X78100000Y-110200000D02*
X78460000Y-109840000D01*
X76600000Y-110200000D02*
X78100000Y-110200000D01*
D33*
X93500000Y-123850000D02*
X93350000Y-123850000D01*
X93350000Y-123850000D02*
X93000000Y-123500000D01*
D32*
X144750000Y-126000000D02*
X144750000Y-127500000D01*
X144750000Y-127500000D02*
X144750000Y-128900000D01*
X133500000Y-125300000D02*
X132550000Y-125300000D01*
D33*
X132550000Y-125300000D02*
X132500000Y-125250000D01*
D32*
X134250000Y-132500000D02*
X134250000Y-133750000D01*
D33*
X133950000Y-132500000D02*
X134250000Y-132500000D01*
X134250000Y-132500000D02*
X134600000Y-132500000D01*
X137750000Y-128150000D02*
X138150000Y-128150000D01*
D32*
X138150000Y-128150000D02*
X139000000Y-129000000D01*
X139000000Y-129000000D02*
X140000000Y-130000000D01*
D33*
X142000000Y-133000000D02*
X141000000Y-133000000D01*
D34*
X74450000Y-109400000D02*
X75790000Y-109400000D01*
X75790000Y-109400000D02*
X75920000Y-109270000D01*
D33*
X54025000Y-120875000D02*
X54025000Y-122075000D01*
X54025000Y-122425000D02*
X54025000Y-122075000D01*
X54175000Y-122575000D02*
X54025000Y-122425000D01*
X54175000Y-123875000D02*
X54175000Y-122575000D01*
D32*
X133500000Y-125300000D02*
X133500000Y-126500000D01*
X137250000Y-120650000D02*
X137850000Y-120650000D01*
X136650000Y-120650000D02*
X137250000Y-120650000D01*
X137250000Y-120650000D02*
X137250000Y-122500000D01*
D33*
X55700000Y-111200000D02*
X55750000Y-111250000D01*
X54200000Y-111200000D02*
X55700000Y-111200000D01*
X54025000Y-120275000D02*
X53750000Y-120000000D01*
X54025000Y-120875000D02*
X54025000Y-120275000D01*
X54025000Y-130975000D02*
X54000000Y-131000000D01*
X54025000Y-130075000D02*
X54025000Y-130975000D01*
X87475000Y-114175000D02*
X87475000Y-114975000D01*
X88975000Y-115025000D02*
X88975000Y-114175000D01*
X88750000Y-115250000D02*
X88975000Y-115025000D01*
X87750000Y-115250000D02*
X88750000Y-115250000D01*
X87475000Y-114975000D02*
X87750000Y-115250000D01*
D34*
X94000000Y-119400000D02*
X94000000Y-119000000D01*
D33*
X93500000Y-119400000D02*
X94000000Y-119400000D01*
D32*
X94000000Y-119400000D02*
X94750000Y-119400000D01*
D33*
X93275000Y-119175000D02*
X93500000Y-119400000D01*
X90975000Y-119175000D02*
X93275000Y-119175000D01*
X84475000Y-123625000D02*
X83850000Y-124250000D01*
X84475000Y-122675000D02*
X84475000Y-123625000D01*
X83850000Y-124350000D02*
X83000000Y-125200000D01*
X83850000Y-124250000D02*
X83850000Y-124350000D01*
X100250000Y-113250000D02*
X100300000Y-113300000D01*
X99350000Y-113250000D02*
X100250000Y-113250000D01*
D32*
X67090000Y-104440000D02*
X67650000Y-105000000D01*
X67090000Y-102600000D02*
X67090000Y-104440000D01*
D33*
X125800000Y-138200000D02*
X110450000Y-138200000D01*
X93650000Y-129400000D02*
X92750000Y-128500000D01*
X92750000Y-128500000D02*
X90500000Y-128500000D01*
X90500000Y-128500000D02*
X90000000Y-128000000D01*
X128600000Y-129200000D02*
X128600000Y-129000000D01*
X94000000Y-129400000D02*
X100000000Y-129400000D01*
X100000000Y-129400000D02*
X101600000Y-131000000D01*
X125800000Y-138200000D02*
X128600000Y-135400000D01*
X128600000Y-135400000D02*
X128600000Y-129200000D01*
X87975000Y-122675000D02*
X87975000Y-125425000D01*
X87975000Y-125425000D02*
X87400000Y-126000000D01*
X131300000Y-122500000D02*
X134750000Y-122500000D01*
X128200000Y-125600000D02*
X131300000Y-122500000D01*
X128200000Y-125800000D02*
X128200000Y-125600000D01*
X128600000Y-129000000D02*
X128200000Y-128600000D01*
X94000000Y-129400000D02*
X93650000Y-129400000D01*
X102850000Y-132250000D02*
X101600000Y-131000000D01*
X104500000Y-132250000D02*
X102850000Y-132250000D01*
X110450000Y-138200000D02*
X104500000Y-132250000D01*
D32*
X135050000Y-119200000D02*
X135050000Y-120650000D01*
D33*
X135050000Y-122200000D02*
X134750000Y-122500000D01*
D32*
X135050000Y-120650000D02*
X135050000Y-122200000D01*
D33*
X82475000Y-115675000D02*
X81883736Y-115675000D01*
X81883736Y-115675000D02*
X81500000Y-115291264D01*
X81500000Y-115291264D02*
X81500000Y-113000000D01*
D32*
X71400000Y-109300000D02*
X70950000Y-109300000D01*
X70250000Y-110000000D02*
X70250000Y-111700000D01*
X70950000Y-109300000D02*
X70250000Y-110000000D01*
X79600000Y-110900000D02*
X74500000Y-110900000D01*
X80300000Y-110200000D02*
X79600000Y-110900000D01*
X61500000Y-111700000D02*
X58100000Y-108300000D01*
X73700000Y-111700000D02*
X70250000Y-111700000D01*
X70250000Y-111700000D02*
X61500000Y-111700000D01*
X74500000Y-110900000D02*
X73700000Y-111700000D01*
X69630000Y-102600000D02*
X69630000Y-100750000D01*
X69650000Y-100900000D02*
X69650000Y-100750000D01*
X69650000Y-100770000D02*
X69650000Y-100900000D01*
X69630000Y-100750000D02*
X69650000Y-100770000D01*
X55100000Y-108300000D02*
X58100000Y-108300000D01*
X52300000Y-119100000D02*
X52425000Y-119225000D01*
X52425000Y-119225000D02*
X52425000Y-120875000D01*
X58100000Y-108300000D02*
X58200000Y-108300000D01*
X65750000Y-100750000D02*
X69650000Y-100750000D01*
X64500000Y-102000000D02*
X65750000Y-100750000D01*
X58200000Y-108300000D02*
X64500000Y-102000000D01*
X116750000Y-100750000D02*
X117500000Y-101500000D01*
X117500000Y-104750000D02*
X117500000Y-101500000D01*
X69650000Y-100750000D02*
X116750000Y-100750000D01*
X100900000Y-109500000D02*
X92900000Y-109500000D01*
X92100000Y-110300000D02*
X92100000Y-111100000D01*
X92900000Y-109500000D02*
X92100000Y-110300000D01*
D33*
X92100000Y-112700000D02*
X92100000Y-111100000D01*
X89475000Y-114175000D02*
X91325000Y-114175000D01*
X92100000Y-113400000D02*
X92100000Y-112700000D01*
X91325000Y-114175000D02*
X92100000Y-113400000D01*
D32*
X102200000Y-109500000D02*
X102100000Y-109500000D01*
X102100000Y-109500000D02*
X101500000Y-110100000D01*
X100900000Y-109500000D02*
X101500000Y-110100000D01*
X101500000Y-110100000D02*
X101500000Y-110000000D01*
X101500000Y-109500000D02*
X100900000Y-109500000D01*
X53525000Y-123875000D02*
X53525000Y-125900000D01*
X53500000Y-125800000D02*
X53500000Y-125900000D01*
X53500000Y-125875000D02*
X53500000Y-125800000D01*
X53525000Y-125900000D02*
X53500000Y-125875000D01*
X52225000Y-123875000D02*
X52225000Y-125525000D01*
X52575000Y-125875000D02*
X52875000Y-125875000D01*
X52225000Y-125525000D02*
X52575000Y-125875000D01*
X55000000Y-128200000D02*
X55000000Y-126300000D01*
X55000000Y-126300000D02*
X54600000Y-125900000D01*
X54600000Y-125900000D02*
X53500000Y-125900000D01*
X55000000Y-128200000D02*
X55900000Y-129100000D01*
X57200000Y-129100000D02*
X55900000Y-129100000D01*
X53500000Y-125900000D02*
X52900000Y-125900000D01*
X52900000Y-125900000D02*
X52875000Y-125875000D01*
X52875000Y-125875000D02*
X52875000Y-123875000D01*
D33*
X82475000Y-115675000D02*
X82275000Y-115675000D01*
D32*
X81000000Y-109270000D02*
X81000000Y-109500000D01*
X81000000Y-109500000D02*
X80300000Y-110200000D01*
X82000000Y-124600000D02*
X82000000Y-126300000D01*
X82000000Y-126300000D02*
X79500000Y-128800000D01*
X76600000Y-129100000D02*
X57200000Y-129100000D01*
X57200000Y-130100000D02*
X57200000Y-129100000D01*
X57200000Y-129100000D02*
X57200000Y-129300000D01*
X57200000Y-129300000D02*
X57200000Y-129100000D01*
X82250000Y-124250000D02*
X82250000Y-124350000D01*
X82250000Y-124350000D02*
X82000000Y-124600000D01*
X96000000Y-122500000D02*
X96000000Y-121500000D01*
X96000000Y-121500000D02*
X95500000Y-121000000D01*
X95500000Y-121000000D02*
X94750000Y-121000000D01*
X101500000Y-110000000D02*
X101500000Y-123000000D01*
X97000000Y-123500000D02*
X96000000Y-122500000D01*
X101000000Y-123500000D02*
X97000000Y-123500000D01*
X101500000Y-123000000D02*
X101000000Y-123500000D01*
X101500000Y-109500000D02*
X101500000Y-110000000D01*
X141250000Y-108000000D02*
X141250000Y-107500000D01*
X141250000Y-107500000D02*
X138500000Y-104750000D01*
X138500000Y-104750000D02*
X117500000Y-104750000D01*
X135100000Y-125300000D02*
X139950000Y-125300000D01*
X140250000Y-117250000D02*
X137250000Y-117250000D01*
X141750000Y-118750000D02*
X140250000Y-117250000D01*
X141750000Y-123500000D02*
X141750000Y-118750000D01*
X139950000Y-125300000D02*
X141750000Y-123500000D01*
X137250000Y-119200000D02*
X137250000Y-117250000D01*
X137250000Y-117250000D02*
X137250000Y-114000000D01*
X141250000Y-110000000D02*
X141250000Y-108000000D01*
X137250000Y-114000000D02*
X141250000Y-110000000D01*
D33*
X52225000Y-122275000D02*
X52425000Y-122075000D01*
D32*
X52225000Y-123875000D02*
X52225000Y-122275000D01*
D33*
X52875000Y-122525000D02*
X52425000Y-122075000D01*
D32*
X52875000Y-123875000D02*
X52875000Y-122525000D01*
X53525000Y-123175000D02*
X52425000Y-122075000D01*
X53525000Y-123875000D02*
X53525000Y-123175000D01*
X52425000Y-122075000D02*
X52425000Y-120875000D01*
X135100000Y-125300000D02*
X135100000Y-126500000D01*
D33*
X134600000Y-127000000D02*
X135100000Y-126500000D01*
X134600000Y-128100000D02*
X134600000Y-127000000D01*
D32*
X137850000Y-119200000D02*
X137250000Y-119200000D01*
X137250000Y-119200000D02*
X136650000Y-119200000D01*
D33*
X92175000Y-119675000D02*
X93500000Y-121000000D01*
X90975000Y-119675000D02*
X92175000Y-119675000D01*
D32*
X93500000Y-121000000D02*
X94750000Y-121000000D01*
D33*
X82250000Y-123250000D02*
X82250000Y-124250000D01*
X82825000Y-122675000D02*
X82250000Y-123250000D01*
X83975000Y-122675000D02*
X82825000Y-122675000D01*
D32*
X117500000Y-104750000D02*
X117500000Y-107750000D01*
X117500000Y-107750000D02*
X115750000Y-109500000D01*
X115750000Y-109500000D02*
X102200000Y-109500000D01*
X102200000Y-109500000D02*
X101500000Y-109500000D01*
D34*
X94750000Y-121000000D02*
X94775000Y-121000000D01*
D32*
X81500000Y-111400000D02*
X80300000Y-110200000D01*
X81500000Y-111800000D02*
X81500000Y-111400000D01*
X81500000Y-111800000D02*
X81500000Y-113000000D01*
D33*
X82475000Y-115675000D02*
X82225000Y-115675000D01*
D32*
X69630000Y-104620000D02*
X69250000Y-105000000D01*
X69630000Y-102600000D02*
X69630000Y-104620000D01*
X76600000Y-129100000D02*
X78600000Y-129100000D01*
X79200000Y-129100000D02*
X79500000Y-128800000D01*
X78600000Y-129100000D02*
X79200000Y-129100000D01*
D33*
X126200000Y-138800000D02*
X110300000Y-138800000D01*
X93600000Y-130000000D02*
X93500000Y-130000000D01*
X129200000Y-125800000D02*
X130800000Y-124200000D01*
X130800000Y-124200000D02*
X138050000Y-124200000D01*
X139750000Y-122500000D02*
X138050000Y-124200000D01*
X87475000Y-124725000D02*
X86200000Y-126000000D01*
X87475000Y-124725000D02*
X87475000Y-122675000D01*
X129200000Y-135800000D02*
X129200000Y-129000000D01*
X126200000Y-138800000D02*
X129200000Y-135800000D01*
X99800000Y-130000000D02*
X101000000Y-131200000D01*
X93600000Y-130000000D02*
X99800000Y-130000000D01*
X129200000Y-129000000D02*
X129200000Y-128600000D01*
X89500000Y-129000000D02*
X89250000Y-128750000D01*
X92500000Y-129000000D02*
X89500000Y-129000000D01*
X93500000Y-130000000D02*
X92500000Y-129000000D01*
X102550000Y-132750000D02*
X101000000Y-131200000D01*
X104250000Y-132750000D02*
X102550000Y-132750000D01*
X110300000Y-138800000D02*
X104250000Y-132750000D01*
X139750000Y-122500000D02*
X139750000Y-122750000D01*
D32*
X139450000Y-119200000D02*
X139450000Y-120650000D01*
D33*
X139450000Y-122200000D02*
X139750000Y-122500000D01*
D32*
X139450000Y-120650000D02*
X139450000Y-122200000D01*
D33*
X70330000Y-108030000D02*
X71400000Y-108030000D01*
X70300000Y-108000000D02*
X70330000Y-108030000D01*
X90975000Y-118675000D02*
X89875000Y-118675000D01*
X82600000Y-114400000D02*
X82600000Y-110400000D01*
X86800000Y-115600000D02*
X84400000Y-115600000D01*
X87400000Y-116200000D02*
X86800000Y-115600000D01*
X89400000Y-118200000D02*
X89400000Y-117200000D01*
X89875000Y-118675000D02*
X89400000Y-118200000D01*
D34*
X75920000Y-108000000D02*
X74650000Y-108000000D01*
X74650000Y-108000000D02*
X74450000Y-107800000D01*
D33*
X94950000Y-114300000D02*
X94950000Y-112950000D01*
X94950000Y-112950000D02*
X94700000Y-112700000D01*
X90975000Y-117175000D02*
X92425000Y-117175000D01*
X92425000Y-117175000D02*
X94950000Y-114650000D01*
X94950000Y-114650000D02*
X94950000Y-114300000D01*
D32*
X94750000Y-122250000D02*
X93500000Y-122250000D01*
D33*
X91925000Y-120175000D02*
X92500000Y-120750000D01*
X92500000Y-120750000D02*
X92500000Y-122000000D01*
X92500000Y-122000000D02*
X92750000Y-122250000D01*
X92750000Y-122250000D02*
X93500000Y-122250000D01*
X90975000Y-120175000D02*
X91925000Y-120175000D01*
X103500000Y-138000000D02*
X103500000Y-138250000D01*
X103500000Y-138250000D02*
X102750000Y-139000000D01*
X65250000Y-135670000D02*
X67690000Y-133230000D01*
X65250000Y-137500000D02*
X65250000Y-135670000D01*
X66750000Y-139000000D02*
X65250000Y-137500000D01*
X102750000Y-139000000D02*
X66750000Y-139000000D01*
X103400000Y-136750000D02*
X103400000Y-137900000D01*
X103400000Y-137900000D02*
X103500000Y-138000000D01*
X67690000Y-133230000D02*
X67520000Y-133230000D01*
D32*
X67550000Y-125450000D02*
X67550000Y-124850000D01*
X67550000Y-124850000D02*
X67700000Y-124700000D01*
X67700000Y-124700000D02*
X68000000Y-125000000D01*
X64700000Y-130250000D02*
X65350000Y-130250000D01*
X67100000Y-125900000D02*
X67550000Y-125450000D01*
X67550000Y-125450000D02*
X68000000Y-125000000D01*
X67100000Y-127900000D02*
X67100000Y-125900000D01*
X66900000Y-128100000D02*
X67100000Y-127900000D01*
X65600000Y-128100000D02*
X66900000Y-128100000D01*
X65350000Y-130250000D02*
X65600000Y-130000000D01*
X67700000Y-122500000D02*
X67700000Y-124700000D01*
X67700000Y-124700000D02*
X68000000Y-125000000D01*
X65660000Y-131200000D02*
X65660000Y-131160000D01*
X56000000Y-132000000D02*
X53200000Y-132000000D01*
X53200000Y-132000000D02*
X52425000Y-131225000D01*
X52425000Y-130075000D02*
X52425000Y-131225000D01*
X65660000Y-131200000D02*
X67690000Y-133230000D01*
X57500000Y-132000000D02*
X56000000Y-132000000D01*
X59250000Y-130250000D02*
X57500000Y-132000000D01*
X64750000Y-130250000D02*
X64700000Y-130250000D01*
X64700000Y-130250000D02*
X59250000Y-130250000D01*
X65660000Y-131160000D02*
X64750000Y-130250000D01*
D33*
X52225000Y-129875000D02*
X52425000Y-130075000D01*
D32*
X52225000Y-128275000D02*
X52225000Y-129875000D01*
D33*
X52875000Y-129625000D02*
X52425000Y-130075000D01*
D32*
X52875000Y-128275000D02*
X52875000Y-129625000D01*
X53525000Y-128975000D02*
X52425000Y-130075000D01*
X53525000Y-128275000D02*
X53525000Y-128975000D01*
X51400000Y-119400000D02*
X51400000Y-118600000D01*
X51400000Y-131400000D02*
X51400000Y-125600000D01*
X51400000Y-119400000D02*
X51400000Y-125600000D01*
X51800000Y-118200000D02*
X52500000Y-118200000D01*
X52500000Y-118200000D02*
X52600000Y-118200000D01*
X51400000Y-118600000D02*
X51800000Y-118200000D01*
D33*
X54200000Y-113800000D02*
X54750000Y-113800000D01*
D32*
X54750000Y-117500000D02*
X54750000Y-114300000D01*
X54050000Y-118200000D02*
X54750000Y-117500000D01*
X52500000Y-118200000D02*
X54050000Y-118200000D01*
X54750000Y-113850000D02*
X54750000Y-114300000D01*
X54800000Y-113800000D02*
X54750000Y-113850000D01*
X54200000Y-113800000D02*
X54800000Y-113800000D01*
D33*
X82475000Y-117675000D02*
X81225000Y-117675000D01*
X76700000Y-113150000D02*
X54200000Y-113150000D01*
X81225000Y-117675000D02*
X76700000Y-113150000D01*
X54200000Y-112500000D02*
X76714684Y-112500000D01*
X81389684Y-117175000D02*
X82475000Y-117175000D01*
X76714684Y-112500000D02*
X81389684Y-117175000D01*
X144770000Y-124920000D02*
X144750000Y-124900000D01*
D32*
X147000000Y-124920000D02*
X144770000Y-124920000D01*
D33*
X143750000Y-124900000D02*
X143500000Y-125150000D01*
D32*
X144750000Y-124900000D02*
X143750000Y-124900000D01*
X147000000Y-130000000D02*
X144750000Y-130000000D01*
X144750000Y-130000000D02*
X143600000Y-130000000D01*
D33*
X103400000Y-135450000D02*
X105200000Y-135450000D01*
X105750000Y-136000000D02*
X105750000Y-136650000D01*
X105200000Y-135450000D02*
X105750000Y-136000000D01*
X105250000Y-136650000D02*
X105750000Y-136650000D01*
X105750000Y-136650000D02*
X106500000Y-136650000D01*
X89475000Y-123225000D02*
X89475000Y-122675000D01*
X74000000Y-137750000D02*
X77000000Y-137750000D01*
X77000000Y-137750000D02*
X77800000Y-136950000D01*
X77800000Y-136950000D02*
X77800000Y-133950000D01*
X77800000Y-133950000D02*
X83000000Y-128750000D01*
X83000000Y-128750000D02*
X88000000Y-128750000D01*
X88000000Y-128750000D02*
X89475000Y-127275000D01*
X89475000Y-127275000D02*
X89475000Y-122675000D01*
X72770000Y-136520000D02*
X74000000Y-137750000D01*
X72770000Y-135770000D02*
X72770000Y-136520000D01*
X137250000Y-108000000D02*
X137250000Y-110750000D01*
X103500000Y-130750000D02*
X116750000Y-130750000D01*
X116750000Y-130750000D02*
X118000000Y-129500000D01*
X118000000Y-129500000D02*
X118000000Y-128500000D01*
X91250000Y-125000000D02*
X91250000Y-126500000D01*
X94250000Y-128000000D02*
X100000000Y-128000000D01*
X93250000Y-127000000D02*
X94250000Y-128000000D01*
X91750000Y-127000000D02*
X93250000Y-127000000D01*
X91250000Y-126500000D02*
X91750000Y-127000000D01*
X100000000Y-128000000D02*
X100750000Y-128000000D01*
X118000000Y-125250000D02*
X118000000Y-125750000D01*
X124500000Y-118750000D02*
X118000000Y-125250000D01*
X100750000Y-128000000D02*
X103500000Y-130750000D01*
X130700000Y-112550000D02*
X124500000Y-118750000D01*
X135450000Y-112550000D02*
X130700000Y-112550000D01*
X137250000Y-110750000D02*
X135450000Y-112550000D01*
X87375000Y-121175000D02*
X87700000Y-121500000D01*
X87700000Y-121500000D02*
X88750000Y-121500000D01*
X82475000Y-121175000D02*
X87375000Y-121175000D01*
X84475000Y-107975000D02*
X81750000Y-105250000D01*
X81750000Y-105250000D02*
X77360000Y-105250000D01*
X77360000Y-105250000D02*
X74710000Y-102600000D01*
X84475000Y-114175000D02*
X84475000Y-107975000D01*
X123500000Y-118750000D02*
X130350000Y-111900000D01*
X92000000Y-126000000D02*
X92500000Y-126500000D01*
X92500000Y-126500000D02*
X93500000Y-126500000D01*
X93500000Y-126500000D02*
X94500000Y-127500000D01*
X91250000Y-123750000D02*
X92000000Y-124500000D01*
X92000000Y-124500000D02*
X92000000Y-126000000D01*
X87925000Y-120675000D02*
X88000000Y-120750000D01*
X82475000Y-120675000D02*
X87925000Y-120675000D01*
X94500000Y-127500000D02*
X97000000Y-127500000D01*
X103500000Y-130000000D02*
X116250000Y-130000000D01*
X116250000Y-130000000D02*
X117000000Y-129250000D01*
X117000000Y-129250000D02*
X117000000Y-128500000D01*
X97000000Y-127500000D02*
X101000000Y-127500000D01*
X117000000Y-125250000D02*
X117000000Y-125750000D01*
X123500000Y-118750000D02*
X117000000Y-125250000D01*
X101000000Y-127500000D02*
X103500000Y-130000000D01*
X130700000Y-111900000D02*
X131000000Y-111600000D01*
X130350000Y-111900000D02*
X130700000Y-111900000D01*
X131000000Y-111600000D02*
X131000000Y-111200000D01*
X122500000Y-118750000D02*
X129550000Y-111700000D01*
X103500000Y-129250000D02*
X115500000Y-129250000D01*
X115500000Y-129250000D02*
X116000000Y-128750000D01*
X116000000Y-128750000D02*
X116000000Y-128500000D01*
X116000000Y-125250000D02*
X116000000Y-125750000D01*
X122500000Y-118750000D02*
X116000000Y-125250000D01*
X101250000Y-127000000D02*
X103500000Y-129250000D01*
X96250000Y-127000000D02*
X101250000Y-127000000D01*
X94750000Y-127000000D02*
X96250000Y-127000000D01*
X82475000Y-120175000D02*
X87325000Y-120175000D01*
X87500000Y-120000000D02*
X88750000Y-120000000D01*
X87325000Y-120175000D02*
X87500000Y-120000000D01*
X93750000Y-126000000D02*
X94750000Y-127000000D01*
X92750000Y-126000000D02*
X93750000Y-126000000D01*
X92500000Y-125750000D02*
X92750000Y-126000000D01*
X92500000Y-124335316D02*
X92500000Y-125750000D01*
X92000000Y-123835316D02*
X92500000Y-124335316D01*
X91500000Y-122750000D02*
X92000000Y-123250000D01*
X92000000Y-123250000D02*
X92000000Y-123835316D01*
X129550000Y-111700000D02*
X129550000Y-111350000D01*
X129550000Y-111350000D02*
X129700000Y-111200000D01*
X121500000Y-118750000D02*
X128200000Y-112050000D01*
X103500000Y-128500000D02*
X101500000Y-126500000D01*
X121500000Y-118750000D02*
X116000000Y-124250000D01*
X115000000Y-125250000D02*
X115000000Y-125750000D01*
X116000000Y-124250000D02*
X115000000Y-125250000D01*
X115000000Y-128500000D02*
X103500000Y-128500000D01*
X82475000Y-119675000D02*
X86825000Y-119675000D01*
X87250000Y-119250000D02*
X88000000Y-119250000D01*
X86825000Y-119675000D02*
X87250000Y-119250000D01*
X95500000Y-126500000D02*
X96250000Y-126500000D01*
X94250000Y-125250000D02*
X95500000Y-126500000D01*
X93250000Y-125250000D02*
X94250000Y-125250000D01*
X96250000Y-126500000D02*
X101500000Y-126500000D01*
X128200000Y-112050000D02*
X128200000Y-111400000D01*
X128200000Y-111400000D02*
X128400000Y-111200000D01*
X82475000Y-118675000D02*
X80925000Y-118675000D01*
X79950000Y-119650000D02*
X79950000Y-123800000D01*
X80925000Y-118675000D02*
X79950000Y-119650000D01*
X82475000Y-118175000D02*
X79560000Y-118175000D01*
X79560000Y-118175000D02*
X78560000Y-117175000D01*
X82475000Y-116675000D02*
X81554368Y-116675000D01*
X73600000Y-110500000D02*
X72670000Y-109570000D01*
X76629368Y-111750000D02*
X74850000Y-111750000D01*
X81554368Y-116675000D02*
X76629368Y-111750000D01*
X72670000Y-109570000D02*
X72670000Y-109300000D01*
X72670000Y-109570000D02*
X72670000Y-109300000D01*
X81500000Y-108000000D02*
X81000000Y-108000000D01*
X83325000Y-116675000D02*
X83500000Y-116500000D01*
X83500000Y-116500000D02*
X83500000Y-110000000D01*
X83500000Y-110000000D02*
X81500000Y-108000000D01*
X82475000Y-116675000D02*
X83325000Y-116675000D01*
X79700000Y-106750000D02*
X79700000Y-107970000D01*
X79700000Y-107970000D02*
X79730000Y-108000000D01*
X80500000Y-106750000D02*
X79700000Y-106750000D01*
X79700000Y-106750000D02*
X79650000Y-106750000D01*
X79650000Y-106750000D02*
X73950000Y-106750000D01*
X73400000Y-107300000D02*
X72670000Y-108030000D01*
X73950000Y-106750000D02*
X73400000Y-107300000D01*
X83975000Y-108975000D02*
X81750000Y-106750000D01*
X81750000Y-106750000D02*
X80500000Y-106750000D01*
X83975000Y-114175000D02*
X83975000Y-108975000D01*
X85975000Y-123610316D02*
X78835316Y-130750000D01*
X78835316Y-130750000D02*
X72710000Y-130750000D01*
X72710000Y-130750000D02*
X70230000Y-133230000D01*
X85975000Y-122675000D02*
X85975000Y-123610316D01*
X86475000Y-114175000D02*
X86475000Y-106325000D01*
X100950000Y-104300000D02*
X102650000Y-102600000D01*
X88500000Y-104300000D02*
X100950000Y-104300000D01*
X86475000Y-106325000D02*
X88500000Y-104300000D01*
X86975000Y-114175000D02*
X86975000Y-106925000D01*
X102790000Y-105000000D02*
X105190000Y-102600000D01*
X88900000Y-105000000D02*
X102790000Y-105000000D01*
X86975000Y-106925000D02*
X88900000Y-105000000D01*
X86975000Y-124025000D02*
X77770000Y-133230000D01*
X77770000Y-133230000D02*
X75310000Y-133230000D01*
X86975000Y-122675000D02*
X86975000Y-124025000D01*
X86475000Y-123775000D02*
X78750000Y-131500000D01*
X78750000Y-131500000D02*
X74500000Y-131500000D01*
X74500000Y-131500000D02*
X72770000Y-133230000D01*
X86475000Y-122675000D02*
X86475000Y-123775000D01*
X84975000Y-105245000D02*
X82330000Y-102600000D01*
X84975000Y-114175000D02*
X84975000Y-105245000D01*
X85975000Y-103705000D02*
X84870000Y-102600000D01*
X85975000Y-114175000D02*
X85975000Y-103705000D01*
X99000000Y-136100000D02*
X97350000Y-136100000D01*
X96500000Y-135250000D02*
X96500000Y-134350000D01*
X97350000Y-136100000D02*
X96500000Y-135250000D01*
X96000000Y-134350000D02*
X96500000Y-134350000D01*
X96500000Y-134350000D02*
X97250000Y-134350000D01*
X93150000Y-114300000D02*
X93150000Y-112950000D01*
X93150000Y-112950000D02*
X93400000Y-112700000D01*
X90975000Y-116675000D02*
X91925000Y-116675000D01*
X93150000Y-115450000D02*
X93150000Y-114300000D01*
X91925000Y-116675000D02*
X93150000Y-115450000D01*
X90975000Y-117675000D02*
X92825000Y-117675000D01*
X94000000Y-116500000D02*
X97550000Y-116500000D01*
X92825000Y-117675000D02*
X94000000Y-116500000D01*
X97550000Y-116500000D02*
X98475000Y-115575000D01*
X97425000Y-115575000D02*
X98475000Y-115575000D01*
X97750000Y-114850000D02*
X98475000Y-115575000D01*
X97750000Y-113250000D02*
X97750000Y-114850000D01*
X95750000Y-117750000D02*
X95750000Y-118500000D01*
X96925000Y-119675000D02*
X98475000Y-119675000D01*
X95750000Y-118500000D02*
X96925000Y-119675000D01*
X97750000Y-120400000D02*
X98475000Y-119675000D01*
X97750000Y-122000000D02*
X97750000Y-120400000D01*
X55600000Y-130100000D02*
X55500000Y-130100000D01*
X55500000Y-130100000D02*
X54175000Y-128775000D01*
X54175000Y-128775000D02*
X54175000Y-128275000D01*
X143500000Y-126750000D02*
X142000000Y-126750000D01*
X140150000Y-126750000D02*
X140000000Y-126900000D01*
X142000000Y-126750000D02*
X140150000Y-126750000D01*
D32*
X136350000Y-126900000D02*
X140000000Y-126900000D01*
X135250000Y-128000000D02*
X136350000Y-126900000D01*
D33*
X135250000Y-128100000D02*
X135250000Y-128000000D01*
D32*
X142000000Y-130000000D02*
X142000000Y-131400000D01*
D33*
X137900000Y-131400000D02*
X137750000Y-131250000D01*
D32*
X142000000Y-131400000D02*
X137900000Y-131400000D01*
X142000000Y-128350000D02*
X142000000Y-130000000D01*
X136500000Y-132500000D02*
X137750000Y-131250000D01*
X135250000Y-132500000D02*
X136500000Y-132500000D01*
D33*
X90975000Y-118175000D02*
X93725000Y-118175000D01*
X93725000Y-118175000D02*
X94150000Y-117750000D01*
X102250000Y-133250000D02*
X103000000Y-133250000D01*
X86500000Y-129750000D02*
X92500000Y-129750000D01*
X88975000Y-126525000D02*
X87750000Y-127750000D01*
X87750000Y-127750000D02*
X86500000Y-127750000D01*
X88975000Y-122675000D02*
X88975000Y-126525000D01*
X99500000Y-130500000D02*
X100800000Y-131800000D01*
X93250000Y-130500000D02*
X99500000Y-130500000D01*
X92500000Y-129750000D02*
X93250000Y-130500000D01*
X100800000Y-131800000D02*
X102250000Y-133250000D01*
X103400000Y-133650000D02*
X103400000Y-134800000D01*
X103000000Y-133250000D02*
X103400000Y-133650000D01*
X100800000Y-132550000D02*
X100800000Y-134700000D01*
X100800000Y-132550000D02*
X100250000Y-132000000D01*
X85250000Y-129750000D02*
X85250000Y-130000000D01*
X88475000Y-126025000D02*
X87500000Y-127000000D01*
X87500000Y-127000000D02*
X86000000Y-127000000D01*
X86000000Y-127000000D02*
X85250000Y-127750000D01*
X88475000Y-122675000D02*
X88475000Y-126025000D01*
X99250000Y-131000000D02*
X100250000Y-132000000D01*
X93000000Y-131000000D02*
X99250000Y-131000000D01*
X92500000Y-130500000D02*
X93000000Y-131000000D01*
X85750000Y-130500000D02*
X92500000Y-130500000D01*
X85250000Y-130000000D02*
X85750000Y-130500000D01*
X100050000Y-135450000D02*
X99000000Y-135450000D01*
X100800000Y-134700000D02*
X100050000Y-135450000D01*
D32*
X104200000Y-127500000D02*
X101700000Y-125000000D01*
X129750000Y-127500000D02*
X104200000Y-127500000D01*
X133950000Y-128100000D02*
X133950000Y-129550000D01*
X129750000Y-127500000D02*
X132000000Y-129750000D01*
X133750000Y-129750000D02*
X132000000Y-129750000D01*
X133950000Y-129550000D02*
X133750000Y-129750000D01*
X94750000Y-124500000D02*
X94750000Y-124250000D01*
X95250000Y-125000000D02*
X94750000Y-124500000D01*
X101700000Y-125000000D02*
X95250000Y-125000000D01*
X94750000Y-124250000D02*
X94750000Y-123850000D01*
X94750000Y-124250000D02*
X94750000Y-123850000D01*
X104650000Y-126750000D02*
X102150000Y-124250000D01*
X102150000Y-124250000D02*
X94750000Y-124250000D01*
X133300000Y-128100000D02*
X131600000Y-128100000D01*
X131600000Y-128100000D02*
X130250000Y-126750000D01*
X130250000Y-126750000D02*
X109750000Y-126750000D01*
X109750000Y-126750000D02*
X104650000Y-126750000D01*
D33*
X84975000Y-122675000D02*
X84975000Y-121925000D01*
X84800000Y-121750000D02*
X81200000Y-121750000D01*
X84975000Y-121925000D02*
X84800000Y-121750000D01*
X82475000Y-119175000D02*
X81145002Y-119175000D01*
X80700000Y-123350000D02*
X80700000Y-124500000D01*
X80420002Y-123070002D02*
X80700000Y-123350000D01*
X80420002Y-119900000D02*
X80420002Y-123070002D01*
X81145002Y-119175000D02*
X80420002Y-119900000D01*
D32*
X70000000Y-125000000D02*
X73500000Y-125000000D01*
X76855000Y-126500000D02*
X78560000Y-124795000D01*
X75000000Y-126500000D02*
X76855000Y-126500000D01*
X73500000Y-125000000D02*
X75000000Y-126500000D01*
X70000000Y-122500000D02*
X70000000Y-125000000D01*
X70000000Y-116400000D02*
X70000000Y-122500000D01*
D33*
X87800000Y-109450000D02*
X87800000Y-110800000D01*
X89100000Y-109450000D02*
X89100000Y-110800000D01*
X87975000Y-114175000D02*
X87975000Y-112575000D01*
X87975000Y-112575000D02*
X87800000Y-112400000D01*
X88475000Y-114175000D02*
X88475000Y-113260316D01*
X88475000Y-113260316D02*
X89100000Y-112635316D01*
X89100000Y-112635316D02*
X89100000Y-112400000D01*
X133250000Y-108000000D02*
X132600000Y-108000000D01*
X132600000Y-108000000D02*
X131000000Y-109600000D01*
X133250000Y-108000000D02*
X133250000Y-108250000D01*
X129700000Y-109600000D02*
X129700000Y-109050000D01*
X135250000Y-106750000D02*
X135250000Y-108000000D01*
X134750000Y-106250000D02*
X135250000Y-106750000D01*
X132500000Y-106250000D02*
X134750000Y-106250000D01*
X131500000Y-107250000D02*
X132500000Y-106250000D01*
X129700000Y-109050000D02*
X131500000Y-107250000D01*
X128400000Y-109600000D02*
X128400000Y-109350000D01*
X128400000Y-109350000D02*
X130750000Y-107000000D01*
X130750000Y-107000000D02*
X132250000Y-105500000D01*
X132250000Y-105500000D02*
X136750000Y-105500000D01*
X136750000Y-105500000D02*
X139250000Y-108000000D01*
X96000000Y-132750000D02*
X95500000Y-132750000D01*
X95000000Y-133250000D02*
X95000000Y-136000000D01*
X95500000Y-132750000D02*
X95000000Y-133250000D01*
X95750000Y-132500000D02*
X96000000Y-132750000D01*
X91750000Y-132500000D02*
X91750000Y-133750000D01*
X93750000Y-135750000D02*
X95000000Y-135750000D01*
X91750000Y-133750000D02*
X93750000Y-135750000D01*
X99000000Y-136750000D02*
X96750000Y-136750000D01*
X95750000Y-135750000D02*
X95000000Y-135750000D01*
X96750000Y-136750000D02*
X95750000Y-135750000D01*
X103400000Y-136100000D02*
X104350000Y-136100000D01*
X104500000Y-137500000D02*
X105250000Y-138250000D01*
X104500000Y-136250000D02*
X104500000Y-137500000D01*
X104350000Y-136100000D02*
X104500000Y-136250000D01*
X95000000Y-137100000D02*
X95000000Y-137500000D01*
X103400000Y-136100000D02*
X101400000Y-136100000D01*
X89150000Y-137500000D02*
X84150000Y-132500000D01*
X100000000Y-137500000D02*
X95000000Y-137500000D01*
X95000000Y-137500000D02*
X89150000Y-137500000D01*
X101400000Y-136100000D02*
X100000000Y-137500000D01*
D35*
G36*
X148875000Y-112625000D02*
X144125000Y-112625000D01*
X144125000Y-107875000D01*
X148875000Y-107875000D01*
X148875000Y-112625000D01*
X148875000Y-112625000D01*
G37*
X148875000Y-112625000D02*
X144125000Y-112625000D01*
X144125000Y-107875000D01*
X148875000Y-107875000D01*
X148875000Y-112625000D01*
M02*
