G04 #@! TF.FileFunction,Soldermask,Bot*
%FSLAX46Y46*%
G04 Gerber Fmt 4.6, Leading zero omitted, Abs format (unit mm)*
G04 Created by KiCad (PCBNEW 0.201503020946+5465~21~ubuntu14.04.1-product) date Wed 11 Mar 2015 00:00:20 GMT*
%MOMM*%
G01*
G04 APERTURE LIST*
%ADD10C,0.100000*%
%ADD11R,3.600000X2.600000*%
%ADD12R,0.800000X0.800000*%
%ADD13R,1.700000X1.200000*%
%ADD14R,1.400000X0.400000*%
%ADD15C,0.650000*%
%ADD16R,1.900000X2.300000*%
%ADD17R,0.500000X0.600000*%
%ADD18R,1.200000X0.300000*%
%ADD19R,0.300000X1.200000*%
%ADD20R,0.400000X1.400000*%
%ADD21C,1.016000*%
%ADD22C,2.000000*%
%ADD23C,1.600000*%
%ADD24C,3.200000*%
%ADD25R,2.500000X2.300000*%
%ADD26C,1.250000*%
%ADD27C,6.300000*%
%ADD28C,0.600000*%
%ADD29C,3.000000*%
%ADD30R,2.000000X2.000000*%
%ADD31R,1.900000X1.300000*%
G04 APERTURE END LIST*
D10*
D11*
X112200000Y-136250000D03*
X112200000Y-106950000D03*
D12*
X135050000Y-120650000D03*
X136650000Y-120650000D03*
X81500000Y-111800000D03*
X79900000Y-111800000D03*
X90000000Y-111250000D03*
X88400000Y-111250000D03*
X94750000Y-121000000D03*
X94750000Y-119400000D03*
X90000000Y-112500000D03*
X88400000Y-112500000D03*
X81500000Y-113000000D03*
X79900000Y-113000000D03*
X93500000Y-121000000D03*
X93500000Y-119400000D03*
X137850000Y-120650000D03*
X139450000Y-120650000D03*
X74450000Y-107800000D03*
X74450000Y-109400000D03*
X97750000Y-113250000D03*
X99350000Y-113250000D03*
X97750000Y-122000000D03*
X99350000Y-122000000D03*
X91250000Y-109500000D03*
X91250000Y-111100000D03*
X96750000Y-109500000D03*
X96750000Y-111100000D03*
X135100000Y-126500000D03*
X133500000Y-126500000D03*
X135100000Y-125300000D03*
X133500000Y-125300000D03*
D13*
X140000000Y-130000000D03*
X140000000Y-126900000D03*
D12*
X142000000Y-126750000D03*
X142000000Y-128350000D03*
X93500000Y-122250000D03*
X93500000Y-123850000D03*
X69250000Y-105000000D03*
X67650000Y-105000000D03*
D13*
X137750000Y-131250000D03*
X137750000Y-128150000D03*
D12*
X52425000Y-130075000D03*
X54025000Y-130075000D03*
X57200000Y-130100000D03*
X55600000Y-130100000D03*
X52425000Y-122075000D03*
X54025000Y-122075000D03*
X52425000Y-120875000D03*
X54025000Y-120875000D03*
D14*
X54200000Y-113800000D03*
X54200000Y-113150000D03*
X54200000Y-112500000D03*
X54200000Y-111850000D03*
X54200000Y-111200000D03*
D15*
X53700000Y-114500000D03*
X53700000Y-110500000D03*
D16*
X51450000Y-116250000D03*
X51450000Y-108750000D03*
D17*
X144750000Y-126000000D03*
X144750000Y-124900000D03*
X144750000Y-130000000D03*
X144750000Y-128900000D03*
D18*
X90975000Y-115675000D03*
X90975000Y-116175000D03*
X90975000Y-116675000D03*
X90975000Y-117175000D03*
X90975000Y-117675000D03*
X90975000Y-118175000D03*
X90975000Y-118675000D03*
X90975000Y-119175000D03*
X90975000Y-119675000D03*
X90975000Y-120175000D03*
X90975000Y-120675000D03*
X90975000Y-121175000D03*
D19*
X89475000Y-122675000D03*
X88975000Y-122675000D03*
X88475000Y-122675000D03*
X87975000Y-122675000D03*
X87475000Y-122675000D03*
X86975000Y-122675000D03*
X86475000Y-122675000D03*
X85975000Y-122675000D03*
X85475000Y-122675000D03*
X84975000Y-122675000D03*
X84475000Y-122675000D03*
X83975000Y-122675000D03*
D18*
X82475000Y-121175000D03*
X82475000Y-120675000D03*
X82475000Y-120175000D03*
X82475000Y-119675000D03*
X82475000Y-119175000D03*
X82475000Y-118675000D03*
X82475000Y-118175000D03*
X82475000Y-117675000D03*
X82475000Y-117175000D03*
X82475000Y-116675000D03*
X82475000Y-116175000D03*
X82475000Y-115675000D03*
D19*
X83975000Y-114175000D03*
X84475000Y-114175000D03*
X84975000Y-114175000D03*
X85475000Y-114175000D03*
X85975000Y-114175000D03*
X86475000Y-114175000D03*
X86975000Y-114175000D03*
X87475000Y-114175000D03*
X87975000Y-114175000D03*
X88475000Y-114175000D03*
X88975000Y-114175000D03*
X89475000Y-114175000D03*
D20*
X135250000Y-132500000D03*
X134600000Y-132500000D03*
X133950000Y-132500000D03*
X133300000Y-132500000D03*
X133300000Y-128100000D03*
X133950000Y-128100000D03*
X134600000Y-128100000D03*
X135250000Y-128100000D03*
X52225000Y-123875000D03*
X52875000Y-123875000D03*
X53525000Y-123875000D03*
X54175000Y-123875000D03*
X54175000Y-128275000D03*
X53525000Y-128275000D03*
X52875000Y-128275000D03*
X52225000Y-128275000D03*
D21*
X81000000Y-109270000D03*
X81000000Y-108000000D03*
X79730000Y-109270000D03*
X79730000Y-108000000D03*
X78460000Y-109270000D03*
X78460000Y-108000000D03*
X77190000Y-109270000D03*
X77190000Y-108000000D03*
X75920000Y-109270000D03*
X75920000Y-108000000D03*
D12*
X136650000Y-119200000D03*
X135050000Y-119200000D03*
X137850000Y-119200000D03*
X139450000Y-119200000D03*
X95750000Y-117750000D03*
X94150000Y-117750000D03*
X143500000Y-126750000D03*
X143500000Y-125150000D03*
X94750000Y-122250000D03*
X94750000Y-123850000D03*
X142000000Y-130000000D03*
X143600000Y-130000000D03*
X142000000Y-133000000D03*
X142000000Y-131400000D03*
D22*
X98500000Y-132500000D03*
X90900000Y-132500000D03*
D23*
X137250000Y-108000000D03*
X139250000Y-108000000D03*
X141250000Y-108000000D03*
X133250000Y-108000000D03*
X135250000Y-108000000D03*
D22*
X137250000Y-122500000D03*
X139750000Y-122500000D03*
X134750000Y-122500000D03*
D24*
X131650000Y-115000000D03*
X142850000Y-115000000D03*
D25*
X98475000Y-119875000D03*
X98475000Y-115375000D03*
D22*
X67090000Y-102600000D03*
X69630000Y-102600000D03*
X72170000Y-102600000D03*
X74710000Y-102600000D03*
X77250000Y-102600000D03*
X79790000Y-102600000D03*
X82330000Y-102600000D03*
X84870000Y-102600000D03*
X87410000Y-102600000D03*
X89950000Y-102600000D03*
X92490000Y-102600000D03*
X95030000Y-102600000D03*
X97570000Y-102600000D03*
X100110000Y-102600000D03*
X102650000Y-102600000D03*
X105190000Y-102600000D03*
X107730000Y-102600000D03*
X110270000Y-102600000D03*
X112810000Y-102600000D03*
X115350000Y-102600000D03*
D26*
X59900000Y-133100000D03*
X59900000Y-101900000D03*
X122600000Y-101900000D03*
X122600000Y-133100000D03*
D27*
X54000000Y-104000000D03*
D28*
X54000000Y-101500000D03*
X56500000Y-104000000D03*
X54000000Y-106500000D03*
X51500000Y-104000000D03*
X52200000Y-102200000D03*
X55800000Y-102200000D03*
X52200000Y-105800000D03*
X55800000Y-105800000D03*
D27*
X146000000Y-136000000D03*
D28*
X146000000Y-133500000D03*
X148500000Y-136000000D03*
X146000000Y-138500000D03*
X143500000Y-136000000D03*
X144200000Y-134200000D03*
X147800000Y-134200000D03*
X144200000Y-137800000D03*
X147800000Y-137800000D03*
D27*
X54000000Y-136000000D03*
D28*
X54000000Y-133500000D03*
X56500000Y-136000000D03*
X54000000Y-138500000D03*
X51500000Y-136000000D03*
X52200000Y-134200000D03*
X55800000Y-134200000D03*
X52200000Y-137800000D03*
X55800000Y-137800000D03*
D27*
X146000000Y-104000000D03*
D28*
X146000000Y-101500000D03*
X148500000Y-104000000D03*
X146000000Y-106500000D03*
X143500000Y-104000000D03*
X144200000Y-102200000D03*
X147800000Y-102200000D03*
X144200000Y-105800000D03*
X147800000Y-105800000D03*
D29*
X147000000Y-130000000D03*
X147000000Y-124920000D03*
D12*
X82250000Y-124250000D03*
X83850000Y-124250000D03*
D22*
X67690000Y-135770000D03*
X67690000Y-133230000D03*
X70230000Y-135770000D03*
X70230000Y-133230000D03*
X72770000Y-135770000D03*
X72770000Y-133230000D03*
D30*
X75310000Y-135770000D03*
D22*
X75310000Y-133230000D03*
D12*
X82800000Y-135500000D03*
X82800000Y-137100000D03*
X87000000Y-129500000D03*
X87000000Y-127900000D03*
X82750000Y-133500000D03*
X82750000Y-131900000D03*
X84500000Y-129500000D03*
X84500000Y-127900000D03*
D20*
X86250000Y-136500000D03*
X85600000Y-136500000D03*
X84950000Y-136500000D03*
X84300000Y-136500000D03*
X84300000Y-132100000D03*
X84950000Y-132100000D03*
X85600000Y-132100000D03*
X86250000Y-132100000D03*
D12*
X85750000Y-129500000D03*
X85750000Y-127900000D03*
D22*
X76020000Y-124795000D03*
X76020000Y-122255000D03*
X76020000Y-119715000D03*
X76020000Y-117175000D03*
X78560000Y-117175000D03*
X78560000Y-119715000D03*
X78560000Y-122255000D03*
X78560000Y-124795000D03*
D31*
X92500000Y-113000000D03*
X92500000Y-107500000D03*
X95700000Y-113000000D03*
X95700000Y-107500000D03*
M02*
