M48
;DRILL file {kicad 0.201503020946+5465~21~ubuntu14.04.1-product} date Fri 06 Mar 2015 01:12:00 GMT
;FORMAT={-:-/ absolute / inch / decimal}
FMAT,2
INCH,TZ
T1C0.016
T2C0.025
T3C0.039
T4C0.040
T5C0.043
T6C0.047
T7C0.059
T8C0.087
%
G90
G05
M72
T1
X2.0236Y-5.1732
X2.0591Y-4.689
X2.1161Y-4.7244
X2.126Y-5.1575
X2.1693Y-4.2638
X2.1949Y-4.3799
X3.1142Y-4.4016
X3.1476Y-4.874
X3.1772Y-4.9016
X3.1969Y-4.7933
X3.252Y-4.3465
X3.252Y-4.5039
X3.2677Y-4.9291
X3.3071Y-5.2047
X3.3228Y-4.5512
X3.3307Y-5.3465
X3.376Y-5.0197
X3.3937Y-4.9606
X3.4409Y-4.5748
X3.4409Y-4.9606
X3.4646Y-4.6949
X3.4646Y-4.7539
X3.4843Y-4.3406
X3.4941Y-4.7244
X3.4941Y-4.7835
X3.5138Y-5.0689
X3.5197Y-4.6142
X3.5433Y-5.0394
X3.5925Y-4.872
X3.5925Y-4.9213
X3.6024Y-4.8327
X3.6614Y-4.8622
X3.6713Y-4.9311
X3.7008Y-4.311
X3.7008Y-4.685
X3.9488Y-4.4606
X3.9488Y-4.8031
X4.7835Y-4.9508
X4.7835Y-5.0591
X4.8228Y-4.9508
X4.8228Y-5.0591
X4.8622Y-4.9508
X4.8622Y-5.0591
X4.9016Y-4.9508
X4.9016Y-5.0591
X5.0472Y-4.9528
X5.0472Y-5.063
X5.0866Y-4.9528
X5.0866Y-5.063
X5.2165Y-4.9311
X5.2854Y-5.2657
X5.4724Y-5.0787
X5.5512Y-5.2362
X5.6988Y-5.0197
T2
X2.989Y-4.252
X2.989Y-4.302
X3.039Y-4.252
X3.039Y-4.302
X3.089Y-4.252
X3.089Y-4.302
X3.139Y-4.252
X3.139Y-4.302
X3.189Y-4.252
X3.189Y-4.302
T3
X2.6413Y-4.0394
X2.7413Y-4.0394
X2.8413Y-4.0394
X2.9413Y-4.0394
X2.9929Y-4.6132
X2.9929Y-4.7132
X2.9929Y-4.8132
X2.9929Y-4.9132
X3.0413Y-4.0394
X3.0929Y-4.6132
X3.0929Y-4.7132
X3.0929Y-4.8132
X3.0929Y-4.9132
X3.1413Y-4.0394
X3.2413Y-4.0394
X3.3413Y-4.0394
X3.4413Y-4.0394
X3.5413Y-4.0394
X3.5787Y-5.2165
X3.6413Y-4.0394
X3.7413Y-4.0394
X3.8413Y-4.0394
X3.878Y-5.2165
X3.9413Y-4.0394
X4.0413Y-4.0394
X4.1413Y-4.0394
X4.2413Y-4.0394
X4.3413Y-4.0394
X4.4413Y-4.0394
X4.5413Y-4.0394
T4
X2.665Y-5.2453
X2.665Y-5.3453
X2.765Y-5.2453
X2.765Y-5.3453
X2.865Y-5.2453
X2.865Y-5.3453
X2.965Y-5.2453
X2.965Y-5.3453
T5
X5.2461Y-4.252
X5.3248Y-4.252
X5.4035Y-4.252
X5.4823Y-4.252
X5.561Y-4.252
T6
X5.3051Y-4.8228
X5.4035Y-4.8228
X5.502Y-4.8228
T7
X5.7874Y-4.9181
X5.7874Y-5.1181
T8
X5.1831Y-4.5276
X5.624Y-4.5276
T0
M30
