G04 #@! TF.FileFunction,Legend,Top*
%FSLAX46Y46*%
G04 Gerber Fmt 4.6, Leading zero omitted, Abs format (unit mm)*
G04 Created by KiCad (PCBNEW 0.201503020946+5465~21~ubuntu14.04.1-product) date Wed 11 Mar 2015 00:00:20 GMT*
%MOMM*%
G01*
G04 APERTURE LIST*
%ADD10C,0.100000*%
%ADD11C,0.300000*%
%ADD12C,0.150000*%
%ADD13C,0.650000*%
%ADD14C,1.016000*%
%ADD15C,2.000000*%
%ADD16C,1.600000*%
%ADD17C,3.200000*%
%ADD18C,1.250000*%
%ADD19C,6.300000*%
%ADD20C,0.600000*%
%ADD21C,3.000000*%
%ADD22R,2.000000X2.000000*%
G04 APERTURE END LIST*
D10*
D11*
X125585717Y-132878571D02*
X125585717Y-131878571D01*
X125585717Y-132164286D02*
X125657145Y-132021429D01*
X125728574Y-131950000D01*
X125871431Y-131878571D01*
X126014288Y-131878571D01*
X127300002Y-132878571D02*
X126442859Y-132878571D01*
X126871431Y-132878571D02*
X126871431Y-131378571D01*
X126728574Y-131592857D01*
X126585716Y-131735714D01*
X126442859Y-131807143D01*
X129014287Y-131521429D02*
X129085716Y-131450000D01*
X129228573Y-131378571D01*
X129585716Y-131378571D01*
X129728573Y-131450000D01*
X129800002Y-131521429D01*
X129871430Y-131664286D01*
X129871430Y-131807143D01*
X129800002Y-132021429D01*
X128942859Y-132878571D01*
X129871430Y-132878571D01*
X130800001Y-131378571D02*
X130942858Y-131378571D01*
X131085715Y-131450000D01*
X131157144Y-131521429D01*
X131228573Y-131664286D01*
X131300001Y-131950000D01*
X131300001Y-132307143D01*
X131228573Y-132592857D01*
X131157144Y-132735714D01*
X131085715Y-132807143D01*
X130942858Y-132878571D01*
X130800001Y-132878571D01*
X130657144Y-132807143D01*
X130585715Y-132735714D01*
X130514287Y-132592857D01*
X130442858Y-132307143D01*
X130442858Y-131950000D01*
X130514287Y-131664286D01*
X130585715Y-131521429D01*
X130657144Y-131450000D01*
X130800001Y-131378571D01*
X132728572Y-132878571D02*
X131871429Y-132878571D01*
X132300001Y-132878571D02*
X132300001Y-131378571D01*
X132157144Y-131592857D01*
X132014286Y-131735714D01*
X131871429Y-131807143D01*
X134014286Y-131878571D02*
X134014286Y-132878571D01*
X133657143Y-131307143D02*
X133300000Y-132378571D01*
X134228572Y-132378571D01*
X134800000Y-132307143D02*
X135942857Y-132307143D01*
X136942857Y-131378571D02*
X137085714Y-131378571D01*
X137228571Y-131450000D01*
X137300000Y-131521429D01*
X137371429Y-131664286D01*
X137442857Y-131950000D01*
X137442857Y-132307143D01*
X137371429Y-132592857D01*
X137300000Y-132735714D01*
X137228571Y-132807143D01*
X137085714Y-132878571D01*
X136942857Y-132878571D01*
X136800000Y-132807143D01*
X136728571Y-132735714D01*
X136657143Y-132592857D01*
X136585714Y-132307143D01*
X136585714Y-131950000D01*
X136657143Y-131664286D01*
X136728571Y-131521429D01*
X136800000Y-131450000D01*
X136942857Y-131378571D01*
X137942857Y-131378571D02*
X138871428Y-131378571D01*
X138371428Y-131950000D01*
X138585714Y-131950000D01*
X138728571Y-132021429D01*
X138800000Y-132092857D01*
X138871428Y-132235714D01*
X138871428Y-132592857D01*
X138800000Y-132735714D01*
X138728571Y-132807143D01*
X138585714Y-132878571D01*
X138157142Y-132878571D01*
X138014285Y-132807143D01*
X137942857Y-132735714D01*
X139514285Y-132307143D02*
X140657142Y-132307143D01*
X141657142Y-131378571D02*
X141799999Y-131378571D01*
X141942856Y-131450000D01*
X142014285Y-131521429D01*
X142085714Y-131664286D01*
X142157142Y-131950000D01*
X142157142Y-132307143D01*
X142085714Y-132592857D01*
X142014285Y-132735714D01*
X141942856Y-132807143D01*
X141799999Y-132878571D01*
X141657142Y-132878571D01*
X141514285Y-132807143D01*
X141442856Y-132735714D01*
X141371428Y-132592857D01*
X141299999Y-132307143D01*
X141299999Y-131950000D01*
X141371428Y-131664286D01*
X141442856Y-131521429D01*
X141514285Y-131450000D01*
X141657142Y-131378571D01*
X143442856Y-131378571D02*
X143157142Y-131378571D01*
X143014285Y-131450000D01*
X142942856Y-131521429D01*
X142799999Y-131735714D01*
X142728570Y-132021429D01*
X142728570Y-132592857D01*
X142799999Y-132735714D01*
X142871427Y-132807143D01*
X143014285Y-132878571D01*
X143299999Y-132878571D01*
X143442856Y-132807143D01*
X143514285Y-132735714D01*
X143585713Y-132592857D01*
X143585713Y-132235714D01*
X143514285Y-132092857D01*
X143442856Y-132021429D01*
X143299999Y-131950000D01*
X143014285Y-131950000D01*
X142871427Y-132021429D01*
X142799999Y-132092857D01*
X142728570Y-132235714D01*
X130685714Y-125050000D02*
X131400000Y-125050000D01*
X130542857Y-125478571D02*
X131042857Y-123978571D01*
X131542857Y-125478571D01*
X132042857Y-125478571D02*
X132042857Y-123978571D01*
X132400000Y-123978571D01*
X132614285Y-124050000D01*
X132757143Y-124192857D01*
X132828571Y-124335714D01*
X132900000Y-124621429D01*
X132900000Y-124835714D01*
X132828571Y-125121429D01*
X132757143Y-125264286D01*
X132614285Y-125407143D01*
X132400000Y-125478571D01*
X132042857Y-125478571D01*
X133471428Y-125050000D02*
X134185714Y-125050000D01*
X133328571Y-125478571D02*
X133828571Y-123978571D01*
X134328571Y-125478571D01*
X134828571Y-125478571D02*
X134828571Y-123978571D01*
X135328571Y-125050000D01*
X135828571Y-123978571D01*
X135828571Y-125478571D01*
X138471428Y-124050000D02*
X138328571Y-123978571D01*
X138114285Y-123978571D01*
X137900000Y-124050000D01*
X137757142Y-124192857D01*
X137685714Y-124335714D01*
X137614285Y-124621429D01*
X137614285Y-124835714D01*
X137685714Y-125121429D01*
X137757142Y-125264286D01*
X137900000Y-125407143D01*
X138114285Y-125478571D01*
X138257142Y-125478571D01*
X138471428Y-125407143D01*
X138542857Y-125335714D01*
X138542857Y-124835714D01*
X138257142Y-124835714D01*
X140042857Y-125478571D02*
X139542857Y-124764286D01*
X139185714Y-125478571D02*
X139185714Y-123978571D01*
X139757142Y-123978571D01*
X139900000Y-124050000D01*
X139971428Y-124121429D01*
X140042857Y-124264286D01*
X140042857Y-124478571D01*
X139971428Y-124621429D01*
X139900000Y-124692857D01*
X139757142Y-124764286D01*
X139185714Y-124764286D01*
X140685714Y-124692857D02*
X141185714Y-124692857D01*
X141400000Y-125478571D02*
X140685714Y-125478571D01*
X140685714Y-123978571D01*
X141400000Y-123978571D01*
X142042857Y-125478571D02*
X142042857Y-123978571D01*
X143542857Y-124050000D02*
X143400000Y-123978571D01*
X143185714Y-123978571D01*
X142971429Y-124050000D01*
X142828571Y-124192857D01*
X142757143Y-124335714D01*
X142685714Y-124621429D01*
X142685714Y-124835714D01*
X142757143Y-125121429D01*
X142828571Y-125264286D01*
X142971429Y-125407143D01*
X143185714Y-125478571D01*
X143328571Y-125478571D01*
X143542857Y-125407143D01*
X143614286Y-125335714D01*
X143614286Y-124835714D01*
X143328571Y-124835714D01*
X129471429Y-127878571D02*
X129471429Y-126378571D01*
X129828572Y-126378571D01*
X130042857Y-126450000D01*
X130185715Y-126592857D01*
X130257143Y-126735714D01*
X130328572Y-127021429D01*
X130328572Y-127235714D01*
X130257143Y-127521429D01*
X130185715Y-127664286D01*
X130042857Y-127807143D01*
X129828572Y-127878571D01*
X129471429Y-127878571D01*
X130900000Y-127450000D02*
X131614286Y-127450000D01*
X130757143Y-127878571D02*
X131257143Y-126378571D01*
X131757143Y-127878571D01*
X132042857Y-126378571D02*
X132542857Y-127878571D01*
X133042857Y-126378571D01*
X133542857Y-127878571D02*
X133542857Y-126378571D01*
X134257143Y-127878571D02*
X134257143Y-126378571D01*
X134614286Y-126378571D01*
X134828571Y-126450000D01*
X134971429Y-126592857D01*
X135042857Y-126735714D01*
X135114286Y-127021429D01*
X135114286Y-127235714D01*
X135042857Y-127521429D01*
X134971429Y-127664286D01*
X134828571Y-127807143D01*
X134614286Y-127878571D01*
X134257143Y-127878571D01*
X136685714Y-126378571D02*
X137542857Y-126378571D01*
X137114286Y-127878571D02*
X137114286Y-126378571D01*
X138042857Y-126378571D02*
X138042857Y-127592857D01*
X138114285Y-127735714D01*
X138185714Y-127807143D01*
X138328571Y-127878571D01*
X138614285Y-127878571D01*
X138757143Y-127807143D01*
X138828571Y-127735714D01*
X138900000Y-127592857D01*
X138900000Y-126378571D01*
X140471429Y-127878571D02*
X139971429Y-127164286D01*
X139614286Y-127878571D02*
X139614286Y-126378571D01*
X140185714Y-126378571D01*
X140328572Y-126450000D01*
X140400000Y-126521429D01*
X140471429Y-126664286D01*
X140471429Y-126878571D01*
X140400000Y-127021429D01*
X140328572Y-127092857D01*
X140185714Y-127164286D01*
X139614286Y-127164286D01*
X141114286Y-127878571D02*
X141114286Y-126378571D01*
X141971429Y-127878571D01*
X141971429Y-126378571D01*
X142685715Y-127092857D02*
X143185715Y-127092857D01*
X143400001Y-127878571D02*
X142685715Y-127878571D01*
X142685715Y-126378571D01*
X143400001Y-126378571D01*
X144900001Y-127878571D02*
X144400001Y-127164286D01*
X144042858Y-127878571D02*
X144042858Y-126378571D01*
X144614286Y-126378571D01*
X144757144Y-126450000D01*
X144828572Y-126521429D01*
X144900001Y-126664286D01*
X144900001Y-126878571D01*
X144828572Y-127021429D01*
X144757144Y-127092857D01*
X144614286Y-127164286D01*
X144042858Y-127164286D01*
X130578571Y-128778571D02*
X130578571Y-129850000D01*
X130507143Y-130064286D01*
X130364286Y-130207143D01*
X130150000Y-130278571D01*
X130007143Y-130278571D01*
X131578571Y-128778571D02*
X131864285Y-128778571D01*
X132007143Y-128850000D01*
X132150000Y-128992857D01*
X132221428Y-129278571D01*
X132221428Y-129778571D01*
X132150000Y-130064286D01*
X132007143Y-130207143D01*
X131864285Y-130278571D01*
X131578571Y-130278571D01*
X131435714Y-130207143D01*
X131292857Y-130064286D01*
X131221428Y-129778571D01*
X131221428Y-129278571D01*
X131292857Y-128992857D01*
X131435714Y-128850000D01*
X131578571Y-128778571D01*
X132864286Y-130278571D02*
X132864286Y-128778571D01*
X133721429Y-130278571D01*
X133721429Y-128778571D01*
X135507143Y-130207143D02*
X135721429Y-130278571D01*
X136078572Y-130278571D01*
X136221429Y-130207143D01*
X136292858Y-130135714D01*
X136364286Y-129992857D01*
X136364286Y-129850000D01*
X136292858Y-129707143D01*
X136221429Y-129635714D01*
X136078572Y-129564286D01*
X135792858Y-129492857D01*
X135650000Y-129421429D01*
X135578572Y-129350000D01*
X135507143Y-129207143D01*
X135507143Y-129064286D01*
X135578572Y-128921429D01*
X135650000Y-128850000D01*
X135792858Y-128778571D01*
X136150000Y-128778571D01*
X136364286Y-128850000D01*
X137292857Y-128778571D02*
X137578571Y-128778571D01*
X137721429Y-128850000D01*
X137864286Y-128992857D01*
X137935714Y-129278571D01*
X137935714Y-129778571D01*
X137864286Y-130064286D01*
X137721429Y-130207143D01*
X137578571Y-130278571D01*
X137292857Y-130278571D01*
X137150000Y-130207143D01*
X137007143Y-130064286D01*
X136935714Y-129778571D01*
X136935714Y-129278571D01*
X137007143Y-128992857D01*
X137150000Y-128850000D01*
X137292857Y-128778571D01*
X138435715Y-128778571D02*
X138792858Y-130278571D01*
X139078572Y-129207143D01*
X139364286Y-130278571D01*
X139721429Y-128778571D01*
X140292858Y-130278571D02*
X140292858Y-128778571D01*
X140792858Y-129850000D01*
X141292858Y-128778571D01*
X141292858Y-130278571D01*
X141935715Y-129850000D02*
X142650001Y-129850000D01*
X141792858Y-130278571D02*
X142292858Y-128778571D01*
X142792858Y-130278571D01*
X143292858Y-130278571D02*
X143292858Y-128778571D01*
X144150001Y-130278571D01*
X144150001Y-128778571D01*
X131228571Y-101807143D02*
X131442857Y-101878571D01*
X131800000Y-101878571D01*
X131942857Y-101807143D01*
X132014286Y-101735714D01*
X132085714Y-101592857D01*
X132085714Y-101450000D01*
X132014286Y-101307143D01*
X131942857Y-101235714D01*
X131800000Y-101164286D01*
X131514286Y-101092857D01*
X131371428Y-101021429D01*
X131300000Y-100950000D01*
X131228571Y-100807143D01*
X131228571Y-100664286D01*
X131300000Y-100521429D01*
X131371428Y-100450000D01*
X131514286Y-100378571D01*
X131871428Y-100378571D01*
X132085714Y-100450000D01*
X132728571Y-100378571D02*
X132728571Y-101592857D01*
X132799999Y-101735714D01*
X132871428Y-101807143D01*
X133014285Y-101878571D01*
X133299999Y-101878571D01*
X133442857Y-101807143D01*
X133514285Y-101735714D01*
X133585714Y-101592857D01*
X133585714Y-100378571D01*
X134300000Y-101878571D02*
X134300000Y-100378571D01*
X134871428Y-100378571D01*
X135014286Y-100450000D01*
X135085714Y-100521429D01*
X135157143Y-100664286D01*
X135157143Y-100878571D01*
X135085714Y-101021429D01*
X135014286Y-101092857D01*
X134871428Y-101164286D01*
X134300000Y-101164286D01*
X135800000Y-101092857D02*
X136300000Y-101092857D01*
X136514286Y-101878571D02*
X135800000Y-101878571D01*
X135800000Y-100378571D01*
X136514286Y-100378571D01*
X138014286Y-101878571D02*
X137514286Y-101164286D01*
X137157143Y-101878571D02*
X137157143Y-100378571D01*
X137728571Y-100378571D01*
X137871429Y-100450000D01*
X137942857Y-100521429D01*
X138014286Y-100664286D01*
X138014286Y-100878571D01*
X137942857Y-101021429D01*
X137871429Y-101092857D01*
X137728571Y-101164286D01*
X137157143Y-101164286D01*
X138442857Y-100378571D02*
X138942857Y-101878571D01*
X139442857Y-100378571D01*
X139942857Y-101878571D02*
X139942857Y-100378571D01*
X140657143Y-101878571D02*
X140657143Y-100378571D01*
X141014286Y-100378571D01*
X141228571Y-100450000D01*
X141371429Y-100592857D01*
X141442857Y-100735714D01*
X141514286Y-101021429D01*
X141514286Y-101235714D01*
X141442857Y-101521429D01*
X141371429Y-101664286D01*
X141228571Y-101807143D01*
X141014286Y-101878571D01*
X140657143Y-101878571D01*
X142157143Y-101092857D02*
X142657143Y-101092857D01*
X142871429Y-101878571D02*
X142157143Y-101878571D01*
X142157143Y-100378571D01*
X142871429Y-100378571D01*
X133228571Y-104135714D02*
X133157142Y-104207143D01*
X132942856Y-104278571D01*
X132799999Y-104278571D01*
X132585714Y-104207143D01*
X132442856Y-104064286D01*
X132371428Y-103921429D01*
X132299999Y-103635714D01*
X132299999Y-103421429D01*
X132371428Y-103135714D01*
X132442856Y-102992857D01*
X132585714Y-102850000D01*
X132799999Y-102778571D01*
X132942856Y-102778571D01*
X133157142Y-102850000D01*
X133228571Y-102921429D01*
X134157142Y-102778571D02*
X134442856Y-102778571D01*
X134585714Y-102850000D01*
X134728571Y-102992857D01*
X134799999Y-103278571D01*
X134799999Y-103778571D01*
X134728571Y-104064286D01*
X134585714Y-104207143D01*
X134442856Y-104278571D01*
X134157142Y-104278571D01*
X134014285Y-104207143D01*
X133871428Y-104064286D01*
X133799999Y-103778571D01*
X133799999Y-103278571D01*
X133871428Y-102992857D01*
X134014285Y-102850000D01*
X134157142Y-102778571D01*
X135442857Y-104278571D02*
X135442857Y-102778571D01*
X136300000Y-104278571D01*
X136300000Y-102778571D01*
X136800000Y-102778571D02*
X137657143Y-102778571D01*
X137228572Y-104278571D02*
X137228572Y-102778571D01*
X139014286Y-104278571D02*
X138514286Y-103564286D01*
X138157143Y-104278571D02*
X138157143Y-102778571D01*
X138728571Y-102778571D01*
X138871429Y-102850000D01*
X138942857Y-102921429D01*
X139014286Y-103064286D01*
X139014286Y-103278571D01*
X138942857Y-103421429D01*
X138871429Y-103492857D01*
X138728571Y-103564286D01*
X138157143Y-103564286D01*
X139942857Y-102778571D02*
X140228571Y-102778571D01*
X140371429Y-102850000D01*
X140514286Y-102992857D01*
X140585714Y-103278571D01*
X140585714Y-103778571D01*
X140514286Y-104064286D01*
X140371429Y-104207143D01*
X140228571Y-104278571D01*
X139942857Y-104278571D01*
X139800000Y-104207143D01*
X139657143Y-104064286D01*
X139585714Y-103778571D01*
X139585714Y-103278571D01*
X139657143Y-102992857D01*
X139800000Y-102850000D01*
X139942857Y-102778571D01*
X141942858Y-104278571D02*
X141228572Y-104278571D01*
X141228572Y-102778571D01*
X134228572Y-105892857D02*
X134442858Y-105964286D01*
X134514286Y-106035714D01*
X134585715Y-106178571D01*
X134585715Y-106392857D01*
X134514286Y-106535714D01*
X134442858Y-106607143D01*
X134300000Y-106678571D01*
X133728572Y-106678571D01*
X133728572Y-105178571D01*
X134228572Y-105178571D01*
X134371429Y-105250000D01*
X134442858Y-105321429D01*
X134514286Y-105464286D01*
X134514286Y-105607143D01*
X134442858Y-105750000D01*
X134371429Y-105821429D01*
X134228572Y-105892857D01*
X133728572Y-105892857D01*
X135514286Y-105178571D02*
X135800000Y-105178571D01*
X135942858Y-105250000D01*
X136085715Y-105392857D01*
X136157143Y-105678571D01*
X136157143Y-106178571D01*
X136085715Y-106464286D01*
X135942858Y-106607143D01*
X135800000Y-106678571D01*
X135514286Y-106678571D01*
X135371429Y-106607143D01*
X135228572Y-106464286D01*
X135157143Y-106178571D01*
X135157143Y-105678571D01*
X135228572Y-105392857D01*
X135371429Y-105250000D01*
X135514286Y-105178571D01*
X136728572Y-106250000D02*
X137442858Y-106250000D01*
X136585715Y-106678571D02*
X137085715Y-105178571D01*
X137585715Y-106678571D01*
X138942858Y-106678571D02*
X138442858Y-105964286D01*
X138085715Y-106678571D02*
X138085715Y-105178571D01*
X138657143Y-105178571D01*
X138800001Y-105250000D01*
X138871429Y-105321429D01*
X138942858Y-105464286D01*
X138942858Y-105678571D01*
X138871429Y-105821429D01*
X138800001Y-105892857D01*
X138657143Y-105964286D01*
X138085715Y-105964286D01*
X139585715Y-106678571D02*
X139585715Y-105178571D01*
X139942858Y-105178571D01*
X140157143Y-105250000D01*
X140300001Y-105392857D01*
X140371429Y-105535714D01*
X140442858Y-105821429D01*
X140442858Y-106035714D01*
X140371429Y-106321429D01*
X140300001Y-106464286D01*
X140157143Y-106607143D01*
X139942858Y-106678571D01*
X139585715Y-106678571D01*
D12*
X140750000Y-122000000D02*
X143250000Y-122000000D01*
X143250000Y-122000000D02*
X143250000Y-117000000D01*
X131250000Y-117000000D02*
X131250000Y-122000000D01*
X131250000Y-122000000D02*
X133750000Y-122000000D01*
X143250000Y-113000000D02*
X143250000Y-108000000D01*
X143250000Y-108000000D02*
X142250000Y-108000000D01*
X132250000Y-108000000D02*
X131250000Y-108000000D01*
X131250000Y-108000000D02*
X131250000Y-113000000D01*
X63750000Y-107950000D02*
X63750000Y-121050000D01*
X63750000Y-121050000D02*
X118750000Y-121050000D01*
X118750000Y-121050000D02*
X118750000Y-107950000D01*
X118750000Y-107950000D02*
X63750000Y-107950000D01*
X62750000Y-107050000D02*
X62750000Y-122150000D01*
X62750000Y-122150000D02*
X119750000Y-122150000D01*
X119750000Y-122150000D02*
X119750000Y-107050000D01*
X119750000Y-107050000D02*
X62750000Y-107050000D01*
X99400000Y-130550000D02*
X123000000Y-130550000D01*
X83150000Y-130550000D02*
X59500000Y-130550000D01*
X83150000Y-130550000D02*
X83150000Y-132050000D01*
X83150000Y-132050000D02*
X99400000Y-132050000D01*
X99400000Y-132050000D02*
X99400000Y-130550000D01*
X59500000Y-104450000D02*
X59500000Y-130550000D01*
X123000000Y-130550000D02*
X123000000Y-104450000D01*
X123000000Y-104450000D02*
X59500000Y-104450000D01*
X58000000Y-100000000D02*
X124500000Y-100000000D01*
X124500000Y-100000000D02*
X124500000Y-135000000D01*
X124500000Y-135000000D02*
X58000000Y-135000000D01*
X58000000Y-135000000D02*
X58000000Y-100000000D01*
X57300000Y-104000000D02*
G75*
G03X57300000Y-104000000I-3300000J0D01*
G01*
X149300000Y-136000000D02*
G75*
G03X149300000Y-136000000I-3300000J0D01*
G01*
X57300000Y-136000000D02*
G75*
G03X57300000Y-136000000I-3300000J0D01*
G01*
X149300000Y-104000000D02*
G75*
G03X149300000Y-104000000I-3300000J0D01*
G01*
%LPC*%
D13*
X53700000Y-114500000D03*
X53700000Y-110500000D03*
D14*
X81000000Y-109270000D03*
X81000000Y-108000000D03*
X79730000Y-109270000D03*
X79730000Y-108000000D03*
X78460000Y-109270000D03*
X78460000Y-108000000D03*
X77190000Y-109270000D03*
X77190000Y-108000000D03*
X75920000Y-109270000D03*
X75920000Y-108000000D03*
D15*
X98500000Y-132500000D03*
X90900000Y-132500000D03*
D16*
X137250000Y-108000000D03*
X139250000Y-108000000D03*
X141250000Y-108000000D03*
X133250000Y-108000000D03*
X135250000Y-108000000D03*
D15*
X137250000Y-122500000D03*
X139750000Y-122500000D03*
X134750000Y-122500000D03*
D17*
X131650000Y-115000000D03*
X142850000Y-115000000D03*
D15*
X67090000Y-102600000D03*
X69630000Y-102600000D03*
X72170000Y-102600000D03*
X74710000Y-102600000D03*
X77250000Y-102600000D03*
X79790000Y-102600000D03*
X82330000Y-102600000D03*
X84870000Y-102600000D03*
X87410000Y-102600000D03*
X89950000Y-102600000D03*
X92490000Y-102600000D03*
X95030000Y-102600000D03*
X97570000Y-102600000D03*
X100110000Y-102600000D03*
X102650000Y-102600000D03*
X105190000Y-102600000D03*
X107730000Y-102600000D03*
X110270000Y-102600000D03*
X112810000Y-102600000D03*
X115350000Y-102600000D03*
D18*
X59900000Y-133100000D03*
X59900000Y-101900000D03*
X122600000Y-101900000D03*
X122600000Y-133100000D03*
D19*
X54000000Y-104000000D03*
D20*
X54000000Y-101500000D03*
X56500000Y-104000000D03*
X54000000Y-106500000D03*
X51500000Y-104000000D03*
X52200000Y-102200000D03*
X55800000Y-102200000D03*
X52200000Y-105800000D03*
X55800000Y-105800000D03*
D19*
X146000000Y-136000000D03*
D20*
X146000000Y-133500000D03*
X148500000Y-136000000D03*
X146000000Y-138500000D03*
X143500000Y-136000000D03*
X144200000Y-134200000D03*
X147800000Y-134200000D03*
X144200000Y-137800000D03*
X147800000Y-137800000D03*
D19*
X54000000Y-136000000D03*
D20*
X54000000Y-133500000D03*
X56500000Y-136000000D03*
X54000000Y-138500000D03*
X51500000Y-136000000D03*
X52200000Y-134200000D03*
X55800000Y-134200000D03*
X52200000Y-137800000D03*
X55800000Y-137800000D03*
D19*
X146000000Y-104000000D03*
D20*
X146000000Y-101500000D03*
X148500000Y-104000000D03*
X146000000Y-106500000D03*
X143500000Y-104000000D03*
X144200000Y-102200000D03*
X147800000Y-102200000D03*
X144200000Y-105800000D03*
X147800000Y-105800000D03*
D21*
X147000000Y-130000000D03*
X147000000Y-124920000D03*
D15*
X67690000Y-135770000D03*
X67690000Y-133230000D03*
X70230000Y-135770000D03*
X70230000Y-133230000D03*
X72770000Y-135770000D03*
X72770000Y-133230000D03*
D22*
X75310000Y-135770000D03*
D15*
X75310000Y-133230000D03*
X76020000Y-124795000D03*
X76020000Y-122255000D03*
X76020000Y-119715000D03*
X76020000Y-117175000D03*
X78560000Y-117175000D03*
X78560000Y-119715000D03*
X78560000Y-122255000D03*
X78560000Y-124795000D03*
M02*
