G04 #@! TF.FileFunction,Legend,Bot*
%FSLAX46Y46*%
G04 Gerber Fmt 4.6, Leading zero omitted, Abs format (unit mm)*
G04 Created by KiCad (PCBNEW 0.201503020946+5465~21~ubuntu14.04.1-product) date Fri 06 Mar 2015 01:11:58 GMT*
%MOMM*%
G01*
G04 APERTURE LIST*
%ADD10C,0.100000*%
%ADD11C,0.300000*%
%ADD12C,0.200000*%
%ADD13C,0.150000*%
%ADD14R,3.600000X2.600000*%
%ADD15R,0.800000X0.800000*%
%ADD16R,1.700000X1.200000*%
%ADD17R,1.400000X0.400000*%
%ADD18C,0.650000*%
%ADD19R,1.900000X2.300000*%
%ADD20R,0.500000X0.600000*%
%ADD21R,1.200000X0.300000*%
%ADD22R,0.300000X1.200000*%
%ADD23R,0.400000X1.400000*%
%ADD24C,1.016000*%
%ADD25C,2.000000*%
%ADD26C,1.600000*%
%ADD27C,3.200000*%
%ADD28R,2.500000X2.300000*%
%ADD29C,1.250000*%
%ADD30C,6.300000*%
%ADD31C,0.600000*%
%ADD32C,3.000000*%
%ADD33R,2.000000X2.000000*%
%ADD34R,1.900000X1.300000*%
G04 APERTURE END LIST*
D10*
D11*
X141464283Y-137678571D02*
X141464283Y-136678571D01*
X141464283Y-136964286D02*
X141392855Y-136821429D01*
X141321426Y-136750000D01*
X141178569Y-136678571D01*
X141035712Y-136678571D01*
X139749998Y-137678571D02*
X140607141Y-137678571D01*
X140178569Y-137678571D02*
X140178569Y-136178571D01*
X140321426Y-136392857D01*
X140464284Y-136535714D01*
X140607141Y-136607143D01*
X138035713Y-136321429D02*
X137964284Y-136250000D01*
X137821427Y-136178571D01*
X137464284Y-136178571D01*
X137321427Y-136250000D01*
X137249998Y-136321429D01*
X137178570Y-136464286D01*
X137178570Y-136607143D01*
X137249998Y-136821429D01*
X138107141Y-137678571D01*
X137178570Y-137678571D01*
X136249999Y-136178571D02*
X136107142Y-136178571D01*
X135964285Y-136250000D01*
X135892856Y-136321429D01*
X135821427Y-136464286D01*
X135749999Y-136750000D01*
X135749999Y-137107143D01*
X135821427Y-137392857D01*
X135892856Y-137535714D01*
X135964285Y-137607143D01*
X136107142Y-137678571D01*
X136249999Y-137678571D01*
X136392856Y-137607143D01*
X136464285Y-137535714D01*
X136535713Y-137392857D01*
X136607142Y-137107143D01*
X136607142Y-136750000D01*
X136535713Y-136464286D01*
X136464285Y-136321429D01*
X136392856Y-136250000D01*
X136249999Y-136178571D01*
X134321428Y-137678571D02*
X135178571Y-137678571D01*
X134749999Y-137678571D02*
X134749999Y-136178571D01*
X134892856Y-136392857D01*
X135035714Y-136535714D01*
X135178571Y-136607143D01*
X132964285Y-136178571D02*
X133678571Y-136178571D01*
X133750000Y-136892857D01*
X133678571Y-136821429D01*
X133535714Y-136750000D01*
X133178571Y-136750000D01*
X133035714Y-136821429D01*
X132964285Y-136892857D01*
X132892857Y-137035714D01*
X132892857Y-137392857D01*
X132964285Y-137535714D01*
X133035714Y-137607143D01*
X133178571Y-137678571D01*
X133535714Y-137678571D01*
X133678571Y-137607143D01*
X133750000Y-137535714D01*
X132250000Y-137107143D02*
X131107143Y-137107143D01*
X130107143Y-136178571D02*
X129964286Y-136178571D01*
X129821429Y-136250000D01*
X129750000Y-136321429D01*
X129678571Y-136464286D01*
X129607143Y-136750000D01*
X129607143Y-137107143D01*
X129678571Y-137392857D01*
X129750000Y-137535714D01*
X129821429Y-137607143D01*
X129964286Y-137678571D01*
X130107143Y-137678571D01*
X130250000Y-137607143D01*
X130321429Y-137535714D01*
X130392857Y-137392857D01*
X130464286Y-137107143D01*
X130464286Y-136750000D01*
X130392857Y-136464286D01*
X130321429Y-136321429D01*
X130250000Y-136250000D01*
X130107143Y-136178571D01*
X129107143Y-136178571D02*
X128178572Y-136178571D01*
X128678572Y-136750000D01*
X128464286Y-136750000D01*
X128321429Y-136821429D01*
X128250000Y-136892857D01*
X128178572Y-137035714D01*
X128178572Y-137392857D01*
X128250000Y-137535714D01*
X128321429Y-137607143D01*
X128464286Y-137678571D01*
X128892858Y-137678571D01*
X129035715Y-137607143D01*
X129107143Y-137535714D01*
X127535715Y-137107143D02*
X126392858Y-137107143D01*
X125392858Y-136178571D02*
X125250001Y-136178571D01*
X125107144Y-136250000D01*
X125035715Y-136321429D01*
X124964286Y-136464286D01*
X124892858Y-136750000D01*
X124892858Y-137107143D01*
X124964286Y-137392857D01*
X125035715Y-137535714D01*
X125107144Y-137607143D01*
X125250001Y-137678571D01*
X125392858Y-137678571D01*
X125535715Y-137607143D01*
X125607144Y-137535714D01*
X125678572Y-137392857D01*
X125750001Y-137107143D01*
X125750001Y-136750000D01*
X125678572Y-136464286D01*
X125607144Y-136321429D01*
X125535715Y-136250000D01*
X125392858Y-136178571D01*
X123607144Y-136178571D02*
X123892858Y-136178571D01*
X124035715Y-136250000D01*
X124107144Y-136321429D01*
X124250001Y-136535714D01*
X124321430Y-136821429D01*
X124321430Y-137392857D01*
X124250001Y-137535714D01*
X124178573Y-137607143D01*
X124035715Y-137678571D01*
X123750001Y-137678571D01*
X123607144Y-137607143D01*
X123535715Y-137535714D01*
X123464287Y-137392857D01*
X123464287Y-137035714D01*
X123535715Y-136892857D01*
X123607144Y-136821429D01*
X123750001Y-136750000D01*
X124035715Y-136750000D01*
X124178573Y-136821429D01*
X124250001Y-136892857D01*
X124321430Y-137035714D01*
X70321429Y-108907143D02*
X70107143Y-108978571D01*
X69750000Y-108978571D01*
X69607143Y-108907143D01*
X69535714Y-108835714D01*
X69464286Y-108692857D01*
X69464286Y-108550000D01*
X69535714Y-108407143D01*
X69607143Y-108335714D01*
X69750000Y-108264286D01*
X70035714Y-108192857D01*
X70178572Y-108121429D01*
X70250000Y-108050000D01*
X70321429Y-107907143D01*
X70321429Y-107764286D01*
X70250000Y-107621429D01*
X70178572Y-107550000D01*
X70035714Y-107478571D01*
X69678572Y-107478571D01*
X69464286Y-107550000D01*
X68821429Y-107478571D02*
X68821429Y-108692857D01*
X68750001Y-108835714D01*
X68678572Y-108907143D01*
X68535715Y-108978571D01*
X68250001Y-108978571D01*
X68107143Y-108907143D01*
X68035715Y-108835714D01*
X67964286Y-108692857D01*
X67964286Y-107478571D01*
X67250000Y-108978571D02*
X67250000Y-107478571D01*
X66678572Y-107478571D01*
X66535714Y-107550000D01*
X66464286Y-107621429D01*
X66392857Y-107764286D01*
X66392857Y-107978571D01*
X66464286Y-108121429D01*
X66535714Y-108192857D01*
X66678572Y-108264286D01*
X67250000Y-108264286D01*
X65750000Y-108192857D02*
X65250000Y-108192857D01*
X65035714Y-108978571D02*
X65750000Y-108978571D01*
X65750000Y-107478571D01*
X65035714Y-107478571D01*
X63535714Y-108978571D02*
X64035714Y-108264286D01*
X64392857Y-108978571D02*
X64392857Y-107478571D01*
X63821429Y-107478571D01*
X63678571Y-107550000D01*
X63607143Y-107621429D01*
X63535714Y-107764286D01*
X63535714Y-107978571D01*
X63607143Y-108121429D01*
X63678571Y-108192857D01*
X63821429Y-108264286D01*
X64392857Y-108264286D01*
X63107143Y-107478571D02*
X62607143Y-108978571D01*
X62107143Y-107478571D01*
X61607143Y-108978571D02*
X61607143Y-107478571D01*
X60892857Y-108978571D02*
X60892857Y-107478571D01*
X60535714Y-107478571D01*
X60321429Y-107550000D01*
X60178571Y-107692857D01*
X60107143Y-107835714D01*
X60035714Y-108121429D01*
X60035714Y-108335714D01*
X60107143Y-108621429D01*
X60178571Y-108764286D01*
X60321429Y-108907143D01*
X60535714Y-108978571D01*
X60892857Y-108978571D01*
X59392857Y-108192857D02*
X58892857Y-108192857D01*
X58678571Y-108978571D02*
X59392857Y-108978571D01*
X59392857Y-107478571D01*
X58678571Y-107478571D01*
X72571429Y-111235714D02*
X72642858Y-111307143D01*
X72857144Y-111378571D01*
X73000001Y-111378571D01*
X73214286Y-111307143D01*
X73357144Y-111164286D01*
X73428572Y-111021429D01*
X73500001Y-110735714D01*
X73500001Y-110521429D01*
X73428572Y-110235714D01*
X73357144Y-110092857D01*
X73214286Y-109950000D01*
X73000001Y-109878571D01*
X72857144Y-109878571D01*
X72642858Y-109950000D01*
X72571429Y-110021429D01*
X71642858Y-109878571D02*
X71357144Y-109878571D01*
X71214286Y-109950000D01*
X71071429Y-110092857D01*
X71000001Y-110378571D01*
X71000001Y-110878571D01*
X71071429Y-111164286D01*
X71214286Y-111307143D01*
X71357144Y-111378571D01*
X71642858Y-111378571D01*
X71785715Y-111307143D01*
X71928572Y-111164286D01*
X72000001Y-110878571D01*
X72000001Y-110378571D01*
X71928572Y-110092857D01*
X71785715Y-109950000D01*
X71642858Y-109878571D01*
X70357143Y-111378571D02*
X70357143Y-109878571D01*
X69500000Y-111378571D01*
X69500000Y-109878571D01*
X69000000Y-109878571D02*
X68142857Y-109878571D01*
X68571428Y-111378571D02*
X68571428Y-109878571D01*
X66785714Y-111378571D02*
X67285714Y-110664286D01*
X67642857Y-111378571D02*
X67642857Y-109878571D01*
X67071429Y-109878571D01*
X66928571Y-109950000D01*
X66857143Y-110021429D01*
X66785714Y-110164286D01*
X66785714Y-110378571D01*
X66857143Y-110521429D01*
X66928571Y-110592857D01*
X67071429Y-110664286D01*
X67642857Y-110664286D01*
X65857143Y-109878571D02*
X65571429Y-109878571D01*
X65428571Y-109950000D01*
X65285714Y-110092857D01*
X65214286Y-110378571D01*
X65214286Y-110878571D01*
X65285714Y-111164286D01*
X65428571Y-111307143D01*
X65571429Y-111378571D01*
X65857143Y-111378571D01*
X66000000Y-111307143D01*
X66142857Y-111164286D01*
X66214286Y-110878571D01*
X66214286Y-110378571D01*
X66142857Y-110092857D01*
X66000000Y-109950000D01*
X65857143Y-109878571D01*
X63857142Y-111378571D02*
X64571428Y-111378571D01*
X64571428Y-109878571D01*
X61714285Y-110592857D02*
X61499999Y-110664286D01*
X61428571Y-110735714D01*
X61357142Y-110878571D01*
X61357142Y-111092857D01*
X61428571Y-111235714D01*
X61499999Y-111307143D01*
X61642857Y-111378571D01*
X62214285Y-111378571D01*
X62214285Y-109878571D01*
X61714285Y-109878571D01*
X61571428Y-109950000D01*
X61499999Y-110021429D01*
X61428571Y-110164286D01*
X61428571Y-110307143D01*
X61499999Y-110450000D01*
X61571428Y-110521429D01*
X61714285Y-110592857D01*
X62214285Y-110592857D01*
X60428571Y-109878571D02*
X60142857Y-109878571D01*
X59999999Y-109950000D01*
X59857142Y-110092857D01*
X59785714Y-110378571D01*
X59785714Y-110878571D01*
X59857142Y-111164286D01*
X59999999Y-111307143D01*
X60142857Y-111378571D01*
X60428571Y-111378571D01*
X60571428Y-111307143D01*
X60714285Y-111164286D01*
X60785714Y-110878571D01*
X60785714Y-110378571D01*
X60714285Y-110092857D01*
X60571428Y-109950000D01*
X60428571Y-109878571D01*
X59214285Y-110950000D02*
X58499999Y-110950000D01*
X59357142Y-111378571D02*
X58857142Y-109878571D01*
X58357142Y-111378571D01*
X56999999Y-111378571D02*
X57499999Y-110664286D01*
X57857142Y-111378571D02*
X57857142Y-109878571D01*
X57285714Y-109878571D01*
X57142856Y-109950000D01*
X57071428Y-110021429D01*
X56999999Y-110164286D01*
X56999999Y-110378571D01*
X57071428Y-110521429D01*
X57142856Y-110592857D01*
X57285714Y-110664286D01*
X57857142Y-110664286D01*
X56357142Y-111378571D02*
X56357142Y-109878571D01*
X55999999Y-109878571D01*
X55785714Y-109950000D01*
X55642856Y-110092857D01*
X55571428Y-110235714D01*
X55499999Y-110521429D01*
X55499999Y-110735714D01*
X55571428Y-111021429D01*
X55642856Y-111164286D01*
X55785714Y-111307143D01*
X55999999Y-111378571D01*
X56357142Y-111378571D01*
X147642857Y-121250000D02*
X147785714Y-121178571D01*
X148000000Y-121178571D01*
X148214285Y-121250000D01*
X148357143Y-121392857D01*
X148428571Y-121535714D01*
X148500000Y-121821429D01*
X148500000Y-122035714D01*
X148428571Y-122321429D01*
X148357143Y-122464286D01*
X148214285Y-122607143D01*
X148000000Y-122678571D01*
X147857143Y-122678571D01*
X147642857Y-122607143D01*
X147571428Y-122535714D01*
X147571428Y-122035714D01*
X147857143Y-122035714D01*
X146071428Y-122678571D02*
X146571428Y-121964286D01*
X146928571Y-122678571D02*
X146928571Y-121178571D01*
X146357143Y-121178571D01*
X146214285Y-121250000D01*
X146142857Y-121321429D01*
X146071428Y-121464286D01*
X146071428Y-121678571D01*
X146142857Y-121821429D01*
X146214285Y-121892857D01*
X146357143Y-121964286D01*
X146928571Y-121964286D01*
X145428571Y-122678571D02*
X145428571Y-121178571D01*
X144571428Y-122678571D01*
X144571428Y-121178571D01*
D12*
X114000000Y-109000000D02*
X116000000Y-109000000D01*
X105500000Y-134500000D02*
X107500000Y-134500000D01*
X106500000Y-133500000D02*
X106500000Y-135500000D01*
D13*
X108000000Y-132750000D02*
X108000000Y-135750000D01*
X108000000Y-110750000D02*
X108000000Y-107500000D01*
X113000000Y-110750000D02*
X113000000Y-107500000D01*
X118500000Y-132750000D02*
X118500000Y-110750000D01*
X113000000Y-135750000D02*
X113000000Y-132750000D01*
X118500000Y-110750000D02*
X113000000Y-110750000D01*
X113000000Y-107500000D02*
X108000000Y-107500000D01*
X108000000Y-110750000D02*
X102500000Y-110750000D01*
X102500000Y-110750000D02*
X102500000Y-132750000D01*
X102500000Y-132750000D02*
X108000000Y-132750000D01*
X108000000Y-135750000D02*
X112750000Y-135750000D01*
X112750000Y-135750000D02*
X113000000Y-135750000D01*
X113000000Y-132750000D02*
X118500000Y-132750000D01*
X134650000Y-120150000D02*
X137050000Y-120150000D01*
X134650000Y-121150000D02*
X137050000Y-121150000D01*
X81900000Y-112300000D02*
X79500000Y-112300000D01*
X81900000Y-111300000D02*
X79500000Y-111300000D01*
X90400000Y-111750000D02*
X88000000Y-111750000D01*
X90400000Y-110750000D02*
X88000000Y-110750000D01*
X94250000Y-121400000D02*
X94250000Y-119000000D01*
X95250000Y-121400000D02*
X95250000Y-119000000D01*
X90400000Y-113000000D02*
X88000000Y-113000000D01*
X90400000Y-112000000D02*
X88000000Y-112000000D01*
X81900000Y-113500000D02*
X79500000Y-113500000D01*
X81900000Y-112500000D02*
X79500000Y-112500000D01*
X93000000Y-121400000D02*
X93000000Y-119000000D01*
X94000000Y-121400000D02*
X94000000Y-119000000D01*
X137450000Y-120150000D02*
X139850000Y-120150000D01*
X137450000Y-121150000D02*
X139850000Y-121150000D01*
X74950000Y-107400000D02*
X74950000Y-109800000D01*
X73950000Y-107400000D02*
X73950000Y-109800000D01*
X97350000Y-112750000D02*
X99750000Y-112750000D01*
X97350000Y-113750000D02*
X99750000Y-113750000D01*
X97350000Y-121500000D02*
X99750000Y-121500000D01*
X97350000Y-122500000D02*
X99750000Y-122500000D01*
X91750000Y-109100000D02*
X91750000Y-111500000D01*
X90750000Y-109100000D02*
X90750000Y-111500000D01*
X97250000Y-109100000D02*
X97250000Y-111500000D01*
X96250000Y-109100000D02*
X96250000Y-111500000D01*
X135500000Y-127000000D02*
X133100000Y-127000000D01*
X135500000Y-126000000D02*
X133100000Y-126000000D01*
X135500000Y-125800000D02*
X133100000Y-125800000D01*
X135500000Y-124800000D02*
X133100000Y-124800000D01*
X139000000Y-130600000D02*
X139000000Y-126300000D01*
X141000000Y-130600000D02*
X141000000Y-126300000D01*
X142500000Y-126350000D02*
X142500000Y-128750000D01*
X141500000Y-126350000D02*
X141500000Y-128750000D01*
X94000000Y-121850000D02*
X94000000Y-124250000D01*
X93000000Y-121850000D02*
X93000000Y-124250000D01*
X69650000Y-105500000D02*
X67250000Y-105500000D01*
X69650000Y-104500000D02*
X67250000Y-104500000D01*
X136750000Y-131850000D02*
X136750000Y-127550000D01*
X138750000Y-131850000D02*
X138750000Y-127550000D01*
X52025000Y-129575000D02*
X54425000Y-129575000D01*
X52025000Y-130575000D02*
X54425000Y-130575000D01*
X57600000Y-130600000D02*
X55200000Y-130600000D01*
X57600000Y-129600000D02*
X55200000Y-129600000D01*
X52025000Y-121575000D02*
X54425000Y-121575000D01*
X52025000Y-122575000D02*
X54425000Y-122575000D01*
X52025000Y-120375000D02*
X54425000Y-120375000D01*
X52025000Y-121375000D02*
X54425000Y-121375000D01*
X50450000Y-108750000D02*
X49700000Y-108750000D01*
X49700000Y-108750000D02*
X49200000Y-108500000D01*
X50450000Y-116250000D02*
X49700000Y-116250000D01*
X49700000Y-116250000D02*
X49200000Y-116500000D01*
X54200000Y-110750000D02*
X54200000Y-108750000D01*
X54200000Y-108750000D02*
X52450000Y-108750000D01*
X52450000Y-116250000D02*
X54200000Y-116250000D01*
X54200000Y-116250000D02*
X54200000Y-114250000D01*
X50000000Y-117500000D02*
X50000000Y-107500000D01*
X144400000Y-126300000D02*
X144400000Y-124600000D01*
X145100000Y-126300000D02*
X145100000Y-124600000D01*
X144400000Y-130300000D02*
X144400000Y-128600000D01*
X145100000Y-130300000D02*
X145100000Y-128600000D01*
X91175000Y-114675000D02*
G75*
G03X91175000Y-114675000I-200000J0D01*
G01*
X91075000Y-114675000D02*
G75*
G03X91075000Y-114675000I-100000J0D01*
G01*
X82475000Y-115175000D02*
X82475000Y-114175000D01*
X82475000Y-114175000D02*
X83475000Y-114175000D01*
X82475000Y-121675000D02*
X82475000Y-122675000D01*
X82475000Y-122675000D02*
X83475000Y-122675000D01*
X90975000Y-121675000D02*
X90975000Y-122675000D01*
X90975000Y-122675000D02*
X89975000Y-122675000D01*
X89975000Y-114175000D02*
X90975000Y-114175000D01*
X90975000Y-114175000D02*
X90975000Y-115175000D01*
X135950000Y-132500000D02*
G75*
G03X135950000Y-132500000I-200000J0D01*
G01*
X135850000Y-132500000D02*
G75*
G03X135850000Y-132500000I-100000J0D01*
G01*
X132750000Y-132500000D02*
X132750000Y-128000000D01*
X135750000Y-132500000D02*
X135750000Y-128000000D01*
X51925000Y-123875000D02*
G75*
G03X51925000Y-123875000I-200000J0D01*
G01*
X51825000Y-123875000D02*
G75*
G03X51825000Y-123875000I-100000J0D01*
G01*
X54725000Y-123875000D02*
X54725000Y-128375000D01*
X51725000Y-123875000D02*
X51725000Y-128375000D01*
X75920000Y-110349500D02*
X75920000Y-111175000D01*
X75920000Y-111175000D02*
X77380500Y-111175000D01*
X77380500Y-111175000D02*
X77380500Y-110349500D01*
X81000000Y-110349500D02*
X81000000Y-111175000D01*
X81000000Y-111175000D02*
X79539500Y-111175000D01*
X79539500Y-111175000D02*
X79539500Y-110349500D01*
X81000000Y-106920500D02*
X81000000Y-106095000D01*
X81000000Y-106095000D02*
X75920000Y-106095000D01*
X75920000Y-106095000D02*
X75920000Y-106920500D01*
X78460000Y-106920500D02*
X75285000Y-106920500D01*
X75285000Y-106920500D02*
X75285000Y-110349500D01*
X75285000Y-110349500D02*
X81635000Y-110349500D01*
X81635000Y-110349500D02*
X81635000Y-106920500D01*
X81635000Y-106920500D02*
X78460000Y-106920500D01*
X137050000Y-119700000D02*
X134650000Y-119700000D01*
X137050000Y-118700000D02*
X134650000Y-118700000D01*
X137450000Y-118700000D02*
X139850000Y-118700000D01*
X137450000Y-119700000D02*
X139850000Y-119700000D01*
X96150000Y-118250000D02*
X93750000Y-118250000D01*
X96150000Y-117250000D02*
X93750000Y-117250000D01*
X143000000Y-127150000D02*
X143000000Y-124750000D01*
X144000000Y-127150000D02*
X144000000Y-124750000D01*
X95250000Y-121850000D02*
X95250000Y-124250000D01*
X94250000Y-121850000D02*
X94250000Y-124250000D01*
X141600000Y-129500000D02*
X144000000Y-129500000D01*
X141600000Y-130500000D02*
X144000000Y-130500000D01*
X141500000Y-133400000D02*
X141500000Y-131000000D01*
X142500000Y-133400000D02*
X142500000Y-131000000D01*
X101750000Y-132500000D02*
G75*
G03X101750000Y-132500000I-7000000J0D01*
G01*
X100075000Y-119925000D02*
X100075000Y-115325000D01*
X99875000Y-115125000D02*
X100075000Y-115325000D01*
X99875000Y-120125000D02*
X100075000Y-119925000D01*
X96875000Y-119975000D02*
X96875000Y-115275000D01*
X97075000Y-120125000D02*
X96875000Y-119975000D01*
X97075000Y-115125000D02*
X96875000Y-115275000D01*
X81850000Y-123750000D02*
X84250000Y-123750000D01*
X81850000Y-124750000D02*
X84250000Y-124750000D01*
X80853553Y-139000000D02*
G75*
G03X80853553Y-139000000I-353553J0D01*
G01*
X80750000Y-139000000D02*
G75*
G03X80750000Y-139000000I-250000J0D01*
G01*
X73500000Y-139000000D02*
X80500000Y-139000000D01*
X62500000Y-139000000D02*
X69500000Y-139000000D01*
X69500000Y-139000000D02*
X69500000Y-138000000D01*
X69500000Y-138000000D02*
X73500000Y-138000000D01*
X73500000Y-138000000D02*
X73500000Y-139000000D01*
X80500000Y-139000000D02*
X80500000Y-130000000D01*
X80500000Y-130000000D02*
X62500000Y-130000000D01*
X62500000Y-130000000D02*
X62500000Y-139000000D01*
X83300000Y-135100000D02*
X83300000Y-137500000D01*
X82300000Y-135100000D02*
X82300000Y-137500000D01*
X86500000Y-129900000D02*
X86500000Y-127500000D01*
X87500000Y-129900000D02*
X87500000Y-127500000D01*
X82250000Y-133900000D02*
X82250000Y-131500000D01*
X83250000Y-133900000D02*
X83250000Y-131500000D01*
X84000000Y-129900000D02*
X84000000Y-127500000D01*
X85000000Y-129900000D02*
X85000000Y-127500000D01*
X86950000Y-136500000D02*
G75*
G03X86950000Y-136500000I-200000J0D01*
G01*
X86850000Y-136500000D02*
G75*
G03X86850000Y-136500000I-100000J0D01*
G01*
X83750000Y-136500000D02*
X83750000Y-132000000D01*
X86750000Y-136500000D02*
X86750000Y-132000000D01*
X85250000Y-129900000D02*
X85250000Y-127500000D01*
X86250000Y-129900000D02*
X86250000Y-127500000D01*
X62700000Y-115800000D02*
X62700000Y-121800000D01*
X56700000Y-126800000D02*
X56700000Y-121800000D01*
X56700000Y-121800000D02*
X60700000Y-121800000D01*
X60700000Y-121800000D02*
X60700000Y-120800000D01*
X60700000Y-120800000D02*
X56700000Y-120800000D01*
X56700000Y-120800000D02*
X56700000Y-119800000D01*
X56700000Y-119800000D02*
X60700000Y-119800000D01*
X60700000Y-119800000D02*
X60700000Y-118800000D01*
X60700000Y-118800000D02*
X56700000Y-118800000D01*
X56700000Y-118800000D02*
X56700000Y-117800000D01*
X56700000Y-117800000D02*
X60700000Y-117800000D01*
X60700000Y-117800000D02*
X60700000Y-116800000D01*
X60700000Y-116800000D02*
X56700000Y-116800000D01*
X56700000Y-116800000D02*
X56700000Y-115800000D01*
X56700000Y-115800000D02*
X64700000Y-115800000D01*
X55700000Y-113800000D02*
X80500000Y-113800000D01*
X80500000Y-113800000D02*
X80500000Y-128100000D01*
X80500000Y-128100000D02*
X55700000Y-128100000D01*
X55700000Y-128100000D02*
X55700000Y-113800000D01*
X96000000Y-114750000D02*
X92000000Y-114750000D01*
X96000000Y-114500000D02*
X92000000Y-114500000D01*
X96000000Y-114250000D02*
X96000000Y-106250000D01*
X96000000Y-106250000D02*
X92000000Y-106250000D01*
X92000000Y-106250000D02*
X92000000Y-114250000D01*
X92000000Y-114250000D02*
X96000000Y-114250000D01*
%LPC*%
D14*
X110500000Y-136250000D03*
X110500000Y-106950000D03*
D15*
X135050000Y-120650000D03*
X136650000Y-120650000D03*
X81500000Y-111800000D03*
X79900000Y-111800000D03*
X90000000Y-111250000D03*
X88400000Y-111250000D03*
X94750000Y-121000000D03*
X94750000Y-119400000D03*
X90000000Y-112500000D03*
X88400000Y-112500000D03*
X81500000Y-113000000D03*
X79900000Y-113000000D03*
X93500000Y-121000000D03*
X93500000Y-119400000D03*
X137850000Y-120650000D03*
X139450000Y-120650000D03*
X74450000Y-107800000D03*
X74450000Y-109400000D03*
X97750000Y-113250000D03*
X99350000Y-113250000D03*
X97750000Y-122000000D03*
X99350000Y-122000000D03*
X91250000Y-109500000D03*
X91250000Y-111100000D03*
X96750000Y-109500000D03*
X96750000Y-111100000D03*
X135100000Y-126500000D03*
X133500000Y-126500000D03*
X135100000Y-125300000D03*
X133500000Y-125300000D03*
D16*
X140000000Y-130000000D03*
X140000000Y-126900000D03*
D15*
X142000000Y-126750000D03*
X142000000Y-128350000D03*
X93500000Y-122250000D03*
X93500000Y-123850000D03*
X69250000Y-105000000D03*
X67650000Y-105000000D03*
D16*
X137750000Y-131250000D03*
X137750000Y-128150000D03*
D15*
X52425000Y-130075000D03*
X54025000Y-130075000D03*
X57200000Y-130100000D03*
X55600000Y-130100000D03*
X52425000Y-122075000D03*
X54025000Y-122075000D03*
X52425000Y-120875000D03*
X54025000Y-120875000D03*
D17*
X54200000Y-113800000D03*
X54200000Y-113150000D03*
X54200000Y-112500000D03*
X54200000Y-111850000D03*
X54200000Y-111200000D03*
D18*
X53700000Y-114500000D03*
X53700000Y-110500000D03*
D19*
X51450000Y-116250000D03*
X51450000Y-108750000D03*
D20*
X144750000Y-126000000D03*
X144750000Y-124900000D03*
X144750000Y-130000000D03*
X144750000Y-128900000D03*
D21*
X90975000Y-115675000D03*
X90975000Y-116175000D03*
X90975000Y-116675000D03*
X90975000Y-117175000D03*
X90975000Y-117675000D03*
X90975000Y-118175000D03*
X90975000Y-118675000D03*
X90975000Y-119175000D03*
X90975000Y-119675000D03*
X90975000Y-120175000D03*
X90975000Y-120675000D03*
X90975000Y-121175000D03*
D22*
X89475000Y-122675000D03*
X88975000Y-122675000D03*
X88475000Y-122675000D03*
X87975000Y-122675000D03*
X87475000Y-122675000D03*
X86975000Y-122675000D03*
X86475000Y-122675000D03*
X85975000Y-122675000D03*
X85475000Y-122675000D03*
X84975000Y-122675000D03*
X84475000Y-122675000D03*
X83975000Y-122675000D03*
D21*
X82475000Y-121175000D03*
X82475000Y-120675000D03*
X82475000Y-120175000D03*
X82475000Y-119675000D03*
X82475000Y-119175000D03*
X82475000Y-118675000D03*
X82475000Y-118175000D03*
X82475000Y-117675000D03*
X82475000Y-117175000D03*
X82475000Y-116675000D03*
X82475000Y-116175000D03*
X82475000Y-115675000D03*
D22*
X83975000Y-114175000D03*
X84475000Y-114175000D03*
X84975000Y-114175000D03*
X85475000Y-114175000D03*
X85975000Y-114175000D03*
X86475000Y-114175000D03*
X86975000Y-114175000D03*
X87475000Y-114175000D03*
X87975000Y-114175000D03*
X88475000Y-114175000D03*
X88975000Y-114175000D03*
X89475000Y-114175000D03*
D23*
X135250000Y-132500000D03*
X134600000Y-132500000D03*
X133950000Y-132500000D03*
X133300000Y-132500000D03*
X133300000Y-128100000D03*
X133950000Y-128100000D03*
X134600000Y-128100000D03*
X135250000Y-128100000D03*
X52225000Y-123875000D03*
X52875000Y-123875000D03*
X53525000Y-123875000D03*
X54175000Y-123875000D03*
X54175000Y-128275000D03*
X53525000Y-128275000D03*
X52875000Y-128275000D03*
X52225000Y-128275000D03*
D24*
X81000000Y-109270000D03*
X81000000Y-108000000D03*
X79730000Y-109270000D03*
X79730000Y-108000000D03*
X78460000Y-109270000D03*
X78460000Y-108000000D03*
X77190000Y-109270000D03*
X77190000Y-108000000D03*
X75920000Y-109270000D03*
X75920000Y-108000000D03*
D15*
X136650000Y-119200000D03*
X135050000Y-119200000D03*
X137850000Y-119200000D03*
X139450000Y-119200000D03*
X95750000Y-117750000D03*
X94150000Y-117750000D03*
X143500000Y-126750000D03*
X143500000Y-125150000D03*
X94750000Y-122250000D03*
X94750000Y-123850000D03*
X142000000Y-130000000D03*
X143600000Y-130000000D03*
X142000000Y-133000000D03*
X142000000Y-131400000D03*
D25*
X98500000Y-132500000D03*
X90900000Y-132500000D03*
D26*
X137250000Y-108000000D03*
X139250000Y-108000000D03*
X141250000Y-108000000D03*
X133250000Y-108000000D03*
X135250000Y-108000000D03*
D25*
X137250000Y-122500000D03*
X139750000Y-122500000D03*
X134750000Y-122500000D03*
D27*
X131650000Y-115000000D03*
X142850000Y-115000000D03*
D28*
X98475000Y-119875000D03*
X98475000Y-115375000D03*
D25*
X67090000Y-102600000D03*
X69630000Y-102600000D03*
X72170000Y-102600000D03*
X74710000Y-102600000D03*
X77250000Y-102600000D03*
X79790000Y-102600000D03*
X82330000Y-102600000D03*
X84870000Y-102600000D03*
X87410000Y-102600000D03*
X89950000Y-102600000D03*
X92490000Y-102600000D03*
X95030000Y-102600000D03*
X97570000Y-102600000D03*
X100110000Y-102600000D03*
X102650000Y-102600000D03*
X105190000Y-102600000D03*
X107730000Y-102600000D03*
X110270000Y-102600000D03*
X112810000Y-102600000D03*
X115350000Y-102600000D03*
D29*
X59900000Y-133100000D03*
X59900000Y-101900000D03*
X122600000Y-101900000D03*
X122600000Y-133100000D03*
D30*
X54000000Y-104000000D03*
D31*
X54000000Y-101500000D03*
X56500000Y-104000000D03*
X54000000Y-106500000D03*
X51500000Y-104000000D03*
X52200000Y-102200000D03*
X55800000Y-102200000D03*
X52200000Y-105800000D03*
X55800000Y-105800000D03*
D30*
X146000000Y-136000000D03*
D31*
X146000000Y-133500000D03*
X148500000Y-136000000D03*
X146000000Y-138500000D03*
X143500000Y-136000000D03*
X144200000Y-134200000D03*
X147800000Y-134200000D03*
X144200000Y-137800000D03*
X147800000Y-137800000D03*
D30*
X54000000Y-136000000D03*
D31*
X54000000Y-133500000D03*
X56500000Y-136000000D03*
X54000000Y-138500000D03*
X51500000Y-136000000D03*
X52200000Y-134200000D03*
X55800000Y-134200000D03*
X52200000Y-137800000D03*
X55800000Y-137800000D03*
D30*
X146000000Y-104000000D03*
D31*
X146000000Y-101500000D03*
X148500000Y-104000000D03*
X146000000Y-106500000D03*
X143500000Y-104000000D03*
X144200000Y-102200000D03*
X147800000Y-102200000D03*
X144200000Y-105800000D03*
X147800000Y-105800000D03*
D32*
X147000000Y-130000000D03*
X147000000Y-124920000D03*
D15*
X82250000Y-124250000D03*
X83850000Y-124250000D03*
D25*
X67690000Y-135770000D03*
X67690000Y-133230000D03*
X70230000Y-135770000D03*
X70230000Y-133230000D03*
X72770000Y-135770000D03*
X72770000Y-133230000D03*
D33*
X75310000Y-135770000D03*
D25*
X75310000Y-133230000D03*
D15*
X82800000Y-135500000D03*
X82800000Y-137100000D03*
X87000000Y-129500000D03*
X87000000Y-127900000D03*
X82750000Y-133500000D03*
X82750000Y-131900000D03*
X84500000Y-129500000D03*
X84500000Y-127900000D03*
D23*
X86250000Y-136500000D03*
X85600000Y-136500000D03*
X84950000Y-136500000D03*
X84300000Y-136500000D03*
X84300000Y-132100000D03*
X84950000Y-132100000D03*
X85600000Y-132100000D03*
X86250000Y-132100000D03*
D15*
X85750000Y-129500000D03*
X85750000Y-127900000D03*
D25*
X76020000Y-124795000D03*
X76020000Y-122255000D03*
X76020000Y-119715000D03*
X76020000Y-117175000D03*
X78560000Y-117175000D03*
X78560000Y-119715000D03*
X78560000Y-122255000D03*
X78560000Y-124795000D03*
D34*
X92500000Y-113000000D03*
X92500000Y-107500000D03*
X95700000Y-113000000D03*
X95700000Y-107500000D03*
M02*
