G04 #@! TF.FileFunction,Legend,Bot*
%FSLAX46Y46*%
G04 Gerber Fmt 4.6, Leading zero omitted, Abs format (unit mm)*
G04 Created by KiCad (PCBNEW 0.201508100901+6080~28~ubuntu14.04.1-product) date Wed 07 Oct 2015 01:26:35 BST*
%MOMM*%
G01*
G04 APERTURE LIST*
%ADD10C,0.100000*%
%ADD11C,0.300000*%
%ADD12C,0.500000*%
%ADD13C,0.150000*%
%ADD14C,0.200000*%
%ADD15R,3.600000X2.600000*%
%ADD16R,0.800000X0.800000*%
%ADD17R,1.700000X1.200000*%
%ADD18R,1.400000X0.400000*%
%ADD19C,0.650000*%
%ADD20R,1.900000X2.300000*%
%ADD21R,0.500000X0.600000*%
%ADD22R,1.200000X0.300000*%
%ADD23R,0.300000X1.200000*%
%ADD24R,0.400000X1.400000*%
%ADD25C,1.016000*%
%ADD26C,2.000000*%
%ADD27C,1.600000*%
%ADD28C,3.200000*%
%ADD29R,2.500000X2.300000*%
%ADD30C,6.300000*%
%ADD31C,0.600000*%
%ADD32C,3.000000*%
%ADD33R,2.000000X2.000000*%
%ADD34C,2.500000*%
%ADD35R,1.300000X2.400000*%
%ADD36R,3.800000X2.400000*%
%ADD37R,0.800000X1.300000*%
%ADD38C,0.787000*%
%ADD39C,1.000000*%
G04 APERTURE END LIST*
D10*
D11*
X122321429Y-127999999D02*
X121107143Y-127999999D01*
X120964286Y-127928571D01*
X120892857Y-127857142D01*
X120821429Y-127714285D01*
X120821429Y-127428571D01*
X120892857Y-127285713D01*
X120964286Y-127214285D01*
X121107143Y-127142856D01*
X122321429Y-127142856D01*
X120892857Y-126499999D02*
X120821429Y-126285713D01*
X120821429Y-125928570D01*
X120892857Y-125785713D01*
X120964286Y-125714284D01*
X121107143Y-125642856D01*
X121250000Y-125642856D01*
X121392857Y-125714284D01*
X121464286Y-125785713D01*
X121535714Y-125928570D01*
X121607143Y-126214284D01*
X121678571Y-126357142D01*
X121750000Y-126428570D01*
X121892857Y-126499999D01*
X122035714Y-126499999D01*
X122178571Y-126428570D01*
X122250000Y-126357142D01*
X122321429Y-126214284D01*
X122321429Y-125857142D01*
X122250000Y-125642856D01*
X121607143Y-124999999D02*
X121607143Y-124499999D01*
X120821429Y-124285713D02*
X120821429Y-124999999D01*
X122321429Y-124999999D01*
X122321429Y-124285713D01*
X120964286Y-121642856D02*
X120892857Y-121714285D01*
X120821429Y-121928571D01*
X120821429Y-122071428D01*
X120892857Y-122285713D01*
X121035714Y-122428571D01*
X121178571Y-122499999D01*
X121464286Y-122571428D01*
X121678571Y-122571428D01*
X121964286Y-122499999D01*
X122107143Y-122428571D01*
X122250000Y-122285713D01*
X122321429Y-122071428D01*
X122321429Y-121928571D01*
X122250000Y-121714285D01*
X122178571Y-121642856D01*
X120821429Y-120142856D02*
X121535714Y-120642856D01*
X120821429Y-120999999D02*
X122321429Y-120999999D01*
X122321429Y-120428571D01*
X122250000Y-120285713D01*
X122178571Y-120214285D01*
X122035714Y-120142856D01*
X121821429Y-120142856D01*
X121678571Y-120214285D01*
X121607143Y-120285713D01*
X121535714Y-120428571D01*
X121535714Y-120999999D01*
X122178571Y-119571428D02*
X122250000Y-119499999D01*
X122321429Y-119357142D01*
X122321429Y-118999999D01*
X122250000Y-118857142D01*
X122178571Y-118785713D01*
X122035714Y-118714285D01*
X121892857Y-118714285D01*
X121678571Y-118785713D01*
X120821429Y-119642856D01*
X120821429Y-118714285D01*
X122321429Y-117785714D02*
X122321429Y-117642857D01*
X122250000Y-117500000D01*
X122178571Y-117428571D01*
X122035714Y-117357142D01*
X121750000Y-117285714D01*
X121392857Y-117285714D01*
X121107143Y-117357142D01*
X120964286Y-117428571D01*
X120892857Y-117500000D01*
X120821429Y-117642857D01*
X120821429Y-117785714D01*
X120892857Y-117928571D01*
X120964286Y-118000000D01*
X121107143Y-118071428D01*
X121392857Y-118142857D01*
X121750000Y-118142857D01*
X122035714Y-118071428D01*
X122178571Y-118000000D01*
X122250000Y-117928571D01*
X122321429Y-117785714D01*
X122321429Y-116785714D02*
X122321429Y-115857143D01*
X121750000Y-116357143D01*
X121750000Y-116142857D01*
X121678571Y-116000000D01*
X121607143Y-115928571D01*
X121464286Y-115857143D01*
X121107143Y-115857143D01*
X120964286Y-115928571D01*
X120892857Y-116000000D01*
X120821429Y-116142857D01*
X120821429Y-116571429D01*
X120892857Y-116714286D01*
X120964286Y-116785714D01*
X122178571Y-115285715D02*
X122250000Y-115214286D01*
X122321429Y-115071429D01*
X122321429Y-114714286D01*
X122250000Y-114571429D01*
X122178571Y-114500000D01*
X122035714Y-114428572D01*
X121892857Y-114428572D01*
X121678571Y-114500000D01*
X120821429Y-115357143D01*
X120821429Y-114428572D01*
D12*
X105500000Y-109000000D02*
X107500000Y-109000000D01*
X116900000Y-134500000D02*
X118900000Y-134500000D01*
X117900000Y-133500000D02*
X117900000Y-135500000D01*
D11*
X141464283Y-137678571D02*
X141464283Y-136678571D01*
X141464283Y-136964286D02*
X141392855Y-136821429D01*
X141321426Y-136750000D01*
X141178569Y-136678571D01*
X141035712Y-136678571D01*
X140607141Y-136321429D02*
X140535712Y-136250000D01*
X140392855Y-136178571D01*
X140035712Y-136178571D01*
X139892855Y-136250000D01*
X139821426Y-136321429D01*
X139749998Y-136464286D01*
X139749998Y-136607143D01*
X139821426Y-136821429D01*
X140678569Y-137678571D01*
X139749998Y-137678571D01*
X138035713Y-136321429D02*
X137964284Y-136250000D01*
X137821427Y-136178571D01*
X137464284Y-136178571D01*
X137321427Y-136250000D01*
X137249998Y-136321429D01*
X137178570Y-136464286D01*
X137178570Y-136607143D01*
X137249998Y-136821429D01*
X138107141Y-137678571D01*
X137178570Y-137678571D01*
X136249999Y-136178571D02*
X136107142Y-136178571D01*
X135964285Y-136250000D01*
X135892856Y-136321429D01*
X135821427Y-136464286D01*
X135749999Y-136750000D01*
X135749999Y-137107143D01*
X135821427Y-137392857D01*
X135892856Y-137535714D01*
X135964285Y-137607143D01*
X136107142Y-137678571D01*
X136249999Y-137678571D01*
X136392856Y-137607143D01*
X136464285Y-137535714D01*
X136535713Y-137392857D01*
X136607142Y-137107143D01*
X136607142Y-136750000D01*
X136535713Y-136464286D01*
X136464285Y-136321429D01*
X136392856Y-136250000D01*
X136249999Y-136178571D01*
X134321428Y-137678571D02*
X135178571Y-137678571D01*
X134749999Y-137678571D02*
X134749999Y-136178571D01*
X134892856Y-136392857D01*
X135035714Y-136535714D01*
X135178571Y-136607143D01*
X132964285Y-136178571D02*
X133678571Y-136178571D01*
X133750000Y-136892857D01*
X133678571Y-136821429D01*
X133535714Y-136750000D01*
X133178571Y-136750000D01*
X133035714Y-136821429D01*
X132964285Y-136892857D01*
X132892857Y-137035714D01*
X132892857Y-137392857D01*
X132964285Y-137535714D01*
X133035714Y-137607143D01*
X133178571Y-137678571D01*
X133535714Y-137678571D01*
X133678571Y-137607143D01*
X133750000Y-137535714D01*
X132250000Y-137107143D02*
X131107143Y-137107143D01*
X129607143Y-137678571D02*
X130464286Y-137678571D01*
X130035714Y-137678571D02*
X130035714Y-136178571D01*
X130178571Y-136392857D01*
X130321429Y-136535714D01*
X130464286Y-136607143D01*
X128678572Y-136178571D02*
X128535715Y-136178571D01*
X128392858Y-136250000D01*
X128321429Y-136321429D01*
X128250000Y-136464286D01*
X128178572Y-136750000D01*
X128178572Y-137107143D01*
X128250000Y-137392857D01*
X128321429Y-137535714D01*
X128392858Y-137607143D01*
X128535715Y-137678571D01*
X128678572Y-137678571D01*
X128821429Y-137607143D01*
X128892858Y-137535714D01*
X128964286Y-137392857D01*
X129035715Y-137107143D01*
X129035715Y-136750000D01*
X128964286Y-136464286D01*
X128892858Y-136321429D01*
X128821429Y-136250000D01*
X128678572Y-136178571D01*
X127535715Y-137107143D02*
X126392858Y-137107143D01*
X125392858Y-136178571D02*
X125250001Y-136178571D01*
X125107144Y-136250000D01*
X125035715Y-136321429D01*
X124964286Y-136464286D01*
X124892858Y-136750000D01*
X124892858Y-137107143D01*
X124964286Y-137392857D01*
X125035715Y-137535714D01*
X125107144Y-137607143D01*
X125250001Y-137678571D01*
X125392858Y-137678571D01*
X125535715Y-137607143D01*
X125607144Y-137535714D01*
X125678572Y-137392857D01*
X125750001Y-137107143D01*
X125750001Y-136750000D01*
X125678572Y-136464286D01*
X125607144Y-136321429D01*
X125535715Y-136250000D01*
X125392858Y-136178571D01*
X124392858Y-136178571D02*
X123392858Y-136178571D01*
X124035715Y-137678571D01*
X105071429Y-105757143D02*
X104857143Y-105828571D01*
X104500000Y-105828571D01*
X104357143Y-105757143D01*
X104285714Y-105685714D01*
X104214286Y-105542857D01*
X104214286Y-105400000D01*
X104285714Y-105257143D01*
X104357143Y-105185714D01*
X104500000Y-105114286D01*
X104785714Y-105042857D01*
X104928572Y-104971429D01*
X105000000Y-104900000D01*
X105071429Y-104757143D01*
X105071429Y-104614286D01*
X105000000Y-104471429D01*
X104928572Y-104400000D01*
X104785714Y-104328571D01*
X104428572Y-104328571D01*
X104214286Y-104400000D01*
X103571429Y-104328571D02*
X103571429Y-105542857D01*
X103500001Y-105685714D01*
X103428572Y-105757143D01*
X103285715Y-105828571D01*
X103000001Y-105828571D01*
X102857143Y-105757143D01*
X102785715Y-105685714D01*
X102714286Y-105542857D01*
X102714286Y-104328571D01*
X102000000Y-105828571D02*
X102000000Y-104328571D01*
X101428572Y-104328571D01*
X101285714Y-104400000D01*
X101214286Y-104471429D01*
X101142857Y-104614286D01*
X101142857Y-104828571D01*
X101214286Y-104971429D01*
X101285714Y-105042857D01*
X101428572Y-105114286D01*
X102000000Y-105114286D01*
X100500000Y-105042857D02*
X100000000Y-105042857D01*
X99785714Y-105828571D02*
X100500000Y-105828571D01*
X100500000Y-104328571D01*
X99785714Y-104328571D01*
X98285714Y-105828571D02*
X98785714Y-105114286D01*
X99142857Y-105828571D02*
X99142857Y-104328571D01*
X98571429Y-104328571D01*
X98428571Y-104400000D01*
X98357143Y-104471429D01*
X98285714Y-104614286D01*
X98285714Y-104828571D01*
X98357143Y-104971429D01*
X98428571Y-105042857D01*
X98571429Y-105114286D01*
X99142857Y-105114286D01*
X97857143Y-104328571D02*
X97357143Y-105828571D01*
X96857143Y-104328571D01*
X96357143Y-105828571D02*
X96357143Y-104328571D01*
X95642857Y-105828571D02*
X95642857Y-104328571D01*
X95285714Y-104328571D01*
X95071429Y-104400000D01*
X94928571Y-104542857D01*
X94857143Y-104685714D01*
X94785714Y-104971429D01*
X94785714Y-105185714D01*
X94857143Y-105471429D01*
X94928571Y-105614286D01*
X95071429Y-105757143D01*
X95285714Y-105828571D01*
X95642857Y-105828571D01*
X94142857Y-105042857D02*
X93642857Y-105042857D01*
X93428571Y-105828571D02*
X94142857Y-105828571D01*
X94142857Y-104328571D01*
X93428571Y-104328571D01*
X107321429Y-108085714D02*
X107392858Y-108157143D01*
X107607144Y-108228571D01*
X107750001Y-108228571D01*
X107964286Y-108157143D01*
X108107144Y-108014286D01*
X108178572Y-107871429D01*
X108250001Y-107585714D01*
X108250001Y-107371429D01*
X108178572Y-107085714D01*
X108107144Y-106942857D01*
X107964286Y-106800000D01*
X107750001Y-106728571D01*
X107607144Y-106728571D01*
X107392858Y-106800000D01*
X107321429Y-106871429D01*
X106392858Y-106728571D02*
X106107144Y-106728571D01*
X105964286Y-106800000D01*
X105821429Y-106942857D01*
X105750001Y-107228571D01*
X105750001Y-107728571D01*
X105821429Y-108014286D01*
X105964286Y-108157143D01*
X106107144Y-108228571D01*
X106392858Y-108228571D01*
X106535715Y-108157143D01*
X106678572Y-108014286D01*
X106750001Y-107728571D01*
X106750001Y-107228571D01*
X106678572Y-106942857D01*
X106535715Y-106800000D01*
X106392858Y-106728571D01*
X105107143Y-108228571D02*
X105107143Y-106728571D01*
X104250000Y-108228571D01*
X104250000Y-106728571D01*
X103750000Y-106728571D02*
X102892857Y-106728571D01*
X103321428Y-108228571D02*
X103321428Y-106728571D01*
X101535714Y-108228571D02*
X102035714Y-107514286D01*
X102392857Y-108228571D02*
X102392857Y-106728571D01*
X101821429Y-106728571D01*
X101678571Y-106800000D01*
X101607143Y-106871429D01*
X101535714Y-107014286D01*
X101535714Y-107228571D01*
X101607143Y-107371429D01*
X101678571Y-107442857D01*
X101821429Y-107514286D01*
X102392857Y-107514286D01*
X100607143Y-106728571D02*
X100321429Y-106728571D01*
X100178571Y-106800000D01*
X100035714Y-106942857D01*
X99964286Y-107228571D01*
X99964286Y-107728571D01*
X100035714Y-108014286D01*
X100178571Y-108157143D01*
X100321429Y-108228571D01*
X100607143Y-108228571D01*
X100750000Y-108157143D01*
X100892857Y-108014286D01*
X100964286Y-107728571D01*
X100964286Y-107228571D01*
X100892857Y-106942857D01*
X100750000Y-106800000D01*
X100607143Y-106728571D01*
X98607142Y-108228571D02*
X99321428Y-108228571D01*
X99321428Y-106728571D01*
X96464285Y-107442857D02*
X96249999Y-107514286D01*
X96178571Y-107585714D01*
X96107142Y-107728571D01*
X96107142Y-107942857D01*
X96178571Y-108085714D01*
X96249999Y-108157143D01*
X96392857Y-108228571D01*
X96964285Y-108228571D01*
X96964285Y-106728571D01*
X96464285Y-106728571D01*
X96321428Y-106800000D01*
X96249999Y-106871429D01*
X96178571Y-107014286D01*
X96178571Y-107157143D01*
X96249999Y-107300000D01*
X96321428Y-107371429D01*
X96464285Y-107442857D01*
X96964285Y-107442857D01*
X95178571Y-106728571D02*
X94892857Y-106728571D01*
X94749999Y-106800000D01*
X94607142Y-106942857D01*
X94535714Y-107228571D01*
X94535714Y-107728571D01*
X94607142Y-108014286D01*
X94749999Y-108157143D01*
X94892857Y-108228571D01*
X95178571Y-108228571D01*
X95321428Y-108157143D01*
X95464285Y-108014286D01*
X95535714Y-107728571D01*
X95535714Y-107228571D01*
X95464285Y-106942857D01*
X95321428Y-106800000D01*
X95178571Y-106728571D01*
X93964285Y-107800000D02*
X93249999Y-107800000D01*
X94107142Y-108228571D02*
X93607142Y-106728571D01*
X93107142Y-108228571D01*
X91749999Y-108228571D02*
X92249999Y-107514286D01*
X92607142Y-108228571D02*
X92607142Y-106728571D01*
X92035714Y-106728571D01*
X91892856Y-106800000D01*
X91821428Y-106871429D01*
X91749999Y-107014286D01*
X91749999Y-107228571D01*
X91821428Y-107371429D01*
X91892856Y-107442857D01*
X92035714Y-107514286D01*
X92607142Y-107514286D01*
X91107142Y-108228571D02*
X91107142Y-106728571D01*
X90749999Y-106728571D01*
X90535714Y-106800000D01*
X90392856Y-106942857D01*
X90321428Y-107085714D01*
X90249999Y-107371429D01*
X90249999Y-107585714D01*
X90321428Y-107871429D01*
X90392856Y-108014286D01*
X90535714Y-108157143D01*
X90749999Y-108228571D01*
X91107142Y-108228571D01*
X147642857Y-121250000D02*
X147785714Y-121178571D01*
X148000000Y-121178571D01*
X148214285Y-121250000D01*
X148357143Y-121392857D01*
X148428571Y-121535714D01*
X148500000Y-121821429D01*
X148500000Y-122035714D01*
X148428571Y-122321429D01*
X148357143Y-122464286D01*
X148214285Y-122607143D01*
X148000000Y-122678571D01*
X147857143Y-122678571D01*
X147642857Y-122607143D01*
X147571428Y-122535714D01*
X147571428Y-122035714D01*
X147857143Y-122035714D01*
X146071428Y-122678571D02*
X146571428Y-121964286D01*
X146928571Y-122678571D02*
X146928571Y-121178571D01*
X146357143Y-121178571D01*
X146214285Y-121250000D01*
X146142857Y-121321429D01*
X146071428Y-121464286D01*
X146071428Y-121678571D01*
X146142857Y-121821429D01*
X146214285Y-121892857D01*
X146357143Y-121964286D01*
X146928571Y-121964286D01*
X145428571Y-122678571D02*
X145428571Y-121178571D01*
X144571428Y-122678571D01*
X144571428Y-121178571D01*
D12*
X116900000Y-109000000D02*
X118900000Y-109000000D01*
X105500000Y-134500000D02*
X107500000Y-134500000D01*
X106500000Y-133500000D02*
X106500000Y-135500000D01*
D13*
X109700000Y-132750000D02*
X109700000Y-135750000D01*
X109700000Y-110750000D02*
X109700000Y-107500000D01*
X114700000Y-110750000D02*
X114700000Y-107500000D01*
X120200000Y-132750000D02*
X120200000Y-110750000D01*
X114700000Y-135750000D02*
X114700000Y-132750000D01*
X120200000Y-110750000D02*
X114700000Y-110750000D01*
X114700000Y-107500000D02*
X109700000Y-107500000D01*
X109700000Y-110750000D02*
X104200000Y-110750000D01*
X104200000Y-110750000D02*
X104200000Y-132750000D01*
X104200000Y-132750000D02*
X109700000Y-132750000D01*
X109700000Y-135750000D02*
X114450000Y-135750000D01*
X114450000Y-135750000D02*
X114700000Y-135750000D01*
X114700000Y-132750000D02*
X120200000Y-132750000D01*
X134650000Y-120150000D02*
X137050000Y-120150000D01*
X134650000Y-121150000D02*
X137050000Y-121150000D01*
X81900000Y-112300000D02*
X79500000Y-112300000D01*
X81900000Y-111300000D02*
X79500000Y-111300000D01*
X92500000Y-111600000D02*
X90100000Y-111600000D01*
X92500000Y-110600000D02*
X90100000Y-110600000D01*
X94250000Y-121400000D02*
X94250000Y-119000000D01*
X95250000Y-121400000D02*
X95250000Y-119000000D01*
X92500000Y-113200000D02*
X90100000Y-113200000D01*
X92500000Y-112200000D02*
X90100000Y-112200000D01*
X81900000Y-113500000D02*
X79500000Y-113500000D01*
X81900000Y-112500000D02*
X79500000Y-112500000D01*
X93000000Y-121400000D02*
X93000000Y-119000000D01*
X94000000Y-121400000D02*
X94000000Y-119000000D01*
X137450000Y-120150000D02*
X139850000Y-120150000D01*
X137450000Y-121150000D02*
X139850000Y-121150000D01*
X74950000Y-107400000D02*
X74950000Y-109800000D01*
X73950000Y-107400000D02*
X73950000Y-109800000D01*
X97350000Y-112750000D02*
X99750000Y-112750000D01*
X97350000Y-113750000D02*
X99750000Y-113750000D01*
X97350000Y-121500000D02*
X99750000Y-121500000D01*
X97350000Y-122500000D02*
X99750000Y-122500000D01*
X93900000Y-110700000D02*
X93900000Y-113100000D01*
X92900000Y-110700000D02*
X92900000Y-113100000D01*
X95200000Y-110700000D02*
X95200000Y-113100000D01*
X94200000Y-110700000D02*
X94200000Y-113100000D01*
X135500000Y-127000000D02*
X133100000Y-127000000D01*
X135500000Y-126000000D02*
X133100000Y-126000000D01*
X135500000Y-125800000D02*
X133100000Y-125800000D01*
X135500000Y-124800000D02*
X133100000Y-124800000D01*
X139000000Y-130600000D02*
X139000000Y-126300000D01*
X141000000Y-130600000D02*
X141000000Y-126300000D01*
X142500000Y-126350000D02*
X142500000Y-128750000D01*
X141500000Y-126350000D02*
X141500000Y-128750000D01*
X94000000Y-121850000D02*
X94000000Y-124250000D01*
X93000000Y-121850000D02*
X93000000Y-124250000D01*
X69650000Y-105500000D02*
X67250000Y-105500000D01*
X69650000Y-104500000D02*
X67250000Y-104500000D01*
X136750000Y-131850000D02*
X136750000Y-127550000D01*
X138750000Y-131850000D02*
X138750000Y-127550000D01*
X52025000Y-129575000D02*
X54425000Y-129575000D01*
X52025000Y-130575000D02*
X54425000Y-130575000D01*
X57600000Y-130600000D02*
X55200000Y-130600000D01*
X57600000Y-129600000D02*
X55200000Y-129600000D01*
X52025000Y-121575000D02*
X54425000Y-121575000D01*
X52025000Y-122575000D02*
X54425000Y-122575000D01*
X52025000Y-120375000D02*
X54425000Y-120375000D01*
X52025000Y-121375000D02*
X54425000Y-121375000D01*
X50450000Y-108750000D02*
X49700000Y-108750000D01*
X49700000Y-108750000D02*
X49200000Y-108500000D01*
X50450000Y-116250000D02*
X49700000Y-116250000D01*
X49700000Y-116250000D02*
X49200000Y-116500000D01*
X54200000Y-110750000D02*
X54200000Y-108750000D01*
X54200000Y-108750000D02*
X52450000Y-108750000D01*
X52450000Y-116250000D02*
X54200000Y-116250000D01*
X54200000Y-116250000D02*
X54200000Y-114250000D01*
X50000000Y-117500000D02*
X50000000Y-107500000D01*
X144400000Y-126300000D02*
X144400000Y-124600000D01*
X145100000Y-126300000D02*
X145100000Y-124600000D01*
X144400000Y-130300000D02*
X144400000Y-128600000D01*
X145100000Y-130300000D02*
X145100000Y-128600000D01*
X91175000Y-114675000D02*
G75*
G03X91175000Y-114675000I-200000J0D01*
G01*
X91075000Y-114675000D02*
G75*
G03X91075000Y-114675000I-100000J0D01*
G01*
X82475000Y-115175000D02*
X82475000Y-114175000D01*
X82475000Y-114175000D02*
X83475000Y-114175000D01*
X82475000Y-121675000D02*
X82475000Y-122675000D01*
X82475000Y-122675000D02*
X83475000Y-122675000D01*
X90975000Y-121675000D02*
X90975000Y-122675000D01*
X90975000Y-122675000D02*
X89975000Y-122675000D01*
X89975000Y-114175000D02*
X90975000Y-114175000D01*
X90975000Y-114175000D02*
X90975000Y-115175000D01*
X135950000Y-132500000D02*
G75*
G03X135950000Y-132500000I-200000J0D01*
G01*
X135850000Y-132500000D02*
G75*
G03X135850000Y-132500000I-100000J0D01*
G01*
X132750000Y-132500000D02*
X132750000Y-128000000D01*
X135750000Y-132500000D02*
X135750000Y-128000000D01*
X51925000Y-123875000D02*
G75*
G03X51925000Y-123875000I-200000J0D01*
G01*
X51825000Y-123875000D02*
G75*
G03X51825000Y-123875000I-100000J0D01*
G01*
X54725000Y-123875000D02*
X54725000Y-128375000D01*
X51725000Y-123875000D02*
X51725000Y-128375000D01*
X75920000Y-110349500D02*
X75920000Y-111175000D01*
X75920000Y-111175000D02*
X77380500Y-111175000D01*
X77380500Y-111175000D02*
X77380500Y-110349500D01*
X81000000Y-110349500D02*
X81000000Y-111175000D01*
X81000000Y-111175000D02*
X79539500Y-111175000D01*
X79539500Y-111175000D02*
X79539500Y-110349500D01*
X81000000Y-106920500D02*
X81000000Y-106095000D01*
X81000000Y-106095000D02*
X75920000Y-106095000D01*
X75920000Y-106095000D02*
X75920000Y-106920500D01*
X78460000Y-106920500D02*
X75285000Y-106920500D01*
X75285000Y-106920500D02*
X75285000Y-110349500D01*
X75285000Y-110349500D02*
X81635000Y-110349500D01*
X81635000Y-110349500D02*
X81635000Y-106920500D01*
X81635000Y-106920500D02*
X78460000Y-106920500D01*
X137050000Y-119700000D02*
X134650000Y-119700000D01*
X137050000Y-118700000D02*
X134650000Y-118700000D01*
X137450000Y-118700000D02*
X139850000Y-118700000D01*
X137450000Y-119700000D02*
X139850000Y-119700000D01*
X96150000Y-118250000D02*
X93750000Y-118250000D01*
X96150000Y-117250000D02*
X93750000Y-117250000D01*
X143000000Y-127150000D02*
X143000000Y-124750000D01*
X144000000Y-127150000D02*
X144000000Y-124750000D01*
X95250000Y-121850000D02*
X95250000Y-124250000D01*
X94250000Y-121850000D02*
X94250000Y-124250000D01*
X141600000Y-129500000D02*
X144000000Y-129500000D01*
X141600000Y-130500000D02*
X144000000Y-130500000D01*
X141500000Y-133400000D02*
X141500000Y-131000000D01*
X142500000Y-133400000D02*
X142500000Y-131000000D01*
X95000000Y-132500000D02*
G75*
G03X95000000Y-132500000I-7000000J0D01*
G01*
X100075000Y-119925000D02*
X100075000Y-115325000D01*
X99875000Y-115125000D02*
X100075000Y-115325000D01*
X99875000Y-120125000D02*
X100075000Y-119925000D01*
X96875000Y-119975000D02*
X96875000Y-115275000D01*
X97075000Y-120125000D02*
X96875000Y-119975000D01*
X97075000Y-115125000D02*
X96875000Y-115275000D01*
X81850000Y-123750000D02*
X84250000Y-123750000D01*
X81850000Y-124750000D02*
X84250000Y-124750000D01*
X80853553Y-139000000D02*
G75*
G03X80853553Y-139000000I-353553J0D01*
G01*
X80750000Y-139000000D02*
G75*
G03X80750000Y-139000000I-250000J0D01*
G01*
X73500000Y-139000000D02*
X80500000Y-139000000D01*
X62500000Y-139000000D02*
X69500000Y-139000000D01*
X69500000Y-139000000D02*
X69500000Y-138000000D01*
X69500000Y-138000000D02*
X73500000Y-138000000D01*
X73500000Y-138000000D02*
X73500000Y-139000000D01*
X80500000Y-139000000D02*
X80500000Y-130000000D01*
X80500000Y-130000000D02*
X62500000Y-130000000D01*
X62500000Y-130000000D02*
X62500000Y-139000000D01*
X96500000Y-132350000D02*
X96500000Y-134750000D01*
X95500000Y-132350000D02*
X95500000Y-134750000D01*
X97750000Y-132350000D02*
X97750000Y-134750000D01*
X96750000Y-132350000D02*
X96750000Y-134750000D01*
X104750000Y-138650000D02*
X104750000Y-136250000D01*
X105750000Y-138650000D02*
X105750000Y-136250000D01*
X106000000Y-138650000D02*
X106000000Y-136250000D01*
X107000000Y-138650000D02*
X107000000Y-136250000D01*
X99200000Y-137250000D02*
G75*
G03X99200000Y-137250000I-200000J0D01*
G01*
X99100000Y-137250000D02*
G75*
G03X99100000Y-137250000I-100000J0D01*
G01*
X99000000Y-134250000D02*
X103500000Y-134250000D01*
X99000000Y-137250000D02*
X103500000Y-137250000D01*
X103900000Y-138500000D02*
X101500000Y-138500000D01*
X103900000Y-137500000D02*
X101500000Y-137500000D01*
X62700000Y-115800000D02*
X62700000Y-121800000D01*
X56700000Y-126800000D02*
X56700000Y-121800000D01*
X56700000Y-121800000D02*
X60700000Y-121800000D01*
X60700000Y-121800000D02*
X60700000Y-120800000D01*
X60700000Y-120800000D02*
X56700000Y-120800000D01*
X56700000Y-120800000D02*
X56700000Y-119800000D01*
X56700000Y-119800000D02*
X60700000Y-119800000D01*
X60700000Y-119800000D02*
X60700000Y-118800000D01*
X60700000Y-118800000D02*
X56700000Y-118800000D01*
X56700000Y-118800000D02*
X56700000Y-117800000D01*
X56700000Y-117800000D02*
X60700000Y-117800000D01*
X60700000Y-117800000D02*
X60700000Y-116800000D01*
X60700000Y-116800000D02*
X56700000Y-116800000D01*
X56700000Y-116800000D02*
X56700000Y-115800000D01*
X56700000Y-115800000D02*
X64700000Y-115800000D01*
X55700000Y-113800000D02*
X80500000Y-113800000D01*
X80500000Y-113800000D02*
X80500000Y-128100000D01*
X80500000Y-128100000D02*
X55700000Y-128100000D01*
X55700000Y-128100000D02*
X55700000Y-113800000D01*
X131500000Y-109200000D02*
X131500000Y-111600000D01*
X130500000Y-109200000D02*
X130500000Y-111600000D01*
X68500000Y-124600000D02*
X68500000Y-127000000D01*
X67500000Y-124600000D02*
X67500000Y-127000000D01*
X70500000Y-124600000D02*
X70500000Y-127000000D01*
X69500000Y-124600000D02*
X69500000Y-127000000D01*
X73500000Y-121500000D02*
X73500000Y-117500000D01*
X73500000Y-117500000D02*
X66500000Y-117500000D01*
X66500000Y-117500000D02*
X66500000Y-121500000D01*
X66500000Y-121500000D02*
X73500000Y-121500000D01*
D14*
X92750000Y-113500000D02*
X95350000Y-113500000D01*
X92750000Y-115100000D02*
X95350000Y-115100000D01*
D13*
X88300000Y-110400000D02*
X88300000Y-112800000D01*
X87300000Y-110400000D02*
X87300000Y-112800000D01*
X89600000Y-110400000D02*
X89600000Y-112800000D01*
X88600000Y-110400000D02*
X88600000Y-112800000D01*
X89300000Y-108700000D02*
X89300000Y-108800000D01*
X89200000Y-108500000D02*
X89200000Y-108800000D01*
X88900000Y-108700000D02*
X88900000Y-108800000D01*
X89000000Y-108600000D02*
X89000000Y-108800000D01*
X89100000Y-108400000D02*
X89100000Y-108800000D01*
X88700000Y-108900000D02*
X89500000Y-108900000D01*
X89500000Y-108900000D02*
X89100000Y-108300000D01*
X89100000Y-108300000D02*
X88700000Y-108900000D01*
X89600000Y-107400000D02*
X89600000Y-109900000D01*
X88600000Y-107400000D02*
X88600000Y-109900000D01*
X88000000Y-108700000D02*
X88000000Y-108800000D01*
X87900000Y-108500000D02*
X87900000Y-108800000D01*
X87600000Y-108700000D02*
X87600000Y-108800000D01*
X87700000Y-108600000D02*
X87700000Y-108800000D01*
X87800000Y-108400000D02*
X87800000Y-108800000D01*
X87400000Y-108900000D02*
X88200000Y-108900000D01*
X88200000Y-108900000D02*
X87800000Y-108300000D01*
X87800000Y-108300000D02*
X87400000Y-108900000D01*
X88300000Y-107400000D02*
X88300000Y-109900000D01*
X87300000Y-107400000D02*
X87300000Y-109900000D01*
X130200000Y-109200000D02*
X130200000Y-111600000D01*
X129200000Y-109200000D02*
X129200000Y-111600000D01*
X128900000Y-109200000D02*
X128900000Y-111600000D01*
X127900000Y-109200000D02*
X127900000Y-111600000D01*
X95350000Y-135700000D02*
X95350000Y-137400000D01*
X94650000Y-135700000D02*
X94650000Y-137400000D01*
%LPC*%
D14*
X148000000Y-108000000D02*
X148750000Y-108750000D01*
X147250000Y-108000000D02*
X148750000Y-109500000D01*
X146500000Y-108000000D02*
X148750000Y-110250000D01*
X145750000Y-108000000D02*
X148750000Y-111000000D01*
X145000000Y-108000000D02*
X148750000Y-111750000D01*
X144250000Y-111750000D02*
X145000000Y-112500000D01*
X144250000Y-111000000D02*
X145750000Y-112500000D01*
X144250000Y-110250000D02*
X146500000Y-112500000D01*
X144250000Y-109500000D02*
X147250000Y-112500000D01*
X144250000Y-108750000D02*
X148000000Y-112500000D01*
X144250000Y-108000000D02*
X148750000Y-112500000D01*
X148750000Y-111750000D02*
X148000000Y-112500000D01*
X147250000Y-112500000D02*
X148750000Y-111000000D01*
X148750000Y-110250000D02*
X146500000Y-112500000D01*
X145750000Y-112500000D02*
X148750000Y-109500000D01*
X148750000Y-108750000D02*
X145000000Y-112500000D01*
X144250000Y-108750000D02*
X145000000Y-108000000D01*
X144250000Y-109500000D02*
X145750000Y-108000000D01*
X144250000Y-110250000D02*
X146500000Y-108000000D01*
X144250000Y-111000000D02*
X147250000Y-108000000D01*
X144250000Y-111750000D02*
X148000000Y-108000000D01*
X144250000Y-112500000D02*
X148750000Y-108000000D01*
D15*
X112200000Y-136250000D03*
X112200000Y-106950000D03*
D16*
X135050000Y-120650000D03*
X136650000Y-120650000D03*
X81500000Y-111800000D03*
X79900000Y-111800000D03*
X92100000Y-111100000D03*
X90500000Y-111100000D03*
X94750000Y-121000000D03*
X94750000Y-119400000D03*
X92100000Y-112700000D03*
X90500000Y-112700000D03*
X81500000Y-113000000D03*
X79900000Y-113000000D03*
X93500000Y-121000000D03*
X93500000Y-119400000D03*
X137850000Y-120650000D03*
X139450000Y-120650000D03*
X74450000Y-107800000D03*
X74450000Y-109400000D03*
X97750000Y-113250000D03*
X99350000Y-113250000D03*
X97750000Y-122000000D03*
X99350000Y-122000000D03*
X93400000Y-111100000D03*
X93400000Y-112700000D03*
X94700000Y-111100000D03*
X94700000Y-112700000D03*
X135100000Y-126500000D03*
X133500000Y-126500000D03*
X135100000Y-125300000D03*
X133500000Y-125300000D03*
D17*
X140000000Y-130000000D03*
X140000000Y-126900000D03*
D16*
X142000000Y-126750000D03*
X142000000Y-128350000D03*
X93500000Y-122250000D03*
X93500000Y-123850000D03*
X69250000Y-105000000D03*
X67650000Y-105000000D03*
D17*
X137750000Y-131250000D03*
X137750000Y-128150000D03*
D16*
X52425000Y-130075000D03*
X54025000Y-130075000D03*
X57200000Y-130100000D03*
X55600000Y-130100000D03*
X52425000Y-122075000D03*
X54025000Y-122075000D03*
X52425000Y-120875000D03*
X54025000Y-120875000D03*
D18*
X54200000Y-113800000D03*
X54200000Y-113150000D03*
X54200000Y-112500000D03*
X54200000Y-111850000D03*
X54200000Y-111200000D03*
D19*
X53700000Y-114500000D03*
X53700000Y-110500000D03*
D20*
X51450000Y-116250000D03*
X51450000Y-108750000D03*
D21*
X144750000Y-126000000D03*
X144750000Y-124900000D03*
X144750000Y-130000000D03*
X144750000Y-128900000D03*
D22*
X90975000Y-115675000D03*
X90975000Y-116175000D03*
X90975000Y-116675000D03*
X90975000Y-117175000D03*
X90975000Y-117675000D03*
X90975000Y-118175000D03*
X90975000Y-118675000D03*
X90975000Y-119175000D03*
X90975000Y-119675000D03*
X90975000Y-120175000D03*
X90975000Y-120675000D03*
X90975000Y-121175000D03*
D23*
X89475000Y-122675000D03*
X88975000Y-122675000D03*
X88475000Y-122675000D03*
X87975000Y-122675000D03*
X87475000Y-122675000D03*
X86975000Y-122675000D03*
X86475000Y-122675000D03*
X85975000Y-122675000D03*
X85475000Y-122675000D03*
X84975000Y-122675000D03*
X84475000Y-122675000D03*
X83975000Y-122675000D03*
D22*
X82475000Y-121175000D03*
X82475000Y-120675000D03*
X82475000Y-120175000D03*
X82475000Y-119675000D03*
X82475000Y-119175000D03*
X82475000Y-118675000D03*
X82475000Y-118175000D03*
X82475000Y-117675000D03*
X82475000Y-117175000D03*
X82475000Y-116675000D03*
X82475000Y-116175000D03*
X82475000Y-115675000D03*
D23*
X83975000Y-114175000D03*
X84475000Y-114175000D03*
X84975000Y-114175000D03*
X85475000Y-114175000D03*
X85975000Y-114175000D03*
X86475000Y-114175000D03*
X86975000Y-114175000D03*
X87475000Y-114175000D03*
X87975000Y-114175000D03*
X88475000Y-114175000D03*
X88975000Y-114175000D03*
X89475000Y-114175000D03*
D24*
X135250000Y-132500000D03*
X134600000Y-132500000D03*
X133950000Y-132500000D03*
X133300000Y-132500000D03*
X133300000Y-128100000D03*
X133950000Y-128100000D03*
X134600000Y-128100000D03*
X135250000Y-128100000D03*
X52225000Y-123875000D03*
X52875000Y-123875000D03*
X53525000Y-123875000D03*
X54175000Y-123875000D03*
X54175000Y-128275000D03*
X53525000Y-128275000D03*
X52875000Y-128275000D03*
X52225000Y-128275000D03*
D25*
X81000000Y-109270000D03*
X81000000Y-108000000D03*
X79730000Y-109270000D03*
X79730000Y-108000000D03*
X78460000Y-109270000D03*
X78460000Y-108000000D03*
X77190000Y-109270000D03*
X77190000Y-108000000D03*
X75920000Y-109270000D03*
X75920000Y-108000000D03*
D16*
X136650000Y-119200000D03*
X135050000Y-119200000D03*
X137850000Y-119200000D03*
X139450000Y-119200000D03*
X95750000Y-117750000D03*
X94150000Y-117750000D03*
X143500000Y-126750000D03*
X143500000Y-125150000D03*
X94750000Y-122250000D03*
X94750000Y-123850000D03*
X142000000Y-130000000D03*
X143600000Y-130000000D03*
X142000000Y-133000000D03*
X142000000Y-131400000D03*
D26*
X91750000Y-132500000D03*
X84150000Y-132500000D03*
D27*
X137250000Y-108000000D03*
X139250000Y-108000000D03*
X141250000Y-108000000D03*
X133250000Y-108000000D03*
X135250000Y-108000000D03*
D26*
X137250000Y-122500000D03*
X139750000Y-122500000D03*
X134750000Y-122500000D03*
D28*
X131650000Y-115000000D03*
X142850000Y-115000000D03*
D29*
X98475000Y-119875000D03*
X98475000Y-115375000D03*
D30*
X54000000Y-104000000D03*
D31*
X54000000Y-101500000D03*
X56500000Y-104000000D03*
X54000000Y-106500000D03*
X51500000Y-104000000D03*
X52200000Y-102200000D03*
X55800000Y-102200000D03*
X52200000Y-105800000D03*
X55800000Y-105800000D03*
D30*
X146000000Y-136000000D03*
D31*
X146000000Y-133500000D03*
X148500000Y-136000000D03*
X146000000Y-138500000D03*
X143500000Y-136000000D03*
X144200000Y-134200000D03*
X147800000Y-134200000D03*
X144200000Y-137800000D03*
X147800000Y-137800000D03*
D30*
X54000000Y-136000000D03*
D31*
X54000000Y-133500000D03*
X56500000Y-136000000D03*
X54000000Y-138500000D03*
X51500000Y-136000000D03*
X52200000Y-134200000D03*
X55800000Y-134200000D03*
X52200000Y-137800000D03*
X55800000Y-137800000D03*
D30*
X146000000Y-104000000D03*
D31*
X146000000Y-101500000D03*
X148500000Y-104000000D03*
X146000000Y-106500000D03*
X143500000Y-104000000D03*
X144200000Y-102200000D03*
X147800000Y-102200000D03*
X144200000Y-105800000D03*
X147800000Y-105800000D03*
D32*
X147000000Y-130000000D03*
X147000000Y-124920000D03*
D16*
X82250000Y-124250000D03*
X83850000Y-124250000D03*
D26*
X67690000Y-135770000D03*
X67690000Y-133230000D03*
X70230000Y-135770000D03*
X70230000Y-133230000D03*
X72770000Y-135770000D03*
X72770000Y-133230000D03*
D33*
X75310000Y-135770000D03*
D26*
X75310000Y-133230000D03*
D16*
X96000000Y-132750000D03*
X96000000Y-134350000D03*
X97250000Y-132750000D03*
X97250000Y-134350000D03*
X105250000Y-138250000D03*
X105250000Y-136650000D03*
X106500000Y-138250000D03*
X106500000Y-136650000D03*
D18*
X99000000Y-136750000D03*
X99000000Y-136100000D03*
X99000000Y-135450000D03*
X99000000Y-134800000D03*
X103400000Y-134800000D03*
X103400000Y-135450000D03*
X103400000Y-136100000D03*
X103400000Y-136750000D03*
D16*
X103500000Y-138000000D03*
X101900000Y-138000000D03*
D26*
X76020000Y-124795000D03*
X76020000Y-122255000D03*
X76020000Y-119715000D03*
X76020000Y-117175000D03*
X78560000Y-117175000D03*
X78560000Y-119715000D03*
X78560000Y-122255000D03*
X78560000Y-124795000D03*
X67090000Y-102600000D03*
X69630000Y-102600000D03*
X72170000Y-102600000D03*
X74710000Y-102600000D03*
X77250000Y-102600000D03*
X79790000Y-102600000D03*
X82330000Y-102600000D03*
X84870000Y-102600000D03*
X87410000Y-102600000D03*
X89950000Y-102600000D03*
X92490000Y-102600000D03*
X95030000Y-102600000D03*
X97570000Y-102600000D03*
X100110000Y-102600000D03*
X102650000Y-102600000D03*
X105190000Y-102600000D03*
X107730000Y-102600000D03*
X110270000Y-102600000D03*
X112810000Y-102600000D03*
X115350000Y-102600000D03*
D34*
X59900000Y-133100000D03*
X59900000Y-101900000D03*
X122600000Y-101900000D03*
X122600000Y-133100000D03*
D16*
X131000000Y-109600000D03*
X131000000Y-111200000D03*
D32*
X147000000Y-119000000D03*
D16*
X68000000Y-125000000D03*
X68000000Y-126600000D03*
X70000000Y-125000000D03*
X70000000Y-126600000D03*
D35*
X70000000Y-122500000D03*
X72300000Y-122500000D03*
X67700000Y-122500000D03*
D36*
X70000000Y-116400000D03*
D37*
X93150000Y-114300000D03*
X94950000Y-114300000D03*
D16*
X87800000Y-110800000D03*
X87800000Y-112400000D03*
X89100000Y-110800000D03*
X89100000Y-112400000D03*
X89100000Y-107800000D03*
X89100000Y-109450000D03*
X87800000Y-107800000D03*
X87800000Y-109450000D03*
X129700000Y-109600000D03*
X129700000Y-111200000D03*
X128400000Y-109600000D03*
X128400000Y-111200000D03*
D38*
X71400000Y-109300000D03*
X72670000Y-109300000D03*
X71400000Y-108030000D03*
X72670000Y-108030000D03*
X71400000Y-106760000D03*
X72670000Y-106760000D03*
D39*
X72035000Y-110570000D03*
X71019000Y-105490000D03*
X73051000Y-105490000D03*
D21*
X95000000Y-136000000D03*
X95000000Y-137100000D03*
M02*
