G04 #@! TF.FileFunction,Soldermask,Top*
%FSLAX46Y46*%
G04 Gerber Fmt 4.6, Leading zero omitted, Abs format (unit mm)*
G04 Created by KiCad (PCBNEW 0.201503020946+5465~21~ubuntu14.04.1-product) date Wed 11 Mar 2015 00:00:20 GMT*
%MOMM*%
G01*
G04 APERTURE LIST*
%ADD10C,0.100000*%
%ADD11C,0.650000*%
%ADD12C,1.016000*%
%ADD13C,2.000000*%
%ADD14C,1.600000*%
%ADD15C,3.200000*%
%ADD16C,1.250000*%
%ADD17C,6.300000*%
%ADD18C,0.600000*%
%ADD19C,3.000000*%
%ADD20R,2.000000X2.000000*%
G04 APERTURE END LIST*
D10*
D11*
X53700000Y-114500000D03*
X53700000Y-110500000D03*
D12*
X81000000Y-109270000D03*
X81000000Y-108000000D03*
X79730000Y-109270000D03*
X79730000Y-108000000D03*
X78460000Y-109270000D03*
X78460000Y-108000000D03*
X77190000Y-109270000D03*
X77190000Y-108000000D03*
X75920000Y-109270000D03*
X75920000Y-108000000D03*
D13*
X98500000Y-132500000D03*
X90900000Y-132500000D03*
D14*
X137250000Y-108000000D03*
X139250000Y-108000000D03*
X141250000Y-108000000D03*
X133250000Y-108000000D03*
X135250000Y-108000000D03*
D13*
X137250000Y-122500000D03*
X139750000Y-122500000D03*
X134750000Y-122500000D03*
D15*
X131650000Y-115000000D03*
X142850000Y-115000000D03*
D13*
X67090000Y-102600000D03*
X69630000Y-102600000D03*
X72170000Y-102600000D03*
X74710000Y-102600000D03*
X77250000Y-102600000D03*
X79790000Y-102600000D03*
X82330000Y-102600000D03*
X84870000Y-102600000D03*
X87410000Y-102600000D03*
X89950000Y-102600000D03*
X92490000Y-102600000D03*
X95030000Y-102600000D03*
X97570000Y-102600000D03*
X100110000Y-102600000D03*
X102650000Y-102600000D03*
X105190000Y-102600000D03*
X107730000Y-102600000D03*
X110270000Y-102600000D03*
X112810000Y-102600000D03*
X115350000Y-102600000D03*
D16*
X59900000Y-133100000D03*
X59900000Y-101900000D03*
X122600000Y-101900000D03*
X122600000Y-133100000D03*
D17*
X54000000Y-104000000D03*
D18*
X54000000Y-101500000D03*
X56500000Y-104000000D03*
X54000000Y-106500000D03*
X51500000Y-104000000D03*
X52200000Y-102200000D03*
X55800000Y-102200000D03*
X52200000Y-105800000D03*
X55800000Y-105800000D03*
D17*
X146000000Y-136000000D03*
D18*
X146000000Y-133500000D03*
X148500000Y-136000000D03*
X146000000Y-138500000D03*
X143500000Y-136000000D03*
X144200000Y-134200000D03*
X147800000Y-134200000D03*
X144200000Y-137800000D03*
X147800000Y-137800000D03*
D17*
X54000000Y-136000000D03*
D18*
X54000000Y-133500000D03*
X56500000Y-136000000D03*
X54000000Y-138500000D03*
X51500000Y-136000000D03*
X52200000Y-134200000D03*
X55800000Y-134200000D03*
X52200000Y-137800000D03*
X55800000Y-137800000D03*
D17*
X146000000Y-104000000D03*
D18*
X146000000Y-101500000D03*
X148500000Y-104000000D03*
X146000000Y-106500000D03*
X143500000Y-104000000D03*
X144200000Y-102200000D03*
X147800000Y-102200000D03*
X144200000Y-105800000D03*
X147800000Y-105800000D03*
D19*
X147000000Y-130000000D03*
X147000000Y-124920000D03*
D13*
X67690000Y-135770000D03*
X67690000Y-133230000D03*
X70230000Y-135770000D03*
X70230000Y-133230000D03*
X72770000Y-135770000D03*
X72770000Y-133230000D03*
D20*
X75310000Y-135770000D03*
D13*
X75310000Y-133230000D03*
X76020000Y-124795000D03*
X76020000Y-122255000D03*
X76020000Y-119715000D03*
X76020000Y-117175000D03*
X78560000Y-117175000D03*
X78560000Y-119715000D03*
X78560000Y-122255000D03*
X78560000Y-124795000D03*
M02*
